<?xml version="1.0" encoding="UTF-8" standalone="no"?>
<!-- Created with Inkscape (http://www.inkscape.org/) -->

<svg
   xmlns:dc="http://purl.org/dc/elements/1.1/"
   xmlns:cc="http://creativecommons.org/ns#"
   xmlns:rdf="http://www.w3.org/1999/02/22-rdf-syntax-ns#"
   xmlns:svg="http://www.w3.org/2000/svg"
   xmlns="http://www.w3.org/2000/svg"
   xmlns:sodipodi="http://sodipodi.sourceforge.net/DTD/sodipodi-0.dtd"
   xmlns:inkscape="http://www.inkscape.org/namespaces/inkscape"
   version="1.1"
   id="svg9302"
   width="866.66669"
   height="1304"
   viewBox="0 0 866.66669 1304"
   sodipodi:docname="chilli-white-red.svg"
   inkscape:version="0.92.2 5c3e80d, 2017-08-06">
  <metadata
     id="metadata9308">
    <rdf:RDF>
      <cc:Work
         rdf:about="">
        <dc:format>image/svg+xml</dc:format>
        <dc:type
           rdf:resource="http://purl.org/dc/dcmitype/StillImage" />
        <dc:title></dc:title>
      </cc:Work>
    </rdf:RDF>
  </metadata>
  <defs
     id="defs9306">
    <inkscape:path-effect
       effect="sketch"
       id="path-effect9875"
       is_visible="true"
       nbiter_approxstrokes="8"
       strokelength="100"
       strokelength_rdm="0.3;1"
       strokeoverlap="0.3"
       strokeoverlap_rdm="0.3;1"
       ends_tolerance="0.1;1"
       parallel_offset="5;1"
       tremble_size="5;1"
       tremble_frequency="1"
       nbtangents="5"
       tgt_places_rdmness="1;1"
       tgtscale="10"
       tgtlength="100"
       tgtlength_rdm="0.3;1" />
    <inkscape:path-effect
       back_thickness="0.25"
       front_thickness="1"
       stroke_width_bottom="1"
       stroke_width_top="1"
       fat_output="true"
       bottom_smth_variation="0;1"
       top_smth_variation="0;1"
       scale_tb="1"
       scale_tf="1"
       scale_bb="1"
       scale_bf="1"
       top_tgt_variation="0;1"
       bottom_tgt_variation="0;1"
       top_edge_variation="30.80305;1"
       bottom_edge_variation="30.80305;1"
       bender="578.37038,200.59295 , -7.1590986,22.291681"
       do_bend="true"
       growth="0"
       dist_rdm="75;1"
       direction="578.37038,199.64599 , 29.056208,10.132582"
       is_visible="true"
       id="path-effect9873"
       effect="rough_hatches" />
    <inkscape:path-effect
       effect="rough_hatches"
       id="path-effect9869"
       is_visible="true"
       direction="1087.1906,525.63168 , 30.945943,0"
       dist_rdm="75;1"
       growth="0"
       do_bend="true"
       bender="1087.1906,530.63168 , 5,0"
       bottom_edge_variation="48.839047;1"
       top_edge_variation="48.839047;1"
       bottom_tgt_variation="0;1"
       top_tgt_variation="0;1"
       scale_bf="1"
       scale_bb="1"
       scale_tf="1"
       scale_tb="1"
       top_smth_variation="0;1"
       bottom_smth_variation="0;1"
       fat_output="true"
       stroke_width_top="1"
       stroke_width_bottom="1"
       front_thickness="1"
       back_thickness="0.25" />
    <inkscape:path-effect
       effect="rough_hatches"
       id="path-effect9865"
       is_visible="true"
       direction="870.18875,163.16869 , 29.056208,10.132582"
       dist_rdm="75;1"
       growth="0"
       do_bend="true"
       bender="870.18875,164.11565 , -7.1590986,22.291681"
       bottom_edge_variation="30.80305;1"
       top_edge_variation="30.80305;1"
       bottom_tgt_variation="0;1"
       top_tgt_variation="0;1"
       scale_bf="1"
       scale_bb="1"
       scale_tf="1"
       scale_tb="1"
       top_smth_variation="0;1"
       bottom_smth_variation="0;1"
       fat_output="true"
       stroke_width_top="1"
       stroke_width_bottom="1"
       front_thickness="1"
       back_thickness="0.25" />
    <inkscape:path-effect
       effect="sketch"
       id="path-effect9861"
       is_visible="true"
       nbiter_approxstrokes="3"
       strokelength="100"
       strokelength_rdm="0.3;1"
       strokeoverlap="0.3"
       strokeoverlap_rdm="0.3;1"
       ends_tolerance="0.1;1"
       parallel_offset="5;1"
       tremble_size="5;1"
       tremble_frequency="1"
       nbtangents="5"
       tgt_places_rdmness="1;1"
       tgtscale="10"
       tgtlength="100"
       tgtlength_rdm="0.3;1" />
    <inkscape:path-effect
       effect="rough_hatches"
       id="path-effect9859"
       is_visible="true"
       direction="675.8433,741.70801 , 16.718773,-56.74246"
       dist_rdm="75;1"
       growth="0"
       do_bend="true"
       bender="685.97582,728.46937 , 2.9734358,46.609879"
       bottom_edge_variation="123.61751;1"
       top_edge_variation="123.61751;1"
       bottom_tgt_variation="0;1"
       top_tgt_variation="0;1"
       scale_bf="1"
       scale_bb="1"
       scale_tf="1"
       scale_tb="1"
       top_smth_variation="0;1"
       bottom_smth_variation="0;1"
       fat_output="true"
       stroke_width_top="1"
       stroke_width_bottom="1"
       front_thickness="1"
       back_thickness="0.25" />
  </defs>
  <sodipodi:namedview
     pagecolor="#ffffff"
     bordercolor="#666666"
     borderopacity="1"
     objecttolerance="10"
     gridtolerance="10"
     guidetolerance="10"
     inkscape:pageopacity="0"
     inkscape:pageshadow="2"
     inkscape:window-width="1440"
     inkscape:window-height="855"
     id="namedview9304"
     showgrid="false"
     inkscape:zoom="0.49345763"
     inkscape:cx="488.30211"
     inkscape:cy="700.40083"
     inkscape:window-x="0"
     inkscape:window-y="1"
     inkscape:window-maximized="1"
     inkscape:current-layer="g9881" />
  <g
     id="g9881"
     transform="translate(-530.94731,16.212132)">
    <path
       style="fill:#fb2010;stroke:none;stroke-width:1px;stroke-linecap:butt;stroke-linejoin:miter;stroke-opacity:1;fill-opacity:1"
       d="m 975.98456,317.3771 c 0,0 7.18634,-51.57767 9.83097,-47.90952 2.64463,3.66816 -19.34908,-76.4695 -2.60834,-88.0803 16.74074,-11.6108 83.98841,-13.15973 83.98841,-13.15973 0,0 49.5232,-30.32633 161.9408,124.11483 112.4175,154.44117 41.4902,418.7743 41.4902,418.7743 0,0 -90.6444,218.55208 -202.7772,306.91282 -112.13284,88.3607 -143.25262,101.4596 -143.25262,101.4596 l -189.43358,99.1668 -56.38685,22.7821 -5.38451,-28.2075 164.2205,-148.8555 c 0,0 176.14066,-113.17527 248.84786,-414.01976 C 1159.1674,349.51076 975.98456,317.3771 975.98456,317.3771 Z"
       id="path848"
       inkscape:connector-curvature="0" />
    <path
       inkscape:original-d="m 676.67866,1241.4217 -2.02651,-24.3182 32.42426,-34.4508 58.76898,-58.769 85.11369,-62.822 79.03414,-81.06055 42.55684,-60.79554 36.47734,-48.6364 31.9651,-68.49681 38.9629,-83.49192 20.2652,-109.43189 V 503.76974 L 1071.8494,406.49695 1025.2395,341.64842 970.52355,315.30371 936.07277,286.93248 883.38334,252.4817 852.98559,230.19002 818.53482,191.68621 771.92494,145.07633 745.58022,98.466448 729.36809,51.856569 V 31.591405 l 6.07955,-18.238648 10.13258,-4.053033 10.13259,-4.053033 32.42426,8.106066 v 8.106066 l -24.3182,14.185615 -2.02652,18.238648 V 74.14825 l 18.23865,28.37123 46.60988,50.66291 54.71594,34.45078 36.4773,16.21213 32.42426,2.02652 28.37123,-24.3182 42.55689,-14.18561 62.822,-2.02652 81.0606,38.50381 74.9811,93.21976 26.3448,52.68943 20.2651,109.43189 6.0796,103.35233 -22.2917,121.59099 -38.5038,107.40537 -56.7425,109.43189 -42.5568,56.74246 -58.769,58.76888 -74.98112,58.769 -40.53033,32.4243 -62.82201,26.3447 -85.11369,42.5568 -87.14021,52.6895 z"
       inkscape:path-effect="#path-effect9861"
       inkscape:connector-curvature="0"
       id="path9855"
       d="m 679.18423,1242.811 c -0.23198,-6.1392 -0.57304,-12.2066 -0.99815,-18.2217 10.99281,-11.6848 21.39709,-23.0037 31.67655,-34.3188 3.42209,-3.5381 6.83122,-7.0758 10.2429,-10.6253 m -14.79051,3.6188 c 0.924,-1.0344 1.85199,-2.0663 2.78382,-3.0958 15.61,-16.2296 32.23014,-31.8231 49.22876,-47.2897 m -17.40321,16.6522 c 6.85166,-7.4765 14.0086,-14.9788 21.34378,-22.556 11.74484,-9.0229 23.84304,-18.1944 35.93998,-27.6516 m -7.82745,12.6755 c 22.35237,-14.7288 43.18835,-30.4763 64.77423,-45.5982 3.86182,-3.7685 7.75532,-7.5106 11.70019,-11.212 m -28.24278,9.1866 c 2.81611,-2.2487 5.68235,-4.4874 8.59489,-6.7194 17.09984,-18.1206 36.32249,-35.9345 56.47747,-54.4521 m -15.5653,21.8945 c 13.53997,-13.9669 28.53681,-29.58438 44.28787,-46.21073 3.39711,-4.81088 6.84401,-9.68836 10.3288,-14.62157 m -17.5463,18.17478 c 0.43114,-0.46129 0.86365,-0.92278 1.2975,-1.38445 13.29925,-19.87209 28.50299,-40.00962 44.47175,-60.40438 m -4.75491,9.74592 c 3.60043,-5.02679 7.10739,-9.97249 10.53285,-14.84279 10.26012,-13.59957 19.85325,-26.58202 29.05994,-39.08061 m -9.89994,13.01428 c 4.92172,-6.13324 9.71624,-12.40939 14.41934,-18.80453 9.6488,-21.05503 18.5221,-43.1195 27.5046,-65.602 m -7.5653,21.91797 c 4.3608,-9.30771 8.9895,-18.79837 13.8163,-28.31247 8.6993,-17.14724 18.042,-34.3706 27.6202,-50.73613 m -15.3776,23.52162 c 9.1985,-17.37533 17.2911,-35.16341 25.2499,-53.08507 1.3265,-7.8863 2.6308,-15.79462 3.9782,-23.70627 m -8.6426,14.9025 c 6.8948,-28.72625 11.1202,-59.66367 16.1239,-90.91641 m -5.5637,31.68758 c 3.0874,-13.66882 5.95,-26.87573 8.8719,-39.54808 0.3609,-12.7176 0.7792,-24.91621 1.5267,-36.52637 m 3.8302,13.68002 c -0.938,-23.30875 -1.2544,-46.90752 -2.4601,-68.86792 m 2.3433,10.11986 c 0.054,-9.43525 -0.022,-18.73616 -0.2122,-27.95903 -5.1601,-16.54287 -10.7234,-32.81345 -16.6022,-49.17894 m 5.9292,20.73679 c -6.7854,-21.30562 -12.4162,-43.00594 -17.4281,-64.20029 -4.0242,-5.99607 -7.9783,-11.93479 -11.8827,-17.78181 m 13.5528,19.30921 c -0.1845,-0.66534 -0.3696,-1.33228 -0.5552,-2.00079 -15.0589,-21.1851 -30.8925,-44.6017 -46.4955,-69.21431 -4.6134,-2.7899 -9.2183,-5.6238 -13.8076,-8.4944 m 19.8454,18.40809 c -2.5322,-3.43809 -5.0577,-6.87246 -7.5757,-10.29774 -18.1096,-8.23972 -36.05811,-16.28366 -53.76691,-23.59538 -6.01422,-4.54115 -11.9904,-8.96608 -17.92355,-13.24087 m 20.53099,10.80127 c -1.37994,-0.65465 -2.75649,-1.31248 -4.1296,-1.9734 -11.33618,-9.38413 -22.35142,-19.05643 -32.99228,-28.93578 -8.5667,-6.31958 -16.92952,-12.75191 -25.06699,-19.2644 m 5.11646,20.2843 c -13.4585,-9.54531 -26.98422,-18.88935 -40.14292,-28.31594 -9.48083,-7.62128 -18.75539,-15.28895 -27.64072,-23.12261 -0.41225,-0.56465 -0.82321,-1.12985 -1.23283,-1.69563 m 20.06572,15.2855 c -5.87056,-4.46388 -11.7982,-8.94592 -17.76843,-13.45927 -11.48689,-13.15155 -23.20429,-26.47256 -34.96937,-40.12853 -4.9727,-5.18816 -9.95299,-10.42969 -14.92925,-15.73509 m 22.11594,20.29 c -1.42977,-1.63272 -2.84886,-3.25005 -4.25793,-4.85315 -15.95006,-16.30081 -30.75518,-30.97507 -45.2307,-45.44406 -3.83499,-7.10345 -7.61899,-14.17515 -11.4016,-21.30157 m 11.74476,26.11027 c -0.67871,-0.69829 -1.35753,-1.39813 -2.03646,-2.09954 -8.73677,-15.90834 -17.50941,-32.35919 -26.28108,-49.619481 -4.18658,-13.289688 -8.37266,-26.993503 -12.54477,-41.20913 m 2.79841,33.021376 c -4.39046,-12.088372 -8.48332,-24.090396 -12.38023,-36.063818 0.13947,-6.764928 0.33474,-13.52171 0.57038,-20.279123 2.25006,-6.081786 4.53645,-12.164141 6.84597,-18.254559 3.53818,-1.35718 7.08381,-2.716958 10.63448,-4.080705 3.55067,-1.363746 7.10639,-2.731462 10.66473,-4.104517 0.0425,0.00986 0.085,0.019717 0.12755,0.029574 m -21.62004,6.1178943 c 0.8866,-2.324113 1.75947,-4.6506273 2.61995,-6.9775629 3.44702,-1.1987136 6.86911,-2.398273 10.27002,-3.5930347 3.40092,-1.1947615 6.78066,-2.38472534 10.14296,-3.56424784 10.76146,3.22721644 21.35942,6.55236514 31.90152,10.13755594 -0.0645,2.9162215 -0.13232,5.8477405 -0.20186,8.7968685 -5.52536,3.697924 -11.05996,7.488911 -16.58516,11.40106 m 19.94463,-12.574475 c -0.0351,1.829371 -0.0688,3.661491 -0.10162,5.49633 -8.27397,4.741937 -16.5221,9.555187 -24.78619,14.435471 -0.7785,6.17846 -1.5638,12.3854 -2.36745,18.619635 -0.1347,6.591999 -0.28969,13.214153 -0.47841,19.865084 m 3.10804,-12.469652 c 0.0781,5.245174 0.14299,10.536115 0.20085,15.860219 6.19984,9.28313 12.36948,18.709595 18.56557,28.166128 8.59499,9.20091 17.2227,18.43901 25.96104,27.55852 m -18.38824,-16.1955 c 11.57908,13.66171 23.6689,26.83692 35.67498,39.82441 5.72959,3.54124 11.44706,7.05533 17.11974,10.5587 m -15.05298,-7.35622 c 17.15855,11.21213 34.77414,21.11725 52.83994,30.15599 7.41154,2.46676 14.88854,4.80755 22.43063,7.0468 m -25.18067,-15.36946 c 11.27171,4.72297 22.84559,9.91721 34.60142,15.4064 10.98619,0.98121 22.106,2.179 33.28378,3.4824 7.61147,-5.68715 15.26844,-11.29141 22.91832,-16.88994 m -22.50983,26.5912 c 0.23946,0.026 0.47902,0.0518 0.71868,0.0775 9.30724,-7.56556 18.88469,-15.48686 28.66435,-23.53323 14.28542,-4.56502 28.85086,-9.30324 43.58556,-13.83878 m -9.6029,-2.18982 c 6.7439,-2.16282 13.4505,-4.33781 20.1303,-6.51688 20.6186,-0.53478 41.0067,-1.1047 61.4242,-1.50706 m -23.8957,3.61998 c 7.3627,-0.23845 14.5891,-0.41165 21.6999,-0.52068 20.6957,10.39569 40.1881,21.45902 59.1703,33.1534 m -22.0012,-18.58712 c 13.3082,6.2715 26.8553,12.76936 40.4931,19.39796 10.34,12.94439 20.7878,26.04399 31.1518,39.17515 m -11.816,-26.30067 c 19.7829,23.23313 37.1298,47.51603 55.0428,73.44758 m -24.6881,-7.24349 c 6.5931,8.53027 13.3701,16.94179 20.2936,25.29334 9.1731,17.5804 18.8391,34.95908 28.7661,52.49875 0.1087,0.4441 0.2176,0.8883 0.3266,1.33258 m -12.0758,-38.76077 c 3.2706,6.85355 6.7121,13.89894 10.2648,21.07067 2.7489,15.38348 5.9205,31.24723 9.0716,47.10569 m 0.4861,-4.11644 c 5.5809,25.76403 8.1212,51.43096 9.042,76.54842 -0.5642,6.14475 -1.2224,12.25764 -1.9546,18.33233 m 9.9607,-23.72708 c 0.7252,3.32928 1.4327,6.64924 2.1262,9.96158 2.4375,28.9478 3.8311,57.33118 6.4661,86.23691 m -11.2019,-43.89933 c 0.885,15.19425 2.092,30.61937 3.6173,46.37358 -1.2846,9.60923 -2.4475,19.34439 -3.4894,29.22876 m 3.5045,-1.42654 c -6.5327,29.68023 -9.2589,57.53819 -10.9805,84.84111 m -1.1629,-28.58664 c -3.2091,14.63483 -5.6816,30.16584 -7.6822,46.19217 -4.5619,15.79919 -8.6252,32.1217 -12.4774,48.53218 m 11.4775,-22.66427 c -8.8081,23.64369 -17.1277,47.37281 -25.4939,71.07789 m 3.9488,-20.55309 c -4.3668,11.27311 -8.4643,22.24011 -12.4654,33.05547 -6.5772,12.38168 -13.0122,24.53983 -19.6141,36.75092 m 4.492,-16.53434 c -12.1353,21.09116 -22.608,42.70288 -33.0782,64.36938 m 4.9651,-8.67413 c -6.5444,12.97213 -12.7985,25.36893 -18.7938,37.43287 -8.7264,11.86266 -17.1422,23.32571 -25.2884,34.70803 m 11.7709,-20.01023 c -9.5872,12.83531 -19.117,25.77248 -28.559,38.81266 -11.6901,12.09641 -23.2839,24.30583 -34.7462,36.62961 m 14.7584,-24.2564 c -13.9791,14.15635 -27.9802,28.82934 -41.325,43.54984 -7.1222,6.1096 -14.0963,12.2298 -20.8496,18.3106 m 19.8172,-16.544 c -23.8474,18.4331 -50.1013,37.0319 -78.79335,55.1689 -2.7969,1.8028 -5.61728,3.6012 -8.46116,5.3945 m 31.88341,-15.682 c -5.1788,4.1269 -10.5539,8.2486 -16.08341,12.341 -13.59557,10.2766 -28.13933,20.3736 -42.99433,29.926 -6.97941,2.1928 -14.00948,4.2969 -21.04839,6.2884 m 27.71699,-14.271 c -1.4539,1.0688 -2.90539,2.1453 -4.35481,3.229 -21.32808,8.1432 -42.33147,17.4037 -63.64125,26.6309 -5.9949,3.0732 -12.01555,6.1435 -18.07732,9.183 m 31.63548,-6.9159 c -1.93135,0.871 -3.86439,1.729 -5.79876,2.5745 -23.0852,11.9907 -46.37299,22.0903 -69.22636,31.4364 m 10.44677,-11.7283 c -11.94283,5.1273 -23.43788,11.0483 -34.71688,17.5085 -13.03756,8.8919 -25.75941,18.5716 -38.57488,28.5898 m 10.39736,-3.7553 c -21.88523,13.5924 -43.06411,26.9086 -63.38461,40.4797 -0.43099,0.1258 -0.86169,0.2517 -1.29209,0.3776 m 19.36539,-17.3616 c -4.83895,2.8878 -9.70949,5.7761 -14.61014,8.6607 -15.66113,3.906 -31.56324,7.7829 -47.67272,11.5381 -0.96571,-8.2569 -1.98463,-16.545 -3.0524,-24.8764 1.7113,-2.0303 3.41727,-4.0653 5.11808,-6.1054 m 1.14574,26.4721 c -0.61972,-4.8755 -1.16534,-9.7511 -1.65057,-14.6202 10.58609,-11.1372 21.77374,-22.2089 33.1312,-33.0006 4.62918,-4.138 9.28493,-8.2322 13.94053,-12.2693 m -17.83787,8.6323 c 0.21402,-0.2511 0.42837,-0.5018 0.64306,-0.7521 18.40496,-20.2081 39.11706,-37.7816 60.82752,-55.1221 m -8.1471,8.9549 c 5.29705,-5.4196 10.43676,-10.6912 15.42168,-15.8358 14.41096,-10.8446 27.83695,-20.8805 40.3191,-30.4416 m -24.07547,11.2948 c 18.99598,-13.2139 37.99014,-27.1978 58.06545,-41.62 5.58643,-5.4365 11.281,-10.9169 17.11799,-16.4306 m -12.87838,14.0669 c 0.6377,-0.5162 1.27629,-1.03 1.91572,-1.5414 18.71239,-20.8691 38.38575,-39.0083 56.32968,-55.79626 m -17.51244,18.44306 c 12.27689,-12.1631 24.10066,-24.64098 35.79169,-37.42856 8.27678,-12.5737 16.45432,-25.37895 24.73971,-38.41256 m -12.43137,24.33695 c 10.61434,-16.40632 21.93846,-31.84569 33.6619,-47.08499 4.07776,-4.95886 8.19992,-9.89548 12.35496,-14.83828 m -14.06187,6.5551 c 11.30593,-15.868 23.25543,-31.56018 35.28872,-47.16198 2.0165,-4.17896 4.0375,-8.35288 6.0559,-12.52289 m -4.3473,24.19635 c 0.3858,-0.54089 0.7733,-1.08207 1.1623,-1.62351 9.6604,-22.33042 21.4169,-45.00573 33.3839,-67.11946 2.1993,-4.06419 4.4058,-8.1094 6.6077,-12.13002 m -13.9504,17.24111 c 1.549,-3.38476 3.138,-6.75485 4.7655,-10.10958 8.8807,-18.30548 18.9087,-36.15381 29.8588,-53.43577 m -2.7744,17.8955 c 6.435,-14.66787 12.8181,-28.74172 19.0642,-42.61776 1.6365,-9.82979 3.2148,-19.57545 4.711,-29.34687 m -2.0256,11.90746 c 5.149,-24.528 8.2019,-47.33024 10.4096,-69.95728 m -9.453,20.95642 c 3.0129,-13.32995 5.8917,-27.30633 8.8753,-41.62733 0.3598,-12.71458 0.7995,-25.69205 1.4783,-38.7313 m -4.0841,11.60845 c 0.5113,-25.43644 0.2038,-51.19632 -0.012,-76.8356 m 4.8162,21.23861 c -0.2994,-9.25315 -0.5619,-18.60761 -0.8591,-28.04191 -7.2225,-22.45219 -14.6579,-45.39457 -23.3952,-68.50011 m 14.2325,20.94019 c -6.5618,-19.75927 -11.376,-39.15855 -15.4592,-58.68668 -3.9604,-6.42997 -7.8104,-12.8794 -11.6097,-19.37694 m 12.881,27.27967 c -14.2241,-20.50828 -28.1131,-40.52529 -41.6529,-61.19086 m -0.3869,13.37608 c -4.1165,-5.19316 -8.2446,-10.5274 -12.4026,-15.96242 -18.8133,-8.53793 -37.89266,-17.97053 -57.72442,-27.23167 -0.2059,-0.15961 -0.41191,-0.3192 -0.61803,-0.47876 m 27.44149,5.58403 c -5.61197,-3.07246 -11.40092,-5.98396 -17.34374,-8.76504 -11.77582,-9.41276 -24.36889,-18.13283 -37.49628,-26.53412 -8.5215,-4.28364 -17.23831,-8.45077 -26.08789,-12.584 m 23.00861,11.30082 c -17.80162,-11.59778 -34.42929,-23.28296 -50.80419,-35.61624 -8.42684,-7.07467 -16.78136,-14.33474 -25.20452,-21.866 m 17.11373,19.25678 c -8.0759,-5.92991 -16.41382,-12.01352 -24.91264,-18.17955 -8.9697,-9.89883 -18.20043,-19.93138 -27.48325,-29.95038 m 5.42791,16.46563 c -5.93967,-6.53318 -11.74218,-13.15108 -17.39414,-19.81658 -9.81819,-10.3205 -19.23523,-20.76783 -28.19285,-31.18057 m 12.14141,4.5363 c -9.27,-8.32624 -17.90363,-16.97055 -26.12453,-25.77374 -5.38969,-10.47161 -10.39274,-21.09206 -15.21193,-31.71697 m 13.03436,15.91085 C 760.90038,116.7102 755.16284,106.81381 749.26003,96.773132 743.51284,81.422075 737.43602,65.783209 730.93992,49.871365 m -2.67997,20.038988 c -2.34241,-7.12813 -4.59571,-14.026591 -6.75704,-20.741895 0.19109,-6.676209 0.46317,-13.19115 0.81859,-19.583252 2.3637,-5.735221 4.80241,-11.359887 7.31816,-16.906807 3.65523,-1.048667 7.33529,-2.072282 11.04054,-3.0768473 3.70526,-1.0045651 7.4357,-1.9900803 11.19171,-2.9625471 5.90829,1.9063683 11.87502,3.8425674 17.90146,5.7878524 m -27.51909,-2.101734 c 0.67357,-0.29101 1.34829,-0.5805848 2.02413,-0.8687454 3.29915,-1.4066674 6.62505,-2.7796389 9.97446,-4.12138 10.72196,2.7304119 21.66441,5.7537434 32.73436,8.9991754 0.0635,2.833818 0.13452,5.6807 0.2117,8.539638 -5.73416,3.858025 -11.42847,7.793873 -17.10469,11.790971 m 20.28683,-13.541747 c -6.66423,3.807865 -13.6185,7.863692 -20.79025,12.109724 -0.75152,6.170603 -1.62449,12.447438 -2.58864,18.806397 -0.31875,7.06361 -0.74869,14.227372 -1.24902,21.458817 1.09879,2.146533 2.18902,4.301288 3.27243,6.46289 M 760.81537,69.85077 c -0.10673,2.669025 -0.2002,5.312148 -0.28233,7.930968 5.72144,9.633127 11.65846,18.804219 17.65185,27.645902 6.86424,6.98525 13.77538,13.69645 20.61263,20.23425 m -7.8309,-9.01237 c 12.07672,13.04034 23.91184,26.23434 35.47067,39.46757 7.31363,4.81043 14.55783,9.63073 21.72823,14.44647 M 828.11147,154.7113 c 16.54205,9.80889 33.25211,19.76545 50.53052,29.52073 5.77252,2.28135 11.59996,4.54325 17.49437,6.77521 M 876.90879,179.6801 c 11.56408,5.64743 23.59027,11.20649 35.93201,16.84561 11.18934,0.97312 22.59749,2.00175 34.13981,3.18316 0.006,-0.004 0.012,-0.009 0.0179,-0.0131 m -14.61362,0.53229 c 5.07055,0.16507 10.19406,0.37666 15.36866,0.62407 9.64282,-8.27976 19.58944,-16.34657 29.81307,-24.35567 7.36727,-2.24939 14.8295,-4.47899 22.38131,-6.71998 m -16.54585,13.14196 c 11.90249,-4.06728 24.45838,-8.23539 37.36778,-12.45014 11.5112,-0.39004 23.2765,-0.81359 35.1131,-1.23766 m -17.6274,-5.00493 c 15.2138,-0.0269 29.9341,-0.37319 44.2276,-0.75726 12.4549,6.39145 24.5082,12.74733 36.2209,19.32458 m -12.0179,-6.3116 c 20.9028,9.6227 42.2855,19.07256 64.0175,27.82483 0.2216,0.24446 0.4433,0.48878 0.665,0.73295 m -26.122,-3.71903 c 4.2098,1.95682 8.4556,3.91559 12.7372,5.87368 15.6927,18.8307 32.3726,37.64254 50.0423,56.0552 m -18.0443,-26.48337 c 13.4685,18.98205 28.4167,37.55065 43.4412,57.18447 1.2566,2.57319 2.5142,5.16058 3.7707,7.76444 m -8.0574,-9.37222 c 1.9402,2.68984 3.9186,5.34969 5.9316,7.98322 8.4873,17.97844 18.206,35.01934 28.401,51.90004 1.8402,6.86986 3.7451,13.71792 5.6769,20.5832 m 4.6479,-31.49972 c 0.44,0.8051 0.8782,1.61335 1.3146,2.42463 4.5887,22.23046 8.112,46.3309 11.1706,70.66425 m -6.14,-9.96583 c 3.8641,19.20601 7.3472,37.39743 10.8552,55.1425 0.8118,12.50181 1.6356,24.78899 2.6068,37.05102 m -0.4771,-30.29227 c 1.9314,26.31498 3.9431,54.76582 6.77,85.00112 m -8.9153,-17.08703 c 0.2462,10.7339 0.7451,21.24249 1.3876,31.61871 -3.9807,21.9646 -7.2983,43.31818 -11.0353,64.98253 m -2.9651,-29.41154 c -5.1543,23.75845 -9.0618,47.72613 -12.902,71.28473 m 9.4327,-7.74779 c -1.3798,9.6229 -2.906,18.89562 -4.5037,27.91283 -7.7689,21.80709 -15.9955,41.97918 -23.4679,62.04836 m 13.2403,-35.41095 c -7.3451,21.74372 -15.2877,45.59915 -22.5573,69.95084 -1.3659,3.07578 -2.7199,6.1604 -4.0589,9.25001 m 8.3369,-20.8314 c -1.019,3.39763 -2.0717,6.78209 -3.1521,10.15593 -10.9565,23.04446 -23.3673,45.53332 -35.0107,68.43732 m 6.3028,-15.11161 c -10.7753,19.99302 -22.2435,39.63339 -34.5708,58.09804 -4.296,4.53655 -8.6575,8.98351 -13.0879,13.32354 m 18.5673,-14.0494 c -0.6843,1.35694 -1.3696,2.70301 -2.0561,4.03856 -13.3317,18.06167 -26.9146,33.76637 -40.9575,48.22632 m 8.9219,-8.40549 c -4.136,5.5051 -8.2465,10.97777 -12.3486,16.44023 -17.8448,17.95655 -35.5747,35.77274 -54.0615,54.57942 m 23.1956,-16.82343 c -8.7881,7.81473 -17.246,16.00393 -25.5254,24.34753 -11.7955,9.2954 -23.2994,18.8429 -34.8283,28.1824 m 13.13,-17.3084 c -17.9519,13.7474 -35.8845,28.087 -53.4052,42.2298 -6.74845,5.5625 -13.43478,11.0954 -20.036,16.5525 m 14.87416,-14.1077 c -0.23296,0.2007 -0.46595,0.4013 -0.69898,0.6017 -12.77088,11.2112 -25.6506,21.991 -38.03179,32.6766 -12.63334,5.5969 -24.90472,11.1254 -36.43839,16.7943 m 21.68192,-17.9677 c -15.98069,6.6904 -32.28473,13.6017 -48.86074,20.6986 -5.61135,2.8413 -11.25577,5.7052 -16.93108,8.5901 m 21.0272,-1.6062 c -28.65449,14.0701 -56.63316,27.3738 -87.15933,40.8431 -0.59186,0.3151 -1.18475,0.6302 -1.77871,0.9453 m 29.91059,-8.9744 c -7.58263,3.3358 -15.13472,6.8284 -22.70791,10.421 -19.61959,11.2602 -39.39331,23.2516 -60.3412,34.8537 m 20.55788,-14.2171 c -17.08722,10.1125 -34.88931,20.6624 -53.27842,31.3467 -4.23586,1.0994 -8.49646,2.2044 -12.78067,3.3124 m 15.26932,-8.373 c -1.01551,0.597 -2.0273,1.1955 -3.03546,1.7954 -15.77317,4.0622 -30.84894,8.4038 -45.4654,12.9981 -0.20935,-7.8318 -0.30082,-15.5988 -0.30538,-23.3044 0.6419,-0.5676 1.28471,-1.1346 1.9284,-1.7009 m -5.63568,12.7914 c -0.46573,-5.3959 -0.92241,-10.7244 -1.37185,-15.9936 10.78259,-11.4212 21.62914,-22.3197 32.49253,-32.9121 5.12766,-4.6946 10.25885,-9.3251 15.38905,-13.9123 m -14.40881,14.6223 c 19.18227,-19.3765 40.22257,-38.9555 62.32009,-58.3443 0.0485,-0.032 0.097,-0.064 0.14549,-0.095 m -20.68678,14.4726 c 4.54467,-5.1889 9.22891,-10.1788 14.01227,-15.0116 14.94508,-11.1103 30.63461,-21.0408 46.23613,-30.6544 m -10.92029,11.4789 c 17.30204,-12.9106 35.47723,-25.816 53.59394,-38.195 6.11459,-5.8726 12.22034,-11.6657 18.2626,-17.3487 m -25.80653,14.3401 c 21.2841,-22.2243 45.15733,-47.7334 68.36979,-74.24618 m -14.57202,23.12808 c 11.05994,-10.73405 21.13204,-21.70668 30.62218,-32.96312 9.17123,-15.36465 17.50294,-31.13874 25.69845,-47.40058 m -7.31318,30.39649 c 9.62769,-13.06819 19.0868,-26.28822 28.48538,-39.31065 5.54683,-7.1639 11.0744,-14.26496 16.6021,-21.24054 m -13.2534,8.34111 c 9.51191,-13.30728 19.42228,-26.9098 29.21543,-40.60376 5.8692,-13.39363 11.6508,-26.85558 17.0117,-40.25422 m -12.7397,30.54963 c 7.7878,-16.77094 16.9317,-35.65798 26.9499,-55.692 5.7151,-11.42879 11.7147,-23.23086 17.9095,-35.22627 m -6.6075,29.10103 c 12.426,-24.56471 22.2513,-50.0039 30.7151,-74.52879 0.1206,-1.87951 0.2344,-3.75449 0.342,-5.62431 m -3.8914,22.08497 c 2.3945,-5.3679 4.8099,-10.85619 7.226,-16.44536 3.4369,-22.17802 6.8822,-45.70636 9.3405,-69.62953 m -4.0589,29.2255 c 3.3541,-21.10686 7.3759,-44.29915 11.2261,-68.89724 -0.025,-3.98612 -0.055,-8.00808 -0.092,-12.06311 m 0.9719,12.53944 c 0.3387,-2.28773 0.6949,-4.56635 1.0673,-6.83553 -0.5702,-23.89482 0.6008,-46.77884 2.0431,-68.30642 m -3.3116,19.44081 c 0.1951,-17.33562 0.5235,-34.87237 1.1339,-52.70757 -3.1776,-12.94259 -6.1946,-26.05523 -8.9872,-39.37976 m 7.157,18.19832 c -8.3885,-24.23344 -14.8672,-47.967 -21.6354,-70.79384 m 1.0775,24.744 c -2.7037,-9.39873 -5.2199,-18.63634 -7.5673,-27.81138 -9.4402,-14.17445 -18.3219,-28.1418 -26.7587,-42.49568 m 4.3836,18.12418 c -9.628,-13.17576 -18.9683,-26.16136 -28.2676,-39.16097 -7.954,-3.88549 -15.8954,-7.77529 -23.86622,-11.70431 m 17.32262,7.66441 c -15.3457,-7.70804 -30.19798,-15.77759 -44.63428,-24.49037 -6.85679,-6.78665 -13.58334,-13.77472 -20.19321,-21.01359 m 4.26954,4.64906 C 946.6108,293.52468 937.7904,286.32511 929.02968,279.40189 919.2035,273.3219 909.4409,267.53632 899.82785,262.01002 m 22.10675,12.40172 c -11.32926,-7.14739 -22.72029,-14.28721 -33.97075,-21.1482 -9.47991,-6.55079 -18.85197,-12.88764 -27.98021,-18.82823 m 6.68018,4.2567 c -5.21895,-3.86994 -10.40444,-7.70341 -15.5531,-11.50258 -11.21679,-12.70111 -22.17573,-25.16213 -32.81414,-37.42308 -0.50891,-0.5211 -1.01717,-1.0418 -1.52478,-1.5621 m 2.35565,10.12489 c -2.90901,-3.51822 -5.86227,-6.99795 -8.8494,-10.4432 -15.05788,-15.50772 -30.87819,-30.23913 -46.35225,-44.62068 -1.84007,-3.07672 -3.66999,-6.14319 -5.4842,-9.20155 m 19.90445,27.31656 c -3.06983,-3.06273 -6.19781,-6.17224 -9.37624,-9.32046 -8.66535,-15.30156 -18.11145,-31.20213 -27.87017,-47.21019 -3.01405,-7.635235 -6.0888,-15.291343 -9.1842,-22.926267 m 14.9929,9.345576 c -0.16537,-0.329612 -0.33109,-0.658695 -0.49716,-0.98725 -4.68963,-15.816941 -10.05512,-30.593006 -15.55658,-44.572303 -0.04,-6.115536 -0.10294,-12.09671 -0.15142,-17.960426 0.34789,-0.919373 0.69619,-1.835484 1.04505,-2.748411 m 5.82319,26.444754 c 0.0886,-4.379026 0.12366,-8.768363 0.10976,-13.168784 2.0061,-6.131007 3.90665,-12.285903 5.71597,-18.467141 3.25423,-1.408734 6.47907,-2.825956 9.67714,-4.252114 3.19807,-1.426158 6.36937,-2.861253 9.51652,-4.305733 8.22768,1.967445 16.30512,3.876504 24.27299,5.720218 M 755.78088,7.1870697 c 8.70705,1.7713931 17.44727,3.7984443 26.27775,6.0126443 0.12494,2.735305 0.25861,5.48871 0.40273,8.258157 -7.60553,4.96271 -15.08505,10.11891 -22.36662,15.382264 -0.13809,6.428153 -0.19208,12.901833 -0.14205,19.39713 0.13395,1.20604 0.27144,2.412817 0.4126,3.62018 m 8.19893,-22.309866 c -0.53276,5.910171 -1.0803,11.812297 -1.63098,17.707366 0.11944,6.748416 0.23483,13.487697 0.36334,20.219298 6.29343,9.418043 12.6232,18.814813 19.06847,28.197017 3.814,3.91982 7.65441,7.83631 11.52986,11.7502 M 783.31698,92.861409 c 1.21545,1.976869 2.42538,3.961805 3.6289,5.954725 14.84666,16.990366 29.08592,34.737736 41.89951,53.166466 0.47041,0.38791 0.93969,0.77636 1.40782,1.16536 m -16.48454,-8.98947 c 3.76094,4.03741 7.50295,8.0565 11.23341,12.0615 17.05379,10.66318 33.95199,21.13665 51.05998,31.63027 m -5.37841,-9.68012 c 5.96961,3.88317 11.9898,7.75582 18.01198,11.60635 11.6763,5.20528 23.35895,10.33969 34.76939,15.33674 10.19877,0.34426 20.21725,0.59753 29.90525,0.72396 0.36205,-0.38726 0.72325,-0.77486 1.08356,-1.16278 m -35.42661,3.27421 c 8.4448,0.90291 17.12916,1.54877 25.99757,2.01105 9.67218,-8.22381 19.71865,-16.82092 29.97845,-25.57828 2.72524,-0.99128 5.46043,-1.99003 8.20395,-2.99411 m -8.96927,1.69321 c 1.80488,-1.47697 3.62371,-2.96094 5.4557,-4.45009 14.04804,-4.11402 28.58878,-8.42238 43.43668,-12.50833 12.6806,0.13038 25.564,0.40757 38.5505,1.05506 m -29.1452,-1.98188 c 16.7668,-0.0492 33.1006,-0.52038 49.0899,-1.04893 14.398,7.16157 28.4509,14.26567 42.2475,21.6777 0,0.001 0.01,0.003 0.01,0.004 m -30.8866,-12.44255 c 21.1002,9.09948 43.2014,18.95149 66.4602,28.28618 3.2942,3.41923 6.6327,6.81864 10.0167,10.18873 m -17.4712,-11.57473 c 2.1838,1.03856 4.3727,2.06025 6.5671,3.0652 16.7295,20.17469 34.1088,38.34899 52.4663,54.68896 m -19.1749,-15.34234 c 14.0682,16.49272 28.1132,33.51831 43.1976,51.21457 3.4532,6.14191 7.0032,12.34633 10.6803,18.61718 m -0.3033,-13.05781 c 0.2406,0.27255 0.4805,0.54507 0.7198,0.81756 9.6254,17.23758 17.3816,34.37943 24.2068,51.08045 0.6136,6.99029 1.0935,13.91726 1.4907,20.76214 m -4.4659,-23.92467 c 7.0836,32.02104 11.1325,66.11933 15.4154,101.62933 m -8.2984,-24.97659 c 2.295,12.53927 4.553,25.7188 6.7087,39.26937 0.6923,18.56713 1.198,37.8108 1.3566,57.06816 m -0.464,-38.78114 c 2.2308,25.21198 4.3282,50.17197 7.5585,74.73355 -0.4643,3.97072 -0.8981,7.9307 -1.2957,11.87929 m 7.8283,-14.17582 c 0.3808,3.4976 0.7032,7.02371 0.9731,10.57216 -4.8657,27.94461 -13.0831,57.31731 -21.6029,84.95264 m 13.4353,-29.53002 c -4.7681,21.73363 -8.5791,43.36474 -12.5166,65.44688 -1.111,3.20341 -2.2248,6.41715 -3.3453,9.64314 m -1.7485,-16.03182 c -0.4588,2.24747 -0.9044,4.48659 -1.3375,6.71687 -9.4055,25.15185 -17.0701,49.07581 -23.9396,71.01263 m 10.8024,-13.76659 c -7.1369,17.31982 -13.5753,34.4711 -20.1183,51.26717 -5.6711,10.14812 -11.3853,20.14968 -17.3554,29.95523 m 2.6054,-25.32086 c -11.1499,24.09326 -23.736,48.47379 -35.2215,73.27688 m 4.152,-12.76586 c -7.5154,15.89678 -14.7804,30.43169 -21.5176,44.1848 -6.8448,9.19408 -13.3926,17.94807 -19.5263,26.50696 m 16.1334,-20.46913 c -11.2341,15.74558 -21.9811,31.02383 -32.1468,46.46563 -8.3052,9.32866 -16.3405,18.73329 -24.0762,28.41354 m 19.9007,-22.70231 c -15.9052,18.07976 -33.7654,33.81992 -52.0396,49.02718 -3.2769,2.1186 -6.5647,4.2231 -9.8568,6.3213 m 9.2942,-12.9427 c -2.1586,2.0987 -4.3074,4.2242 -6.446,6.3748 -20.7552,16.3136 -40.7433,34.5239 -59.7628,53.4406 m 21.8049,-15.9883 c -9.8658,8.5188 -20.1489,16.6993 -30.6748,24.7657 -11.20931,8.7656 -22.69817,17.3998 -34.25086,26.1797 m 20.62483,-14.1918 c -7.77358,5.9866 -15.47166,12.2327 -23.10843,18.6868 -12.6812,5.7574 -25.24158,11.9246 -37.72043,18.3589 m 3.02514,-1.7134 c -13.42191,5.1359 -25.99672,10.603 -38.03256,16.2705 -13.05658,7.2953 -25.43616,14.8424 -37.57256,22.4573 m 13.64274,-16.9834 c -22.38663,10.3137 -42.68586,20.5945 -62.396,30.2312 -5.20223,3.1349 -10.35928,6.2205 -15.50297,9.2437 m 24.4599,-11.2121 c -1.53597,0.7599 -3.08158,1.5273 -4.63627,2.3018 -21.83331,13.2305 -45.62831,27.9914 -69.62504,43.1681 m 26.13645,-14.7833 c -12.85012,7.9783 -25.64957,15.9185 -38.53655,24.0301 -12.32557,3.5657 -24.71407,7.2545 -37.24977,11.1942 m 18.82012,-7.662 c -10.15189,2.3319 -20.03961,4.7869 -29.73235,7.2935 -0.50748,-8.1673 -0.89183,-16.3021 -1.18778,-24.4404 5.34912,-5.35 10.76958,-10.7028 16.23619,-16.0844 m 520.9741,-946.19797 71.9387,143.8769 M 924.59678,1119.4891 796.23247,1183.6712 M 1179.5325,910.82187 1074.0741,1016.2801 M 997.42976,895.42135 1077.8439,723.10489 m -313.38936,-609.07686 143.46291,90.3285"
       style="fill:none;stroke:#ffffff;stroke-width:1px;stroke-linecap:butt;stroke-linejoin:miter;stroke-opacity:1"
       sodipodi:nodetypes="ccccccccccccccccccccccccccccccccccccccccccccccccccccccc" />
    <path
       inkscape:original-d="m 970.858,314.07787 2.02651,-26.34472 8.10607,-18.23864 -6.07955,-44.58336 8.10607,-36.4773 -4.05304,-6.07955 -28.37123,20.26516 c 0,0 -174.28041,-34.45078 -188.46603,-151.988732 L 792.52455,16.179949 762.1268,6.0473665 H 745.91467 L 729.70254,34.418597 c 0,0 -26.34471,107.405373 241.15546,279.659273 z"
       inkscape:path-effect="#path-effect9865"
       inkscape:connector-curvature="0"
       id="path9863"
       d="m 971.81365,301.65433 c 0,0 -5.36153,13.86007 -8.18758,12.02003 -3.14945,-2.05061 14.17762,-51.74436 12.62026,-63.1659 -1.66883,-12.23897 -28.03347,63.37376 -31.61662,60.96776 -3.90444,-2.62175 33.70457,-110.48264 32.55792,-112.20297 -1.40699,-2.11093 -38.65431,104.712 -40.88574,103.18555 -2.55164,-1.74551 33.87795,-106.22243 27.53981,-101.69561 -6.86628,4.90401 -31.13544,74.5053 -34.67126,72.01437 -3.85425,-2.71526 23.19087,-80.27706 17.84971,-81.56642 -5.70705,-1.37769 -34.7718,81.97486 -36.01815,81.0668 -1.56273,-1.13855 23.60313,-73.30998 21.40201,-73.92351 -2.56272,-0.71432 -29.90139,77.68812 -32.43058,75.80793 -2.84429,-2.11442 20.95822,-70.37542 18.64132,-71.09556 -2.6749,-0.83141 -26.50199,67.49966 -28.83785,65.72047 -2.64941,-2.01803 19.86368,-66.58019 15.17464,-68.21466 -5.04289,-1.75783 -27.92088,63.85013 -30.82132,61.55391 -3.21148,-2.54247 17.37636,-61.58294 15.3511,-62.37564 -2.37453,-0.92939 -15.0552,35.43502 -15.61991,34.97805 -0.8743,-0.7075 19.04033,-57.81689 17.92743,-58.27069 -1.46044,-0.59553 -21.48753,56.83633 -23.96321,54.79806 -2.78411,-2.29221 16.2065,-56.75141 13.99622,-57.72634 -2.55437,-1.12669 -24.00826,60.39592 -24.92159,59.62443 -1.22003,-1.03056 17.01269,-53.31588 15.91829,-53.82347 -1.43616,-0.6661 -16.74985,43.24829 -17.63082,42.49327 -1.18666,-1.017 16.54567,-51.86715 15.65331,-52.29734 -1.23228,-0.59407 -20.92674,55.88266 -22.43419,54.56971 -1.81204,-1.57823 15.32978,-50.73428 10.57419,-53.22754 -5.09132,-2.66927 -24.67918,53.50046 -26.44552,51.88843 -2.06761,-1.88698 13.72006,-47.15926 9.54855,-49.63266 -4.50064,-2.66856 -17.64534,35.02438 -19.80512,32.95117 -2.45739,-2.35889 12.12465,-44.17378 11.24504,-44.7514 -1.20284,-0.78986 -11.3338,28.26124 -13.71838,25.90071 -2.6799,-2.65287 11.2927,-42.71967 8.31336,-44.89064 -3.29613,-2.4018 -14.90026,30.87291 -16.11924,29.60596 -1.51061,-1.57006 11.79546,-39.7252 10.29195,-40.92491 -1.81435,-1.44775 -14.66331,35.39645 -16.23241,33.70863 -1.85808,-1.99865 11.00761,-38.89072 9.33021,-40.35939 -1.98182,-1.73521 -19.98645,49.89266 -23.51614,45.88102 -3.8143,-4.33512 8.49471,-39.63084 7.61373,-40.53482 -1.17368,-1.20433 -10.71349,26.1504 -11.38821,25.34877 -0.95574,-1.13551 11.22205,-36.054 7.429,-40.44505 -4.07621,-4.71885 -14.6432,25.58048 -16.09279,23.71197 -1.72382,-2.22199 10.3263,-36.77441 9.07054,-38.522778 -1.52335,-2.12094 -12.42733,29.145068 -15.3134,25.146328 -3.15411,-4.37011 9.19535,-39.780372 6.34424,-45.287191 -3.08868,-5.965676 -17.14019,34.324551 -20.21029,29.315941 -3.32354,-5.42208 10.78357,-45.871771 9.55512,-50.386816 -1.40273,-5.155591 -14.99665,33.821988 -15.30894,33.240543 -0.55341,-1.030392 14.96319,-45.520882 14.20622,-50.182088 -0.88333,-5.43925 -21.11345,52.565947 -21.30267,52.179855 C 746.0543,92.970381 776.46899,5.7632224 774.71125,5.1774193 772.5972,4.4728679 737.37154,105.47397 736.60589,103.72463 c -0.98701,-2.25511 26.95794,-82.380202 23.89808,-83.400715 -3.41618,-1.139351 -23.22041,55.643913 -24.56592,51.443577 -1.53597,-4.79487 20.54239,-68.0982228 16.07397,-68.0981032 -4.86625,1.303e-4 -25.33877,58.6985262 -25.50425,57.2567712 -0.264,-2.300096 15.64591,-48.297055 15.64591,-48.297055 0,0 -16.30431,46.367258 -15.97464,49.239592 0.42817,3.730564 21.69888,-57.2566347 25.50423,-57.2566963 4.20317,-6.8e-5 -17.73692,62.9069043 -16.074,68.0981643 1.85337,5.785798 22.09992,-52.265968 24.5659,-51.443491 2.8223,0.94132 -25.03267,80.808436 -23.89809,83.400746 1.35594,3.09807 36.94146,-98.9350458 38.10534,-98.5471431 1.52019,0.5066553 -28.81186,87.4768671 -28.23537,88.6531871 0.80886,1.650455 20.75628,-55.54429 21.30266,-52.179807 0.67273,4.142531 -14.92038,48.852407 -14.20623,50.182108 0.95528,1.778652 14.37095,-36.687982 15.30893,-33.240493 1.11225,4.088039 -13.04763,44.689098 -9.55514,50.386888 3.74593,6.11126 17.7551,-34.057926 20.21025,-29.315829 2.69271,5.20096 -9.67706,40.669529 -6.34427,45.287279 3.60084,4.98914 14.50362,-26.273686 15.31338,-25.14625 1.07735,1.50001 -10.9772,36.06514 -9.07056,38.52281 2.18088,2.81117 12.77166,-27.55665 16.09276,-23.71188 3.60426,4.17257 -8.57209,39.087 -7.42902,40.4451 1.42409,1.69198 10.99505,-25.75216 11.3882,-25.34873 0.68585,0.70377 -11.61776,35.98406 -7.61374,40.53488 4.28862,4.87429 22.34608,-46.90538 23.51611,-45.88092 1.47444,1.29099 -11.38093,38.15353 -9.33023,40.35942 2.33966,2.51672 15.24695,-34.49492 16.23239,-33.70857 1.29629,1.03437 -11.99697,39.15279 -10.29196,40.92494 1.99663,2.07524 13.66788,-31.39216 16.11923,-29.60589 2.76813,2.01711 -11.19015,42.04291 -8.31339,44.89071 3.17208,3.14014 13.37745,-26.12452 13.71836,-25.90065 0.66413,0.43612 -13.90083,42.20205 -11.24505,44.75142 2.95339,2.83505 16.18215,-35.09927 19.80509,-32.95107 3.95207,2.34335 -11.81701,47.56242 -9.54856,49.63273 2.56972,2.34527 22.24946,-54.08827 26.44548,-51.88832 4.53175,2.37597 -12.58929,51.47249 -10.57422,53.2276 2.31965,2.02039 22.10835,-54.72674 22.43418,-54.56966 0.66575,0.32096 -17.04376,51.10567 -15.65331,52.29736 1.69615,1.45368 17.10601,-42.73664 17.6308,-42.49323 0.86656,0.40192 -17.34278,52.6202 -15.9183,53.82348 1.73118,1.46236 23.28477,-60.34635 24.92158,-59.62436 1.98088,0.87377 -16.98596,55.26484 -13.99623,57.72639 3.29815,2.71549 23.42952,-55.01562 23.96318,-54.798 0.88121,0.35933 -19.00812,57.39617 -17.92743,58.2707 1.39029,1.12507 14.17674,-35.54287 15.61989,-34.978 1.79241,0.70158 -18.76995,59.669 -15.35111,62.37569 3.72987,2.95293 26.72201,-62.98275 30.82128,-61.5538 4.45312,1.5523 -18.0331,66.03745 -15.17466,68.21473 3.17199,2.41612 27.1176,-66.25509 28.83782,-65.72038 2.07822,0.64598 -21.69568,68.82497 -18.64133,71.0956 3.36945,2.50488 30.83211,-76.2534 32.43055,-75.80784 1.96004,0.54635 -23.17565,72.63129 -21.40202,73.92353 2.08999,1.52274 31.2868,-82.2089 36.01812,-81.0667 5.0972,1.23054 -21.91627,78.70165 -17.84974,81.56651 4.38495,3.08921 29.2133,-68.11614 34.67121,-72.01425 5.98605,-4.2753 -30.30491,99.8041 -27.53982,101.69567 3.0853,2.11061 40.17299,-104.2548 40.88572,-103.18547 0.97307,1.45994 -36.67657,109.43738 -32.55793,112.20301 4.43993,2.98139 30.24498,-71.02683 31.61657,-60.96763 1.48304,10.87664 -15.98512,60.97509 -12.62028,63.16598 3.68726,2.40083 8.51739,-12.96594 8.51739,-12.96594 z M 786.98722,14.334173 c 0,0 -5.5484,14.38929 -9.08792,18.400753 -4.19682,4.756396 1.01872,-10.198196 -0.0364,-10.550057 -1.41141,-0.470661 -3.60892,5.830242 -6.45289,9.053593 -3.50116,3.968213 4.88816,-20.467321 4.88816,-20.467321 0,0 -9.15649,25.875217 -5.21701,21.410232 4.59776,-5.211075 5.99148,-9.207422 6.45288,-9.053555 0.81765,0.272671 -4.59879,15.803308 0.0364,10.550093 5.29386,-5.999688 9.4168,-19.343738 9.4168,-19.343738 z"
       style="fill:none;stroke:#ffffff;stroke-width:1px;stroke-linecap:butt;stroke-linejoin:miter;stroke-opacity:1" />
    <path
       inkscape:original-d="m 1025.2987,337.09936 c 0,0 149.9622,164.14783 18.2386,437.72755 l 46.6099,-16.21214 32.4243,-105.37885 20.2651,-133.75009 c 0,0 36.4773,-222.9168 -66.875,-233.04939 z"
       inkscape:path-effect="#path-effect9869"
       inkscape:connector-curvature="0"
       id="path9867"
       d="m 1143.6016,369.87232 c 0,0 0.1327,37.57748 -0.2649,77.91091 -0.3988,40.44895 -1.3244,83.30698 -2.998,94.44588 -1.8429,12.26611 -2.7084,-36.17469 -3.9989,-89.12119 -1.2917,-52.99942 -3.019,-110.29072 -5.7286,-115.99021 -2.8453,-5.98509 -3.6074,72.91663 -4.7088,155.88788 -1.1044,83.19805 -2.5547,169.46385 -4.7791,179.34093 -2.3248,10.32337 -2.9408,-75.56064 -3.808,-164.65404 -0.8666,-89.02389 -1.9957,-180.6948 -2.8915,-181.59763 -0.9768,-0.98439 -0.7218,92.66361 -1.2386,187.81355 -0.5177,95.30849 -1.8111,191.34281 -3.2237,195.92382 -1.4908,4.83437 -1.5215,-93.60443 -2.5273,-194.11832 -1.0045,-100.39406 -2.9882,-202.25524 -5.3321,-203.6665 -2.4067,-1.44909 -2.7453,99.86425 -3.8149,203.08456 -1.0714,103.39626 -2.8777,207.96595 -5.0991,213.90932 -2.332,6.23931 -3.2545,-19.77372 -4.3538,-44.5304 -1.0993,-24.75527 -2.3711,-48.21698 -5.1775,-36.86801 -2.9899,12.0905 -4.6327,40.90321 -5.7504,66.63624 -1.1195,25.77111 -1.715,48.57351 -2.4634,48.83381 -1.8698,0.6504 -1.3263,-63.76228 -3.6722,-56.82686 -2.7292,8.06873 -3.3145,72.56446 -6.3554,73.62194 -3.4172,1.18837 -3.0669,-34.6561 -5.5638,-28.49911 -2.8807,7.10329 -3.16,34.57406 -5.9827,35.55566 -3.1889,1.10893 -3.0294,-27.8265 -3.0294,-27.8265 0,0 -0.4205,30.02242 3.0186,28.8265 3.8266,-1.33065 4.1267,-30.97583 5.9842,-35.55566 2.2413,-5.52613 1.8945,29.77474 5.5627,28.49911 4.0445,-1.40651 4.6512,-68.57538 6.3585,-73.62194 2.0906,-6.17988 1.549,57.56451 3.6698,56.82686 1.2507,-0.43502 2.106,-24.26841 3.2283,-50.51183 1.1207,-26.20613 2.5098,-54.92955 4.9902,-64.95822 2.6798,-10.83474 3.8866,12.80096 4.9843,37.51134 1.0979,24.71245 2.0832,50.46924 4.5436,43.88707 2.7346,-7.31543 4.7851,-111.72606 5.8577,-214.70844 1.0707,-102.80188 1.1688,-203.4325 3.0738,-202.28544 2.2186,1.33582 4.1369,103.40426 5.1363,203.92136 1.0005,100.63488 1.0868,199.11512 2.7065,193.86346 1.9268,-6.2477 3.4626,-102.01841 3.9813,-196.78908 0.5175,-94.5573 -0.025,-187.47447 0.497,-186.94829 0.7702,0.77623 1.835,92.73124 2.6967,181.92989 0.8624,89.26438 1.5339,175.21857 3.9884,164.32178 2.7393,-12.16171 4.429,-97.88401 5.5351,-180.24871 1.1031,-82.13242 1.6298,-159.89641 3.9668,-154.9801 2.5826,5.43293 4.2482,63.13968 5.5376,116.41558 1.2881,53.21744 2.2117,101.80118 4.1813,88.69582 2.1764,-14.48119 3.0943,-57.58187 3.3665,-97.44984 0.2713,-39.74875 -0.1031,-75.90695 -0.1031,-75.90695 z m -55.5049,-81.11268 c 0,0 0.3973,51.97541 -0.045,101.69423 -0.4425,49.69635 -1.6988,97.20269 -4.1642,88.15266 -2.6299,-9.65391 -4.0839,-53.61741 -5.2567,-94.78473 -1.1747,-41.23098 -2.0683,-79.88062 -3.1253,-79.22516 -1.2321,0.76404 -1.6102,27.21481 -1.9434,52.92693 -0.333,25.70815 -0.6203,50.70787 -1.4692,48.5499 -1.0318,-2.62275 -1.6674,-24.85237 -2.5302,-45.93738 -0.8632,-21.09475 -1.9536,-41.08306 -3.7666,-39.27192 -3.9947,3.99065 -3.5503,64.36514 -5.3884,60.64148 -1.1049,-2.23808 -1.7981,-24.34479 -2.6732,-45.43884 -0.8755,-21.10091 -1.9329,-41.2193 -3.6363,-39.51499 -1.884,1.88491 -2.6442,22.21408 -3.5138,41.15612 -0.8697,18.94477 -1.8476,36.51567 -4.0582,32.89772 -4.7993,-7.8548 -5.2181,-59.33204 -9.3253,-55.2231 -4.479,4.48074 -4.3305,22.04975 -5.9084,19.99372 -1.9569,-2.54993 -1.9176,2.26354 -3.2228,3.56849 -1.6772,1.67691 -1.1909,-0.0212 -1.1909,-0.0212 0,0 0.5137,1.70623 1.1989,1.02118 1.0573,-1.05699 1.0135,-6.44769 3.223,-3.56849 2.5885,3.37311 2.4212,-16.50443 5.9092,-19.99372 3.8596,-3.86108 4.2713,46.95459 9.323,55.2231 2.7157,4.44502 3.9436,-13.37287 4.8116,-32.64869 0.8679,-19.27265 1.3746,-40.01572 2.7634,-41.40515 1.5798,-1.58045 2.5725,18.40968 3.4464,39.41552 0.8736,20.99892 1.6283,43.04383 2.8596,45.53831 2.8508,5.77537 2.3875,-57.64112 5.391,-60.64148 1.6891,-1.68733 2.7147,18.13991 3.5764,39.12324 0.8612,20.97344 1.5585,43.1414 2.7168,46.08606 1.355,3.44486 1.8945,-21.70654 2.2266,-47.815 0.3321,-26.11103 0.4555,-53.20623 1.1902,-53.66183 0.9326,-0.5783 1.7601,37.83987 2.9328,78.93605 1.1707,41.03198 2.6866,84.9578 5.442,95.07384 2.9673,10.89415 4.2306,-36.85001 4.5481,-87.26499 0.3175,-50.43134 -0.3406,-103.5819 -0.3406,-103.5819 z"
       style="fill:none;stroke:#ffffff;stroke-width:1px;stroke-linecap:butt;stroke-linejoin:miter;stroke-opacity:1" />
    <path
       inkscape:original-d="m 975.00114,318.55018 2.02651,-26.34472 8.10607,-18.23864 -6.07955,-44.58336 8.10607,-36.4773 -4.05304,-6.07955 -28.37123,20.26516 c 0,0 -174.28041,-34.45078 -188.46603,-151.988734 L 790.38107,21.123035 766.26994,10.519674 h -16.21213 l -16.21213,28.371231 c 0,0 -26.34471,107.405375 241.15546,279.659275 z"
       inkscape:path-effect="#path-effect9875"
       style="fill:none;stroke:#ffffff;stroke-width:1px;stroke-linecap:butt;stroke-linejoin:miter;stroke-opacity:1"
       d="m 978.54879,319.93615 c 0.80137,-6.83621 1.46763,-13.58345 2.03327,-20.26869 2.7591,-6.15153 5.41699,-12.24069 8.00847,-18.29465 -2.05197,-13.34793 -4.37834,-26.55047 -6.68664,-39.83606 m 1.46371,9.0371 c -1.23144,-8.00417 -2.33247,-15.92538 -3.33078,-23.78593 2.8196,-12.14302 5.89176,-24.13692 9.10974,-36.06772 -1.25012,-1.98188 -2.49467,-3.96134 -3.73443,-5.93903 -0.83284,0.65199 -1.66473,1.30434 -2.49574,1.95698 m -0.84034,14.68926 c 0.28283,-1.61848 0.57326,-3.2376 0.8708,-4.85756 -1.43458,-2.07059 -2.85329,-4.14305 -4.25778,-6.21803 -9.71226,6.52383 -19.10097,12.99044 -28.34743,19.3297 0,0 0,0 0,0 0.21153,0.0505 -10.56494,-2.4755 -25.931,-8.21796 m 21.65821,7.26422 c -4.29778,-0.994 -9.79627,-2.38835 -16.32206,-4.30105 -16.26654,-4.7677 -38.2507,-12.59891 -60.64807,-23.81851 -3.20145,-1.60372 -6.39359,-3.26883 -9.55342,-4.99233 m 16.04732,3.33104 c -4.88771,-2.28145 -9.74521,-4.70371 -14.52319,-7.28244 -11.24473,-6.0689 -22.00528,-12.97989 -31.80748,-21.00824 -7.15205,-5.85778 -13.78427,-12.30227 -19.72588,-19.43802 m 15.89107,20.42361 c -8.91404,-6.25764 -16.9735,-13.64099 -23.96016,-22.12282 -8.68013,-10.53771 -15.71383,-22.78503 -20.58879,-36.617357 -0.42109,-1.194818 -0.8262,-2.401804 -1.21497,-3.620913 m 1.29163,19.34064 c -2.66143,-3.92061 -5.05928,-7.99141 -7.17213,-12.21429 -6.11967,-12.231207 -9.87022,-25.781062 -10.66443,-40.701527 3.94508,-5.090019 7.95714,-10.196544 12.01791,-15.319443 m -4.84237,9.684288 c 7.99537,-11.016297 15.53779,-21.639643 22.75505,-31.930748 -8.37066,-3.143066 -16.88199,-6.142391 -25.49763,-9.0152498 -1.36791,0.096704 -2.73805,0.1961099 -4.11031,0.2981638 m 12.85152,5.582893 c -3.24243,-1.400792 -6.51236,-2.83247 -9.80618,-4.292631 -5.33456,0.01333 -10.72151,-0.03579 -16.14917,-0.139557 -5.45165,9.24793 -11.06871,18.273867 -16.75555,27.141737 0,0 0,2e-6 -10e-6,7e-6 -7e-5,2.41e-4 -0.002,0.0067 -0.005,0.01927 -0.003,0.0126 -0.009,0.03136 -0.0151,0.05629 -0.0131,0.04986 -0.0322,0.124274 -0.0559,0.22319 -0.0474,0.197898 -0.11343,0.493312 -0.18843,0.88544 -0.15004,0.78443 -0.33556,1.953376 -0.4798,3.496114 -0.288,3.080178 -0.41201,7.663388 0.24762,13.595544 0.3794,3.411894 1.01953,7.281444 2.04193,11.565084 m 0.0214,-26.36348 c -0.14995,3.306657 -0.0792,7.742602 0.62138,13.209563 1.72857,13.489775 7.03371,32.141461 22.12583,57.628671 3.16302,5.34163 6.72451,10.94451 10.78062,16.94005 m -17.42899,-20.39231 c 1.03656,1.82717 2.11136,3.68366 3.22514,5.5671 10.25378,17.33947 24.81001,38.65873 44.56908,60.68962 m -18.10213,-20.43945 c 11.3945,13.47088 24.40754,27.55139 39.23188,41.51407 7.161,6.74478 14.87721,13.58907 23.27492,20.50845 m -19.06911,-8.65321 c 18.75589,17.16258 39.91373,36.75914 66.45915,60.85522 m -12.6598,-20.22745 c 16.61897,15.1372 35.89962,30.561 56.49884,48.53599 M 923.76033,281.5016 c 17.11774,11.57037 31.51372,21.71879 50.13382,34.64572 0.14773,-5.51123 0.25922,-11.01991 0.33745,-16.53858 m 0.12422,10.02404 c 0.33968,-5.49334 0.75035,-11.01095 1.22384,-16.53909 2.7474,-5.93331 5.58131,-11.88113 8.48855,-17.82127 -1.56388,-14.54683 -2.75512,-29.05462 -3.72486,-43.26908 0.93081,-3.02206 1.87193,-6.03044 2.82187,-9.02258 m -0.53236,23.36137 c -0.59717,-5.01212 -1.22454,-10.10932 -1.87474,-15.28404 2.81735,-12.29352 5.50194,-25.03763 8.15677,-38.12623 -1.36025,-2.20827 -2.72163,-4.42972 -4.08338,-6.66354 -9.5083,5.76585 -19.02498,11.24983 -28.46639,16.53811 0,0 0,0 0,0 0.0131,0.004 -0.78811,-0.25714 -2.21256,-0.76046 m 21.8921,-13.58403 c -7.06262,5.27181 -14.09854,10.55848 -21.10148,15.90278 0,0 0,0 -10e-6,0 -0.49705,-0.0828 -10.32334,-1.76107 -27.05862,-6.05121 -11.33639,-2.90611 -24.93524,-6.781 -39.59584,-11.61844 m 24.55147,3.83054 c -14.18361,-4.80271 -30.15581,-11.52508 -45.90323,-20.76589 -8.24024,-4.83549 -16.34316,-10.31761 -24.00647,-16.49078 m 5.48906,19.68349 c -8.00627,-4.85191 -16.01465,-10.16448 -23.64532,-15.99741 -10.39312,-7.94456 -20.12415,-16.88265 -28.31337,-27.04893 -4.18349,-5.19346 -7.96767,-10.71133 -11.22909,-16.5804 m 16.29184,19.25122 c -0.84688,-0.90509 -1.68575,-1.82001 -2.51603,-2.74488 -9.02062,-10.04834 -17.02714,-21.27184 -23.28078,-33.849905 -6.2521,-12.574987 -10.76086,-26.519062 -12.78498,-42.054602 1.48531,-2.309786 2.97056,-4.628428 4.4564,-6.956527 m 2.51966,26.053656 c -1.84512,-6.216862 -3.1781,-12.542464 -3.95131,-18.997892 8.0352,-11.447219 16.46515,-22.353859 25.08395,-33.078859 -7.66927,-3.154095 -15.26307,-6.235599 -22.83343,-9.335196 -3.51932,0.184092 -7.03444,0.364943 -10.5493,0.53567 m 24.26563,8.607761 c -5.37432,-2.474122 -10.75277,-5.00574 -16.13401,-7.604442 -5.39562,-0.20938 -10.7936,-0.475257 -16.19291,-0.805043 -5.39451,8.792372 -10.79443,17.325116 -16.1914,25.537547 0,0 0,2e-6 -10e-6,6e-6 -6e-5,2.24e-4 -0.002,0.0062 -0.005,0.01801 -0.003,0.01177 -0.008,0.02931 -0.0135,0.0526 -0.0117,0.04659 -0.0286,0.116163 -0.0494,0.208616 -0.0417,0.184941 -0.0992,0.461146 -0.16279,0.827464 -0.1272,0.732625 -0.27859,1.824661 -0.3761,3.260635 -0.19463,2.866309 -0.1745,7.122028 0.69002,12.529487 0.34907,2.183416 0.83622,4.555603 1.5025,7.090715 m -7.8287,-19.132364 c 10e-6,-3.4e-5 -0.004,0.02231 -0.004,0.02227 -0.14292,0.820428 -0.31729,2.049404 -0.43853,3.671141 -0.24223,3.240214 -0.27515,8.082567 0.5963,14.426744 1.74498,12.703517 7.12389,31.490929 21.80495,55.674974 3.51296,5.78688 7.54957,11.8677 12.17982,18.2287 M 747.49386,99.956013 c 1.2794,2.470237 2.6281,4.997567 4.05103,7.585127 11.02012,20.03967 25.39942,41.85336 47.28547,71.01934 M 786.87478,162.6395 c 10.24995,12.86707 22.28976,26.46358 36.81384,41.65555 3.50216,3.66321 7.11685,7.38628 10.86259,11.19494 m -7.93852,-7.73111 c 17.60168,16.0917 41.53971,37.24483 67.31117,56.45009 m -20.82277,-13.57635 c 17.21478,15.18181 36.20233,29.16645 58.42505,44.48193 m -14.53055,-8.13654 c 17.09664,12.76095 36.0615,24.39884 57.59481,35.16188 0.6888,-5.97842 1.41025,-12.01619 2.1642,-18.10467 m -6.41605,1.14107 c 0.32801,-6.15817 0.72373,-12.21074 1.17441,-18.17642 2.69299,-6.08103 5.45396,-12.05457 8.26537,-17.94636 -1.77992,-14.43784 -3.30349,-28.46017 -4.77169,-42.36183 1.37913,-4.94998 2.7655,-9.88417 4.14961,-14.81652 m -1.67392,36.90734 c -0.65269,-4.17351 -1.27133,-8.3922 -1.85895,-12.6458 2.72537,-11.83081 5.69822,-23.94018 8.85052,-36.09746 -1.26297,-2.02616 -2.51907,-4.05415 -3.76882,-6.08225 -6.21989,4.67675 -12.37027,9.35234 -18.46956,14.08913 m 26.00958,-20.32455 c -8.27461,6.07653 -16.62906,12.12696 -25.03082,18.17666 0,0 0,0 0,0 -0.10032,-0.0192 -10.82343,-2.07744 -27.61279,-7.03582 -6.69977,-1.97864 -14.31625,-4.40488 -22.52234,-7.3153 m 16.20521,9.63149 c -15.3198,-4.92667 -37.83882,-12.65061 -60.34948,-22.2258 -8.76324,-3.72756 -17.75872,-7.83157 -26.63401,-12.31674 m 22.4435,4.85833 c -10.63342,-5.6263 -21.17726,-11.90169 -31.16989,-18.92586 -10.85942,-7.63348 -21.08028,-16.15925 -30.11634,-25.74146 -3.87426,-4.10842 -7.53064,-8.41095 -10.92647,-12.92073 m 22.30827,14.2517 c -2.06388,-2.10568 -4.10003,-4.25622 -6.0973,-6.45188 -8.79819,-9.67213 -16.82601,-20.20252 -23.18403,-31.656427 -5.84475,-10.529243 -10.27675,-21.8431 -12.53548,-33.833977 m -4.26079,33.83855 c -3.03315,-8.091346 -5.11933,-16.757113 -6.09143,-25.982538 8.25235,-11.287796 16.76123,-22.692235 25.4447,-34.08498 -6.86603,-3.218831 -13.67554,-6.433876 -20.44362,-9.621494 m 19.61905,-4.649254 c 0.3389,-0.544903 0.67885,-1.088633 1.01981,-1.631221 -8.38206,-3.910245 -16.5679,-7.6001483 -24.63415,-11.1536851 -5.42201,-0.011746 -10.79872,0.02817 -16.148,0.1001649 -4.38623,7.9562062 -8.69594,16.0018862 -13.01237,24.0458282 m 10.8947,-2.350959 c -3.26275,5.997224 -6.73735,11.987683 -10.39767,17.963059 0,0 0,2e-6 0,7e-6 -7e-5,2.57e-4 -0.002,0.007 -0.005,0.02014 -0.004,0.01317 -0.009,0.03278 -0.0153,0.05883 -0.0133,0.05215 -0.0325,0.12984 -0.0565,0.233265 -0.0481,0.207179 -0.11496,0.515232 -0.19206,0.925538 -0.15463,0.822918 -0.34714,2.039821 -0.51273,3.658829 -0.3327,3.252936 -0.54447,8.011816 -0.16642,14.303256 0.73577,12.244764 3.74484,30.258516 11.92872,52.564402 m 0.73754,-21.234657 c 3.37938,8.418087 7.83431,17.889847 13.68495,28.206637 8.75297,15.43462 21.05965,33.52782 38.55463,53.37166 m -26.73388,-37.96002 c 12.30583,16.92526 28.46352,35.64858 50.77737,57.8623 m -10.68344,2.95156 c 3.88316,4.39883 8.11934,8.80174 12.73852,13.2173 15.41564,14.73607 34.37736,28.95497 58.12259,43.83672 m -23.6873,-20.38722 c 19.60178,16.23309 47.75146,38.62392 79.23923,61.32253 m -19.27226,-13.05548 c 18.53389,13.75964 39.17242,27.906 62.24544,42.7032 m -16.14345,-13.8056 c 4.62414,3.43511 9.4038,6.80948 14.34976,10.15528 0.48767,-8.66773 1.08064,-17.4678 1.70185,-26.33128 2.66102,-6.14142 5.33814,-12.31902 7.99816,-18.5031 -0.58418,-4.15767 -1.17495,-8.31783 -1.78027,-12.47338 m -11.93532,54.30298 c 0.27231,-8.33303 0.74035,-16.60478 1.33705,-24.83405 2.67234,-6.07391 5.42814,-12.12028 8.23237,-18.14892 -1.09716,-9.00784 -2.10247,-17.98208 -3.10742,-26.94839 m -0.12435,20.72577 c -1.53653,-10.59386 -2.89463,-21.54138 -4.08944,-32.72573 3.03856,-12.4209 6.28448,-25.14252 9.71611,-37.99765 -1.20835,-2.16261 -2.40959,-4.33033 -3.6039,-6.50191 -2.69753,1.87785 -5.3799,3.74727 -8.04764,5.61232 m 9.28613,3.97818 c 0.39992,-1.77794 0.80058,-3.55457 1.20202,-5.32988 -1.34231,-2.02396 -2.68323,-4.04556 -4.02263,-6.06482 -9.40169,6.78971 -18.76905,13.63298 -28.0905,20.53024 0,0 0,0 -10e-6,0 -0.0657,-0.0123 -10.73193,-2.02436 -27.03771,-6.7683 -6.25363,-1.81941 -13.31881,-4.03654 -20.87121,-6.68206 m 21.84359,5.44369 c -1.94092,-0.61792 -3.99814,-1.28522 -6.14785,-1.99883 -15.62032,-5.18522 -38.07277,-13.41793 -58.52095,-24.6777 -4.89644,-2.69622 -9.74483,-5.59844 -14.45336,-8.72782 m 22.14202,10.68284 c -1.98647,-0.98768 -3.99333,-2.00288 -6.01649,-3.04572 -11.46665,-5.9105 -23.54833,-12.75573 -35.52001,-20.6079 -11.9891,-7.8636 -23.92557,-16.77355 -35.14567,-26.87441 -3.70445,-3.33492 -7.33014,-6.79895 -10.85622,-10.39941 m 28.88538,24.5137 c -3.84867,-3.81343 -7.66535,-7.80974 -11.38308,-12.00477 C 792.40848,119.50681 783.90147,108.04651 776.91396,95.099951 770.81374,83.797364 765.86029,71.3419 762.67424,57.515885 m 11.27705,22.585813 c -4.06099,-9.962566 -6.91693,-20.363622 -8.35732,-31.339154 7.89619,-11.291915 15.82201,-22.333288 23.63305,-33.387425 -6.11957,-2.515313 -12.26482,-5.033481 -18.45101,-7.5823587 m 22.41303,17.5513157 c 1.26779,-1.696194 2.53388,-3.405656 3.79862,-5.127763 -7.92956,-3.43858 -15.88188,-7.089971 -23.83291,-10.9112071 -5.35111,-0.1765155 -10.70172,-0.417376 -16.04623,-0.7125631 -5.28406,8.8621082 -10.54333,17.5035152 -15.73189,26.0062542 0,0 0,2e-6 0,6e-6 -6e-5,2.3e-4 -0.002,0.0064 -0.004,0.01856 -0.003,0.01214 -0.007,0.03022 -0.0123,0.05424 -0.0107,0.04802 -0.026,0.119781 -0.0448,0.215101 -0.0376,0.190598 -0.089,0.475662 -0.14429,0.853617 -0.0666,0.455201 -0.1391,1.045729 -0.19991,1.768333 m 0.70518,-21.218527 c -3.29593,5.04246 -6.48855,10.268024 -9.60355,15.648494 0,0 0,2e-6 0,7e-6 -7e-5,2.5e-4 -0.002,0.0071 -0.005,0.02061 -0.003,0.01347 -0.008,0.03356 -0.0143,0.06021 -0.0124,0.05327 -0.0303,0.133001 -0.0525,0.238815 -0.0443,0.211445 -0.1058,0.528545 -0.17404,0.949093 -0.13637,0.840397 -0.30089,2.101688 -0.40879,3.77648 -0.21611,3.354333 -0.20679,8.374105 0.71364,15.13188 1.55594,11.423756 5.6198,27.253988 15.20815,48.838559 m -16.15963,-12.4512 c 3.17831,9.245231 7.87072,19.85239 14.7794,31.68567 6.52316,11.17295 15.0439,23.48083 26.28125,36.95553 m -7.40421,-23.14482 c 13.25929,19.1385 31.43814,41.54494 54.91854,65.12851 2.19651,2.20616 4.44298,4.42589 6.73853,6.65559 m -14.90308,-14.46209 c 3.90266,4.44224 8.10519,8.95353 12.64322,13.5792 13.71443,13.97929 29.05041,27.58843 48.07485,43.83764 M 853.29361,230.765 c 17.2626,14.28978 41.14231,33.22535 68.02144,52.30396 m -10.13646,-17.05795 c 19.51306,14.09457 39.20275,30.03388 59.19492,48.18 m -24.63112,-10.09437 c 7.2724,4.77442 14.78636,9.50549 22.58107,14.17511 1.03541,-8.89818 2.13293,-17.89365 3.3562,-26.96693 3.1158,-6.29989 6.30334,-12.64419 9.59007,-19.02448 -0.27038,-5.9317 -0.46731,-11.89007 -0.5733,-17.86975 m -3.27499,53.72453 c 0.24003,-7.25485 0.54499,-14.33671 0.87293,-21.26711 2.49841,-5.92673 5.0169,-11.72101 7.52116,-17.40043 -2.47238,-13.95906 -5.01714,-27.33434 -8.02754,-40.32734 0.0822,-0.46288 0.16389,-0.92525 0.2449,-1.38713 m 1.23984,24.79384 c -0.7972,-7.11945 -1.67544,-14.29518 -2.61049,-21.52683 2.76468,-12.34874 5.35878,-24.86536 7.90839,-37.5479 -1.38082,-2.12887 -2.76334,-4.26409 -4.14661,-6.40563 -7.95002,5.1336 -15.91186,10.16859 -23.82755,15.10587 m 25.18875,-13.64318 c -9.18018,5.97309 -18.12239,12.27038 -26.88689,18.74299 0,0 0,0 -10e-6,-1e-5 0.22241,0.0439 -10.95104,-2.17708 -26.53227,-6.80027 -4.117,-1.22158 -8.60953,-2.63266 -13.324,-4.24151 m 13.05826,-2.06423 c -0.87045,-0.25654 -1.75682,-0.5209 -2.65827,-0.79316 -17.11273,-5.16854 -39.06697,-12.9994 -61.51195,-24.40442 -1.20655,-0.61309 -2.41435,-1.23639 -3.62281,-1.87006 m 17.17974,17.03587 c -3.71635,-1.58173 -7.41086,-3.25795 -11.07417,-5.03302 -11.60472,-5.62309 -22.76842,-12.17704 -33.19474,-19.71709 -10.3823,-7.50822 -19.97196,-15.95155 -28.41463,-25.29234 m 15.03804,11.61933 c -6.58528,-5.29389 -12.66173,-10.92224 -18.08728,-16.90251 -8.67885,-9.5662 -15.70688,-20.05123 -20.44189,-31.471427 -0.79534,-1.918268 -1.5261,-3.863309 -2.18884,-5.834791 m 11.14984,17.632088 c -1.54076,-2.67897 -3.00111,-5.3932 -4.37504,-8.14669 -6.25874,-12.54314 -10.70895,-25.869812 -12.81183,-40.357025 4.76176,-6.856402 9.47921,-13.66479 14.13803,-20.4916 m -9.06415,8.930659 c 6.88174,-9.64685 13.30002,-18.912136 19.38488,-27.957059 -8.3678,-3.434795 -16.93879,-6.735303 -25.65108,-9.97821 -4.1916,0.129247 -8.41097,0.269814 -12.65272,0.41502 m 8.48838,7.285108 c -1.11131,-0.45643 -2.22369,-0.917981 -3.33695,-1.38444 -5.24361,0.169976 -10.50373,0.249238 -15.767,0.254694 -5.1203,9.468075 -10.25336,18.636317 -15.2896,27.643188 0,0 0,2e-6 0,7e-6 -5e-5,2.41e-4 -0.001,0.0068 -0.004,0.01953 -0.003,0.01277 -0.007,0.0318 -0.0115,0.05707 -0.01,0.05052 -0.0241,0.126018 -0.0414,0.22627 -0.0346,0.200428 -0.0815,0.500289 -0.13086,0.897577 -0.0986,0.793675 -0.20767,1.981443 -0.24608,3.543742 -0.0765,3.111377 0.12567,7.778408 1.28822,13.79386 0.39679,2.053126 0.90694,4.270874 1.55929,6.644096 m -6.05035,-26.056729 c 0.0249,3.072704 0.2633,7.022119 0.95471,11.809738 1.8405,12.744528 6.95104,31.778646 20.06789,55.865396 0.87527,1.60727 1.7873,3.239 2.73763,4.8947 m -3.59886,-12.24489 c 1.56746,3.50972 3.31258,7.12857 5.25411,10.86192 10.61998,20.42111 25.11851,40.75907 46.56628,66.36089 M 789.155,154.06395 c 9.78543,12.54336 22.69367,26.14742 39.28155,40.65002 6.9085,6.04003 14.41511,12.19996 22.514,18.43952 m -14.89624,-4.15548 c 15.43863,14.12563 34.70032,30.42491 56.42182,45.99737 m -22.28486,-9.71377 c 19.53457,17.67786 38.57517,31.60447 61.89321,48.75324 m -6.98568,-14.858 c 17.4137,11.16868 33.74554,23.76053 50.88576,38.20025 -0.30703,-7.93641 -0.78921,-15.77021 -1.39224,-23.57317 m 0.85135,15.58922 c 0.21904,-6.34013 0.54805,-12.68846 0.96063,-19.06105 2.63425,-6.28068 5.36462,-12.58928 8.15853,-18.94563 -1.81937,-15.48514 -3.31583,-31.21295 -4.86274,-47.41068 0.8094,-3.46419 1.61644,-6.95048 2.4173,-10.46117 m -3.85884,29.5504 c -0.56045,-5.28108 -1.19258,-10.60421 -1.8819,-15.95918 2.8115,-12.0408 5.32497,-24.24751 7.71243,-36.49888 -1.41252,-2.04456 -2.82986,-4.09083 -4.25074,-6.1379 -2.84386,1.93369 -5.69451,3.86583 -8.54852,5.79885 m 6.34785,3.47168 c -0.92598,-1.3735 -1.84712,-2.74998 -2.76334,-4.12921 -9.31262,6.93802 -18.39223,13.74632 -27.20994,20.5049 0,0 0,0 0,0 0.0102,0.002 -10.38753,-2.15527 -25.3667,-7.27093 -0.76555,-0.26144 -1.54265,-0.53044 -2.33069,-0.80711 m 15.96808,-1.92348 c -3.68391,-0.83724 -7.81193,-1.87228 -12.29403,-3.15212 -15.97305,-4.56104 -34.20388,-11.58798 -53.35118,-22.47819 m 19.6429,8.74014 c -6.51348,-2.80329 -13.24541,-5.9605 -20.09661,-9.50758 -11.65085,-6.032 -23.6134,-13.17498 -35.33212,-21.54988 -5.78605,-4.13507 -11.5085,-8.56767 -17.09478,-13.30773 m 6.38546,13.54488 c -10.808,-8.33913 -20.78641,-16.91244 -29.22981,-26.06413 -8.4791,-9.19039 -15.44832,-19.00477 -20.18817,-29.793227 -2.13764,-4.865521 -3.8237,-9.934693 -4.98138,-15.228797 m 13.13658,23.855254 c -1.99665,-3.18379 -3.84437,-6.418981 -5.53322,-9.709271 -6.26194,-12.199771 -10.34385,-25.167768 -11.70642,-39.025436 4.44705,-5.565925 8.94124,-11.041783 13.45607,-16.447767 m -4.23262,8.886115 c 7.67841,-10.439598 14.71016,-20.326358 21.33683,-29.852558 -8.3573,-3.217591 -16.92365,-6.2491 -25.60949,-9.1658163 -2.58812,0.1695653 -5.18524,0.3477803 -7.78951,0.5331693 m 9.76755,6.613513 c -2.41382,-0.926973 -4.81494,-1.878744 -7.20517,-2.853813 -5.5772,0.08682 -11.10442,0.06674 -16.59932,-0.04552 -5.58718,9.230817 -11.0431,18.087176 -16.51254,26.689685 0,0 0,2e-6 0,6e-6 -6e-5,2.34e-4 -0.002,0.0065 -0.005,0.01875 -0.003,0.01226 -0.008,0.03053 -0.0139,0.05479 -0.0121,0.04853 -0.0295,0.120991 -0.051,0.217282 -0.0431,0.192634 -0.10275,0.480257 -0.1692,0.861845 -0.133,0.763662 -0.29277,1.900312 -0.40253,3.399176 -0.17429,2.380071 -0.22061,5.647438 0.15675,9.76137 m 3.10319,-13.092929 c -0.0111,0.04997 -0.0254,0.116104 -0.0422,0.198362 -0.0425,0.207838 -0.10108,0.518202 -0.16636,0.930372 -0.13063,0.824821 -0.28734,2.05402 -0.39463,3.682374 -0.21494,3.261876 -0.22964,8.093771 0.54528,14.466504 1.56018,12.83057 6.26569,31.468015 18.46326,55.878654 0.22739,0.45507 0.45733,0.91203 0.68983,1.37087 M 741.22976,95.700028 c 2.39579,4.932942 5.21522,10.192662 8.52249,15.721312 8.03589,13.43333 19.47529,29.3125 35.27308,45.78792 m -14.20819,-17.76283 c 11.89867,17.17401 27.44463,34.6575 49.40173,55.62319 m -10.11972,-9.41094 c 3.72542,3.71998 7.69351,7.56199 11.90317,11.50223 12.72766,11.91306 28.20959,25.2316 46.11966,38.75665 m -13.45424,-2.9092 c 15.94512,14.91979 35.16635,29.52085 58.65643,45.45862 m -14.44478,-15.1488 c 21.7258,17.12836 44.64313,33.86857 68.65387,52.24205 m -10.38282,-9.21332 c 7.19609,4.72503 14.71867,9.4928 22.53273,14.23699 0.77733,-8.99228 1.6164,-18.03844 2.51011,-27.16709 2.50601,-5.54351 5.03584,-11.12298 7.58745,-16.74665 m -21.31996,36.94374 c 0.45752,-6.03352 0.97435,-12.06382 1.55054,-18.0965 2.8312,-6.14098 5.73549,-12.28488 8.71294,-18.43938 -1.40561,-15.0301 -2.43944,-30.11402 -3.10096,-45.33954 0.45206,-1.4687 0.90767,-2.93876 1.36686,-4.41025 m -2.15788,13.96276 c -1.09463,-5.83253 -2.08359,-11.69459 -2.99367,-17.55795 2.54504,-11.6717 5.41252,-23.34874 8.38111,-34.79793 -1.29889,-1.8877 -2.59392,-3.76669 -3.88673,-5.63523 -3.68375,3.01337 -7.35939,6.06508 -11.03854,9.16737 m 15.22911,0.54342 c -0.76219,-1.02236 -1.51854,-2.04932 -2.26927,-3.08065 -9.78457,7.11881 -19.11081,13.88143 -28.13526,20.44903 0,0 0,0 0,0 -0.1041,-0.0232 -10.45363,-2.28535 -25.89293,-7.98325 -6.15327,-2.27088 -12.92245,-5.00778 -20.29742,-8.31957 m 33.1668,0.2442 c -0.0171,-0.006 -1.11851,-0.39912 -1.13558,-0.40521 -13.74339,-4.90312 -41.40447,-14.52657 -62.83164,-23.88284 -1.8604,-0.81236 -3.72842,-1.64401 -5.59993,-2.49571 m 11.27801,13.29587 c -2.96634,-1.34239 -5.96294,-2.77999 -8.97918,-4.31567 -11.15327,-5.67852 -22.51051,-12.66725 -33.38845,-20.9748 -10.86211,-8.29547 -21.19418,-17.86898 -30.19989,-28.60979 -1.40032,-1.67011 -2.76857,-3.36846 -4.10167,-5.09457 m 20.88783,16.98258 c -5.35374,-4.69003 -10.46285,-9.52496 -15.21194,-14.52315 -8.92855,-9.39688 -16.58554,-19.3728 -22.22533,-30.057262 -2.39305,-4.533576 -4.42092,-9.191767 -6.02082,-13.972577 m -0.38617,19.381295 c -0.24071,-0.418129 -0.47854,-0.838273 -0.71349,-1.260429 -6.57061,-11.806309 -10.88081,-25.186594 -12.47454,-40.066635 8.20522,-11.505378 16.58799,-23.179767 24.89129,-34.804236 -3.93805,-1.863105 -7.88406,-3.721213 -11.84616,-5.567391 m -5.40446,17.611694 c 2.92441,-4.427374 5.90755,-8.844893 8.93736,-13.258879 -8.12385,-3.649553 -16.1209,-7.289504 -24.04516,-10.948155 -5.33463,-0.07644 -10.64168,-0.159972 -15.93374,-0.257183 -2.39309,4.279905 -4.77318,8.547938 -7.15044,12.798765 m 15.15612,-4.860422 c -0.37523,0.01652 -0.75072,0.03243 -1.12645,0.04775 -5.05643,9.887078 -10.30618,19.307019 -15.63193,28.408147 0,0 0,2e-6 0,7e-6 -7e-5,2.47e-4 -0.002,0.0068 -0.005,0.01971 -0.003,0.01289 -0.007,0.03209 -0.0131,0.05759 -0.0114,0.05101 -0.0277,0.127143 -0.0479,0.228316 -0.0403,0.202409 -0.0958,0.50449 -0.1569,0.905141 -0.12217,0.801291 -0.26649,1.995031 -0.35652,3.565686 -0.17959,3.133051 -0.14388,7.792595 0.72886,13.76365 1.42702,9.763176 5.14265,23.408903 14.30682,39.707371 m -7.29012,-35.161913 c 3.38311,10.302286 8.98983,23.818928 17.95436,39.927403 5.71054,10.26134 13.11285,22.14968 22.38458,34.78497 m -11.26478,-18.90349 c 13.44328,19.48041 31.78156,42.9712 56.27293,67.60816 m -20.00722,-11.31595 c 6.34286,6.72734 13.1852,13.65694 20.43343,20.59558 12.02163,11.50814 25.62451,23.48349 39.97181,34.42416 m -12.89541,-10.0968 c 15.95406,14.99187 33.34129,27.9601 52.99314,39.80999 m -11.68074,-5.51693 c 24.38062,20.18032 44.36882,34.00656 74.59832,56.84015 m -17.55025,-12.74996 c 8.3059,5.35946 17.52421,11.28241 26.98853,17.25326 0.73891,-8.83828 1.5827,-17.58201 2.46943,-26.32117 2.86158,-6.04751 5.74766,-12.09241 8.63153,-18.17348 -0.0706,-0.64886 -0.14115,-1.29808 -0.21178,-1.94768 m -11.51869,31.51023 c 0.48845,-5.61286 0.97798,-11.19234 1.47386,-16.74901 2.79158,-6.16745 5.59243,-12.30152 8.41186,-18.42088 -1.76183,-14.9509 -3.42924,-29.82709 -4.89567,-44.84267 1.27382,-4.94195 2.57006,-9.89946 3.8927,-14.88049 m -8.45698,30.78283 c -0.39619,-4.15607 -0.79978,-8.33915 -1.20146,-12.54409 3.22132,-11.99913 6.45877,-24.18162 9.93896,-36.42157 -1.19885,-2.04232 -2.38842,-4.08684 -3.56702,-6.13262 -8.63434,6.66314 -17.01877,13.29768 -24.96919,20.00587 0,0 0,0 -1e-5,0 0.003,8e-4 -1.40664,-0.32697 -3.89984,-1.01032 m 19.37034,-19.77796 c -6.38649,4.56397 -12.83937,9.17328 -19.35385,13.82465 0,0 0,0 0,0 -0.1996,-0.0371 -10.8252,-2.04247 -28.09862,-6.78723 -5.43966,-1.49419 -11.51807,-3.25598 -18.04369,-5.29311 m 21.82173,9.75977 c -17.21848,-4.987 -37.94203,-12.45699 -60.8686,-23.66764 -9.52299,-4.65657 -19.28567,-9.89116 -29.13001,-15.72541 m 29.07955,16.33529 C 859.6715,171 849.22989,164.77711 839.17835,157.96715 c -11.40133,-7.72445 -22.38581,-16.25904 -32.5197,-25.94512 -3.85365,-3.68336 -7.58407,-7.53287 -11.17062,-11.56971 m 15.85603,16.90348 c -2.2004,-2.19356 -4.36279,-4.43391 -6.47875,-6.7232 -9.2384,-9.99515 -17.57302,-20.90208 -24.36174,-32.946556 -3.741,-6.63724 -7.00493,-13.606013 -9.69656,-20.949418 m 5.67213,11.459858 c -4.77211,-10.463532 -7.85548,-21.647349 -8.88157,-33.54064 8.53891,-11.009829 17.48203,-21.823806 26.6753,-32.459185 -0.4515,-0.191415 -0.90262,-0.382557 -1.35336,-0.573427 m -13.52044,9.519978 c 3.23063,-4.70216 6.47143,-9.328466 9.72026,-13.888763 -8.04981,-3.487922 -16.08008,-6.81521 -24.09896,-10.0192368 -5.39287,0.2033788 -10.78141,0.4534547 -16.16754,0.7415133 -4.18016,7.8166365 -8.35435,15.7268465 -12.5299,23.6969335 m 11.59967,-19.42927 c -4.90929,8.419689 -9.5946,16.814983 -14.08944,25.202308 0,0 0,3e-6 0,8e-6 -5e-5,2.5e-4 -0.002,0.0071 -0.004,0.02048 -0.003,0.01339 -0.007,0.03335 -0.0118,0.05984 -0.0102,0.05295 -0.0248,0.132165 -0.0426,0.23727 -0.0356,0.210043 -0.084,0.524756 -0.1351,0.941416 -0.10199,0.832212 -0.21542,2.079735 -0.25594,3.722509 -0.0809,3.279076 0.12713,8.186734 1.32893,14.582816 1.60513,8.542619 4.99314,19.811062 11.95479,33.608423 m -12.6213,-19.887561 c 2.4332,10.82886 7.41818,24.646959 16.96821,42.302439 4.73767,8.75869 10.52679,18.33081 17.55013,28.81768 m -6.46931,-13.97129 c 12.91979,22.38731 30.52365,44.29778 58.62574,74.90163 m -25.63571,-23.14001 c 6.44765,7.73588 13.74719,15.37386 22.02196,22.97115 14.16392,13.0043 30.34601,25.14528 49.43394,37.67199 m -16.40828,-14.89036 c 21.27032,17.42406 47.76005,39.31209 71.80557,55.96206 m -14.14357,-10.32797 c 20.09881,15.51944 39.43719,29.34359 63.52295,46.63625 m -17.47608,-16.00622 c 6.57862,4.75345 13.4194,9.46003 20.55506,14.19187 0.47173,-8.77461 0.98122,-17.6013 1.45619,-26.45153 2.55055,-6.1314 5.08141,-12.27623 7.56143,-18.42218 -1.28943,-7.65944 -2.64614,-15.32035 -4.11753,-22.96401 M 720.40968,40.774103 770.82844,153.6243 m 100.38641,93.26724 117.34308,82.6277 M 804.01259,187.02948 917.83165,283.40451 M 1047.2955,140.97785 892.55895,251.50391 M 866.73332,54.700495 711.54569,-13.546432"
       id="path9871"
       inkscape:connector-curvature="0"
       sodipodi:nodetypes="ccccccccccccc" />
  </g>
</svg>
