<svg xmlns="http://www.w3.org/2000/svg" id="svg9302" version="1.1" viewBox="0 0 866.667 1304"><g id="g9881" fill="none" stroke="#fff" stroke-linecap="butt" stroke-linejoin="miter" stroke-opacity="1" stroke-width="3" transform="translate(-530.947 16.212)"><path id="path9855" d="M679.184 1242.811a556.102 556.102 0 00-.998-18.222c10.993-11.685 21.397-23.003 31.677-34.319 3.422-3.538 6.83-7.075 10.243-10.625m-14.791 3.619a635.03 635.03 0 012.784-3.096c15.61-16.23 32.23-31.823 49.229-47.29m-17.404 16.653c6.852-7.477 14.009-14.98 21.344-22.556 11.745-9.023 23.843-18.195 35.94-27.652M789.381 1112c22.352-14.73 43.188-30.477 64.774-45.599a826.536 826.536 0 0111.7-11.212m-28.243 9.187a546.866 546.866 0 018.595-6.72c17.1-18.12 36.323-35.934 56.478-54.451m-15.566 21.894a5592.097 5592.097 0 0044.288-46.21c3.397-4.812 6.844-9.69 10.33-14.622M924.19 982.44l1.297-1.384c13.3-19.872 28.503-40.01 44.472-60.404m-4.755 9.746c3.6-5.027 7.108-9.973 10.533-14.843 10.26-13.6 19.853-26.582 29.06-39.08m-9.9 13.013a562.398 562.398 0 0014.42-18.804c9.648-21.055 18.521-43.12 27.504-65.602M1029.256 827c4.36-9.308 8.99-18.798 13.816-28.313 8.7-17.147 18.042-34.37 27.62-50.736m-15.377 23.522c9.198-17.375 17.29-35.163 25.25-53.085 1.326-7.886 2.63-15.795 3.978-23.706m-8.643 14.902c6.895-28.726 11.12-59.664 16.124-90.916m-5.564 31.687c3.088-13.669 5.95-26.875 8.872-39.548.361-12.717.78-24.916 1.527-36.526m3.83 13.68c-.938-23.309-1.254-46.908-2.46-68.868m2.343 10.12c.054-9.435-.022-18.736-.212-27.96-5.16-16.542-10.723-32.813-16.602-49.178m5.929 20.737c-6.785-21.306-12.416-43.006-17.428-64.2-4.024-5.997-7.978-11.936-11.883-17.783m13.553 19.31l-.555-2.001a1586.743 1586.743 0 01-46.496-69.214c-4.613-2.79-9.218-5.624-13.807-8.495m19.845 18.408c-2.532-3.438-5.058-6.872-7.576-10.297-18.11-8.24-36.058-16.284-53.767-23.596a996.696 996.696 0 00-17.923-13.24m20.53 10.8a811.736 811.736 0 01-4.129-1.973 772.813 772.813 0 01-32.992-28.936 803.79 803.79 0 01-25.067-19.264m5.117 20.284c-13.459-9.545-26.985-18.89-40.143-28.316-9.481-7.62-18.756-15.289-27.641-23.122-.412-.565-.823-1.13-1.233-1.696m20.066 15.286a7982.555 7982.555 0 00-17.769-13.46c-11.487-13.151-23.204-26.472-34.969-40.128a2007.688 2007.688 0 01-14.93-15.735m22.117 20.29a3495.9 3495.9 0 00-4.258-4.853c-15.95-16.301-30.755-30.976-45.231-45.445a3412.547 3412.547 0 01-11.402-21.301m11.745 26.11c-.679-.698-1.357-1.398-2.036-2.1-8.737-15.908-17.51-32.359-26.281-49.619a2181.295 2181.295 0 01-12.545-41.209m2.798 33.021c-4.39-12.088-8.483-24.09-12.38-36.063.14-6.765.335-13.522.57-20.28 2.25-6.081 4.537-12.164 6.846-18.254l10.635-4.08c3.55-1.365 7.106-2.732 10.665-4.105l.127.03m-21.62 6.117c.887-2.324 1.76-4.65 2.62-6.977 3.447-1.2 6.87-2.399 10.27-3.593 3.401-1.195 6.78-2.385 10.143-3.565 10.762 3.228 21.36 6.553 31.902 10.138-.065 2.916-.133 5.848-.202 8.797a764.437 764.437 0 00-16.585 11.4m19.944-12.574c-.035 1.83-.069 3.662-.101 5.497a2202.407 2202.407 0 00-24.787 14.435 6555.246 6555.246 0 01-2.367 18.62c-.135 6.592-.29 13.214-.478 19.865m3.108-12.47c.078 5.245.143 10.536.2 15.86 6.2 9.284 12.37 18.71 18.566 28.167 8.595 9.2 17.223 18.439 25.961 27.558m-18.388-16.195c11.579 13.661 23.669 26.836 35.675 39.824 5.73 3.541 11.447 7.055 17.12 10.559m-15.053-7.357c17.158 11.213 34.774 21.118 52.84 30.156a719.322 719.322 0 0022.43 7.047m-25.18-15.37c11.271 4.724 22.845 9.918 34.6 15.407 10.987.981 22.107 2.18 33.285 3.483 7.611-5.688 15.268-11.292 22.918-16.89m-22.51 26.59l.719.078c9.307-7.565 18.884-15.487 28.664-23.533 14.286-4.565 28.851-9.303 43.586-13.839m-9.603-2.19a4239.24 4239.24 0 0020.13-6.516c20.619-.535 41.007-1.105 61.424-1.507m-23.895 3.62c7.362-.239 14.589-.412 21.7-.521 20.695 10.396 40.188 21.459 59.17 33.153m-22.001-18.587a3740.232 3740.232 0 0140.493 19.398c10.34 12.945 20.788 26.044 31.152 39.175m-11.816-26.3c19.782 23.233 37.13 47.516 55.042 73.447m-24.688-7.243c6.593 8.53 13.37 16.941 20.294 25.293 9.173 17.58 18.839 34.96 28.766 52.499l.327 1.332m-12.076-38.76c3.27 6.853 6.712 13.899 10.265 21.07 2.748 15.384 5.92 31.247 9.071 47.106m.486-4.116c5.581 25.764 8.121 51.43 9.042 76.548a649.375 649.375 0 01-1.954 18.332m9.96-23.727c.725 3.33 1.433 6.65 2.126 9.962 2.438 28.948 3.832 57.33 6.467 86.237m-11.202-43.9a1212.47 1212.47 0 003.617 46.374 1055.668 1055.668 0 00-3.49 29.229m3.505-1.427c-6.533 29.68-9.259 57.538-10.98 84.841m-1.163-28.586c-3.21 14.634-5.682 30.165-7.682 46.192-4.562 15.799-8.626 32.121-12.478 48.532m11.478-22.664c-8.808 23.643-17.128 47.372-25.494 71.078m3.949-20.554c-4.367 11.274-8.465 22.24-12.466 33.056-6.577 12.382-13.012 24.54-19.614 36.75m4.492-16.533c-12.135 21.09-22.608 42.702-33.078 64.369m4.965-8.674c-6.545 12.972-12.799 25.369-18.794 37.433-8.726 11.862-17.142 23.325-25.288 34.708m11.77-20.01a3247.143 3247.143 0 00-28.558 38.812 2640.856 2640.856 0 00-34.747 36.63m14.759-24.257c-13.98 14.157-27.98 28.83-41.325 43.55a1157.203 1157.203 0 00-20.85 18.31m19.817-16.543a1020.446 1020.446 0 01-78.793 55.169 1008.939 1008.939 0 01-8.461 5.394m31.883-15.682a568.74 568.74 0 01-16.083 12.341c-13.596 10.277-28.14 20.374-42.994 29.926a766.371 766.371 0 01-21.049 6.289m27.717-14.271a669.324 669.324 0 00-4.355 3.229c-21.328 8.143-42.331 17.403-63.64 26.63a2271.457 2271.457 0 01-18.078 9.183m31.635-6.915a546.965 546.965 0 01-5.799 2.574c-23.085 11.99-46.372 22.09-69.226 31.436m10.447-11.728c-11.943 5.127-23.438 11.048-34.717 17.509-13.038 8.892-25.76 18.571-38.575 28.59m10.398-3.756c-21.886 13.593-43.065 26.909-63.385 40.48l-1.292.377m19.365-17.361c-4.839 2.888-9.71 5.776-14.61 8.66-15.661 3.907-31.563 7.783-47.673 11.539a2270.316 2270.316 0 00-3.052-24.877c1.711-2.03 3.417-4.065 5.118-6.105m1.146 26.472a542.881 542.881 0 01-1.65-14.62c10.585-11.137 21.773-22.21 33.13-33 4.63-4.139 9.285-8.233 13.94-12.27m-17.837 8.632l.643-.752c18.405-20.208 39.117-37.782 60.828-55.122m-8.147 8.955a5128.26 5128.26 0 0015.421-15.836c14.411-10.845 27.837-20.88 40.32-30.442m-24.076 11.295c18.996-13.214 37.99-27.198 58.065-41.62a1592.859 1592.859 0 0117.118-16.43m-12.878 14.067c.638-.517 1.276-1.03 1.916-1.542 18.712-20.869 38.385-39.008 56.33-55.796m-17.513 18.443c12.277-12.163 24.1-24.641 35.792-37.429 8.276-12.573 16.454-25.379 24.74-38.412m-12.432 24.337c10.614-16.407 21.938-31.846 33.662-47.085 4.078-4.96 8.2-9.896 12.355-14.838m-14.062 6.555c11.306-15.868 23.255-31.56 35.289-47.162 2.016-4.18 4.037-8.353 6.056-12.523m-4.348 24.196c.386-.54.774-1.082 1.163-1.623 9.66-22.33 21.416-45.006 33.383-67.12 2.2-4.064 4.406-8.11 6.608-12.13m-13.95 17.241a496.823 496.823 0 014.765-10.11c8.88-18.305 18.909-36.153 29.859-53.435m-2.774 17.895c6.435-14.667 12.818-28.741 19.064-42.617 1.636-9.83 3.215-19.576 4.71-29.347m-2.025 11.907c5.15-24.528 8.202-47.33 10.41-69.957m-9.453 20.956c3.013-13.33 5.892-27.306 8.875-41.627.36-12.715.8-25.692 1.478-38.731m-4.084 11.608c.512-25.436.204-51.196-.012-76.835m4.817 21.238c-.3-9.253-.562-18.607-.86-28.042-7.222-22.452-14.657-45.394-23.395-68.5m14.233 20.94c-6.562-19.759-11.376-39.158-15.46-58.686-3.96-6.43-7.81-12.88-11.61-19.377m12.882 27.28c-14.224-20.509-28.113-40.526-41.653-61.191m-.387 13.376a1177.98 1177.98 0 01-12.403-15.963c-18.813-8.538-37.892-17.97-57.724-27.231l-.618-.48m27.441 5.585a307.618 307.618 0 00-17.343-8.765c-11.776-9.413-24.37-18.133-37.497-26.534-8.521-4.284-17.238-8.451-26.087-12.584m23.008 11.3a903.062 903.062 0 01-50.804-35.616 1068.626 1068.626 0 01-25.205-21.866m17.114 19.257a5412.983 5412.983 0 00-24.912-18.18c-8.97-9.898-18.2-19.93-27.484-29.95m5.428 16.466a763.605 763.605 0 01-17.394-19.817 841.291 841.291 0 01-28.193-31.18m12.142 4.536c-9.27-8.326-17.904-16.97-26.125-25.774-5.39-10.472-10.393-21.092-15.212-31.717m13.035 15.911a3550.342 3550.342 0 00-17.245-29.684c-5.747-15.35-11.824-30.99-18.32-46.902m-2.68 20.04a3579.676 3579.676 0 01-6.757-20.743c.191-6.676.463-13.19.818-19.583a527.847 527.847 0 017.319-16.907 783.159 783.159 0 0111.04-3.076c3.705-1.005 7.436-1.99 11.192-2.963 5.908 1.906 11.875 3.843 17.901 5.788m-27.519-2.102l2.024-.869c3.3-1.406 6.625-2.78 9.975-4.121 10.722 2.73 21.664 5.754 32.734 9 .064 2.833.135 5.68.212 8.539a976.13 976.13 0 00-17.105 11.79m20.287-13.541a1565.864 1565.864 0 00-20.79 12.11 649.466 649.466 0 01-2.589 18.806 897.927 897.927 0 01-1.249 21.459 852.116 852.116 0 013.273 6.463m-8.21-10.11a920.81 920.81 0 00-.283 7.93c5.721 9.634 11.659 18.805 17.652 27.647 6.864 6.985 13.775 13.696 20.613 20.234m-7.831-9.012a1825.75 1825.75 0 0135.47 39.467 2710.57 2710.57 0 0121.729 14.447M828.11 154.71c16.543 9.81 33.253 19.766 50.531 29.521 5.773 2.281 11.6 4.543 17.494 6.775M876.91 179.68c11.564 5.648 23.59 11.207 35.932 16.846 11.19.973 22.597 2.001 34.14 3.183.006-.004.012-.01.018-.013m-14.614.532c5.07.165 10.194.377 15.369.624 9.642-8.28 19.589-16.346 29.813-24.356 7.367-2.249 14.83-4.479 22.38-6.72m-16.545 13.142c11.903-4.067 24.458-8.235 37.368-12.45 11.511-.39 23.276-.813 35.113-1.237m-17.627-5.005c15.213-.027 29.934-.373 44.227-.758 12.455 6.392 24.508 12.748 36.221 19.325m-12.018-6.312c20.903 9.623 42.286 19.073 64.018 27.825l.665.733m-26.122-3.719a2268.05 2268.05 0 0012.737 5.874c15.693 18.83 32.372 37.642 50.042 56.055m-18.044-26.483c13.468 18.982 28.417 37.55 43.441 57.184a1841.24 1841.24 0 013.77 7.765m-8.057-9.373c1.94 2.69 3.919 5.35 5.932 7.984 8.487 17.978 18.206 35.019 28.401 51.9 1.84 6.87 3.745 13.718 5.677 20.583m4.648-31.5c.44.805.878 1.613 1.314 2.425 4.59 22.23 8.112 46.33 11.171 70.664m-6.14-9.966c3.864 19.206 7.347 37.398 10.855 55.143.812 12.501 1.636 24.789 2.607 37.05m-.477-30.292c1.931 26.315 3.943 54.766 6.77 85.002m-8.915-17.087c.246 10.733.745 21.242 1.387 31.618-3.98 21.965-7.298 43.318-11.035 64.983m-2.965-29.412c-5.155 23.759-9.062 47.726-12.902 71.285m9.432-7.748c-1.38 9.623-2.906 18.896-4.503 27.913-7.77 21.807-15.996 41.98-23.468 62.048m13.24-35.41c-7.345 21.743-15.288 45.599-22.557 69.95-1.366 3.076-2.72 6.16-4.059 9.25m8.337-20.831a573.79 573.79 0 01-3.152 10.156c-10.957 23.044-23.368 45.533-35.01 68.437m6.302-15.112c-10.775 19.993-22.244 39.634-34.57 58.099a497.785 497.785 0 01-13.089 13.323m18.567-14.05a586.856 586.856 0 01-2.056 4.04c-13.331 18.06-26.914 33.766-40.957 48.226m8.922-8.406l-12.349 16.44c-17.845 17.957-35.575 35.773-54.061 54.58m23.195-16.824c-8.788 7.815-17.246 16.004-25.525 24.348-11.796 9.295-23.3 18.843-34.828 28.182m13.13-17.308c-17.952 13.747-35.885 28.087-53.406 42.23-6.748 5.562-13.434 11.095-20.036 16.552m14.875-14.108l-.7.602c-12.77 11.211-25.65 21.991-38.031 32.677-12.634 5.597-24.905 11.125-36.439 16.794m21.682-17.968a6605.299 6605.299 0 00-48.86 20.699c-5.612 2.841-11.256 5.705-16.932 8.59m21.028-1.606c-28.655 14.07-56.634 27.374-87.16 40.843l-1.778.945m29.91-8.974c-7.582 3.336-15.135 6.828-22.708 10.42-19.62 11.261-39.393 23.252-60.34 34.854m20.557-14.217c-17.087 10.113-34.89 20.663-53.278 31.347-4.236 1.1-8.497 2.204-12.781 3.312m15.27-8.373a664.621 664.621 0 00-3.036 1.796 898.438 898.438 0 00-45.466 12.998c-.209-7.832-.3-15.599-.305-23.304.642-.568 1.285-1.135 1.928-1.701m-5.635 12.791c-.466-5.396-.923-10.724-1.372-15.994 10.782-11.42 21.629-22.32 32.492-32.912a1762.977 1762.977 0 0115.39-13.912m-14.41 14.622c19.183-19.376 40.223-38.955 62.32-58.344l.146-.095m-20.687 14.473a336.775 336.775 0 0114.013-15.012c14.945-11.11 30.634-21.04 46.236-30.654m-10.92 11.479c17.302-12.911 35.477-25.816 53.593-38.195a2413.042 2413.042 0 0118.263-17.35m-25.806 14.341c21.284-22.224 45.157-47.733 68.37-74.246m-14.573 23.128c11.06-10.734 21.132-21.707 30.622-32.963 9.172-15.365 17.503-31.139 25.699-47.4m-7.313 30.396c9.627-13.069 19.087-26.289 28.485-39.311 5.547-7.164 11.075-14.265 16.602-21.24m-13.253 8.34c9.512-13.307 19.422-26.91 29.215-40.603 5.87-13.394 11.651-26.856 17.012-40.254m-12.74 30.55c7.788-16.772 16.932-35.659 26.95-55.693a3046.906 3046.906 0 0117.91-35.226m-6.608 29.101c12.426-24.565 22.251-50.004 30.715-74.529.12-1.88.235-3.754.342-5.624m-3.891 22.085c2.394-5.368 4.81-10.856 7.226-16.445 3.437-22.178 6.882-45.707 9.34-69.63m-4.059 29.225c3.355-21.106 7.376-44.299 11.227-68.897-.025-3.986-.055-8.008-.092-12.063m.971 12.54c.34-2.288.695-4.567 1.068-6.836-.57-23.895.6-46.779 2.043-68.306m-3.312 19.44c.195-17.335.524-34.872 1.134-52.707-3.177-12.943-6.194-26.055-8.987-39.38m7.157 18.198c-8.389-24.233-14.867-47.967-21.635-70.793m1.077 24.744a971.37 971.37 0 01-7.567-27.812c-9.44-14.174-18.322-28.142-26.759-42.495m4.384 18.124c-9.628-13.176-18.969-26.162-28.268-39.161a7435.323 7435.323 0 01-23.866-11.705m17.322 7.665c-15.345-7.708-30.198-15.778-44.634-24.49a576.241 576.241 0 01-20.193-21.014m4.27 4.649a909.843 909.843 0 00-26.383-21.631 1050.2 1050.2 0 00-29.202-17.392m22.107 12.402c-11.33-7.148-22.72-14.287-33.971-21.148-9.48-6.551-18.852-12.888-27.98-18.829m6.68 4.257a8258.426 8258.426 0 00-15.553-11.503c-11.217-12.7-22.176-25.162-32.814-37.423-.51-.52-1.018-1.041-1.525-1.562m2.355 10.125a584.97 584.97 0 00-8.849-10.443c-15.058-15.508-30.878-30.24-46.352-44.62a2984.88 2984.88 0 01-5.484-9.202m19.904 27.316a3656.74 3656.74 0 00-9.376-9.32c-8.666-15.302-18.112-31.202-27.87-47.21a2688.318 2688.318 0 00-9.185-22.927m14.993 9.346c-.165-.33-.33-.659-.497-.987-4.69-15.817-10.055-30.593-15.556-44.573-.04-6.115-.103-12.096-.152-17.96.348-.92.696-1.836 1.045-2.748m5.823 26.444c.089-4.379.124-8.768.11-13.168a614.183 614.183 0 005.716-18.468 966.235 966.235 0 0019.194-8.557 3407.218 3407.218 0 0024.273 5.72M755.78 7.187c8.707 1.771 17.447 3.799 26.278 6.013.125 2.735.258 5.488.402 8.258a569.591 569.591 0 00-22.366 15.382 665.029 665.029 0 00-.142 19.397c.134 1.206.271 2.413.412 3.62m8.2-22.31c-.534 5.91-1.081 11.813-1.632 17.708.12 6.748.235 13.488.364 20.22 6.293 9.417 12.623 18.814 19.068 28.196 3.814 3.92 7.654 7.837 11.53 11.75m-14.578-22.56a874.278 874.278 0 013.629 5.955c14.847 16.99 29.086 34.738 41.9 53.167.47.388.94.776 1.407 1.165m-16.484-8.99l11.233 12.062a6963.717 6963.717 0 0051.06 31.63m-5.378-9.68c5.97 3.883 11.99 7.756 18.012 11.606a5783.95 5783.95 0 0034.769 15.337c10.199.344 20.217.598 29.905.724.362-.387.724-.775 1.084-1.163m-35.427 3.275c8.445.903 17.13 1.548 25.998 2.01 9.672-8.223 19.718-16.82 29.978-25.578 2.725-.99 5.46-1.99 8.204-2.994m-8.97 1.693c1.806-1.476 3.625-2.96 5.457-4.45 14.048-4.114 28.588-8.422 43.436-12.508 12.68.13 25.564.408 38.55 1.055m-29.144-1.982c16.766-.049 33.1-.52 49.09-1.049 14.397 7.162 28.45 14.266 42.247 21.678l.01.004m-30.887-12.443c21.1 9.1 43.202 18.952 66.46 28.287a690.955 690.955 0 0010.017 10.188m-17.47-11.574a501.09 501.09 0 006.566 3.065c16.73 20.175 34.109 38.349 52.466 54.689m-19.174-15.343c14.068 16.493 28.113 33.519 43.197 51.215a1180.707 1180.707 0 0010.68 18.617m-.303-13.058l.72.818c9.625 17.238 17.382 34.38 24.207 51.08a703.072 703.072 0 011.49 20.763m-4.465-23.925c7.083 32.02 11.132 66.12 15.415 101.63m-8.298-24.977a1719.278 1719.278 0 016.708 39.269c.693 18.567 1.198 37.81 1.357 57.068m-.464-38.781c2.23 25.212 4.328 50.172 7.558 74.734a744.82 744.82 0 00-1.295 11.879m7.828-14.176c.38 3.498.703 7.024.973 10.572-4.866 27.945-13.083 57.318-21.603 84.953m13.435-29.53c-4.768 21.733-8.579 43.365-12.516 65.447l-3.345 9.643m-1.749-16.032a715.627 715.627 0 00-1.337 6.717c-9.406 25.152-17.07 49.076-23.94 71.013m10.802-13.767c-7.136 17.32-13.575 34.471-20.118 51.267-5.671 10.148-11.385 20.15-17.355 29.955m2.605-25.32c-11.15 24.093-23.736 48.473-35.221 73.276m4.152-12.766c-7.516 15.897-14.78 30.432-21.518 44.185-6.845 9.194-13.393 17.948-19.526 26.507m16.133-20.469c-11.234 15.746-21.981 31.024-32.147 46.466-8.305 9.328-16.34 18.733-24.076 28.413m19.9-22.702c-15.904 18.08-33.765 33.82-52.039 49.027a1801.005 1801.005 0 01-9.857 6.321m9.295-12.942a537.555 537.555 0 00-6.446 6.375c-20.756 16.313-40.744 34.523-59.763 53.44m21.805-15.988c-9.866 8.519-20.15 16.7-30.675 24.766-11.21 8.765-22.698 17.4-34.251 26.18m20.625-14.193c-7.774 5.987-15.472 12.233-23.109 18.687-12.68 5.758-25.241 11.925-37.72 18.36m3.025-1.714c-13.422 5.136-25.997 10.603-38.032 16.27-13.057 7.296-25.437 14.843-37.573 22.458m13.643-16.984c-22.387 10.314-42.686 20.595-62.396 30.231-5.202 3.135-10.36 6.22-15.503 9.244m24.46-11.212c-1.536.76-3.082 1.527-4.637 2.302-21.833 13.23-45.628 27.991-69.625 43.168m26.137-14.783c-12.85 7.978-25.65 15.918-38.537 24.03-12.325 3.565-24.714 7.254-37.25 11.194m18.82-7.662c-10.151 2.332-20.039 4.787-29.732 7.293a951 951 0 01-1.187-24.44c5.349-5.35 10.77-10.703 16.236-16.084m520.974-946.198l71.939 143.876M924.597 1119.49l-128.365 64.182m383.3-272.85l-105.458 105.46M997.43 895.42l80.414-172.316m-313.39-609.077l143.463 90.329"/><path id="path9863" d="M971.814 301.654s-5.362 13.86-8.188 12.02c-3.15-2.05 14.178-51.744 12.62-63.166-1.668-12.239-28.033 63.374-31.616 60.968-3.905-2.622 33.704-110.482 32.558-112.203-1.407-2.11-38.655 104.712-40.886 103.186-2.552-1.746 33.878-106.223 27.54-101.696-6.867 4.904-31.136 74.505-34.672 72.015-3.854-2.716 23.191-80.278 17.85-81.567-5.707-1.378-34.772 81.975-36.018 81.067-1.563-1.139 23.603-73.31 21.402-73.924-2.563-.714-29.901 77.689-32.43 75.808-2.845-2.114 20.958-70.375 18.64-71.095-2.674-.832-26.501 67.5-28.837 65.72-2.65-2.018 19.864-66.58 15.175-68.214-5.043-1.758-27.921 63.85-30.822 61.554-3.211-2.543 17.377-61.583 15.351-62.376-2.374-.93-15.055 35.435-15.62 34.978-.874-.708 19.04-57.817 17.928-58.27-1.46-.596-21.488 56.836-23.963 54.797-2.784-2.292 16.206-56.751 13.996-57.726-2.555-1.127-24.008 60.396-24.922 59.624-1.22-1.03 17.013-53.315 15.919-53.823-1.437-.666-16.75 43.248-17.631 42.493-1.187-1.017 16.545-51.867 15.653-52.297-1.232-.594-20.927 55.883-22.434 54.57-1.812-1.579 15.33-50.735 10.574-53.228-5.091-2.67-24.68 53.5-26.445 51.888-2.068-1.887 13.72-47.159 9.548-49.632-4.5-2.669-17.645 35.024-19.805 32.951-2.457-2.359 12.125-44.174 11.245-44.751-1.203-.79-11.334 28.26-13.718 25.9-2.68-2.653 11.292-42.72 8.313-44.89-3.296-2.402-14.9 30.873-16.12 29.606-1.51-1.57 11.796-39.726 10.293-40.925-1.815-1.448-14.664 35.396-16.233 33.708-1.858-1.998 11.008-38.89 9.33-40.36-1.981-1.734-19.986 49.894-23.516 45.882-3.814-4.335 8.495-39.63 7.614-40.535-1.174-1.204-10.713 26.15-11.388 25.349-.956-1.136 11.222-36.054 7.429-40.445-4.076-4.719-14.643 25.58-16.093 23.712-1.724-2.222 10.326-36.775 9.07-38.523-1.523-2.12-12.427 29.145-15.313 25.146-3.154-4.37 9.196-39.78 6.344-45.287-3.088-5.966-17.14 34.325-20.21 29.316-3.323-5.422 10.784-45.872 9.555-50.387-1.402-5.155-14.996 33.822-15.309 33.24-.553-1.03 14.964-45.52 14.207-50.181-.884-5.44-21.114 52.566-21.303 52.18-.422-.86 29.993-88.068 28.235-88.654-2.114-.704-37.34 100.297-38.105 98.548-.987-2.255 26.958-82.38 23.898-83.401-3.416-1.14-23.22 55.644-24.566 51.443-1.536-4.794 20.542-68.098 16.074-68.098-4.866 0-25.339 58.699-25.504 57.257-.264-2.3 15.646-48.297 15.646-48.297s-16.305 46.367-15.975 49.24c.428 3.73 21.699-57.257 25.504-57.257 4.203 0-17.737 62.907-16.074 68.098 1.854 5.786 22.1-52.266 24.566-51.443 2.822.941-25.032 80.808-23.898 83.4 1.356 3.098 36.942-98.935 38.105-98.547 1.52.507-28.811 87.477-28.235 88.653.809 1.65 20.756-55.544 21.303-52.18.672 4.143-14.92 48.853-14.207 50.183.956 1.778 14.371-36.688 15.31-33.24 1.112 4.087-13.048 44.688-9.556 50.386 3.746 6.111 17.755-34.058 20.21-29.316 2.693 5.201-9.677 40.67-6.344 45.288 3.601 4.989 14.504-26.274 15.314-25.147 1.077 1.5-10.978 36.065-9.07 38.523 2.18 2.811 12.77-27.556 16.092-23.712 3.604 4.173-8.572 39.087-7.43 40.445 1.425 1.692 10.996-25.752 11.389-25.348.686.703-11.618 35.984-7.614 40.535 4.289 4.874 22.346-46.906 23.516-45.881 1.475 1.29-11.38 38.153-9.33 40.359 2.34 2.517 15.247-34.495 16.233-33.709 1.296 1.035-11.997 39.153-10.292 40.925 1.996 2.076 13.667-31.392 16.119-29.605 2.768 2.017-11.19 42.042-8.314 44.89 3.172 3.14 13.378-26.124 13.719-25.9.664.436-13.901 42.202-11.245 44.751 2.953 2.835 16.182-35.1 19.805-32.951 3.952 2.343-11.817 47.562-9.549 49.633 2.57 2.345 22.25-54.089 26.446-51.889 4.531 2.376-12.59 51.473-10.574 53.228 2.32 2.02 22.108-54.727 22.434-54.57.665.321-17.044 51.106-15.654 52.298 1.697 1.453 17.106-42.737 17.631-42.494.867.402-17.343 52.62-15.918 53.824 1.731 1.462 23.285-60.346 24.921-59.624 1.981.873-16.985 55.264-13.996 57.726 3.298 2.715 23.43-55.016 23.963-54.798.882.36-19.008 57.396-17.927 58.27 1.39 1.126 14.177-35.542 15.62-34.977 1.792.701-18.77 59.669-15.351 62.375 3.73 2.953 26.722-62.982 30.821-61.553 4.453 1.552-18.033 66.037-15.175 68.214 3.172 2.416 27.118-66.255 28.838-65.72 2.078.646-21.695 68.825-18.641 71.095 3.37 2.505 30.832-76.253 32.43-75.807 1.96.546-23.175 72.63-21.402 73.923 2.09 1.523 31.287-82.209 36.019-81.067 5.097 1.231-21.917 78.702-17.85 81.567 4.385 3.09 29.213-68.116 34.671-72.014 5.986-4.276-30.305 99.804-27.54 101.695 3.085 2.111 40.173-104.254 40.886-103.185.973 1.46-36.677 109.437-32.558 112.203 4.44 2.981 30.245-71.027 31.617-60.968 1.483 10.877-15.986 60.975-12.62 63.166 3.687 2.401 8.517-12.966 8.517-12.966zM786.987 14.334s-5.548 14.39-9.088 18.4c-4.197 4.757 1.019-10.197-.036-10.55-1.412-.47-3.609 5.831-6.453 9.054-3.501 3.969 4.888-20.467 4.888-20.467s-9.156 25.875-5.217 21.41c4.598-5.21 5.992-9.207 6.453-9.053.818.272-4.599 15.803.036 10.55 5.294-6 9.417-19.344 9.417-19.344z"/><path id="path9867" d="M1143.602 369.872s.132 37.578-.265 77.911c-.4 40.45-1.325 83.307-2.998 94.446-1.843 12.266-2.709-36.175-4-89.121-1.29-53-3.018-110.29-5.728-115.99-2.845-5.985-3.607 72.916-4.709 155.888-1.104 83.198-2.554 169.463-4.779 179.34-2.325 10.324-2.94-75.56-3.808-164.654-.866-89.023-1.995-180.694-2.891-181.597-.977-.985-.722 92.663-1.239 187.813-.517 95.309-1.81 191.343-3.223 195.924-1.491 4.835-1.522-93.604-2.528-194.118-1.004-100.394-2.988-202.255-5.332-203.667-2.407-1.449-2.745 99.865-3.815 203.085-1.071 103.396-2.878 207.966-5.099 213.91-2.332 6.239-3.254-19.774-4.354-44.531-1.099-24.755-2.37-48.217-5.177-36.868-2.99 12.09-4.633 40.903-5.75 66.636-1.12 25.771-1.716 48.574-2.464 48.834-1.87.65-1.326-63.762-3.672-56.827-2.73 8.069-3.315 72.565-6.356 73.622-3.417 1.188-3.066-34.656-5.563-28.5-2.881 7.104-3.16 34.575-5.983 35.557-3.189 1.108-3.03-27.827-3.03-27.827s-.42 30.022 3.02 28.827c3.826-1.331 4.126-30.976 5.983-35.556 2.242-5.526 1.895 29.775 5.563 28.499 4.045-1.407 4.651-68.575 6.359-73.622 2.09-6.18 1.549 57.565 3.67 56.827 1.25-.435 2.105-24.268 3.228-50.512 1.12-26.206 2.51-54.93 4.99-64.958 2.68-10.835 3.886 12.8 4.984 37.511 1.098 24.713 2.083 50.47 4.544 43.887 2.734-7.315 4.785-111.726 5.857-214.708 1.071-102.802 1.17-203.433 3.074-202.286 2.219 1.336 4.137 103.405 5.137 203.922 1 100.635 1.086 199.115 2.706 193.863 1.927-6.247 3.463-102.018 3.981-196.789.518-94.557-.025-187.474.497-186.948.77.776 1.835 92.731 2.697 181.93.862 89.264 1.534 175.218 3.988 164.322 2.74-12.162 4.43-97.884 5.536-180.25 1.103-82.132 1.63-159.896 3.966-154.98 2.583 5.434 4.249 63.14 5.538 116.416 1.288 53.218 2.212 101.801 4.181 88.696 2.177-14.481 3.095-57.582 3.367-97.45.271-39.748-.103-75.907-.103-75.907zm-55.505-81.112s.397 51.975-.045 101.694c-.443 49.696-1.7 97.203-4.164 88.153-2.63-9.654-4.084-53.618-5.257-94.785-1.175-41.231-2.068-79.88-3.125-79.225-1.233.764-1.61 27.214-1.944 52.927-.333 25.708-.62 50.707-1.47 48.55-1.03-2.623-1.666-24.853-2.53-45.938-.862-21.095-1.953-41.083-3.766-39.272-3.995 3.99-3.55 64.365-5.388 60.642-1.105-2.238-1.798-24.345-2.673-45.44-.876-21.1-1.933-41.218-3.637-39.514-1.884 1.885-2.644 22.214-3.514 41.156-.87 18.945-1.847 36.516-4.058 32.898-4.8-7.855-5.218-59.332-9.325-55.223-4.48 4.48-4.33 22.05-5.908 19.993-1.957-2.55-1.918 2.264-3.223 3.569-1.677 1.677-1.191-.021-1.191-.021s.514 1.706 1.199 1.02c1.057-1.056 1.013-6.447 3.223-3.568 2.588 3.373 2.42-16.504 5.909-19.993 3.86-3.862 4.271 46.954 9.323 55.223 2.716 4.445 3.944-13.373 4.812-32.65.867-19.272 1.374-40.015 2.763-41.404 1.58-1.58 2.572 18.41 3.446 39.415.874 21 1.629 43.044 2.86 45.539 2.85 5.775 2.387-57.641 5.39-60.642 1.69-1.687 2.716 18.14 3.577 39.123.862 20.974 1.559 43.142 2.717 46.086 1.355 3.445 1.895-21.706 2.227-47.815.332-26.11.455-53.206 1.19-53.661.933-.579 1.76 37.84 2.933 78.936 1.17 41.032 2.686 84.957 5.442 95.074 2.967 10.894 4.23-36.85 4.548-87.265.317-50.432-.34-103.582-.34-103.582z"/><path id="path9871" d="M978.549 319.936a630.212 630.212 0 002.033-20.269c2.76-6.151 5.417-12.24 8.009-18.294-2.052-13.348-4.379-26.55-6.687-39.836m1.464 9.037a911.502 911.502 0 01-3.331-23.786c2.82-12.143 5.892-24.137 9.11-36.068a2508.6 2508.6 0 01-3.735-5.939l-2.496 1.957m-.84 14.69c.283-1.62.573-3.238.87-4.858a693.25 693.25 0 01-4.257-6.218c-9.712 6.524-19.1 12.99-28.347 19.33 0 0 0 0 0 0 .211.05-10.565-2.476-25.931-8.218m21.658 7.264a292.905 292.905 0 01-16.322-4.301c-16.267-4.768-38.25-12.6-60.648-23.819a308.792 308.792 0 01-9.554-4.992m16.048 3.33a279.442 279.442 0 01-14.524-7.282c-11.244-6.068-22.005-12.98-31.807-21.008-7.152-5.858-13.784-12.302-19.726-19.438m15.891 20.424c-8.914-6.258-16.973-13.641-23.96-22.123-8.68-10.538-15.714-22.785-20.589-36.617a126.736 126.736 0 01-1.215-3.621m1.292 19.34a106.93 106.93 0 01-7.172-12.214c-6.12-12.231-9.87-25.781-10.665-40.701 3.945-5.09 7.957-10.197 12.018-15.32m-4.842 9.684a2407.2 2407.2 0 0022.755-31.93 724.754 724.754 0 00-25.498-9.016c-1.368.097-2.738.197-4.11.299m12.851 5.582c-3.242-1.4-6.512-2.832-9.806-4.292a747.62 747.62 0 01-16.149-.14c-5.452 9.248-11.069 18.274-16.755 27.142 0 0 0 0 0 0l-.005.02c-.003.012-.01.03-.016.056a19.803 19.803 0 00-.244 1.109c-.15.784-.335 1.953-.48 3.495-.288 3.08-.412 7.664.248 13.596.38 3.412 1.02 7.281 2.042 11.565m.021-26.364c-.15 3.307-.079 7.743.622 13.21 1.728 13.49 7.033 32.142 22.125 57.629 3.164 5.341 6.725 10.944 10.781 16.94m-17.429-20.393a357.336 357.336 0 003.225 5.568c10.254 17.339 24.81 38.658 44.57 60.69m-18.103-20.44c11.395 13.47 24.408 27.551 39.232 41.514a467.022 467.022 0 0023.275 20.508m-19.07-8.653c18.757 17.163 39.915 36.76 66.46 60.855m-12.66-20.227c16.62 15.137 35.9 30.56 56.5 48.536m-10.916-15.427c17.118 11.57 31.514 21.718 50.134 34.645.148-5.51.26-11.02.338-16.538m.124 10.024c.34-5.494.75-11.011 1.224-16.54a918.78 918.78 0 018.488-17.82c-1.564-14.547-2.755-29.055-3.725-43.27.931-3.022 1.872-6.03 2.822-9.022m-.532 23.361c-.597-5.012-1.225-10.11-1.875-15.284 2.817-12.293 5.502-25.038 8.157-38.126-1.36-2.208-2.722-4.43-4.083-6.664-9.509 5.766-19.025 11.25-28.467 16.538 0 0 0 0 0 0 .013.004-.788-.257-2.212-.76m21.892-13.584a2480.825 2480.825 0 00-21.102 15.903s0 0 0 0c-.497-.083-10.323-1.761-27.058-6.051-11.337-2.907-24.936-6.781-39.596-11.619m24.551 3.83c-14.183-4.802-30.156-11.524-45.903-20.765-8.24-4.836-16.343-10.318-24.007-16.491m5.49 19.683c-8.007-4.851-16.015-10.164-23.646-15.997-10.393-7.945-20.124-16.883-28.313-27.049-4.184-5.193-7.968-10.711-11.23-16.58m16.293 19.25c-.847-.904-1.686-1.82-2.516-2.744-9.021-10.048-17.028-21.272-23.281-33.85-6.252-12.575-10.761-26.519-12.785-42.054 1.485-2.31 2.97-4.629 4.456-6.957m2.52 26.054a114.511 114.511 0 01-3.951-18.998c8.035-11.447 16.465-22.354 25.084-33.08-7.67-3.153-15.264-6.235-22.834-9.334-3.52.184-7.034.365-10.55.535m24.266 8.608a966.342 966.342 0 01-16.134-7.604 729.733 729.733 0 01-16.193-.805 974.832 974.832 0 01-16.19 25.537s0 0 0 0l-.006.018-.013.053a17.06 17.06 0 00-.212 1.036 31.818 31.818 0 00-.377 3.26c-.194 2.867-.174 7.123.69 12.53.35 2.183.837 4.556 1.503 7.09m-7.829-19.132l-.004.023a38.1 38.1 0 00-.438 3.67c-.243 3.241-.276 8.083.596 14.428 1.745 12.703 7.124 31.49 21.805 55.674 3.513 5.787 7.55 11.868 12.18 18.23m-13.817-34.808c1.28 2.47 2.628 4.998 4.05 7.585 11.021 20.04 25.4 41.854 47.286 71.02m-11.955-15.922c10.25 12.868 22.29 26.464 36.814 41.656 3.502 3.663 7.116 7.386 10.862 11.195m-7.938-7.731c17.601 16.092 41.54 37.245 67.31 56.45m-20.822-13.576c17.215 15.181 36.202 29.166 58.425 44.482m-14.53-8.137c17.096 12.761 36.061 24.399 57.594 35.162.69-5.979 1.41-12.016 2.165-18.105m-6.416 1.141A820.2 820.2 0 01971.513 287a696.926 696.926 0 018.265-17.946c-1.78-14.438-3.303-28.46-4.771-42.362 1.379-4.95 2.765-9.884 4.15-14.817m-1.675 36.907a716.298 716.298 0 01-1.859-12.645c2.726-11.831 5.699-23.94 8.85-36.098-1.262-2.026-2.518-4.054-3.768-6.082-6.22 4.677-12.37 9.352-18.47 14.09m26.01-20.325a3308.157 3308.157 0 01-25.03 18.176s0 0 0 0c-.101-.019-10.824-2.077-27.614-7.036a442.885 442.885 0 01-22.522-7.315m16.205 9.632c-15.32-4.927-37.838-12.651-60.35-22.226-8.762-3.728-17.758-7.832-26.633-12.317m22.443 4.858c-10.633-5.626-21.177-11.901-31.17-18.925-10.859-7.634-21.08-16.16-30.116-25.742a152.954 152.954 0 01-10.926-12.92m22.308 14.251a238.354 238.354 0 01-6.097-6.452c-8.799-9.672-16.826-20.202-23.184-31.656-5.845-10.53-10.277-21.843-12.536-33.834m-4.26 33.838c-3.034-8.091-5.12-16.757-6.092-25.982a2133.29 2133.29 0 0125.445-34.085c-6.866-3.219-13.676-6.434-20.444-9.622m19.619-4.649c.339-.545.679-1.089 1.02-1.631A1251.83 1251.83 0 00763.677 2.93c-5.422-.012-10.799.028-16.148.1-4.387 7.957-8.696 16.002-13.013 24.046m10.895-2.35a404.507 404.507 0 01-10.398 17.962s0 0 0 0l-.005.02a22.521 22.521 0 00-.264 1.218c-.154.823-.347 2.04-.512 3.659-.333 3.253-.545 8.012-.167 14.303.736 12.245 3.745 30.259 11.93 52.564m.737-21.234c3.379 8.418 7.834 17.89 13.685 28.206 8.753 15.435 21.06 33.528 38.554 53.372m-26.734-37.96c12.306 16.925 28.464 35.649 50.778 57.862m-10.684 2.952a216.693 216.693 0 0012.739 13.217c15.415 14.736 34.377 28.955 58.122 43.837m-23.687-20.387c19.602 16.233 47.752 38.624 79.24 61.322m-19.273-13.055c18.534 13.76 39.172 27.906 62.245 42.703m-16.143-13.806a398.054 398.054 0 0014.35 10.156c.487-8.668 1.08-17.468 1.702-26.332 2.66-6.141 5.338-12.319 7.998-18.503-.584-4.157-1.175-8.318-1.78-12.473m-11.936 54.303c.272-8.333.74-16.605 1.337-24.834a953.73 953.73 0 018.233-18.149c-1.098-9.008-2.103-17.982-3.108-26.948m-.124 20.725c-1.537-10.594-2.895-21.541-4.09-32.725a1876.36 1876.36 0 019.717-37.998c-1.209-2.163-2.41-4.33-3.604-6.502a4905.18 4905.18 0 00-8.048 5.612m9.286 3.979c.4-1.778.8-3.555 1.202-5.33l-4.023-6.065a3007.393 3007.393 0 00-28.09 20.53s0 0 0 0c-.066-.012-10.732-2.024-27.038-6.768a408.686 408.686 0 01-20.87-6.682m21.843 5.443a526.422 526.422 0 01-6.148-1.998c-15.62-5.186-38.073-13.418-58.521-24.678-4.897-2.696-9.745-5.599-14.454-8.728m22.143 10.683a464.361 464.361 0 01-6.017-3.046c-11.467-5.91-23.548-12.756-35.52-20.608-11.99-7.863-23.926-16.773-35.146-26.874a239.107 239.107 0 01-10.856-10.4m28.885 24.514a255.178 255.178 0 01-11.383-12.005c-9.106-10.274-17.613-21.734-24.6-34.681-6.1-11.303-11.054-23.758-14.24-37.584m11.277 22.586c-4.06-9.963-6.917-20.364-8.357-31.34 7.896-11.291 15.822-22.333 23.633-33.387-6.12-2.515-12.265-5.033-18.451-7.582m22.413 17.551a759.384 759.384 0 003.799-5.128 675.644 675.644 0 01-23.833-10.91 723.608 723.608 0 01-16.046-.713c-5.285 8.862-10.544 17.503-15.732 26.006 0 0 0 0 0 0l-.004.018-.013.055c-.01.048-.026.12-.044.215-.038.19-.09.475-.145.853-.066.456-.139 1.046-.2 1.769m.706-21.219a339.516 339.516 0 00-9.604 15.649s0 0 0 0l-.005.02-.014.06a21.325 21.325 0 00-.227 1.188c-.136.84-.3 2.102-.409 3.777-.216 3.354-.206 8.374.714 15.132 1.556 11.423 5.62 27.254 15.208 48.838m-16.16-12.45c3.179 9.244 7.871 19.851 14.78 31.685 6.523 11.173 15.044 23.48 26.281 36.955M764.837 134c13.26 19.139 31.438 41.545 54.918 65.129a565.777 565.777 0 006.739 6.656m-14.903-14.463a337.363 337.363 0 0012.643 13.58c13.715 13.979 29.05 27.588 48.075 43.837m-19.015-17.973c17.262 14.29 41.142 33.225 68.021 52.304m-10.136-17.058c19.513 14.095 39.202 30.034 59.195 48.18m-24.632-10.094a646.58 646.58 0 0022.581 14.175c1.036-8.898 2.133-17.894 3.357-26.967 3.115-6.3 6.303-12.644 9.59-19.025-.27-5.931-.468-11.89-.574-17.87m-3.275 53.725c.24-7.255.545-14.337.873-21.267a1157.309 1157.309 0 017.522-17.4c-2.473-13.96-5.018-27.335-8.028-40.328l.245-1.387m1.24 24.794c-.797-7.12-1.676-14.295-2.61-21.527 2.764-12.349 5.358-24.865 7.908-37.548-1.381-2.129-2.764-4.264-4.147-6.405a1799.641 1799.641 0 01-23.828 15.105m25.19-13.643c-9.181 5.973-18.123 12.27-26.888 18.743 0 0 0 0 0 0 .223.044-10.95-2.177-26.532-6.8a346.62 346.62 0 01-13.324-4.242m13.058-2.064c-.87-.256-1.757-.52-2.658-.793-17.113-5.168-39.067-13-61.512-24.404a318.223 318.223 0 01-3.623-1.87m17.18 17.035a249.192 249.192 0 01-11.074-5.033c-11.605-5.623-22.769-12.177-33.195-19.717-10.382-7.508-19.972-15.951-28.415-25.292m15.039 11.62c-6.586-5.295-12.662-10.923-18.088-16.903-8.679-9.566-15.707-20.051-20.442-31.472a90.653 90.653 0 01-2.188-5.834m11.15 17.632a156.444 156.444 0 01-4.376-8.147c-6.258-12.543-10.709-25.87-12.812-40.357a3041.53 3041.53 0 0014.139-20.492m-9.065 8.931c6.882-9.647 13.3-18.912 19.385-27.957-8.368-3.435-16.939-6.735-25.65-9.978-4.192.129-8.412.27-12.654.415m8.489 7.285a510.87 510.87 0 01-3.337-1.385c-5.244.17-10.504.25-15.767.255-5.12 9.468-10.253 18.636-15.29 27.643 0 0 0 0 0 0s0 .007-.004.02a19.357 19.357 0 00-.184 1.18 36.187 36.187 0 00-.246 3.545c-.076 3.11.126 7.778 1.289 13.793.396 2.054.907 4.271 1.559 6.645m-6.05-26.057c.024 3.072.263 7.022.954 11.81 1.84 12.744 6.951 31.778 20.068 55.865a250.386 250.386 0 002.738 4.895m-3.599-12.245a202.683 202.683 0 005.254 10.862c10.62 20.42 25.119 40.759 46.566 66.36m-12.526-27.957c9.785 12.543 22.694 26.147 39.282 40.65 6.908 6.04 14.415 12.2 22.514 18.44m-14.897-4.156c15.439 14.126 34.7 30.425 56.422 45.997m-22.285-9.713c19.535 17.677 38.575 31.604 61.893 48.753m-6.985-14.858c17.413 11.169 33.745 23.76 50.886 38.2-.307-7.936-.79-15.77-1.393-23.573m.852 15.59c.219-6.341.548-12.69.96-19.062 2.635-6.28 5.365-12.59 8.159-18.946-1.82-15.485-3.316-31.212-4.863-47.41.81-3.464 1.617-6.95 2.417-10.461m-3.858 29.55a721.362 721.362 0 00-1.882-15.96c2.811-12.04 5.325-24.247 7.712-36.498-1.412-2.045-2.83-4.09-4.25-6.138a5688.68 5688.68 0 01-8.55 5.799m6.349 3.472a728.339 728.339 0 01-2.764-4.13c-9.312 6.938-18.392 13.747-27.21 20.505 0 0 0 0 0 0 .01.002-10.387-2.155-25.366-7.27-.766-.262-1.543-.531-2.331-.808m15.968-1.923a232.358 232.358 0 01-12.294-3.152c-15.973-4.561-34.204-11.588-53.351-22.479m19.643 8.74a312.047 312.047 0 01-20.097-9.507c-11.65-6.032-23.613-13.175-35.332-21.55a260.79 260.79 0 01-17.095-13.308m6.386 13.545c-10.808-8.339-20.787-16.912-29.23-26.064-8.48-9.19-15.448-19.005-20.188-29.793a80.579 80.579 0 01-4.982-15.229m13.137 23.855a130.086 130.086 0 01-5.533-9.709c-6.262-12.2-10.344-25.168-11.707-39.025a979.177 979.177 0 0113.456-16.448m-4.232 8.886a1381.975 1381.975 0 0021.337-29.853c-8.358-3.217-16.924-6.249-25.61-9.165-2.588.17-5.185.347-7.79.533m9.768 6.613a374.886 374.886 0 01-7.205-2.853c-5.577.086-11.104.066-16.6-.046-5.587 9.23-11.042 18.087-16.512 26.69 0 0 0 0 0 0l-.005.018-.014.055a18.565 18.565 0 00-.22 1.08 34.77 34.77 0 00-.403 3.399c-.174 2.38-.22 5.647.157 9.76m3.103-13.092l-.042.198c-.042.208-.1.519-.166.93-.13.826-.287 2.055-.395 3.683-.215 3.262-.23 8.094.545 14.467 1.56 12.83 6.266 31.468 18.464 55.878.227.455.457.912.69 1.371M741.23 95.7a205.785 205.785 0 008.522 15.721c8.036 13.434 19.476 29.313 35.273 45.788m-14.208-17.763c11.899 17.174 27.445 34.658 49.402 55.624m-10.12-9.411a512.558 512.558 0 0011.903 11.502c12.728 11.913 28.21 25.232 46.12 38.757m-13.454-2.91c15.945 14.92 35.166 29.521 58.656 45.459m-14.445-15.149c21.726 17.129 44.644 33.869 68.654 52.242m-10.383-9.213a754.31 754.31 0 0022.533 14.237c.778-8.992 1.617-18.039 2.51-27.167 2.506-5.544 5.036-11.123 7.588-16.747m-21.32 36.944c.457-6.034.974-12.064 1.55-18.097a1096.388 1096.388 0 018.713-18.439 911.131 911.131 0 01-3.1-45.34c.451-1.468.907-2.938 1.366-4.41m-2.158 13.963a565.21 565.21 0 01-2.993-17.558c2.545-11.672 5.412-23.349 8.38-34.798a2659.545 2659.545 0 00-3.886-5.635 961.955 961.955 0 00-11.039 9.167m15.23.544a335.47 335.47 0 01-2.27-3.081c-9.784 7.119-19.11 13.881-28.135 20.449 0 0 0 0 0 0-.104-.023-10.454-2.285-25.893-7.983-6.153-2.271-12.922-5.008-20.297-8.32m33.166.244l-1.135-.405c-13.743-4.903-41.405-14.526-62.832-23.883a398.89 398.89 0 01-5.6-2.495m11.278 13.296a216.813 216.813 0 01-8.979-4.316c-11.153-5.679-22.51-12.667-33.388-20.975-10.862-8.295-21.194-17.869-30.2-28.61-1.4-1.67-2.769-3.368-4.102-5.094m20.888 16.982c-5.354-4.69-10.463-9.525-15.212-14.523-8.929-9.397-16.586-19.373-22.225-30.057-2.393-4.534-4.421-9.192-6.021-13.973m-.386 19.382c-.241-.419-.479-.839-.714-1.26-6.57-11.807-10.88-25.187-12.474-40.067 8.205-11.506 16.588-23.18 24.891-34.805a2235.284 2235.284 0 00-11.846-5.567m-5.405 17.612a898.236 898.236 0 018.938-13.26c-8.124-3.649-16.121-7.289-24.045-10.947a3945.4 3945.4 0 01-15.934-.258c-2.393 4.28-4.773 8.548-7.15 12.8m15.155-4.861l-1.126.047c-5.056 9.888-10.306 19.307-15.632 28.409 0 0 0 0 0 0l-.005.02-.013.057c-.011.05-.028.127-.048.228-.04.203-.096.505-.157.905a38.46 38.46 0 00-.356 3.566c-.18 3.133-.144 7.793.729 13.764 1.427 9.763 5.142 23.409 14.306 39.707m-7.29-35.162c3.383 10.302 8.99 23.82 17.955 39.928 5.71 10.26 13.112 22.15 22.384 34.785m-11.265-18.904c13.444 19.48 31.782 42.971 56.273 67.608m-20.007-11.316a567.925 567.925 0 0020.434 20.596c12.021 11.508 25.624 23.483 39.971 34.424m-12.895-10.097c15.954 14.992 33.341 27.96 52.993 39.81m-11.68-5.517c24.38 20.18 44.368 34.007 74.598 56.84m-17.55-12.75c8.305 5.36 17.524 11.283 26.988 17.254.739-8.839 1.583-17.582 2.47-26.321 2.861-6.048 5.747-12.093 8.63-18.174l-.21-1.948m-11.52 31.51c.489-5.612.978-11.192 1.474-16.748a3016.94 3016.94 0 018.412-18.421c-1.762-14.951-3.43-29.827-4.896-44.843 1.274-4.942 2.57-9.9 3.893-14.88M979 244.195c-.396-4.156-.8-8.339-1.201-12.544 3.221-11.999 6.459-24.181 9.939-36.421a871.837 871.837 0 01-3.567-6.133c-8.635 6.663-17.02 13.298-24.97 20.006 0 0 0 0 0 0 .003 0-1.406-.327-3.9-1.01m19.371-19.778c-6.386 4.564-12.84 9.173-19.354 13.824 0 0 0 0 0 0-.2-.037-10.825-2.042-28.098-6.787a546.234 546.234 0 01-18.044-5.293m21.822 9.76c-17.219-4.987-37.942-12.457-60.869-23.668a413.387 413.387 0 01-29.13-15.725m29.08 16.335c-10.407-5.761-20.85-11.984-30.9-18.794-11.402-7.724-22.386-16.259-32.52-25.945a197.06 197.06 0 01-11.171-11.57m15.856 16.904a228.418 228.418 0 01-6.479-6.723c-9.238-9.996-17.573-20.902-24.361-32.947-3.741-6.637-7.005-13.606-9.697-20.95m5.672 11.46c-4.772-10.463-7.855-21.647-8.881-33.54 8.538-11.01 17.482-21.824 26.675-32.46-.452-.19-.903-.382-1.353-.573m-13.52 9.52a995.22 995.22 0 019.72-13.889 907.253 907.253 0 00-24.1-10.019c-5.392.204-10.781.454-16.167.742a3159.644 3159.644 0 00-12.53 23.697m11.6-19.43a803.27 803.27 0 00-14.09 25.203s0 0 0 0l-.004.02a20.955 20.955 0 00-.19 1.239c-.101.832-.215 2.08-.255 3.722-.081 3.28.127 8.187 1.329 14.583 1.605 8.543 4.993 19.811 11.954 33.608m-12.62-19.887c2.432 10.829 7.417 24.647 16.967 42.302 4.738 8.759 10.527 18.331 17.55 28.818m-6.469-13.971c12.92 22.387 30.524 44.298 58.626 74.901m-25.636-23.14c6.448 7.736 13.747 15.374 22.022 22.971 14.164 13.005 30.346 25.146 49.434 37.672m-16.408-14.89c21.27 17.424 47.76 39.312 71.805 55.962m-14.143-10.328c20.099 15.52 39.437 29.344 63.523 46.636m-17.476-16.006c6.578 4.754 13.42 9.46 20.555 14.192.471-8.774.981-17.601 1.456-26.451 2.55-6.132 5.081-12.277 7.561-18.423a997.53 997.53 0 00-4.117-22.964M720.41 40.774l50.418 112.85m100.387 93.268l117.343 82.627M804.013 187.03l113.819 96.376m129.463-142.427L892.56 251.504M866.733 54.7L711.546-13.546"/></g></svg>