<svg xmlns="http://www.w3.org/2000/svg" id="svg11099" version="1.1" viewBox="0 0 900 700"><g id="g11667" fill="none" stroke="#fff" stroke-linecap="butt" stroke-linejoin="miter" stroke-opacity="1" stroke-width="3" transform="rotate(46.164 819.445 477.677) scale(1.43792)"><path id="path11652" d="M312.944 552.077a79.473 79.473 0 01-3.042 5.122c-4.02 6.234-10.391 14.287-19.577 21.408-4.583 3.553-9.854 6.86-15.83 9.549a74.659 74.659 0 01-20.06 5.821 77.56 77.56 0 01-6.45.653m17.85-13.792a77.325 77.325 0 01-12.928 2.857c-14.316 1.895-31.07.022-50.142-8.426-1.7-.753-3.357-1.526-4.973-2.316m7.734 11.758a127.861 127.861 0 01-9.31-3.773c-20.52-9.254-35.008-21.29-45.605-34.155a118.784 118.784 0 01-5.13-6.7m16.86 15.055a116.464 116.464 0 01-5.573-5.774c-10.54-11.698-17.674-24.334-22.32-35.906-4.662-11.608-6.753-21.933-7.646-29.46-.444-3.746-.588-6.754-.622-8.837a55.397 55.397 0 01.01-2.393c.006-.261.014-.464.02-.604m-4.326 17.88a100.621 100.621 0 01-3.097-14.95 85.518 85.518 0 01-.696-9.22c-.02-1.087-.01-1.936.005-2.508.007-.287.016-.506.022-.653l.008-.168.002-.042.001-.015s0 0 0 0 0 0 0 0a.597.597 0 00.003-.038l.008-.11.035-.431c.032-.378.082-.949.155-1.684.146-1.467.386-3.648.764-6.404.764-5.575 2.075-13.405 4.375-23.078 1.853-7.797 4.295-16.57 7.53-26.288m-4.607 27.622c2.487-18.07 8.212-41.872 19.47-69.392 1.182-2.89 2.42-5.805 3.713-8.741m-13.258 20.481a195.447 195.447 0 012.894-8.78c4.674-13.13 10.99-26.465 19.084-39.436a204.191 204.191 0 0113.66-19.31m-4.318 10.036c6.816-11.076 14.238-21.32 22.52-30.287 6.703-7.26 13.977-13.69 21.943-19.043m-12.612 10.365c7.256-5.977 14.961-11.552 23.241-16.541 13.301-8.014 28.046-14.49 44.707-18.681 4.971-1.25 9.74-2.359 14.354-3.33m-21.867 3.246a156.86 156.86 0 0110.136-1.739c35.07-4.853 61.327-3.727 82.754 2.458l.273.079m-29.423-2.503c9.492.661 17.714 1.897 24.986 3.619 9.821 2.326 17.869 5.536 24.562 9.307 6.686 3.768 12.018 8.096 16.292 12.612a64.351 64.351 0 016.183 7.619m-18.835-19.68a73.684 73.684 0 017.952 7.057c9.086 9.345 13.493 19.148 15.667 26.59 1.089 3.725 1.622 6.879 1.884 9.095.131 1.11.195 1.987.226 2.587a23.444 23.444 0 01.03.927s0 0 0 0c-1.525 11.183-3.138 22.205-4.631 33.179m1.588-16.396c-1.754 23.75-4.147 48.814-5.817 75.54 3.38 3.26 6.784 6.573 10.218 9.94m-4.852-23.712c-.42 2.919-.833 5.833-1.24 8.747 15.899 14.984 32.149 29.914 47.701 46.13m-10.071-16.523a761.117 761.117 0 0119.68 16.284s0 0 0 0l.012-.002.033-.006.13-.025.506-.09c.445-.076 1.1-.182 1.944-.302 1.687-.239 4.121-.531 7.125-.744 6.03-.429 14.245-.532 23.327.689 5.562.747 11.42 1.988 17.26 3.935m-17.636-1.05l.016.002c9.343 1.413 19.908 4.083 30.207 9.03 10.315 4.957 20.407 12.214 28.9 22.929 2.126 2.682 3.614 5.474 4.548 8.362.933 2.888 1.312 5.871 1.22 8.935-.073 2.389-.433 4.828-1.041 7.309m-3.78-25.371l.24.317c1.996 2.642 3.344 5.359 4.124 8.141.78 2.781.992 5.627.71 8.51-.564 5.768-3.107 11.686-7.058 17.49-3.96 5.817-9.305 11.484-15.496 16.844-6.198 5.367-13.166 10.361-20.387 14.931a238.067 238.067 0 01-6.69 4.078m20.337-16.895c-4.776 4.579-9.897 9.078-15.124 13.427-13.755 11.446-29.796 23.074-40.715 30.862-11.77 8.393-18.907 13.25-19.265 13.491 0 0 0 0 0 0s0 0 0 0c-.06.054-1.25 1.1-3.579 3.063m22.397-21.386l-1.016.638c-11.543 7.226-19.642 11.594-19.53 11.534 0 0 0 0 0 0s0 0 0 0c-.025.018-5.255 3.87-12.964 8.684-7.701 4.808-17.731 10.486-27.481 14.294a82.882 82.882 0 01-6.943 2.384m6.872 1.482c-3.473 1.7-7.056 3.318-10.628 4.73-5.177 2.048-10.338 3.666-15.137 4.49-4.798.822-9.24.85-12.975-.282-1.868-.566-3.56-1.422-5.026-2.615-1.466-1.193-2.707-2.723-3.668-4.638-.96-1.914-1.641-4.216-1.98-6.951-.34-2.734-.34-5.909.069-9.567.818-7.324.81-13.554.154-18.872a56.2 56.2 0 00-.102-.788m2.395 24.778c-.082-1.606-.08-3.33.011-5.18.357-7.247-.186-13.427-1.38-18.66-1.195-5.237-3.045-9.549-5.329-13.089a31.953 31.953 0 00-7.954-8.486c-2.948-2.17-6.126-3.74-9.322-4.867-6.381-2.25-12.882-2.753-17.75-2.707a60.77 60.77 0 00-5.915.337 43.51 43.51 0 00-2.106.28l-.114.019-.029.005-.01.002s0 0 0 0 0 0 0 0l-.006.013-.019.039-.075.15c-.066.132-.165.327-.298.579a56.491 56.491 0 01-1.202 2.156 77.865 77.865 0 01-3.088 4.85m3.476 1.027c-.578.84-1.208 1.733-1.89 2.67-4.384 6.03-11.106 14.193-19.861 21.39-4.412 3.627-9.394 7.057-14.968 9.914-5.574 2.858-11.748 5.147-18.546 6.489-7.588 1.497-15.997 1.82-25.196.391m25.6 2.094a65.64 65.64 0 01-2.06.279c-14.12 1.683-31.413-.912-51.324-11.784-13.454-7.346-24.595-16.216-33.788-25.916m16.224 22.643c-14.652-7.995-25.74-17.225-34.234-26.871-10.641-12.086-17.25-24.883-21.38-36.59a119.51 119.51 0 01-3.435-11.582m12.891 17.91a129.57 129.57 0 01-7.347-14.91c-4.642-11.161-7.012-21.157-8.19-28.335-.589-3.59-.879-6.462-1.02-8.452a56.466 56.466 0 01-.12-2.284 30.622 30.622 0 01-.015-.785v-.013s0 0 0 0 0 0 0 0v-.01l.001-.025.002-.1.011-.391c.01-.346.029-.858.058-1.526.057-1.333.159-3.296.333-5.77.314-4.444.878-10.768 1.875-17.948m1.123 26.284c.062-1.111.143-2.405.248-3.87.392-5.48 1.106-13.16 2.408-22.513a399.035 399.035 0 018.316-42.515m-.62 17.56c3.191-13.392 7.307-27.743 12.744-42.171 4.935-13.096 10.97-26.287 18.467-39.1l.545-.928m-13.255 21.138a218.619 218.619 0 019.28-19.323c6.9-12.726 15.282-25.148 25.078-36.408 1.933-2.223 3.922-4.4 5.964-6.524m-12.227 13.978a195.654 195.654 0 015.31-5.946c10.137-10.891 22.043-21.165 36.027-30.037 9.032-5.73 18.918-10.868 29.77-15.234m-25.525.971c10.94-5.835 23.323-9.89 37.207-11.864 23.884-3.397 44.983-2.825 61.596-.381m-29.412 7.798c19.967-.458 36.085.85 50.113 4.105 10.1 2.344 18.6 5.598 25.817 9.496a82.87 82.87 0 015.27 3.1m-8.43-17.658c4.877 1.81 9.24 3.872 13.15 6.117 6.813 3.912 12.252 8.384 16.603 13.041 8.698 9.312 13.056 19.38 15.249 27.138a62.944 62.944 0 011.932 9.51c.14 1.165.212 2.089.25 2.722.018.316.027.56.032.724l.005.188a6.943 6.943 0 01.001.064s0 0 0 0l-.334 2.796m-6.737-17.171a60.237 60.237 0 011.495 4.301 56.928 56.928 0 012.053 9.48 41.82 41.82 0 01.257 2.724c.019.316.028.56.033.726l.005.187a7.044 7.044 0 01.001.065s0 0 0 0c-2.978 24.766-7.338 50.277-12.265 76.49m3.533-32.789c-1.421 10.913-2.711 21.95-3.93 33.072 15.539 13.177 31.313 26.637 46.96 40.145m-15.502-22.693c10.968 8.827 21.422 17.875 31.654 27.203 0 0 0 0 0 0l.011-.002.034-.005.13-.018a66.587 66.587 0 012.472-.263 98.506 98.506 0 017.199-.353c6.082-.085 14.434.31 23.741 2.256a98.12 98.12 0 0112.976 3.643m-33.201 7.871c3.115.18 6.445.475 9.919.933 9.506 1.253 20.162 3.728 30.5 8.43 10.354 4.71 20.402 11.654 28.797 21.914 2.1 2.565 3.56 5.245 4.464 8.017a23.46 23.46 0 011.13 6.428m-12.31-37.824a63.764 63.764 0 016.245 7.225c1.85 2.488 3.097 5.12 3.8 7.858.703 2.738.862 5.58.546 8.503-.633 5.84-3.168 12.005-7.028 18.293-3.843 6.262-9.04 12.706-15 18.99m13.56-.41c-2.9 3.782-6.334 7.547-10.202 11.26-6.28 6.028-13.629 11.85-21.57 17.36-16.02 11.113-33.6 20.368-47.886 27.103a432.481 432.481 0 01-5.83 2.695m37.449-10.44c-6.759 4.938-13.361 9.32-19.09 12.946-11.248 7.12-19.96 11.843-19.657 11.679 0 0 0 0 0 0s0 0 0 0c-.077.057-5.321 3.911-13.419 9-7.92 4.976-18.465 11.063-28.696 15.466m15.034-28.76c-7.299 4.38-16.12 9.33-24.562 13.1-5.216 2.33-10.38 4.253-15.156 5.383-4.782 1.131-9.178 1.467-12.883.635-1.85-.415-3.522-1.12-4.97-2.155-1.446-1.034-2.667-2.397-3.605-4.119a15.244 15.244 0 01-1.111-2.608m12.115 24.509c-.313-.062-.62-.13-.925-.205-2.036-.503-3.876-1.307-5.48-2.453-1.604-1.146-2.976-2.636-4.067-4.513-1.09-1.876-1.904-4.144-2.379-6.849-.475-2.704-.614-5.855-.346-9.498.539-7.315.353-13.52-.465-18.87-.816-5.335-2.248-9.723-4.124-13.36-1.873-3.63-4.178-6.49-6.703-8.742-2.525-2.252-5.273-3.9-8.032-5.1a34.512 34.512 0 00-4.418-1.568m14.773 6.08a31.675 31.675 0 00-6.124-5.845c-2.944-2.133-6.078-3.612-9.2-4.61-6.256-2-12.438-2.063-17.067-1.613a47.876 47.876 0 00-5.575.87 35.785 35.785 0 00-1.971.49l-.107.031-.027.008a.065.065 0 01-.01.003s0 0 0 0 0 0 0 0l-.005.015-.016.043a41.8 41.8 0 01-.316.818 74.696 74.696 0 01-1.025 2.435 113.613 113.613 0 01-4.192 8.486c-3.75 6.88-9.526 15.909-17.483 23.953a80.695 80.695 0 01-5.631 5.187m30.92-27.364a102.8 102.8 0 01-2.338 3.615c-4.337 6.407-10.93 14.62-19.938 21.702-4.509 3.546-9.632 6.817-15.403 9.45a69.557 69.557 0 01-19.297 5.626 71.88 71.88 0 01-3.25.38m14.855-8.052a70.636 70.636 0 01-13.865 3.592c-14.744 2.254-31.682.116-51.93-9.132a170.41 170.41 0 01-9.023-4.446m12.43 6.276a141.527 141.527 0 01-7.38-2.981c-20.613-9-35.118-20.244-45.766-32.123a115.033 115.033 0 01-4.942-5.9m8.314 16.761a95.425 95.425 0 01-5.413-5.354c-10.991-11.771-17.832-25.023-22.01-37.177-4.193-12.197-5.756-23.41-6.273-31.526a110.384 110.384 0 01-.228-6.8m1.81 22a121.102 121.102 0 01-3.43-16.725 97.983 97.983 0 01-.781-9.012 62.046 62.046 0 01-.047-2.449c.001-.28.004-.494.007-.638l.004-.163.001-.041.001-.015s0 0 0 0 0 0 0 0v-.009l.001-.027.006-.107.025-.422c.022-.371.058-.923.11-1.643.104-1.437.276-3.555.547-6.246.54-5.378 1.476-13.104 3.067-22.374 1.787-10.408 4.402-22.788 8.23-36.089m-11.965 24.874c3.608-17.958 9.3-40.046 18.972-62.19 3.583-8.202 7.732-16.47 12.575-24.665m-9.583 21.816c4.653-12.545 9.852-25.283 15.675-37.476 6.131-12.84 12.989-25.155 20.806-36.333a178.151 178.151 0 017.94-10.524m-11.722 24.78a289.81 289.81 0 0110.239-12.131c10.173-11.377 21.098-21.542 33.462-30.156a158.224 158.224 0 0127.938-15.546m-20.368 6.88c11.605-6.53 24.631-11.134 39.145-13.55 19.323-3.215 36.395-3.96 50.312-3.268m-18.007 5.187c22.95-1.48 40.33-1.013 55.27 1.594 9.86 1.72 18.08 4.3 25.035 7.486 1.03.472 2.031.957 3.004 1.453m-28.474-11.068a70.157 70.157 0 0116.172 6.937 68.705 68.705 0 0116.604 13.68c8.898 10.036 13.618 21.14 16.087 29.768a77.354 77.354 0 012.263 10.592c.18 1.301.282 2.334.34 3.04.03.354.047.627.057.81.005.093.01.163.011.21l.002.054v.018s0 0 0 0l-.052.68m-12.734-13.418a72.544 72.544 0 012.567 7.17c1.164 3.883 1.793 7.176 2.13 9.501.168 1.163.264 2.083.317 2.713a26.675 26.675 0 01.062.909l.002.047.001.017s0 0 0 0c-1.796 19.23-3.173 38.387-4.068 57.692m5.477-26.532c-1.55 14.035-3.3 28.074-5.226 42.05 13.591 11.54 26.893 22.979 39.955 34.178m-16.484-12.734c11.725 10.741 24.228 21.48 37.041 32.448 0 0 0 0 0 0l.013-.002.034-.005.136-.02c.12-.016.298-.04.531-.068a73.785 73.785 0 012.04-.222c1.77-.17 4.347-.363 7.536-.45 5.952-.162 14.11.044 23.218 1.488m-23.6-5.836c5.75-.558 13.091-.729 21.469.267 9.706 1.153 20.612 3.858 31.416 9.098 8.888 4.31 17.643 10.306 25.536 18.51m-9.368-17.937c7.196 4.266 13.783 10.128 19.046 17.983 1.78 2.656 2.917 5.444 3.476 8.328.558 2.886.539 5.875-.002 8.948-1.082 6.149-4.25 12.64-9.045 19.346-3.034 4.242-6.715 8.566-10.917 12.927m1.944-14.857a62.15 62.15 0 01-1.85 3.34c-3.703 6.234-8.743 12.435-14.527 18.422-5.784 5.985-12.281 11.724-18.886 17.067-8.524 6.894-17.378 13.242-24.984 18.466m23.87-16.494c-11.867 7.993-25.227 16.885-34.514 22.987-13.283 8.727-19.593 12.652-20.724 13.347 0 0 0 0 0 0s0 0 0 0c.044-.036-5.76 4.603-14.367 10.682a350.731 350.731 0 01-7.95 5.457m18.284-10.548a196.54 196.54 0 01-11.94 7.903c-8.106 4.963-18.774 10.721-29.716 14.654-5.426 1.95-10.847 3.421-15.905 4.083-5.053.66-9.752.514-13.722-.786-1.987-.65-3.797-1.592-5.385-2.872-1.587-1.28-2.955-2.903-4.06-4.922-.777-1.42-1.424-3.036-1.926-4.869m24.405 14.32c-3.747.232-7.202-.01-10.223-.908-1.97-.586-3.754-1.451-5.313-2.645-1.56-1.194-2.892-2.717-3.953-4.613-1.06-1.896-1.85-4.166-2.316-6.85-.466-2.682-.609-5.78-.373-9.326.472-7.098.14-13.037-.835-18.076-.974-5.031-2.584-9.13-4.634-12.475a28.46 28.46 0 00-2.844-3.875m4.444 7.907c-1.31-4.512-3.072-8.256-5.168-11.372-2.315-3.442-5.031-6.106-7.96-8.159-2.927-2.052-6.064-3.491-9.211-4.48-6.296-1.978-12.623-2.15-17.385-1.827-2.38.162-4.368.448-5.762.694a40.282 40.282 0 00-2.05.415l-.11.027-.028.007-.01.003s0 0 0 0 0 0 0 0l-.006.014a64.446 64.446 0 01-1.498 3.16 93.324 93.324 0 01-4.919 8.487m77.149-169.006l123.17 103.463M361.05 623.908l2.335-83.936m161.794-8.748L396.97 607.42m-236.958-44.314l-45.738-85.3M355.48 238.347l55.33 45.942"/><path id="path11656" d="M395.409 290.607s-2.713 50.344-7.667 53.251c-2.642 1.55-3.168-14.477-3.95-31.648-.781-17.175-1.821-35.475-5.327-38.49-3.678-3.162-6.55 20.23-9.377 45.028-2.828 24.805-5.612 50.981-8.754 53.419-3.321 2.576-3.668-22.63-3.564-48.602.103-25.97.654-52.68-.464-53.11-1.285-.493-3.06 26.507-5.13 54.11-2.07 27.61-4.432 55.78-6.457 57.67-2.201 2.053-1.762-27.547-1.682-57.851.08-30.3-.202-61.27-3.298-61.934-3.261-.7-6.079 28.034-9.013 58.02-2.936 30.01-5.986 61.196-9.22 65.513-3.405 4.548-3.086-32.972-3.092-71.725-.006-38.739-.344-78.663-4.146-78.853-3.94-.197-7.903 50.695-11.602 102.484-3.708 51.908-7.131 104.35-8.493 107.843-1.508 3.87.595-45.693 2.296-96.431 1.699-50.672 2.984-102.322 1.383-102.292-1.712.031-4.83 59.212-8.047 118.382-3.217 59.169-6.573 118.334-6.573 118.334s3.592-58.92 6.924-117.841c3.332-58.923 6.446-117.854 7.657-117.877 1.476-.027.116 51.81-1.593 102.575-1.711 50.83-3.757 100.394-2.102 96.148 1.948-4.998 5.614-57.415 9.304-108.948 3.681-51.408 7.366-101.55 10.807-101.378 3.678.184 3.946 40.197 3.946 78.983 0 38.799-.26 76.322 3.28 71.595 3.772-5.035 7.07-36.168 9.998-65.97 2.926-29.782 5.48-58.156 8.246-57.564 2.972.637 3.186 31.67 3.101 62.007-.084 30.341-.465 59.955 1.868 57.778 2.55-2.38 5.16-30.456 7.224-57.896 2.063-27.432 3.58-54.187 4.373-53.883.995.381.377 27.143.27 53.15-.108 26.008.298 51.239 3.75 48.562 3.663-2.842 6.688-28.81 9.509-53.41 2.82-24.594 5.435-47.784 8.63-45.037 3.384 2.91 4.359 21.249 5.137 38.468.779 17.216 1.363 33.296 4.133 31.67 5.986-3.512 7.715-54.25 7.715-54.25zM279.637 542.414s-2.56 31.888-7.27 36.505c-2.473 2.424 1.646-77.905 4.98-159.049 3.33-81.064 5.861-162.74 4.108-162.612-1.775.13-6.157 84.196-11.703 168.746-5.553 84.653-12.258 169.52-14.546 171.762-2.308 2.262 2.264-81.883 5.47-166.75 3.203-84.775 5.026-170.06 1.482-169.614-3.549.447-8.973 87.245-15.254 173.728-6.28 86.473-13.421 172.735-15.995 172.056-2.586-.682 1.752-84.614 5.302-168.068 3.55-83.427 6.326-166.595 4.715-165.612-1.646 1.004-5.735 77.34-10.405 153.23-4.673 75.913-9.938 151.583-10.566 151.376-.745-.247 4.303-81.768 8.233-163.086 3.927-81.264 6.827-162.489 5.913-161.87-1.028.695-4.764 81.84-9.861 162.605-5.096 80.738-11.473 161.181-13.686 160.335-2.247-.86 1.684-79.241 4.835-156.973 3.15-77.704 5.534-155.014 3.755-153.594-1.82 1.451-6.066 80.593-10.978 159.057-4.915 78.499-10.51 156.616-11.428 156.188-.964-.448 3.425-75.163 7.007-149.479 3.581-74.288 6.372-148.447 5.462-147.646-.971.855-4.568 72.308-8.871 143.249-4.306 70.97-9.33 141.694-10.21 141.238-.942-.487 3.214-72.586 6.654-144.294 3.439-71.681 6.178-143.247 5.426-142.532-.884.841-4.387 73.754-8.877 146.26-4.488 72.474-9.899 144.643-11.296 143.83-1.46-.85 2.218-69.604 4.594-136.937 2.375-67.318 3.467-133.474-.445-129.05-3.998 4.518-8.97 71.154-13.936 136.09-4.969 64.98-9.946 128.591-11.531 127.28-1.678-1.388 1.19-59.699 3.096-116.207 1.904-56.505 2.866-111.445-.7-106.07-3.698 5.57-7.894 55.721-11.946 103.656-4.056 47.979-7.98 94.009-9.836 91.559-1.987-2.623-.357-46.044 1.308-88.308 1.665-42.258 3.377-83.574 2.594-81.957-.95 1.962-3.23 38.478-5.94 73.35-2.711 34.907-5.86 68.357-7.83 64.355-2.114-4.29-1.485-34.97-1.213-61.391.272-26.491.202-48.735-2.87-36.5-6.635 26.423-8.159 61.727-8.159 61.727s2.739-39.36 8.106-60.729c2.915-11.606 2.925 10.531 2.662 36.804-.262 26.209-.812 56.57 1.412 61.088 2.416 4.906 5.856-29.12 8.598-64.54 2.744-35.434 4.768-72.307 5.184-73.165.645-1.33-1.131 39.911-2.794 82.058-1.662 42.154-3.224 85.431-1.122 88.207 2.318 3.06 6.524-43.377 10.604-91.712 4.075-48.29 8.035-98.745 11.194-103.504 3.432-5.171 2.405 49.72.5 106.149-1.907 56.434-4.71 114.642-2.914 116.128 2.06 1.705 7.314-62.205 12.301-127.432 4.984-65.184 9.716-132.015 13.188-135.938 3.781-4.275 2.62 61.846.243 129.11-2.378 67.278-5.994 135.957-4.414 136.877 1.88 1.095 7.564-71.323 12.067-143.99 4.506-72.702 7.767-145.754 8.13-146.1.621-.59-2.186 70.944-5.628 142.578-3.444 71.662-7.539 143.698-6.476 144.249 1.364.706 6.661-70.246 10.981-141.394 4.322-71.177 7.605-142.637 8.124-143.093.78-.687-2.08 73.444-5.664 147.69-3.587 74.272-7.915 148.93-6.83 149.435 1.405.653 7.271-77.67 12.2-156.328 4.926-78.625 8.93-157.879 10.232-158.918 1.65-1.316-.804 75.97-3.958 153.637-3.155 77.695-7.027 156.024-4.657 156.93 2.701 1.034 9.347-79.584 14.456-160.456 5.11-80.9 8.604-162.137 9.117-162.484.786-.532-2.183 80.673-6.116 161.905-3.935 81.287-8.924 162.765-8.056 163.051 1.118.37 6.65-75.457 11.335-151.49 4.683-76.008 8.527-152.425 9.66-153.116 1.483-.904-1.362 82.248-4.917 165.647-3.557 83.426-7.836 167.319-5.127 168.033 3.065.81 10.467-85.484 16.758-172.005 6.29-86.532 11.474-173.395 14.52-173.778 3.418-.43 1.522 84.92-1.69 169.723-3.215 84.896-7.733 169.034-5.29 166.64 2.826-2.77 9.783-87.651 15.334-172.183 5.544-84.435 9.586-168.226 10.943-168.325 1.628-.119-.975 81.623-4.315 162.718-3.343 81.175-7.407 161.5-4.8 158.944 5.783-5.667 7.337-37.504 7.337-37.504z"/><path id="path11660" d="M303.685 557.91c-.123.118-.247.236-.374.353-1.288 1.193-2.79 2.325-4.372 3.02-.791.348-1.603.586-2.416.667a5.553 5.553 0 01-2.427-.278c-.799-.283-1.58-.772-2.327-1.516-.747-.745-1.458-1.743-2.12-3.044-1.325-2.608-2.44-6.405-3.275-11.781-.831-5.359-1.386-12.306-1.595-21.125-.186-7.83-.105-17.57.386-28.826m-2.304 9.18c.108-6.917.525-14.696 1.349-23.431 1.647-17.45 6.48-32.794 13.13-46.194m-11.855 20.203c3.366-12.864 8.77-24.52 15.236-34.97 6.99-11.3 15.32-21.354 23.932-30.205m-5.677 15.058c9.391-10.12 19.1-18.725 28.729-25.97 14.354-10.799 27.741-17.986 38.411-22.679a156.107 156.107 0 0111.169-4.424m-103.417 196.78c-.919.636-1.884 1.196-2.865 1.605-.84.35-1.693.59-2.542.671a5.93 5.93 0 01-2.521-.28c-.826-.283-1.633-.774-2.401-1.522-.769-.747-1.5-1.752-2.17-3.06-1.335-2.61-2.448-6.47-3.077-11.906-.628-5.428-.782-12.515-.122-21.562.665-9.106 2.145-20.116 4.832-33.809.226-1.15.463-2.293.713-3.43m-2.083 27.958c.1-5.347.428-11.343 1.052-18.098 2.01-21.754 9.378-42.22 19.205-60.22m-14.332 20.04c3.316-9.742 7.895-18.718 13.267-26.914 8.873-13.539 19.982-25.068 31.507-34.716m-7.021 7.83c7.511-8.101 15.15-14.852 22.544-20.463 11.59-8.795 22.526-14.75 31.353-18.727m-13.986 8.303a345.429 345.429 0 0117.903-9.32 267.23 267.23 0 018.997-4.148M305.91 541.915c-.103.134-.213.275-.33.422-.848 1.068-2.042 2.467-3.433 3.797-1.391 1.332-2.978 2.594-4.626 3.4-.823.404-1.661.693-2.498.822a5.7 5.7 0 01-2.486-.14c-.815-.238-1.612-.681-2.37-1.374-.758-.694-1.479-1.638-2.14-2.877-1.322-2.473-2.417-6.144-3.08-11.351-.663-5.203-.897-11.985-.459-20.608.44-8.625 1.554-19.111 3.581-31.496.09-.55.184-1.098.28-1.642m-6.493 25.795c.562-6.462 1.308-14.4 2.134-22.859 2.136-21.89 7.522-40.638 15.762-57.077m-13.075 13.524c4.272-10.197 9.13-19.65 14.555-28.48 11.265-18.337 24.52-33.242 38.204-45.16m-19.272 23.95a156.172 156.172 0 0119.4-15.828c14.572-10.04 28.435-15.833 39.26-19.222a128.961 128.961 0 0113.572-3.471m-109.99 89.15l73.355-85.237m-27.634 20.292l112.585-52.074m-133.523 72.575L415 329.006m-130.17 252.49l-5.977-106.912m-4.637 5.985l45.1-95.628"/></g></svg>