<svg xmlns="http://www.w3.org/2000/svg" id="svg5725" version="1.1" viewBox="0 0 1450.577 883.415"><g id="layer2" opacity="1" transform="translate(-1192.633 -789.523)"><g id="g7265" stroke="#fff" stroke-dasharray="none" stroke-miterlimit="4" stroke-opacity="1" stroke-width="2.11" transform="matrix(.48317 0 0 .46495 1890.98 1533.967)"><path id="path6296" fill="#000" fill-opacity="1" stroke-dashoffset="0" stroke-width="9.705" d="M4.032-715.288c-27.362-1.125-56.39.757-81.108 3.416m18.175-11.869c-26.525 1.417-49.782 5.173-69.67 10.183m8.673 2.73c-12.525 1.93-23.942 4.246-34.323 6.855-13.72 3.449-25.916 7.484-36.627 11.991m20.966-3.701c-10.76 4.66-20.541 9.574-29.342 15.069-14.19 8.858-25.312 18.927-32.984 30.672-3.036 4.647-5.502 9.515-7.383 14.603m6.353-31.665a72.1 72.1 0 00-6.918 8.318c-5.282 7.443-8.764 15.517-10.51 24.048-1.749 8.538-1.77 17.587-.066 27.006 1.069 5.914 2.82 11.98 5.252 18.156m-3.849-14.8c.018.866.049 1.734.094 2.603 1.024 19.773 9.197 39.843 24.684 59.484a164.006 164.006 0 003.968 4.836m-15.893-11.326a154.484 154.484 0 005.11 9.644c9.433 16.404 22.818 33.212 40.313 50.61m-5.862-16.827c7.95 9.511 18.072 21.536 27.162 32.322-2.39-2.836 20.806 24.664 18.416 21.827m-11.586-9.186c20.41 20.245 42.603 39.473 67.65 57.753m-16.48-17.332c8.45 7.839 17.5 15.48 27.285 23.25 14.96 11.877 30.32 23.037 47.63 35.78m-24.936-13.613c22.031 15.824 44.409 31.603 67.534 46.604m-21.798-16.287c13.684 9.18 27.09 17.777 40.606 25.975a914.812 914.812 0 0034.956 20.167m-21.856-4.96c24.129 14.652 47.986 30.69 74.576 49.54m-14.347-17.73c19.802 13.209 40.897 26.064 61.693 40.543m-11.901-13.837a1176.807 1176.807 0 0119.3 10.149c16.43 8.823 32.008 17.587 48.186 26.554m-15.987-5.797c26.509 14.832 54.59 28.144 85.49 43.368m-23.237-12.423c29.344 14.65 58.1 25.736 88.313 34.988m-27.466-10.586c28.96 13.993 60.179 28.527 91.472 44.676m-28.812-17.9c25.068 11.016 51.522 20.815 79.837 29.882m-30.617 1.566c17.442 6.492 35.195 13.209 53.352 19.6 11.555 4.068 23.316 8.02 35.437 11.765m-22.065-8.192c29.927 11.053 58.787 21.29 87.855 29.774m-21.78-7.956c29.92 9.631 62.587 22.68 95.148 34.385m-30.368-7.694c30.253 9.735 60.188 17.242 90.18 21.21m-31.727-.47c31.382 9.841 64.476 19.63 97.644 28.406M760.567 3.356c28.266 9.317 54.072 17.693 80.33 28.056 1.724.68 3.448 1.369 5.172 2.065m-19.464-3.924a7032.87 7032.87 0 0117.672 4.897 5033.577 5033.577 0 0149.953 14.17m-11.689-.898c29.215 6.34 57.676 13.464 86.245 19.33m-25.256-4.267c23.747 6.065 48.513 10.795 71.89 14.858M998.1 75.992c28.065 6.229 56.72 9.242 85.263 10.41m-26.718-10.252c31.62 4.509 68.621 12.028 100.012 17.627m-29.207 4.203c11.554 2.109 23.27 3.758 34.936 5.134 16.213 1.912 32.947 3.363 48.789 4.694m-10.56-10.375c29.192 3.032 56.903 4.9 82.48 5.996m-23.89 2.148c16.201.756 30.748 1.454 44.845 2.065 15.292.663 29.392 1.193 42.76 1.517m-24.419-6.931c32.181-.969 61.09-2.66 87.653-6.25 2.087-.282 4.151-.575 6.194-.88m-21.435-1.813c7.2-.763 14.073-1.581 20.637-2.453 25.224-3.352 46.725-7.61 64.968-12.863m-32.236 18.535c13.018-3.544 25.14-7.937 36.045-12.98 10.972-5.074 20.774-10.831 29.245-17.181 6.2-4.648 11.691-9.616 16.444-14.89m-19.675 1.664c1.096-.915 2.171-1.835 3.226-2.761 7.65-6.717 14.13-13.684 19.343-21.212 5.199-7.51 9.011-15.403 11.4-23.776a76.343 76.343 0 002.311-11.294m.186 25.98c.392-1.151.75-2.312 1.075-3.482 2.398-8.628 3.02-17.793 1.859-27.416-2.332-19.338-11.79-40.42-28.862-63.846a268.44 268.44 0 00-1.022-1.392m25.676 31.275c-2.883-7.89-6.678-16.046-11.356-24.477-9.737-17.553-22.99-35.763-39.06-54.86m7.906 4.975c-9.176-11.849-19.502-23.87-30.69-35.63a488.451 488.451 0 00-15.678-15.746m11.967 25.721c-21.36-20.181-38.29-38.312-60.758-62.226m12.732 9.923a678.013 678.013 0 00-32.869-27.16c-12.268-9.513-24.434-18.313-37.048-27.075m23.975 18.331c-19.521-14.516-40.085-29.178-61.584-43.692m12.323 5.161c-16.788-10.28-32.163-20.562-49.49-31.829a1457.792 1457.792 0 00-15.676-10.071m11.28 8.445c-20.547-12.7-41.057-25.325-61.49-37.357m11.236 13.178c-25.087-13.936-49.105-29.682-73.854-46.283m18.282 10.2a1759.815 1759.815 0 00-32.577-17.744 1896.647 1896.647 0 00-53.26-27.207m20.08 9.68c-25.57-14.355-52.014-27.46-76.935-40.718m22.635 9.734c-29.415-14.67-62.22-28.807-99.11-43.41m35.617 15.172c-26.598-13.694-57.68-27.247-89.559-42.851m28.394 7.656c-28.952-13.451-57.289-24.215-87.432-35.522m32.297 14.21c-17.223-6.742-34.699-14.392-52.263-22.574a1518.883 1518.883 0 01-25.586-12.229m11.285 5.704c-27.53-11.52-52.952-18.794-78.639-24.588m12.199 14.665c-24.586-8.744-48.426-17.449-71.329-25.54m20.863-2.182c-30.77-11.005-62.958-21.616-95.238-32.256m32.676 14.376c-27.216-7.894-51.594-15.253-76.36-21.3m14.923.35c-26.952-9.235-51.628-15.37-74.786-20.791m25.317.167c-25.557-7.73-52.995-13.179-81.775-17.313m9.043 4.854a1557.269 1557.269 0 01-64.898-18.315 1433.895 1433.895 0 01-16.51-5.16m27.538 2.588c-1.737-.43-3.468-.85-5.194-1.256-28.47-6.71-55.836-10.28-84.124-12.136m21.406 6.475c-31.55-6.754-62.746-13.57-93.788-20.75m29.849 6.71c-24.572-5.303-48.05-8.584-69.91-11.286l-3.728-.457m13.726-4.946c-4.598-.683-9.141-1.337-13.636-1.964-20.468-2.852-39.965-5.13-59.017-6.924m18.775 11.615c-33.685-3.03-61.14-5.397-89.169-5.67m21.795-4.1c-21.657-1.365-41.199-1.653-59.16-.853-3.257.145-6.453.326-9.592.542m5.22 3.531c-27.474-1.136-54.492.812-78.24 3.559m18.885-7.082c-25.038.793-51.058 5.11-73.667 10.49m8.505 2.727c-11.433 2.61-21.794 5.011-31.856 7.69-15.783 4.2-29.296 8.7-40.985 14.27m13.152-15.033c-9.706 4.012-18.58 8.399-26.569 13.227-14.364 8.682-25.689 18.688-33.696 30.17a81.71 81.71 0 00-1.016 1.49m16.057-10.328c-4.05 3.952-7.624 8.065-10.73 12.345-5.537 7.627-9.534 15.712-12.103 24.247-2.57 8.54-3.698 17.493-3.532 26.87.143 8.123 1.255 16.496 3.194 25.18m.84-34.41c.009.605.024 1.212.048 1.822.723 18.945 8.87 39.937 24.353 62.353a235.42 235.42 0 008.974 12.114m-10.27-7.908a221.268 221.268 0 003.23 5.55c9.869 16.412 23.46 34.342 40.377 52.002m-20.122-11.931c7.405 10.01 15.475 19.631 24.295 29.302 9.12 9.998 18.448 19.415 28.596 29.522m-5.164-17.084c21.73 19.03 40.22 38.961 62.213 63.28m-17.101-17.873a423.764 423.764 0 0019.43 15.334c17.017 12.664 36.094 25.023 55.987 36.095m-25.187-11.417c19.202 14.035 38.19 27.354 57.898 40.666m-17.348-3.29c11.89 8.219 24.428 16.204 37.77 24.134a903.679 903.679 0 0025.543 14.595m-11.432-14.17c19.105 13.41 40.92 25.332 64.834 37.387m-8.532-5.946c22.578 13.427 45.113 25.862 67.262 37.397m-26.497-8.081c8.45 4.206 17.126 8.79 26.1 13.686 21.171 11.55 43.831 24.772 68.13 38.123m-25.725-16.435c21.385 10.878 44.388 23.126 68.355 36.23m-9.685-12.405c21.99 9.305 41.805 20.353 61.509 32.138m-17.818-2.654c20.64 10.924 42.62 19.42 64.727 26.816m-11.553-3.812c24.235 10.589 48.357 21.336 72.153 31.832m-21.546-12.98c23.3 9.142 47.414 18.442 72.794 26.927m-19.486-10.714c8.862 3.926 18.015 7.767 27.424 11.605 13.366 5.453 27.208 10.884 41.238 16.463m-13.652-3.966C539.25-68.997 563.499-60.1 589.09-51.52m-16.419 2.223c21.853 8.557 46.033 16.512 70.418 24.149m-16.776-10.718c28.434 10.596 51.833 18.424 80.267 29.02m-13.212-3.281c22.551 6.922 45.436 13.34 68.639 18.77m-27.22-1.241c28.237 8.27 57.547 16.085 88.111 22.894m-25.76-14.742c12.934 4.413 26.496 8.593 40.084 12.787 11.575 3.572 23.15 7.146 34.756 10.979m-15.6 1.041c28.377 8.803 60.335 14.593 91.496 19.967m-14.079-13.066c24.482 4.484 48.028 10.817 70.162 16.749m-19.066 2.698c32.725 7.718 64.381 11.73 95.379 14.77m-26.234-7.267c27.145 4.612 53.983 10.88 80.713 18.018m-26.62-.795c18.782 3.476 38.34 5.809 57.355 7.575 13.932 1.293 27.962 2.315 41.182 3.215m-37.25-3.538c25.042 2.349 49.71 4.104 73.762 4.764m-9.737 7.298c23.624 2.468 45.855 2.15 66.59.657 11.474-.826 22.797-2.038 33.764-3.427m-26.316-7.085c29.267-1.164 55.073-.735 84.34-1.9m-19.859-.32c15.71-.883 30.145-2.498 43.416-4.591 15.531-2.45 29.963-5.632 43.152-9.266m-26.354 10.648c22.338-5.355 40.912-12.487 56.217-21.729 8.12-4.904 15.258-10.37 21.404-16.38m-15.176 17.256c9.22-4.235 17.379-9.563 24.342-15.644 7.788-6.8 14.176-14.621 19.042-23.207a85.955 85.955 0 005.646-12.057m-7.535 16.006c.497-.678.981-1.36 1.453-2.05 4.992-7.29 8.549-15.173 10.643-23.544 2.093-8.367 2.727-17.234 1.867-26.469-1.033-11.077-4.231-22.788-9.717-34.656m11.748 27.278c-3.348-16.793-9.923-34.117-19.736-52.121-3.87-7.102-8.258-14.336-13.203-21.778m8.356 11.422c-12.397-21.694-28.778-42.745-49.576-66.344-2.777-3.151-5.61-6.324-8.512-9.543m12.23 23.638a681.878 681.878 0 00-9.476-10.691c-16.94-18.731-34.195-36.126-53.756-56.359m16.942 11.515c-14.617-13.241-30.974-26.418-49.192-39.522a673.402 673.402 0 00-6.3-4.477m19.42 14.209l-5.965-4.415c-22.124-16.337-47.103-34.39-74.696-51.318m28.03 17.984c-22.171-16.109-44.962-30.402-70.872-45.12a1238.35 1238.35 0 00-9.044-5.087m20.236 11.798c-4.12-2.764-8.32-5.5-12.603-8.214-16.131-10.224-33.286-20.043-51.615-29.81m13.908 4.713c-22.2-13.181-43.894-25.858-64.91-37.478m10.894 4.173c-16.601-9.757-33.407-18.563-50.637-26.818a905.753 905.753 0 00-23.803-10.968m19.99 9.432c-24.742-12.783-47.35-25.097-70.466-37.606m12.631 9.069c-23.858-12.63-46.12-22.315-69.187-31.26m19.582 8.52c-28.312-12.557-56.377-25.216-85.068-35.865m16.19 6.286c-30.288-12.325-58.055-27.351-87.542-43.455m30.674 13.943c-27.961-12.67-61.048-26.156-95.162-40.946l-1.397-.606m36.218 17.32a3355.345 3355.345 0 00-25.563-9.463c-15.524-5.66-31.152-11.141-46.808-16.106m14.418.281c-30.947-10.803-60.542-22.175-92.01-32.757m24.122 15.072c-29.795-8.908-56.306-22.69-81.14-37.292m28.262 14.056c-28.233-8.751-59.017-17.933-91.347-25.54m28.205 6.767c-28.305-7.685-56.573-17.745-85.593-27.725m21.132 13.645c-25.511-6.584-50.071-15.694-74.656-25.99m19.244-.388c-27.192-6.831-51.625-11.957-75.64-15.103m15.322 4.811a3842.037 3842.037 0 01-35.045-9.201c-17.27-4.634-33.983-9.3-50.206-14.14m24.337-.235c-26.762-5.419-50.84-9.762-75.106-12.8m13.383 11.23c-25.904-6.212-52.33-11.12-74.57-15.76m11.96 5.896c-17.57-3.211-34.689-5.948-51.318-8.415a2679.624 2679.624 0 00-22.433-3.224m18.806 2.698c-27.5-4.356-52.123-8.787-75.82-14.318m8.474-5.55a451.823 451.823 0 00-69.265-2.196m24.564 4.868c-16.634-.362-32.579-.33-48.046.512-9.658.526-18.924 1.358-27.837 2.563m85.208 28.622c16.222.305 33.293 1.276 51.347 2.931 7.817.717 15.805 1.56 23.98 2.532m-24.707-3.224c19.194 1.157 38.148 3.39 57.84 6.56 10.941 1.761 21.994 3.792 33.417 6.065m-19.943 4.54c20 3.087 39.465 5.754 58.875 8.603 9.324 1.369 18.709 2.794 28.077 4.34m-17.64-18.142c22.837 3.213 44.737 8.766 67.352 16.349 2 .67 4.003 1.356 6.012 2.057m-9.256 6.883c3.423.653 6.823 1.31 10.203 1.971 22.91 4.48 44.426 9.046 65.845 13.673m-31.164-9.449c8.677 1.575 17.42 3.456 26.317 5.59 19.573 4.695 39.468 10.507 60.961 16.878m-14.29-6.532c14.199 3.56 28.38 7.216 42.751 10.99a7082.933 7082.933 0 0144.225 11.786m-22.142-11.112c18.956 5.418 37.63 11.699 55.365 18.803a467.257 467.257 0 0114.145 5.933m-21.225-1.346l1.466.452c23.917 7.382 47.695 14.8 71.664 22.531m-7.167-5.882c-2.926-.966 27.508 9.098 24.581 8.132 21.009 6.97 41.978 14 61.275 20.679m-34.256-5.533c13.164 5.38 26.951 10.156 41.124 14.665 9.26 2.946 18.674 5.774 28.171 8.577m-10.163-11.043c14.417 6.218 29.406 12.277 44.645 18.616 13.455 5.597 27.098 11.41 40.832 17.787m-27.455-11.536c20.912 8.906 40.663 17.166 59.873 25.818 9.734 4.385 19.254 8.837 28.609 13.474l.008.004m-31.333-11.457c24.744 9.469 50.468 20.18 77.23 30.212 1.311.491 2.625.981 3.941 1.47m-21.38-6.507a608.06 608.06 0 0015.662 6.823c21.545 9.027 43.245 16.657 65.26 23.108m-25.217-7.761c10.812 5.024 21.527 10.249 32.277 15.672 15.425 7.78 31.035 16.03 47.057 24.67m-9.075-4.337c15.864 7.435 30.165 14.927 43.302 22.14 8.568 4.703 16.789 9.37 24.619 13.835m-18.553-13.77c19.478 10.103 37.246 21.231 53.983 32.94 9.812 6.863 19.34 13.976 28.65 21.224m-27.867-11.425c18.596 10.224 36.58 22.334 53.264 34.737 8.198 6.093 16.163 12.318 23.803 18.5m-20.993-26.94c18.18 11.294 36.852 23.291 53.726 34.11a8655.063 8655.063 0 0023.055 14.742m-12.748-4.769c17.044 10.645 31.82 22.352 44.622 33.51 10.004 8.717 19.4 17.635 27.784 25.76M1316-230.429c11.03 9.861 21.355 19.15 31.496 28.847 8.182 7.823 15.846 15.537 23.025 23.35m-18.248-11.748c7.7 7.443 15.975 15.372 23.675 22.815 10.842 10.479 20.684 20.13 29.542 29.318a525.437 525.437 0 018.363 8.864m-11.141-10.642a497.929 497.929 0 016.177 8.598c7.397 10.542 13.701 20.53 18.782 30.224 5.066 9.663 8.798 18.815 11.115 27.552 1.058 3.99 1.816 7.876 2.27 11.66m-15.603-27.221a117.365 117.365 0 014.426 11.899c2.885 9.308 4.298 18.277 4.348 26.789.051 8.524-1.262 16.624-3.857 24.268-1.838 5.414-4.315 10.592-7.402 15.544l-.215.343m3.928-12.804c-.224.75-.46 1.492-.707 2.228a65.91 65.91 0 01-7.415 15.29c-4.372 6.65-9.966 12.516-16.678 17.552-6.72 5.041-14.51 9.212-23.247 12.518a125.757 125.757 0 01-11.762 3.782m23.618-11.113a151.888 151.888 0 01-8.526 4.644c-9.67 4.882-20.306 9.042-31.942 12.67-11.697 3.645-23.99 6.63-37.23 9.397a798.6 798.6 0 01-8.29 1.683m27.502-7.87c-5.431 1.42-11.159 2.603-17.198 3.56-14.551 2.303-30.539 3.233-48.24 3.12a547.252 547.252 0 01-19.39-.488m14.445-.239l-2.486.102c-17.525.727-33.046 1.499-51.804 2.457-10.11.516-21.26 1.09-31.632 1.577m26.887-.358c-15.38.217-31.705-.47-49.3-1.704-10.73-.753-21.626-1.686-32.961-2.703m24.86-.137c-16.989-1.701-33.927-3.015-51.55-4.151-6.17-.398-12.347-.769-18.592-1.127m4.087 6.128c-21.151-2.864-43.016-5.773-62.374-8.548-6.836-.98-13.638-1.982-20.411-3.02m15.789-2.52l-.31-.054c-24.415-4.255-47.478-9.144-70.25-15.308a627.572 627.572 0 01-16.204-4.618m27.381 6.581a674.76 674.76 0 00-6.95-1.566c-24.322-5.349-50.024-9.69-77.301-14.265M897.15 1.83a2596.747 2596.747 0 01-21.307-4.398c-19.346-4.065-39.538-8.438-59.688-12.31m18.825 2.436c-13.133-3.603-26.012-7.158-38.544-10.755-11.413-3.276-22.649-6.616-33.762-10.13m17.987 4.383c-19.816-4.946-40.064-11.085-60.525-17.643-9.951-3.19-19.866-6.45-29.776-9.706m16.375 14.813c-25.884-6.504-49.124-15.94-71.047-26.047a924.808 924.808 0 01-11.282-5.301m24.495 9.554a748.252 748.252 0 00-11.543-4.34c-25.966-9.531-53.995-18.434-82.479-28.999m25.703 13.329c-9.668-2.817-18.96-5.953-28.004-9.292-18.578-6.859-36.113-14.578-53.597-22.096a1928.407 1928.407 0 00-9.104-3.89m26.63.744a1342.5 1342.5 0 01-18.383-6.749c-20.786-7.797-40.783-15.81-60.174-23.396m19.766 17.635c-12.037-5.668-24.23-10.608-36.422-15.123-17.927-6.638-36.105-12.447-53.611-18.212m25.508 5.366c-16.778-7.524-33.393-14.681-49.97-21.71-10.834-4.595-21.755-9.179-32.647-13.753m19.057 5.203c-21.964-10.195-42.166-19.873-61.495-29.451l-2.849-1.414m21.347 2.7a592.092 592.092 0 01-11.605-5.136c-24.496-11.144-49.213-24.08-74.755-36.427a1270.662 1270.662 0 00-8.63-4.133m24.494 21.117c-5.381-3.137-12.404-7.204-17.785-10.341-18.523-10.79-36.604-21.548-53.855-33.259m18.287 9.472c-9.378-5.8-18.72-11.338-27.792-16.65-11.258-6.593-22.222-12.915-32.783-19.19m9.582 12.122c-13.57-8.485-27.025-16.436-40.104-23.953-12.73-7.315-25.492-14.44-37.65-21.212m22.315 9.444c-13.966-8.39-26.903-17.04-38.88-25.406-13.923-9.725-28.498-20.461-40.922-29.477M7.13-368.19c-10.803-7.567-20.854-15.513-30.289-23.655-10.252-8.847-19.918-18.05-29.042-27.333m11.582 5.56c-9.195-7.142-17.783-14.362-25.713-21.397-12.526-11.113-24.001-22.294-33.951-32.54a690.624 690.624 0 01-10.73-11.299m21.061 20.483c-3.2-3.08-6.294-6.154-9.279-9.208-10.713-10.96-20.287-21.916-28.547-32.272-7.787-9.763-14.657-19.302-20.486-28.333m16.829 14.434c-5.597-7.524-10.449-14.903-14.557-21.992-5.576-9.62-9.868-18.85-12.896-27.52-3.034-8.692-4.82-16.878-5.39-24.517a71.166 71.166 0 01-.2-5.527m3.17 24.466c-1.16-6.59-1.697-12.92-1.59-19.025.15-8.64 1.588-16.796 4.34-24.511 1.947-5.46 4.549-10.69 7.808-15.707 4.607-7.092 10.508-13.734 17.727-20.042a129.405 129.405 0 013.646-3.068m-21.806 23.808c3.699-4.688 8.275-9.179 13.71-13.458 7.144-5.625 15.778-10.888 25.813-15.73 6.185-2.984 12.91-5.81 20.107-8.44m-16.421-.992c7.953-3.299 17.116-6.312 27.448-8.972 12.562-3.234 27.032-5.986 42.986-7.98 6.301-.788 12.86-1.46 19.628-1.992m-28.23 9.364c1.757-.34 3.54-.67 5.352-.99 14.591-2.582 30.578-4.468 48.584-6.011 10.621-.911 21.665-1.68 33.467-2.428m-17.403-6.052c14.047-.523 28.065-.618 41.88-.214 10.562.31 21.052.91 31.441 1.846m-29.092 1.782c17.936.95 37.947 2.248 58.336 4.48a669.282 669.282 0 0115.187 1.833m-22.675-12.411l.927.053c21.186 1.243 42.122 3.998 63.801 8.18a632.269 632.269 0 0119.178 4.017m-17.322.63c.651.053 1.302.106 1.953.161 23.475 1.979 45.424 5.174 69.28 8.729l7.4 1.102m-24.129-.31c3.67.606 7.354 1.235 11.054 1.889 21.187 3.742 42.938 8.298 65.477 13.97m-21.314-9.089a2095.12 2095.12 0 0126.09 4.921c23.415 4.565 45.965 9.325 70.492 14.51m-27.297-1.774c10.88 1.988 21.936 4.457 33.177 7.269 12.265 3.068 24.636 6.515 37.164 10.153m-2.14-3.622c18.714 5.203 36.747 10.493 53.966 16.406a499.898 499.898 0 0120.85 7.659m-17.91-16.493c23.141 6.77 44.886 13.8 65.1 21.753m-16.307-3.63a651.152 651.152 0 0121.025 5.632c16.941 4.82 33.952 10.242 51.296 15.672M589-582.844c15.593 4.15 30.66 9.366 45.517 15.196 15.158 5.948 30.018 12.505 44.934 19.182m-15.756-13.556c19.28 6.147 38.62 12.972 56.992 19.53 1.9.677 8.404 3.003 10.304 3.681m-23.284-5.64c1.596.53 3.195 1.067 4.796 1.608 18.31 6.188 36.924 12.985 55.085 19.474a2017.305 2017.305 0 0022.836 8.03m-10.991-3.084c25.161 11.233 49.705 21.684 73.807 34.154m-27.863-14.327a824.584 824.584 0 0120.841 8.423c19.76 8.284 39.747 17.435 59.729 26.687m-13-8.705c13.252 5.974 26.046 11.738 38.783 17.54 12.864 5.858 25.515 11.686 38.226 17.67m-20.15-7.262c17.682 8.888 36.018 17.055 53.995 24.741 10.18 4.353 20.409 8.62 30.314 12.757m-26.556-11.796c21.34 10.952 43.354 23.449 65.74 37.61.94.595 1.881 1.192 2.822 1.793m-16.762-13.471a721.51 721.51 0 0011.747 6.79c18.46 10.449 37.664 20.325 54.466 29.341m-20.62-7.291a612.085 612.085 0 0024.91 13.722c15.471 8.073 31.208 15.522 46.736 22.383m-13.172-13.644c10.48 6.176 21.106 12.968 31.509 20.015 11.942 8.091 23.656 16.563 34.687 24.96m-14.794-8.675c11.679 7.507 23.289 15.52 34.382 23.57a885.804 885.804 0 0125.578 19.288m-5.57-3.99c12.712 8.47 24.65 17.669 35.68 26.87 12.99 10.84 25.3 22.173 36.345 32.775m-24.046-16.238a424.483 424.483 0 0123.464 21.025c10.68 10.321 20.201 20.656 28.49 30.756m-7.15-12.263c5.288 5.857 10.28 11.436 15.124 17.017 10.137 11.68 18.931 22.589 26.58 33.64 5.655 8.17 10.514 16.18 14.591 24.175m-17.501-25.775c6.98 10.274 12.913 19.868 17.758 29.119 5.068 9.676 8.835 18.774 11.245 27.45a89.956 89.956 0 012.28 10.53m5.226-8.776a142.564 142.564 0 011.747 6.445c2.33 9.491 3.36 18.276 3.034 26.513-.325 8.224-2.004 15.874-5.073 22.958-2.172 5.014-5.042 9.746-8.623 14.186-4.862 6.027-11.033 11.515-18.584 16.469m15.773-28.39a90.312 90.312 0 01-2.855 4.015C1417.776-7.066 1411.71-.83 1404.5 5.09c-7.192 5.903-15.545 11.507-24.997 16.74a217.076 217.076 0 01-9.84 5.118m14.935-2.036a170.833 170.833 0 01-4.005 2.008c-9.84 4.775-20.585 8.853-32.188 12.31-11.628 3.463-23.922 6.247-36.998 8.554a491.83 491.83 0 01-13.641 2.2m24.521-5.952a971.923 971.923 0 01-11.73 1.626 1084.237 1084.237 0 01-48.885 5.352c-4.734.407-9.6.79-14.559 1.14m17.197-4.596l-2.504.036c-16.065.23-35.175.4-54.345-.112a706.079 706.079 0 01-25.003-1.09m21.781-.654c-18.273.22-36.67-.542-56.765-1.893-8.492-.571-17.126-1.236-26.165-1.962m25.388 6.384c-19.702-1.179-39.124-3.056-59.752-5.438a2588.438 2588.438 0 01-25.74-3.12m22.091-4.679c-19.534-2.68-41.868-5.852-64.219-9.461-3.753-.606-7.528-1.228-11.313-1.866m18.47 11.936a714.016 714.016 0 00-6.072-1.26c-21.643-4.398-43.956-7.908-66.41-11.948m13.032-6.755a524.115 524.115 0 00-21.502-4.27C921.7 7.215 897.863 4.5 872.87 2.198m30.723 5.583c-9.623-1.992-19.825-4.3-30.52-6.855-18.046-4.313-37.253-9.275-57.246-14.556m23.15 6.693c-14.389-3.764-32.187-8.367-46.575-12.13a5899.262 5899.262 0 01-22.95-6.043m16.943 5.102c-23.124-6.416-47.15-15.047-71.136-25.83a524.194 524.194 0 01-4.363-1.986m18.024 14.641a367.033 367.033 0 01-13.852-3.886C692.72-43.805 671.082-52.53 649.1-62.296m16.464 2.464c-10.86-3.676-22.138-7.154-33.694-10.446-16.678-4.75-33.88-9.1-51.15-13.087m25.028 7.377c-16.731-5.426-34.705-12.106-53.069-19.403-11.62-4.617-23.386-9.477-35.068-14.411m29.545 5.654c-15.666-5.414-30.893-10.706-45.831-15.622-7.78-2.56-15.461-5.012-23.06-7.319m8.274 6.411c-23.682-8.941-46.886-18.677-69.619-28.508-6.315-2.73-12.609-5.475-18.864-8.212m33.081 10.306c-2.194-.876-4.39-1.759-6.588-2.649-25.704-10.408-52.594-22.147-79.078-33.416l-1.415-.602m27.661 9.096c-7.39-3.52-14.84-7.029-22.315-10.547-23.647-11.13-47.28-22.23-72.596-35.11m22.59 14.711c-8.543-3.886-23.248-10.644-31.792-14.53-17.383-7.929-33.755-15.272-49.593-21.84m20.416 11.109c-13.278-6.64-26.914-14.104-40.45-22.014-13.393-7.827-26.714-16.104-39.575-24.502m24.145 18.04c-16.545-9.821-31.958-18.945-47.256-28.608a765.69 765.69 0 01-20.726-13.536m12.209 12.369c-17.827-11.34-37.275-22.371-55.664-32.682-9.776-5.482-9.83-5.501-19.606-10.983m24.901 5.064l-.433-.292c-19.58-13.197-37.043-25.42-53.716-38.277a611.933 611.933 0 01-15.99-12.752m20.274 21.235c-.567-.384-1.133-.769-1.697-1.153-17.57-11.98-34.351-24.387-49.918-36.308a1906.625 1906.625 0 01-18.483-14.345m21.352 7.433c-14.759-10.782-29.546-22.777-43.044-34.074-9.614-8.046-19.477-16.502-28.377-24.175m18.127 20.564c-9.214-9.044-18.078-17.863-26.688-26.788-9.538-9.888-18.403-19.536-26.537-29.114m11.004 12.05c-4.855-6.08-9.386-11.923-13.62-17.64-7.895-10.658-14.584-20.65-20.082-30.333a184.728 184.728 0 01-5.806-11.041m7.104 12.323a153.23 153.23 0 01-1.33-2.257c-5.556-9.624-9.686-19.208-12.447-28.378-2.767-9.193-4.192-18.067-4.324-26.464-.079-4.962.293-9.762 1.104-14.386m-1.895 10.048a73.914 73.914 0 01-.066-2.412c-.09-8.146 1.193-15.87 3.795-23.075a63.216 63.216 0 017.486-14.491c4.436-6.424 10.149-12.264 17.036-17.387a92.077 92.077 0 019.012-5.9m-7.122 7.535a86.038 86.038 0 016.114-5.313c7.061-5.584 15.403-10.472 24.913-14.543 9.015-3.86 19.08-6.983 30.02-9.238m-15.813 12.276c5.27-1.919 10.801-3.687 16.597-5.303 12.332-3.44 25.794-6.18 40.487-8.257 6.062-.857 12.32-1.6 18.789-2.234m-22.582-2.954c15.783-1.616 29.133-3.162 45.906-5.11 7.83-.91 16.279-1.89 24.435-2.782m-12.032 5.075c13.905-.343 28.102-.414 42.162-.079 11.758.28 23.64.85 35.501 1.819m822.871 221.674l144.42 70.843M-16.714-386.55l-105.587-97.2M643.494-62.357l-140.332-50.496m-62.573 10.93l177.888 67.197M253.955-698.742L85.964-721.538"/><path id="path7206" fill="none" stroke-linecap="butt" stroke-linejoin="miter" stroke-width="7.806" d="M1404.023 106.78s-3.89 5.2-9.846 4.771c-6.389-.46-22.017 19.292-38.278 29.802-7.744 5.006-6.914 1.398-5.11-3.487 1.81-4.9 4.61-11.132.853-11.416-3.952-.3-18.026 14.519-31.543 29.392-13.553 14.913-26.517 29.85-28.097 30.529-1.691.726 11.373-15.64 24.164-32.474 12.769-16.803 25.24-34.039 22.66-34.231-2.762-.206-18.728 17.752-35.47 36.11-16.808 18.429-34.282 37.125-39.9 39.55-5.272 2.277 17.079-26.374 39.561-56.34 22.422-29.887 44.95-61.068 41.033-61.327-4.04-.266-25.594 24.282-48.08 49.237-22.605 25.087-45.945 50.347-53.262 53.616-6.805 3.04 8.422-17.764 24.75-39.656 16.306-21.864 33.754-44.896 31.999-45.02-1.877-.131-27 29.554-52.49 58.825-25.607 29.407-51.445 58.24-54.036 59.208-2.489.929 18.503-24.278 39.217-50.354 20.656-26.002 40.98-52.806 37.883-53.034-3.196-.236-31.685 32.082-60.255 63.806-28.704 31.874-57.375 63.03-60.024 63.806-2.482.727 23.7-29.75 49.56-61.317 25.771-31.461 51.153-63.932 48.162-64.155-3.06-.228-33.909 34.678-65.798 69.109-32.071 34.626-64.97 68.525-71.16 70.332-5.637 1.646 21.56-30.657 48.961-64.359 27.315-33.596 54.808-68.58 51.115-68.861-3.714-.284-39.031 38.768-74.377 76.8-35.551 38.254-70.968 75.319-73.522 76.057-2.436.704 40.766-46.44 83.224-95.53 42.358-48.975 84.336-100.133 83.025-100.23-1.356-.1-36.221 41.154-71.71 81.31-35.602 40.282-71.434 79.174-72.562 79.435-1.141.265 33.696-38.334 67.303-78.2 33.554-39.803 66.093-80.974 62.727-81.225-3.342-.249-41.262 42.799-79.438 84.569-38.399 42.014-76.902 82.587-79.695 83.233-2.49.577 30.572-36.3 63.533-74.637 32.82-38.174 65.465-77.73 63.781-77.862-1.648-.129-40.46 44.244-79.607 87.123-39.373 43.127-78.932 84.6-80.16 84.879-1.206.272 41.152-44.935 82.418-91.875 41.177-46.838 81.602-95.598 79.876-95.727-1.792-.135-41.26 45.519-81.376 89.768-40.258 44.406-80.663 87.056-81.625 87.278-.961.222 36.464-39.841 72.761-81.283 36.232-41.366 71.591-84.24 69.132-84.43-2.569-.2-43.902 46.579-87.26 92.176-43.558 45.808-88.481 89.893-95.563 91.361-6.273 1.3 29.83-38.946 66.326-81.078 36.344-41.956 73.06-85.807 70.19-86.04-2.964-.243-47.332 48.562-93.358 95.709-46.188 47.314-93.472 92.594-98.962 92.866-2.5.123 7.72-11.867 24.097-30.148 16.393-18.298 38.961-42.991 61.374-68.136 22.98-25.781 44.118-50.08 60.86-70.169 16.2-19.44 26.328-32.619 24.69-32.75-3.318-.263-49.833 50.074-96.322 98.326-46.762 48.536-93.464 94.97-94.424 95.02-.478.026 12.302-12.956 31.322-32.744 19.916-20.72 43.468-45.583 69.142-73.768 25.332-27.809 48.65-54.399 66.764-76.071 17.63-21.09 28.532-35.392 26.717-35.527-3.678-.272-51.01 51.287-99.056 100.733-48.352 49.76-97.314 97.3-101.505 97.545-1.915.111 9.32-12.428 26.896-31.553 19.96-21.72 39.198-42.381 65.316-71.31 24.476-27.111 46.656-52.326 64.65-73.483 17.316-20.357 28.352-34.149 27.259-34.227-2.46-.177-49.783 52.438-98.2 103.068-48.582 50.801-97.669 99.265-99.73 99.391-.957.059 10.69-12.168 28.345-30.798 18.755-19.792 40.29-42.624 64.724-69.407 23.923-26.224 45.859-51.043 63.2-71.46 16.81-19.793 27.378-33.2 26.016-33.297-2.751-.196-51.684 53.29-101.164 104.425-49.79 51.455-100.07 100.505-102.44 100.575-2.135.062 39.862-42.646 80.02-87.036 40.088-44.313 78.626-90.414 72.823-90.867-2.972-.233-17.225 12.95-37.232 32.527-19.996 19.567-45.75 45.447-71.476 70.882-26.976 26.67-50.16 49.219-70.858 68.963-19.42 18.523-32.581 30.684-32.997 30.663-.533-.027 12.798-13.063 32.731-32.926 21.048-20.974 45.43-45.566 72.707-74.04 26.971-28.154 51.282-54.39 71.056-76.39 19.034-21.176 31.247-35.528 30.459-35.587-.951-.07-13.705 13.314-32.75 33.127-19.966 20.77-43.403 44.995-70.206 71.595-26.333 26.132-51.74 50.38-72.938 69.45-20.69 18.61-35.697 30.753-38.542 30.618-2.717-.129 8.651-13.007 26.848-32.533 24.976-26.8 43.2-45.85 68.176-72.65 25.662-27.615 48.924-53.256 67.77-74.824 18.121-20.74 29.59-34.799 28.174-34.902-1.578-.115-14.988 13.348-34.548 33.289-21.678 22.1-43.099 44.104-71.154 72.088-26.755 26.688-51.158 50.392-71.938 70.008-19.901 18.787-33.608 31.1-34.446 31.06-.914-.04 11.88-12.804 31.122-32.247 20.225-20.437 44.023-44.694 70.166-72.48 25.65-27.26 49.43-53.568 67.54-74.853 17.685-20.787 28.363-34.928 25.802-35.186-2.72-.274-17.18 13.213-37.789 33.251-20.599 20.028-47.35 46.521-74.403 72.532-27.664 26.597-53.78 50.982-75.731 70.43-21.31 18.878-36.59 31.21-39.23 31.093-2.537-.111 8.773-12.57 26.724-31.507 20.624-21.757 39.951-41.667 66.919-70.599 24.784-26.59 47.928-52.244 65.635-73.177 17.279-20.428 27.798-34.52 25.307-35.27-2.628-.792-17.733 12.85-39.3 33.366-25.895 24.631-51.913 49.988-77.808 74.62-29.134 27.692-55.681 52.329-78.385 72.661-21.751 19.48-36.872 32.203-38.247 32.045-1.397-.16 12.273-13.71 33.189-34.308 22.776-22.43 47.3-46.548 77.055-76.77 28.928-29.383 54.636-56.288 76.099-79.362 20.5-22.04 33.822-37.04 33.32-37.19-.647-.194-14.444 14.088-35.155 35.24-21.879 22.346-47.124 47.89-76.357 76.421-28.817 28.126-55.68 53.44-78.286 73.987-21.79 19.804-36.94 32.721-38.092 32.592-1.19-.134 11.208-12.372 30.168-30.952 20.695-20.279 42.813-41.908 69.856-69.136 26.24-26.42 49.589-50.571 69.102-71.255 18.638-19.757 30.778-33.182 30.353-33.31-.564-.171-14.55 14.152-35.58 35.346-22.204 22.375-47.89 47.98-77.57 76.527-29.32 28.2-56.49 53.43-79.424 74.036-22.053 19.814-37.302 32.741-38.224 32.634-1.922-.224 47.092-45.49 94.898-92.815 47.72-47.24 94.575-96.658 92.466-97.308-1.09-.337-15.822 13.822-37.748 34.838-23.304 22.338-49.617 47.471-80.609 75.952-30.322 27.864-58.861 53.136-82.822 73.405-23.182 19.61-39.52 32.345-41.375 32.116-1.84-.228 13.713-15.031 37.536-37.591 25.64-24.28 54.206-51.325 87.656-84.341 32.531-32.11 62.102-62.447 85.726-87.843 22.818-24.53 37.21-41.382 35.545-41.888-1.82-.551-17.379 13.93-40.198 35.52-24.726 23.396-50.942 48.39-83.441 78.16-31.276 28.647-60.86 54.764-85.73 75.571-24.115 20.175-41.322 33.252-43.885 32.951-2.468-.29 9.749-12.796 29.12-31.702 19.387-18.922 45.94-44.353 72.4-70.292 27.492-26.95 51.815-51.346 72.352-72.508 19.535-20.13 32.236-33.838 31.613-34.03-.769-.236-15.987 14.573-38.883 36.47-24.042 22.995-52.268 49.681-84.62 78.955-31.886 28.853-62.196 55.133-87.59 76.017-24.636 20.26-42.158 33.365-44.489 33.057-2.27-.3 13.031-14.918 36.701-37.158 25.78-24.22 53.71-50.288 87.422-83.106 32.464-31.604 62.093-61.573 85.603-86.597 22.74-24.205 36.986-40.868 35.017-41.467-2.124-.647-18.54 14.075-42.472 36.015-26.223 24.042-53.034 48.896-87.22 79.32-32.63 29.04-63.336 55.373-89.06 76.27-24.915 20.24-42.475 33.167-44.587 32.413-2.046-.73 14.075-16.217 38.885-39.577 27.383-25.782 55.81-52.313 91.434-86.923 34.125-33.155 64.785-64.031 89.754-90.222 23.988-25.162 39.271-42.4 37.936-42.8-1.493-.447-17.362 14.49-40.776 36.664-25.216 23.882-52.52 49.778-85.71 80.076-32.227 29.418-62.203 55.81-87.438 77.103-24.324 20.526-41.228 33.747-42.576 33.27-1.346-.474 11.55-12.761 31.319-31.267 21.894-20.497 44.33-41.33 72.819-68.644 27.202-26.08 51.734-50.28 71.775-70.715 19.26-19.638 31.639-33.028 30.753-33.295-1.033-.312-16.713 14.44-40.17 36.248-24.668 22.934-53.422 49.436-86.486 78.536-32.487 28.591-63.525 54.712-89.371 75.165-25.139 19.893-43.013 32.53-45.444 31.66-2.328-.832 12.01-14.821 34.285-35.812 24.782-23.353 50.046-46.739 82.262-77.911 30.36-29.376 58.434-57.599 80.06-80.822C688.35 15.73 701.17.1 698.311-.764c-3.013-.91-20.222 13.252-44.776 34.513-24.543 21.25-56.443 49.496-88.514 77.14-33.192 28.61-63.166 53.758-88.891 74.588-24.566 19.892-41.464 32.749-42.54 32.364-1.11-.397 15.118-14.652 39.497-36.353 25.685-22.865 55.664-49.808 88.776-81.086 32.468-30.67 62.418-60.334 85.382-84.68 22.387-23.736 35.987-40.172 33.037-41.055-3.108-.93-20.296 13.123-44.829 34.192-24.521 21.058-56.398 49.028-88.562 76.31-32.927 27.927-63.83 53.267-89.65 73.224-25.022 19.342-42.61 31.535-44.751 30.382-2.049-1.103 12.444-15.087 34.799-35.936 24.737-23.072 50.229-46.438 82.253-77.147 30.251-29.009 58.269-56.954 79.685-79.868 20.881-22.34 33.489-37.798 30.385-38.725-3.256-.972-20.226 12.538-44.32 32.842-24.084 20.295-55.301 47.287-86.746 73.641-32.218 27.003-62.319 51.46-87.502 70.808-24.377 18.728-41.455 30.564-43.435 29.499-1.899-1.022 11.408-13.79 31.983-32.784 23.222-21.438 45.8-41.849 75.82-70.154 27.934-26.34 53.852-51.656 73.743-72.392 19.39-20.214 31.193-34.17 28.517-34.974-2.824-.848-19.229 12.21-42.608 31.836-25.62 21.508-58.528 49.782-84.147 71.29-31.71 26.654-59.623 49.59-84.018 69.113-23.083 18.472-38.742 30.456-39.23 30.193-.557-.3 14.705-13.03 37.464-32.423 23.89-20.356 51.919-44.566 82.711-72.383 30.32-27.39 58.228-53.714 79.977-75.396 21.16-21.093 34.333-35.668 32.372-36.38-2.105-.765-17.836 12.188-40.724 31.557C504.495-7.875 478.662 14.3 446.086 41.06c-31.04 25.498-60.733 48.936-85.31 67.001-23.966 17.617-41.018 28.581-43.568 27.154-4.651-2.604 42.608-44.262 89.107-87.502 46.38-43.128 92.044-87.879 87.549-89.659-2.294-.908-18.041 11.268-40.734 29.61C430.447 6 400.808 30.418 370.995 54.309c-30.717 24.616-58.874 46.565-82.642 64.365-22.836 17.104-38.51 28.025-39.465 27.332-.969-.702 16.291-14.998 42.256-36.624 27.752-23.114 58.877-49.183 94.772-80.544 35.172-30.73 66.79-59.477 92.518-83.815 24.744-23.408 40.586-39.489 39.49-39.915-1.244-.484-15.819 12.03-37.426 30.596-22.749 19.546-49.07 42.127-79.368 66.91-29.601 24.212-58.253 46.596-81.78 63.554-23.029 16.598-39.455 26.747-41.968 24.934-2.36-1.703 9.734-14.041 28.757-31.999 21.682-20.467 48.82-45.227 70.5-65.694 25.94-24.462 50.267-48.165 68.525-67.465 17.878-18.898 28.504-32.098 25.244-33.368-3.394-1.322-19.061 9.834-41.072 26.85-22.003 17.009-50.36 39.807-78.9 62.06-29.063 22.661-56.72 43.584-79.518 59.571-22.253 15.604-38.024 25.17-40.455 23.417-4.452-3.214 36.679-39.507 77.106-76.825 40.35-37.245 80.045-75.554 75.306-77.576-4.62-1.971-58.966 42.142-113.144 84.449-54.335 42.429-108.66 83.196-109.47 82.577-.386-.296 14.735-12.069 37.171-30.053 23.36-18.726 51.278-41.499 81.258-67.252 29.545-25.38 57.07-50.234 77.912-70.546 20.408-19.89 32.793-33.882 30.021-35.22-5.58-2.695-58.424 39.958-111.82 80.114-53.521 40.251-107.771 78.154-112.521 73.406-2.154-2.153 9.435-13.943 27.627-30.815 18.195-16.874 42.972-38.888 67.365-61.246 24.758-22.692 48.056-44.7 65.486-62.626 17.089-17.575 27.255-29.942 24.137-31.444-6.283-3.026-56.105 36.182-105.842 73.587-49.847 37.488-99.769 73.315-103.108 69.977-2.97-2.968 33.586-34.267 68.893-66.524 35.26-32.216 69.32-65.418 63.384-68.302-5.904-2.869-53.274 32.936-100.913 66.767C121.572-49.176 73.422-17.13 68.722-21.834c-4.184-4.187 38.005-39.89 79.06-76.624 40.994-36.68 80.919-74.436 74.904-77.562-5.98-3.108-49.69 29.009-93.275 59.347C85.76-86.29 42.072-57.553 38.52-62.76c-3.19-4.68 32.336-35.173 67.344-65.796 34.975-30.593 69.518-61.382 66.31-63.052-3.227-1.68-41.928 27.618-81.201 54.89C51.65-109.408 11.628-84.03 7.73-89.747c-3.497-5.128 37.536-39.907 77.846-75.045 40.265-35.1 79.92-70.645 76.243-72.547-3.692-1.909-38.157 23.982-72.81 48.384-34.692 24.43-69.672 47.453-72.857 42.781-2.883-4.228 31.249-33.745 64.86-63.418 33.58-29.645 66.717-59.508 63.651-61.087-3.125-1.61-33.673 21.578-64.605 43.193-30.964 21.636-62.39 41.763-66.054 36.39-3.345-4.907 18.417-25.851 40.378-46.214 21.95-20.351 44.124-40.144 42.413-41.281-1.81-1.203-28.777 19.339-56.254 38.603-27.495 19.277-55.545 37.31-58.52 32.947-2.72-3.99 24.682-28.218 52.125-52.2 27.425-23.968 54.933-47.726 53.625-48.593-1.434-.951-25.932 18.102-51.09 35.46-25.157 17.358-50.958 33.063-54.002 27.012-2.791-5.549 14.311-23.064 31.68-39.608 17.362-16.539 35.015-32.124 33.845-32.901-1.295-.86-22.56 15.297-44.192 30.264-21.64 14.973-43.685 28.784-45.902 24.378-2.05-4.076 15.448-20.627 32.433-36.966 16.98-16.336 33.47-32.473 29.92-34.83-3.683-2.447-22.435 9.825-40.75 21.714-18.321 11.894-36.233 23.43-37.815 20.284-1.489-2.96 9.344-13.566 18.76-24.699 9.416-11.133 17.42-22.79 10.483-27.523-7.088-4.835-22.893 2.28-37.229 9.97-14.341 7.693-27.232 15.978-28.282 13.89-1.014-2.016 9.746-11.7 19.562-21.834 9.815-10.134 18.693-20.722 14.105-24.23-4.735-3.62-16.453 1.79-27.21 7.65-10.761 5.862-20.57 12.18-21.363 10.604-1.575-3.13 21.68-21.31 18.512-23.735-1.737-1.33-10.606 4.072-19.968 7.958-9.363 3.886-19.224 6.26-22.856-.96-3.337-6.634 8.957-20.916 21.435-34.098 12.477-13.181 25.15-25.27 22.872-27.008-4.858-3.707-20.519 8.79-23.446 2.972-2.787-5.539-23.427 9-36.431-.95-13.32-10.192-6.878-14.428-6.878-14.428s-6.38 5.47 6.098 15.018c12.794 9.79 32.446-3.979 35.35 1.792 3.394 6.748 20.515-6.869 24.534-3.802 2.174 1.659-10.802 13.895-23.543 27.268-12.743 13.375-25.263 27.894-21.868 34.643 3.865 7.685 14.214 5.272 23.899 1.147s18.704-9.969 20.025-8.957c2.959 2.265-21.3 21.19-19.608 24.553 1.026 2.04 11.322-4.316 22.404-10.416 11.08-6.1 22.953-11.951 27.268-8.65 4.484 3.428-4.696 14.165-14.775 24.493-10.08 10.328-21.065 20.25-19.992 22.382 1.284 2.553 14.675-5.777 29.344-13.714 14.664-7.933 30.624-15.488 37.27-10.954 6.827 4.657-1.48 16.466-11.157 27.793-9.677 11.327-20.73 22.17-19.184 25.246 1.816 3.61 20.232-7.971 38.882-20.11 18.643-12.133 37.549-24.848 40.785-22.698 3.44 2.284-13.351 18.572-30.595 35.1-17.246 16.53-34.968 33.314-32.86 37.504 2.451 4.872 25-8.983 46.97-24.2 21.971-15.217 43.353-31.828 44.228-31.246 1.06.703-16.894 16.44-34.519 33.171-17.63 16.736-34.956 34.485-32.106 40.149 3.278 6.516 29.584-9.231 55.069-26.833 25.487-17.602 50.138-37.1 51.127-36.444 1.198.794-26.619 24.708-54.312 48.865-27.71 24.173-55.341 48.627-52.548 52.722 3.263 4.787 31.82-13.286 59.631-32.794 27.81-19.507 54.844-40.487 56.252-39.551 1.601 1.064-20.881 21.013-43.097 41.558-22.227 20.555-44.215 41.73-40.798 46.741 3.953 5.798 35.911-14.387 67.202-36.266 31.26-21.857 61.933-45.47 64.566-44.114 2.945 1.518-30.502 31.537-64.347 61.367-33.878 29.858-68.235 59.591-65.28 63.925 3.474 5.096 38.988-17.98 74.01-42.65 34.981-24.642 69.572-50.958 72.773-49.302 3.556 1.84-36.41 37.54-76.944 72.82-40.58 35.318-81.841 70.306-78.273 75.539 4.188 6.143 44.747-19.282 84.402-46.825 39.605-27.508 78.432-57.23 81.168-55.804 3.087 1.607-31.766 32.55-67.008 63.327C69.131-96.85 33.378-66.144 36.641-61.36c3.84 5.633 48.066-23.151 92.047-53.77 43.916-30.573 87.751-63.114 93.243-60.26 5.895 3.065-34.349 40.983-75.617 77.848-41.328 36.92-83.747 72.832-79.472 77.11 5.069 5.072 53.761-27.023 101.815-61.15 47.953-34.055 95.41-70.255 100.816-67.628 5.813 2.825-28.563 36.194-64.093 68.6-35.576 32.448-72.356 63.963-69.295 67.022 3.707 3.704 54.168-32.176 104.327-69.892 50.049-37.634 99.955-77.241 105.744-74.452 3.056 1.472-7.22 13.868-24.436 31.5-17.571 17.997-40.99 40.068-65.897 62.865-24.53 22.451-49.432 44.564-67.707 61.524-18.272 16.958-29.896 28.822-27.696 31.02 5.117 5.117 59.907-32.838 113.74-73.316 53.709-40.384 106.636-83.436 111.724-80.978 2.71 1.309-9.785 15.33-30.324 35.279-20.985 20.382-48.634 45.301-78.333 70.785-30.154 25.875-58.129 48.685-81.605 67.522-22.517 18.066-37.671 29.908-37.232 30.245.532.406 14.616-9.527 35.35-24.917 21.773-16.163 47.089-35.512 75.403-57.612 27.763-21.67 47.624-37.566 75.387-59.235 20.882-16.242 35.43-26.954 37.603-26.027 4.612 1.968-35.407 40.455-76.027 77.893-40.7 37.51-82.052 74.016-77.492 77.308 2.646 1.91 18.666-7.594 41.15-23.203 22.993-15.964 50.935-37.018 80.113-59.764 24.882-19.397 54.24-43.073 79.123-62.47 21.996-17.164 37.544-28.464 40.677-27.243 3.195 1.245-7.543 14.478-25.55 33.44-18.402 19.376-42.85 43.145-68.94 67.715-24.225 22.815-46.612 43.16-70.837 65.974-19.1 18.042-31.224 30.45-28.81 32.193 2.729 1.968 19.403-8.118 42.662-24.723 23.733-16.942 52.648-39.443 82.374-63.748 30.273-24.753 57.03-47.771 79.589-67.322 21.592-18.715 36.049-31.373 37.032-30.99 1.032.402-14.922 16.515-39.797 39.984-25.89 24.426-57.596 53.21-92.939 84.057-36.108 31.515-67.212 57.552-95.118 80.808-26.045 21.706-43.336 36.068-42.313 36.81 1.17.85 17.093-10.007 40.161-27.114 23.901-17.725 52.47-39.904 83.24-64.552 33.467-26.807 56.21-45.73 82.36-67.05 22.678-18.49 38.307-30.811 40.34-30.006 4.367 1.73-41.625 46.668-88.277 89.99-46.774 43.437-94.255 85.304-89.483 87.976 2.79 1.562 20.103-9.351 44.306-26.98C384.456 91.66 414.43 68.09 445.58 42.51c32.253-26.485 59.1-49.573 83.58-70.462 22.865-19.51 38.47-32.6 40.312-31.93 1.895.688-11.393 15.3-32.683 36.459-21.902 21.765-49.922 48.148-80.398 75.652-30.977 27.955-59.039 52.181-83.05 72.66-22.836 19.474-38.124 32.27-37.506 32.603.731.394 16.657-11.543 39.98-30.031 24.453-19.385 52.95-42.71 84.622-69.321 30.573-25.688 61.003-51.929 84.344-71.684 23.352-19.765 39.623-32.95 42.17-32.186 2.607.783-9.311 14.778-28.832 35.06-20.04 20.82-46.072 46.198-74.16 72.65-30.446 28.674-52.568 48.643-76.154 70.434-20.649 19.077-33.98 31.911-32.021 32.966 2.223 1.196 19.566-10.594 44.184-29.34 25.365-19.313 55.797-43.95 88.103-71.018 31.59-26.467 62.885-53.605 86.94-74.038 24.067-20.442 40.904-34.08 43.886-33.19 3.035.906-9.686 16.403-30.698 38.811-21.565 22.998-49.699 51.008-80.103 80.128-32.34 30.976-57.597 54.103-82.588 77.425-22.43 20.931-36.947 34.98-34.837 36.117 2.384 1.284 20.236-10.863 45.498-30.223 26.006-19.929 57.228-45.44 90.248-73.436 35.79-30.347 60.806-52.52 88.757-76.708 24.506-21.207 41.562-35.39 44.396-34.541 2.882.863-10.833 17.34-33.355 41.146-23.114 24.433-53.184 54.166-85.807 84.948-33.3 31.42-63.309 58.375-89.115 81.362-24.452 21.781-40.702 36.097-39.521 36.52 1.355.484 18.535-12.342 43.347-32.258 25.852-20.75 56.272-46.182 89.481-74.796 32.207-27.75 64.17-56.13 88.675-77.509C677.79 13.39 694.858-.891 697.599-.063c2.791.843-10.146 16.514-31.332 39.193-21.778 23.311-49.967 51.599-80.484 81.092-32.551 31.46-57.545 54.571-82.597 78.192-22.349 21.071-36.707 35.123-34.31 35.981 2.711.97 20.866-11.636 46.25-31.554 26.052-20.443 57.375-46.712 89.958-75.376 33.046-29.072 62.17-55.98 86.646-78.907 23.419-21.937 38.959-36.81 39.72-36.58.819.247-11.675 13.68-31.067 33.39-20.211 20.542-44.818 44.774-72.194 70.993-28.838 27.62-50.97 48.153-73.149 68.935-19.84 18.59-32.755 30.942-31.34 31.441 1.625.574 18.808-12.62 43.375-33.172 25.406-21.255 55.73-47.86 88.019-77.321 33.006-30.116 61.009-56.731 85.868-80.451 23.376-22.305 39.106-37.362 40.33-36.995 1.268.38-14.129 17.661-38.25 42.895-25.133 26.293-55.882 57.21-90.176 90.495-35.91 34.852-64.165 61.2-91.77 87.203-24.883 23.44-41.026 38.989-38.91 39.745 2.388.854 20.227-12.046 45.385-32.311 25.914-20.875 56.931-47.383 89.642-76.484 33.842-30.106 61.675-55.95 87.38-79.694 23.894-22.07 40.172-36.913 42.028-36.348 1.9.579-12.463 17.288-35.34 41.57-23.672 25.124-53.409 55.153-86.04 86.884-33.97 33.034-61.791 58.98-87.759 83.39-23.74 22.318-39.055 36.993-36.7 37.305 2.671.353 20.502-12.75 45.392-33.048 25.6-20.877 56.202-47.319 88.16-76.224 32.322-29.236 60.881-56.305 84.72-79.277 22.84-22.01 37.904-36.926 38.405-36.772.556.171-12.263 13.927-31.935 34.135-20.728 21.294-45.096 45.692-72.783 72.803-21.296 20.854-51.435 49.736-72.731 70.59-19.439 18.988-31.667 31.552-29.114 31.853 2.904.342 20.419-12.738 44.786-32.953 25.072-20.8 54.951-47.088 86.293-75.787 32.233-29.515 59.251-55.326 83.538-78.482 22.762-21.702 38.169-36.29 39.721-35.818 1.6.485-12.91 17.385-35.865 41.993-23.786 25.5-53.46 55.896-86.159 88.135-33.679 33.207-62.195 60.186-87.992 84.63-23.892 22.639-39.46 37.499-37.534 37.738 2.194.272 18.84-12.466 42.273-32.115 24.153-20.253 53.007-45.712 83.386-73.619 30.879-28.365 57.69-54.038 80.708-76.277 21.868-21.128 36.448-35.393 37.272-35.139.885.273-10.35 12.85-27.866 31.291-18.156 19.115-40.641 42-65.345 66.428-25.415 25.132-46.937 45.766-66.392 64.427-18.052 17.317-29.892 28.723-28.826 28.848 1.257.147 16.81-12.786 39.113-32.643 23.098-20.565 50.632-46.041 79.982-74.258 29.614-28.47 55.703-54.544 77.668-76.856 20.974-21.307 34.807-35.736 35.107-35.645.358.108-11.898 13.582-30.67 33.42-19.696 20.814-43.1 44.98-69.527 71.561-27.337 27.496-49.262 48.923-70.18 69.444-19.027 18.663-31.437 30.96-30.163 31.105 1.485.167 16.938-12.757 38.976-32.606 22.78-20.517 49.985-46.06 78.842-74.212 29.16-28.45 54.818-54.478 76.453-76.753 20.655-21.266 34.301-35.654 34.683-35.54.437.132-13 15.181-33.635 37.302-21.641 23.2-47.414 50.129-76.524 79.667-30.024 30.464-54.407 54.428-77.382 77.073-20.983 20.681-34.666 34.29-33.186 34.46 1.708.197 17.131-12.533 39.131-32.058 22.845-20.274 49.797-45.196 78.94-72.888 28.332-26.92 56.401-54.332 77.904-74.951 21.512-20.63 36.466-34.378 38.83-33.665 2.425.73-8.21 14.874-25.624 35.386-17.86 21.037-41.121 46.771-66.06 73.494-24.467 26.216-49.21 51.87-67.242 70.91-18.017 19.023-29.336 31.54-26.71 31.656 2.993.133 18.596-12.228 40.17-31.173 22.165-19.463 48.586-44.044 76.319-70.702 29.668-28.519 51.48-50.304 74.485-72.859 20.539-20.137 34.82-33.7 37.235-33.457 2.485.25-8.314 14.45-26.136 35.324-18.262 21.39-42.16 47.78-67.961 75.17-26.328 27.95-50.142 52.212-70.479 72.782-19.303 19.524-32.103 32.342-31.102 32.388 1.187.055 15.216-12.29 35.382-31.145 20.935-19.574 45.765-43.602 72.531-70.292 27.556-27.478 50.253-50.84 71.239-72.42 19.488-20.04 32.718-33.577 33.983-33.484 1.339.098-10.252 14.216-28.51 35.044-19.018 21.694-42.359 47.375-68.19 75.14-21.218 22.805-47.268 50.147-68.486 72.952-18.257 19.607-29.631 32.541-26.826 32.676 3.192.152 18.52-12.023 39.474-30.703 21.43-19.104 47.107-43.52 73.528-69.734 26.773-26.563 50.548-51.21 70.292-71.93 18.973-19.911 31.548-33.37 32.188-33.322.71.053-11.624 14.463-30.794 35.729-19.944 22.122-44.337 48.404-71.476 76.704-27.469 28.646-51.85 53.228-73.018 74.342-19.993 19.944-33.331 33.034-32.712 33.066.762.039 14.244-12.154 33.926-30.745 20.716-19.568 44.598-42.708 71.449-69.247 24.42-24.138 47.142-47.08 71.562-71.217 19.936-19.676 34.01-32.934 36.673-32.726 5.652.442-33.228 46.801-73.578 91.348-40.423 44.626-82.61 87.556-80.29 87.489 1.4-.04 14.995-12.38 34.4-31.153 20.1-19.447 43.987-43.406 69.579-69.847 26.358-27.232 48.126-50.44 68.167-71.777 18.636-19.84 31.28-33.23 32.49-33.143 1.286.092-9.403 13.561-26.35 33.447-17.505 20.54-39.54 45.426-63.623 71.796-24.644 26.984-46.14 49.765-65.03 69.722-17.712 18.712-29.361 30.99-28.308 30.927 2.827-.171 52.471-48.816 101.28-99.84 48.637-50.843 95.832-103.68 97.678-103.547 1.017.073-10.14 13.928-27.593 34.38-18.167 21.289-40.427 46.548-65.072 73.817-26.59 29.42-45.263 49.45-65.621 71.624-17.635 19.207-28.87 31.8-26.861 31.683 4.953-.286 54.472-48.007 103.05-97.99 48.268-49.665 95.466-101.446 98.538-101.217 1.74.13-9.285 14.494-27.05 35.678-18.272 21.788-41.7 48.457-67.185 76.405-25.85 28.35-49.432 53.233-69.45 74.081-19.079 19.87-31.861 32.904-31.289 32.874 1.718-.089 48.976-46.704 95.966-95.462 46.712-48.471 93.094-99.03 95.808-98.815 1.561.124-8.689 13.367-25.025 32.9-16.905 20.214-38.137 44.573-61.279 70.504-17.89 20.048-43.787 48.406-61.678 68.454-16.436 18.365-26.657 30.409-24.062 30.282 6.242-.306 54.08-45.769 100.496-93.307 46.246-47.364 90.491-96.397 92.848-96.204 2.722.223-34.348 44.356-70.96 86.564-36.764 42.385-73.054 82.863-66.562 81.521 7.962-1.645 53.427-45.92 97.178-91.926 43.542-45.784 84.691-92.72 86.657-92.568 2.313.18-33.4 43.345-69.896 84.968-36.565 41.7-74.174 81.997-72.994 81.726 1.848-.426 42.791-43.27 83.237-87.872 40.294-44.435 79.572-90.238 80.764-90.149 1.581.119-39.197 49.17-80.64 96.262-41.535 47.196-84.08 92.633-82.656 92.312 2.11-.477 42.208-42.145 81.77-85.467 39.415-43.163 77.796-87.603 78.999-87.509 1.536.12-31.457 39.969-64.54 78.403-33.226 38.6-66.47 75.715-63.764 75.09 3.668-.846 42.706-41.618 81.292-83.831 38.359-41.964 76.084-85.162 78.835-84.957 3.22.24-29.665 41.707-63.48 81.772-33.87 40.13-68.889 78.968-67.534 78.655 1.99-.461 38.356-39.556 74.145-80.04 35.67-40.349 70.352-81.76 71.113-81.704 1.166.086-41.17 51.547-83.797 100.782-42.73 49.352-86.12 96.727-83.45 95.957 3.496-1.009 39.446-38.273 75.169-76.709 35.512-38.208 70.603-77.374 73.723-77.136 3.546.272-24.3 35.556-51.879 69.422-27.664 33.972-55.04 66.522-49.174 64.813 7.112-2.072 40.541-36.18 72.784-70.993 32.056-34.612 62.685-69.639 65.155-69.455 2.845.213-22.885 32.988-48.917 64.723-26.121 31.842-52.48 62.569-49.773 61.777 3.553-1.039 32.752-32.409 61.629-64.473 28.737-31.91 57.014-64.355 59.62-64.163 2.951.218-17.727 27.342-38.644 53.63-20.976 26.361-42.14 51.826-39.41 50.808 3.566-1.328 29.926-30.383 55.684-59.962 25.635-29.437 50.51-59.203 51.801-59.112 1.61.113-16.199 23.48-32.768 45.641-16.59 22.188-31.985 43.26-24.92 40.108 8.356-3.726 32.21-29.219 54.946-54.46 22.61-25.102 43.883-49.685 47.342-49.456 3.773.25-19.11 31.765-41.795 61.945-22.744 30.26-45.267 59.173-39.742 56.792 6.628-2.857 24.62-21.79 41.56-40.377 16.873-18.512 32.569-36.522 34.75-36.36 2.435.182-10.389 17.751-23.415 34.855-13.05 17.134-26.277 33.772-24.34 32.94 2.569-1.101 16.05-16.278 29.738-31.353 13.65-15.032 27.462-29.912 30.833-29.656 3.612.274.426 6.89-1.655 12.126-2.075 5.218-3.062 9.116 5.007 3.908 18.827-12.153 33.956-31.3 39.19-30.923 5.669.41 10.485-5.59 10.485-5.59z"/><path id="path7212" fill="none" stroke-linecap="butt" stroke-linejoin="miter" stroke-width="4.642" d="M-153.785-425.109c13.23 23.05 24.254 47.554 35.348 71.731m-9.88-27.528c10.273 20.966 21.728 42.685 33.61 64.547m-13.422-8.071c10.092 21.778 21.955 43.407 33.814 64.2m-1.902-12.134c13.039 24.412 24.555 47.802 36.828 71.822a3088.85 3088.85 0 009.432 13.67m-22.167-32.048c1.545 3.2 3.141 6.41 4.785 9.628 13.763 19.81 29.639 39.925 46.443 59.338m-12.66-11.35c13.58 21.804 29.462 40.999 46.25 58.86m-17.128-10.56c13.296 20.578 28.631 40.878 44.772 60.906m-4.585-17.79a489.913 489.913 0 0113.689 20.227c10.57 11.208 20.647 22.885 30.421 34.94m-11.485-9.29c22.547 22.296 43.147 42.403 63.943 61.756m-14.805-19.18c13.655 14.967 28.212 29.316 43.241 44.036 8.986 6.48 18.103 13.063 27.287 19.893M183.05 68.96c23.544 16.453 44.903 32.09 66.777 47.687m-21.371-16.9c20.574 14.684 39.443 27.956 58.368 40.784a1925.39 1925.39 0 0015.573 7.6m-22.101-4.475a637.378 637.378 0 015.27 3.741c23.557 12.75 46.497 27.094 70.582 43.485M341.53 173.64c20.624 12.84 41.87 25.39 62.226 39.578m-11.923-13.797a797.479 797.479 0 0120.836 10.94c17.004 6.066 33.537 12.475 49.707 18.774m-16.959-3.549c28.267 11.138 58.596 21.57 89.71 33.449m-24.266-9.962a619.39 619.39 0 0038.93 12.997c18.605 1.155 37.068 1.453 55.742 1.255m-29.8-2.21c32.543 4.627 65.462 9.464 99.087 16.764m-30.925-9.98c15.555 1.976 31.456 3.626 47.764 5.044 12.439.273 25.112.413 38.046.46m-32.083 8.183c31.036.831 61.856 2.31 94.962 2.8m-23.648-.688c21.742.821 43.002 1.49 64.136 1.683 9.85-.955 19.672-2.013 29.503-3.207m-23.323 2.573c31.677-3.387 66.054-2.883 100.45-3.162m-31.83 3.066c20.317-1.463 40.585-3.607 60.858-6.827a603.998 603.998 0 0033.044-12.095M969.48 279.29c31.706-7.694 65.452-14.795 99.413-22.341m-27.711-2.69c10.888-1.937 21.53-3.916 32.028-5.79 18.134-4.509 35.819-8.689 53.592-11.73m-19.28 9.202c22.32-6.821 44.858-13.18 66.934-19.144m-11.504 7.129c9.606-3.116 19.167-6.079 28.723-8.966 17.837-7.878 35.65-15.466 53.727-23.336m-23.866 9.91c21.944-9.554 44.861-20.034 67.189-30.655m-16.225 8.38c17.6-7.34 35.611-15.854 54.027-25.167a1966.754 1966.754 0 0023.487-17.019m-23.587 4.788c24.696-17.45 51.121-32.201 77.63-46.67-2.709-.011-5.417-.02-8.126-.028m-9.124 19.96c5.791-3.508 11.668-7.13 17.619-10.825-20.092-1.062-39.561-2.738-58.705-4.024m29.724-7.165c-27.271-1.697-55.117-3.582-82.909-5.165m17.268 4.398c-27.463-1.988-56.988-2.99-87.36-3.068-2.625-.023-5.257-.04-7.895-.049m25.803-5.986c-6.035-.482-12.032-.928-18-1.345-25.438-1.946-50.36-3.352-75.483-4.682m31.25-3.601c-28.128-2.021-58.692-2.992-88.69-2.315m13.48 12.875c-31.04-1.82-60.558-4.624-89.447-7.01m24.544-13.776c-24.786-2.937-48.084-4.204-71.429-5.483m18.582 12.15c-14.416-1.281-29.796-2.594-45.886-4.018-18.657-5.558-38.343-11.278-58.616-17.301m40.734 13.632c-29.434-8.74-60.5-18.341-90.019-27.291m16.814-8.329c-23.332-6.849-45.82-13.093-67.482-18.316m15.973 19.042c-15.171-4.149-29.338-8.779-42.88-13.718-12.829-4.639-25.098-9.554-37.13-14.601m17.25 1.551C702.96.364 675.034-6.29 647.929-12.6m28.045 10.196c-24.414-7.31-48.34-14.533-72.312-21.781m14.554.481c-18.85-4.75-36.98-10.322-55.145-16.036-6.223-2.525-12.45-5.067-18.716-7.597m12.766 5.502c-23.464-9.078-45.265-17.636-67.064-26.139m12.33 10.937c-27.618-9.837-53.96-22.2-79.316-34.86m19.568 7.455a5488.303 5488.303 0 00-43.536-16.94 7430.426 7430.426 0 00-45.41-21.44m20.39 9.064c-26.49-13.857-53.029-26.59-77.438-39.705m22.641 9.721c-22.591-11.13-46.834-22.145-72.745-33.404-8.34-3.867-16.857-7.76-25.552-11.69m35.016 16.41a843.904 843.904 0 00-4.609-2.468c-25.254-14.337-53.816-28.877-82.537-45.426m27.584 9.369c-28.229-15.437-55.754-28.604-84.197-42.46m31.29 16.399c-14.652-7.322-29.409-15.457-44.102-24.108a1119.497 1119.497 0 01-28.277-21.754m9.108 9.915C55.63-289.848 33.18-302.863 10.419-314.75m9.9 19.214c-21.685-14.17-42.636-28.626-62.693-42.808m18.776 2.036a3229.79 3229.79 0 00-18.9-12.718c-20.156-15.44-40.889-30.977-62.07-46.961m28.15 23.046c-22.559-15.844-42.953-31.696-63.35-46.478m11.706 6.65c-11.845-9.444-23.021-18.119-33.73-26.398a1694.21 1694.21 0 0020.244 36.273m-6.993-31.078c11.88 23.004 21.81 47.843 29.897 73.608m-17.441-16.484c14.413 26.952 28.822 52.57 45.698 77.61m-6.64-24.26c11.912 25.52 24.926 53.976 36.108 83.864m-11.744-18.885c9.619 18.152 18.59 35.854 27.462 53.116 6.268 8.91 12.506 17.681 18.808 26.316m-12.157-20.288c13.896 19.989 29.054 41.696 44.738 63.305m-13.422-21.868c13.082 20.045 27.147 40.36 41.138 60.78m-6.234-3.403C39.85-80.695 53.89-61.15 68.27-41.195a3124.325 3124.325 0 0116.094 15.64M63.833-49.36c.729 1.095 1.463 2.192 2.202 3.29 16.14 16.365 33.75 33.285 52.515 50.915m-7.28-7.682c17.918 17.128 35.695 35.877 52.946 54.461m-11.343-18.092c11.204 10.064 21.57 20.82 31.412 31.872 6.618 5.352 13.06 10.805 19.389 16.28m-19.157-3.286c22.264 16.55 44.058 30.833 66.95 44.831m-19.398-18.37c19.102 13.701 37.546 27.144 55.987 40.646l6.972 3.81m-10.165-6.108c2.542 1.947 5.089 3.883 7.637 5.807 24.85 13.98 49.818 27.041 72.71 39.843m-18.873-20.021c21.775 11.837 46.493 24.28 71.933 36.262 1.894.585 3.791 1.168 5.691 1.748m-18.311.905c4.576 2.32 9.168 4.663 13.776 7.016 18.191 6.024 36.592 12.2 55.21 17.977m-24.884-5.066c25.082 10.475 49.977 18.674 73.496 27.209m-9.488-10.036c13.198 3.988 25.615 8.688 37.465 13.814 15.513 2.675 30.16 6.002 44.345 9.448m-22.43-5.213c29.602 2.887 61.97 5.569 93.773 6.017m-29.898.728c17.482 2.402 34.265 4.393 50.79 6.285 6.508.287 12.976.56 19.432.835m-19.883 4.382c23.813 1.636 48.577 2.685 74.535 3.824m-13.696-6.93c23.16 1.989 48.785 2.746 75.17 3.485m-10.677 1.27c9.17.473 18.25.844 27.221 1.116 17.24-1.334 34.078-3.034 50.387-5.079m-28.886 2.463c33.193-3.318 68.274-1.77 105.522.108m-28.908-1.368c9.72-.734 19.644-1.211 29.709-1.482 14.888-2.936 30.096-5.398 45.391-7.563m-10.971-1.21c23.99-6.093 45.607-10.158 66.55-13.545m-18.822 6.846c7.919-1.582 15.981-3.443 24.119-5.528 14.702-4.83 29.658-10.415 44.443-16.401m-12.234 6.972c25.696-7.886 50.846-15.425 75.335-23.006m-22.243.121a4121.44 4121.44 0 0126.018-7.978c15.38-6.76 31.015-13.53 47.15-20.524m-19.262 2.32c21.247-8.906 44.048-18.11 67.498-26.571m-13.356 7.638c19.042-9.03 38.972-17.281 59.663-25.487 3.592-2.108 7.211-4.216 10.857-6.326m-15.086 16.258c1.407-.638 2.824-1.277 4.25-1.917 18.289-12.268 38.414-24.816 58.834-37.366m-15.036 3.251c12.286-7.471 24.116-15.237 35.549-23.049-16-.96-32.438-1.97-49.244-2.74m33.493 5.638c-23.593-2-46.692-4.178-69.433-7.082m2.105 4.119c-29.054-2.312-56.71-4.547-82.961-7.348m19.13-7.047c-15.742-.392-30.846-.962-45.71-1.292-10.386-.301-20.654-.485-30.94-.408m19.503 6.83c-31.2-1.16-59.193-4.84-86.72-8.221m34.38-5.704c-24.031-3.009-49.242-3.922-74.955-4.584m12.978 7.22c-31.287-1.483-63.667-5.877-95.168-10.42m28.865-.416c-25.131-2.13-50.188-2.278-74.513-.758-.884-.15-1.767-.298-2.65-.443m11.041 3.975c-5.54-.25-11.013-.56-16.434-.917-26.665-7.72-51.965-16.673-77.896-25.159m19.676 7.76c-24.21-7.527-47.174-14.843-70.07-22.569m22.06 12.984c-26.191-7.046-53.722-17.295-80.521-28.128-4.481-1.798-8.942-3.612-13.372-5.43m31.569 1.004a423.51 423.51 0 00-14.253-4.844C735.578 4.911 714.54-.184 694.216-5.04m19.713 3.571c-26.42-7.774-55.123-16.44-82.831-24.57m17.65 11.735c-28.438-9.237-58.005-19.05-89.046-31.146m27.606 11.988c-8.414-2.176-16.865-4.737-25.368-7.613-13.887-5.958-27.918-12.804-42.155-20.206m13.802 8.782c-29.823-10.568-59.081-21.855-89.56-31.545m29.116 11.549c-23.932-10.281-46.42-18.925-68.85-27.945-1.939-.962-3.877-1.928-5.815-2.897m15.766 2.555a1749.906 1749.906 0 00-12.019-5.03c-24.663-12.523-49.191-24.408-72.907-37.017m18.2 15.493c-27.737-13.307-55.893-28.145-80.496-42.306m21.06 5.274a1448.244 1448.244 0 00-36.013-16.934 1673.102 1673.102 0 00-28.359-13.474m20.931 11.863c-29.03-13.97-57.357-28.74-88.403-43.316m29.812 15.035c-27.886-15.05-55.352-27.95-85.023-41.58m21.352 9.864a979.243 979.243 0 00-27.192-14.05c-12.182-7.792-24.686-15.442-37.469-23.056m13.516 5.333c-22.35-14.559-42.8-28.37-62.382-41.548m10.172 5.351C-1.07-324.657-20.98-337.054-40.87-348.835a1760.025 1760.025 0 00-10.179-6.952m18.38 12a1011.075 1011.075 0 01-7.341-4.783c-19.744-14.935-38.061-30-55.53-44.91m10.542 12.419c-21.613-16.846-41.274-30.907-61.098-44.377m17.63 11.72c-10.491-7.504-20.7-15.008-30.8-22.414 8.245 16.853 16.72 33.91 24.914 51.456m-28.557-45.953c13.285 29.535 29.159 55.785 44.372 81.03m-7.626-21.817c16.199 29.076 27.612 56.995 38.567 83.276m-3.72-19.19c11.85 23.804 23.29 47.237 34.729 71.636m-10.54-22.171c7.517 16.643 15.498 32.941 23.294 49.152 7.174 10.875 14.251 21.704 20.982 32.585m-16.53-16.201c16.54 26.807 36.423 48.395 57.786 68.517M8.229-138.73c17.517 25.7 32.053 50.398 45.13 76.288m-8.734-20.505c8.513 13.742 17.17 26.662 25.606 39.107 8.396 8.235 16.657 16.18 24.61 24.001M79.214-27.86c17.288 18.663 35.475 34.522 53.25 48.636m-10.18-17.363c17.838 19.087 37.94 39.349 58.369 61.242M163.778 51.35a1626.29 1626.29 0 0015.99 15.381c18.944 12.967 38.233 25.507 58.215 37.394m-19.705-19.896c19.393 15.164 40.695 30.828 61.707 47.4m-18.036-2.363c10.055 6.797 20.448 13.883 31.132 21.022 12.74 6.333 25.834 12.729 39.222 18.87m-23.116-6.061c21.122 11.255 42.94 22.97 64.525 34.378m-11.922-7.262c16.68 8.654 33.988 16.847 51.813 24.174a564.674 564.674 0 0021.99 4.956m-27.93-13.615c22.767 7.803 45.46 16.88 68.73 26.962m-4.922-1.026c25.46 9.798 50.705 19.622 77.067 31.263m-25.876-13.02a3087.178 3087.178 0 0123.557 8.406c16.455 2.088 33.147 4.386 50.127 6.862m-24.65-3.78c31.327 3.139 60.752 7.932 91.2 13.254m-19.992 4.936c15.359 2.249 30.081 3.985 44.446 5.502 14.677.506 28.984.786 43.214 1.145m-17.976-15.137c25.789.742 50.026 3.843 74.54 8.477m-9.562 9.323c22.678 1.041 43.964 1.815 64.46 2.218 4.484-.42 8.93-.858 13.343-1.315m-31.647-4.434c1.805.02 3.612.05 5.421.09 27.12-2.143 54.647-2.075 84.16-1.69m-14.936-.064c25.724-1.335 51.18-2.816 77.265-4.366 4.112-.93 8.241-1.863 12.39-2.797m-22.712-1.44c3.564-.209 7.113-.397 10.647-.566 20.996-4.757 41.375-8.804 60.387-12.21m-21.576 8.028c20.029-4.275 39.795-8.804 59.68-13.368 4.951-1.482 9.91-2.967 14.883-4.45m-7.347 4.324l1.802-.45c28.839-9.326 58.51-18.859 85.323-29.479m-34.717 11.784c16.11-4.248 33.167-9.513 50.736-15.217 6.3-2.891 12.672-5.844 19.092-8.828m-9.85.558c26.456-10.506 54.955-22.035 84.063-31.375m-27.172 6.725c25.06-10.113 48.97-21.347 72.113-32.123 4.784-3.332 9.529-6.641 14.238-9.908 0-.002 0-.004.01-.005m-29.832 15.13c3.52-1.68 7.066-3.338 10.64-4.982 20.553-13.731 42.197-26.885 65.105-40.852m-19.896 13.502c12.63-8.091 25.462-16.836 38.556-26.204a474.316 474.316 0 01-38.753-7.79m16.813 3.473c-26.2-1.77-52.439-2.633-76.354-2.282m29.25 6.418c-26.093-2.37-55.868-4.916-86.767-8.578m19.507-2.519c-14.287-1.136-29.193-1.848-44.419-2.196-18.434-.542-37.336-.551-56.168-.137m25.925 5.788c-31.515-3.708-63.236-3.88-96.008-4.01m27.467-10.343c-28.554-2.367-57.288-5.075-84.206-8.356m29.66 10.909c-31.478-4.072-67.681-5.836-104.267-9.798m37.537 1.76c-19.112-1.048-37.529-2.168-55.92-3.022a1474.745 1474.745 0 00-18.708-4.972m9.74 4.95c-28.898-9.049-55.654-19.467-81.474-32.223m25.513 15.507c-30.646-9.215-59.408-18.885-89.843-29.837m15.123 4.402c-18.585-5.887-37.991-11.61-57.122-17.111a5835.443 5835.443 0 00-18.39-5.197m13.97 10.461c-28.017-7.34-55.267-18.851-80.264-31.425m24.76 5.797c-30.234-8.062-59.09-17.446-86.122-25.152m26.708 4.363c-20.94-5.471-43.67-13.083-66.839-21.255a3886.051 3886.051 0 01-14.606-6.47m13.19 7.896a643.225 643.225 0 00-5.796-1.862c-25.614-10.464-50.409-18.83-74.158-26.434m25.248 7.529c-24.337-8.865-50.468-19.184-76.836-28.96m23.578 5.303c-15.759-6.47-31.299-12.19-46.69-17.41a1079.194 1079.194 0 00-18.31-7.675m2.69 10.822c-27.817-13.367-51.823-25.245-74.958-36.88m13.779 3.765c-28.764-13.84-54.124-27.732-79.2-42.951m25.377 12.5c-7.701-4.084-15.641-7.983-23.752-11.742-17.22-8.557-35.229-16.462-53.346-24.145m26.824 6.052c-24.624-11.88-49.075-23.889-74.224-34.707m17.224 6.609c-23.422-12.442-45.18-24.108-66.37-36.13m16.667 7.717a1160.477 1160.477 0 01-19.586-9.85c-19.882-13.172-40.135-27.192-60.058-40.77m13.09 21.708c-26.699-15.837-49.802-35.263-71.197-54.388m21.46 15.744c-12.325-9.11-25.365-17.795-38.857-26.456-13.817-10.144-28.153-20.259-42.687-30.833m21.747 20.57c-28.08-18.629-51.941-40.45-76.568-60.795m22.52 8.059c-16.189-11.715-31.478-23.441-46.42-34.899 4.432 8.383 8.937 16.823 13.463 25.347m-12.542-13.881c15.313 27.557 29.344 59.942 43.953 92.614m-13.703-31.94c12.741 25.738 25.597 52.814 37.403 79.966m-12.613-25.62c10.285 21.448 22.064 43.629 34.302 66.063m-.194-18.7c9.783 21.339 19.057 41.186 27.261 61.049 4.959 8.429 9.691 16.86 14.144 25.443M-44.45-203.28c17.177 22.603 32.689 45.228 49.46 66.654m-12.14-18.652c13.94 18.975 27.717 39.495 41.976 60.234m-12.445-8.833c13.567 19.489 26.745 40.38 39.536 62.008 4.041 4.663 8.059 9.372 12.052 14.116M59.68-50.035a561.109 561.109 0 003.381 5.488c20.719 22.437 44.015 44.53 66.188 68.078m-13.53-17.036c16.766 17.925 34.995 34.408 52.919 49.672M155.14 38.496c8.147 8.798 16.55 17.532 25.085 26.325 17.148 12.89 34.698 25.963 51.969 39.884M209.6 86.153c23.288 18.095 47.327 35.929 69.42 54.641m-15.657-20.786c10.528 8.303 21.192 16.673 31.725 25.263 13.986 8.619 27.778 17.564 40.9 27.11m-20.023-11.845c27.006 13.321 53.164 27.312 79.617 39.46m-25.47-4.538c12.871 7.992 26.528 15.29 40.48 22.308 7.843 2.56 15.768 5.044 23.703 7.51m-16.54-11.459c26.311 10.78 56.574 20.444 87.616 31.06m-27.095-1.673c21.608 7.237 44.664 14.676 68.774 21.482 4.904.335 9.847.647 14.828.928m-16.895-10.7c2.334.83 4.643 1.662 6.93 2.494 23.755 2.982 45.327 6.075 65.499 9.526m-13.697.689c23.82 3.749 48.174 6.984 73.129 11.133m-22.613-13.046a701.786 701.786 0 0134.572 4.458c16.696 1.408 33.063 3.328 49.5 5.604m-17.468 2.276c27.41.408 53.086 1.841 79.354 2.66m-24.348 1.745c19.103 1.125 38.146 2.479 57.407 4.245 6.71-.07 13.445-.09 20.22-.053m-21.61-4.813c33.876-1.738 65.275-3.805 98.588-6.134m-27.974 6.097c20.445-2.006 41.309-2.705 62.262-3.115 3.24-.614 6.483-1.22 9.726-1.824m-2.358 2.682c1.936-.042 3.862-.087 5.779-.133 24.835-4.858 47.945-10.01 69.876-14.018m-18.144-6.633c17.367-3.58 33.822-7.243 49.441-10.698 5.565-1.666 11.02-3.304 16.368-4.902m-16.312 5.382c23.8-8.277 48.047-15.032 72.572-22.226m-21.852 13.047c18.727-6.255 36.715-11.18 54.436-15.584 11.857-4.638 23.583-9.02 35.341-13.422m-14.955 7.168c22.199-11.119 44.577-21.585 65.347-33.01m-22.897 7.353c23.754-11.814 48.158-22.777 71.808-34.938a688.93 688.93 0 008.463-6.365m-9.831 17.435c4.286-1.67 8.571-3.37 12.852-5.083 18.478-11.272 36.87-22.876 54.947-33.389m-26.215 4.007c13.72-9.223 27.574-17.945 41.633-26.438-11.886-.588-23.657-1.047-35.283-1.49m28.88 1.75c-27.024-1.352-55.013-3.609-82.345-5.528m19.711 3.175c-32.082-1.709-62.229-5.546-92.995-10.272m23.05 1.927c-14.308-.906-28.161-1.3-41.63-1.138a446.62 446.62 0 00-29 1.062m13.984-4.478c-25.88-.72-51.975-3.919-78.6-7.352m12.872 3.028c-27.026-2.008-52.123-5.637-76.322-10.83m22.054-2.143c-28.1-3.333-54.573-4.166-81.964-5.002m20.844 3.75c-25.99-2.983-51.12-4.57-76.952-6.544m25.205 7.532c-9.079-1.1-18.278-1.966-27.559-2.687-21.234-6.45-42.938-12.08-64.617-18.11m21.318 8.906c-24.385-7.786-49.312-14.793-75.32-21.827m21.124 4.989c-30.67-7.694-60.17-17.14-90.98-24.83m21.626 3.65a870.728 870.728 0 01-29.816-9.211c-15.29-4.971-30.49-10.331-45.91-16.02m26.997 14.015c-32.661-8.35-64.915-20.175-99.293-31.847m24.63 2.36C630.423-23.771 608.178-29.62 586-34.82m15.62 8.734c-15.13-4.183-29.647-8.62-43.67-13.096-14.3-5.966-28.054-11.973-41.395-17.77m22.913 8.266c-21.46-9.942-45.565-18.015-70.597-25.939m16.122 2.007c-24.273-10.942-49.94-20.412-76.41-30.822m20.486 5.704c-10.561-3.61-21.026-7.403-31.558-11.278-14.588-6.622-29.315-13.412-44.667-20.07m23.606 12.897c-26.357-11.754-51.353-24.005-77.649-35.962m20.176 1.735c-20.843-10.829-43.564-21.463-66.224-32.176l-2.494-1.263m16.931 16.744a597.19 597.19 0 00-13.038-6.898c-17.524-9.623-35.108-18.277-52.454-26.998m11.47-2.281c-28.03-15.397-56.463-26.935-85.442-37.083m28.408 11.88a4272.473 4272.473 0 00-63.904-32.216c-5.22-3.247-10.502-6.509-15.825-9.774m20.48 12.839c-1.504-.802-3.011-1.601-4.522-2.4-18.178-12.343-36.911-24.456-55.718-36.488m14.928 9.501c-21.342-14.481-43.506-31.05-65.41-49.52m15.69 19.593c-13.556-8.242-26.71-17.386-39.746-27.098-9.544-8.1-19.018-16.534-28.554-25.153m13.191 8.685c-22.087-17.751-46.703-33.852-71.532-48.5m21.623 13.679a6505.9 6505.9 0 01-57.735-44.677c2.671 5.634 5.318 11.234 7.98 16.83m-.772-16.688c11.19 23.091 23.152 46.714 35.638 71.859m-15.38-15.252c14.277 29.158 29.126 57.513 44.048 86.302m-5.155-25.604c13.537 27.814 26.314 54.7 37.868 82.007m-6.54-23.773c8.885 17.805 17.306 35.91 24.764 53.462a907.223 907.223 0 0115.4 26.288m-18.553-20.838c17.862 26.829 36.647 54.322 56.587 84.476m-18.623-23.57C14.56-118.581 30.6-95.51 47.32-72.992M35.986-87.416C45.863-73.513 55.96-59.194 66.2-45.063a1380.182 1380.182 0 0019.224 17.778M67.963-38.058c21.872 20.246 40.675 41.642 59.601 63.72M117.6 2.399c19.774 19.193 40.764 39.47 61.96 58.534l.82.529M166.3 53.6a3186.622 3186.622 0 0014.715 15.365c16.604 12.423 33.235 24.738 49.156 37.108m-12.955-19.03c23.63 18.738 46.128 35.394 66.62 53.218m-17.915-9.98a1173.137 1173.137 0 0126.937 19.576c11.6 6.433 22.739 12.778 33.607 19.058m-14.213-9.067c21.227 10.825 41.85 22.785 62.175 35.063m-13.155-8.846c16.016 9.684 32.42 18.693 48.579 27.683 5.637 2.07 11.248 4.137 16.812 6.225m-16.328-12.556c24.932 9.973 50.17 19.731 74.416 30.921m-10.07-11.23c21.914 8.052 43.936 17.077 65.293 27.153m-15.655 2.46c7.86 2.698 15.701 5.446 23.541 8.232 17.427 2.067 34.845 4.297 52.395 6.546m-22.608-7.345c24.659 3.854 47.556 5.409 70.116 6.267m-11.932 2.75c17.897 2.414 34.847 4.62 51.138 6.896 8.897.584 17.6 1.19 26.154 1.86m-14.56-3.986c28.507 2.215 55.7 3.907 83.626 6.815m-26.35-4.883c24.49 1.076 50.054 2.367 76.167 3.603l8.287-.433m-23.309.006c4.266.055 8.507.117 12.73.18 20.347-1.798 40.247-3.595 60.243-6.19m-11.772 11.091c29.482-3.015 59.15-3.924 88.755-6.066a983.11 983.11 0 007.485-1.868m-25.431-5.294c6.943-.475 13.76-.883 20.474-1.238 19.242-4.366 37.594-8.272 55.613-12.042m-8.297 1.487c22.689-5.768 44.933-10.309 67.23-14.618 5.14-1.354 10.284-2.695 15.436-4.037m-31.01 13.658c1.789-.399 3.58-.806 5.37-1.222 24.797-7.51 49.783-16.813 75.123-27.746m-17.686 10.618c19.886-6.38 38.918-12.717 57.205-19.557a671.866 671.866 0 0014.204-7.754m-9.566 1.39c.525-.161 1.05-.321 1.577-.48 25.349-11.342 51.567-21.4 77.404-30.273m-22.897 11.466c24.655-10.391 51.91-22.298 78.792-33.465m-21.319 5.718c7.547-2.966 15.07-6.015 22.563-9.084 19.877-12.33 39.5-24.817 58.73-35.857m-17.854 12.045c13.952-8.896 28.155-18.629 42.135-28.756-14.904-1.583-29.964-3.44-45.456-5.315m22.414 6.095c-23.941-1.615-48.342-3.779-71.801-6.283m16.79 5.237c-24.401-2.54-50.63-4.342-76.497-6.736m22.256 4.815c-17.828-2.004-36.037-3.04-54.473-3.764-13.32-.61-26.76-1.055-40.26-1.584m29.428-7.88c-31.25-3.641-60.255-4.635-90.375-6.266m14.412-4.744c-32.708-3.644-65.208-3.472-98.434-2.729m37.814 1.503c-28.353-3.475-59.517-4.027-91.179-4.48m17.406 9.775c-24.076-2.901-45.488-3.756-65.511-4.208-6.179-1.76-12.211-3.477-18.142-5.208m26.72 1.443c-.972-.1-1.945-.199-2.92-.294-23.35-7.767-47.424-13.856-70.975-19.28m12.503-.029c-28.42-8.439-59.77-19.603-90.125-31.72m29.001 14.02c-22.635-7.798-46.28-15.17-70.681-23.457-8.906-3-17.912-6.123-27.006-9.433m25.543 14.844a400.81 400.81 0 01-2.389-.627c-22.633-5.958-45.155-13.976-67.849-22.647M698.303.125c-22.706-8.005-45.142-13.966-66.948-19.594m13.163 5.52c-29.703-7.823-60.486-19.211-93.652-31.725l-1.683-.773m32.942 6.012c-7.412-2.705-15.132-5.103-23.096-7.258-18.518-6.641-38.43-11.895-58.874-16.642m24.686 7.888c-22.018-9.738-45.675-19.59-69.022-30.635m16.208 13.915c-22.982-8.574-46.487-18.793-71.137-30.185m9.57 12.323a602.237 602.237 0 01-17.228-6.505c-17.277-8.386-34.752-17.715-52.356-27.37m17.207 3.406c-28.274-12.423-58.691-25.93-89.327-36.083m37.3-1.546c-16.859-7.448-34.112-15.503-52.038-23.659-13.477-6.553-27.346-13.165-41.727-19.614m21.913 19.947c-26.877-14.568-50.537-28.722-72.7-44.905m29.134 18.571c-20.55-11.769-41.613-23.06-62.625-35.26m-.004 11.514c-13.431-7.595-27.135-14.905-41.132-22.331-10.032-6.743-20.235-13.554-30.618-20.611m21.323 7.42c-24.71-17.028-48.077-31.561-70.889-45.493m24.389 5.674c-19.608-13.194-41.33-26.086-63.582-37.884m10.607 9.86a618.999 618.999 0 00-16.764-11.553c-12.801-9.83-26.01-19.285-39.058-28.461m12.13 5.774c-24.149-19.162-47.028-35.983-69.692-52.964m17.347 13.45c-12.818-10.762-26.1-21.513-39.307-32.591 6.713 12.211 13.48 24.189 20.628 35.727M1056.629 81.618L896.244 69.279M70.905-273.407l-119.473-79.516m423.762 236.074l-134.256-64.947M98.228-14.238L232.69 120.223m1027.734 82.883l142.173-92.346"/><path id="path7238" fill="none" stroke-linecap="butt" stroke-linejoin="miter" stroke-width="8.017" d="M-242.512-601.71c16.674-22.782 31.141-44.11 45.68-65.764m-12.373 5.647c5.978-8.924 12.193-17.698 18.577-26.375a5172.942 5172.942 0 01-29.807-23.871m5.672 15.265c-20.632-15.772-39.494-31.693-58.36-48.45m18.718 13.067c-23.485-18.5-49.173-38.481-73.095-57.062m13.186 7.843c-23.078-18.137-43.128-35.675-61.95-54.139m16.44 19.767c-20.874-15.037-39.447-32.682-57.113-51.661m6.614 14.824c-20.315-15.36-38.59-30.998-56.06-46.908m18.007 6.366c-17.943-14.68-37.279-28.152-57.32-40.743m10.622 10.311c-23.337-18.386-48.622-38.96-73.71-60.289m23.249 14.56c-24.462-17.323-46.82-36.083-68.609-52.77m14.657 16.35c-20.205-16.516-42.596-33.849-64.47-51.22m10.989 7.486c-22.182-17.743-47.033-37.697-71.106-57.966m17.998 22.787c-20.866-16.94-42.617-32.059-63.032-44.789m20.322 5.658c-20.216-13.931-39.811-28.152-60.295-40.735m15.098 3.915c-20.568-16.98-42.198-32.856-64.57-48.956m15.421 14.317c-24.555-18.006-47.047-36.717-68.755-53.982m19.319 14.085c-24.884-19.352-50.957-42.057-76.402-66.244m20.752 18.672c-25.6-19.39-50.823-38.57-75.34-55.286m20.36 11.205a778.948 778.948 0 01-60.665-52.509m4.098 21.704c-22.622-19.22-45.459-37.794-66.009-57.357m19.89 15.583c-24.361-19.813-49.757-39.955-75.067-61.438m24.497 17.65c-26.645-21.775-50.59-39.66-74.516-58.327m19.614 19.286c-24.755-20.048-49.628-41.749-74.415-66.581m15.132 24.214c-25.444-19.844-49.032-39.149-72.348-58.815l-1.584 4.202m22.72 1.976a1211.196 1211.196 0 00-19.364-14.396c-8.49 20.774-17.644 41.834-26.685 64.35m13.354-19.868c-9.816 21.805-19.413 44.072-29.471 66.732m9.114-11.237c-11.063 25.92-22.512 53.17-33.36 79.776m6.189-20.4c-10.765 23.432-20.556 45.938-30.937 68.302m5.83-13.862a10600.8 10600.8 0 01-7.925 18.818c18.135 11.014 36.767 20.764 55.887 29.752m-23.64-18.225c27.085 16.808 56.238 36.842 85.307 56.944m-24.752-8.053c22.659 16.013 46.627 30.288 71.185 45.27m-7.43-19.509c23.532 15.18 46.49 30.174 69.5 45.468m-20.631-8.193c26.28 16.483 50.125 34.131 73.096 52.862m-20.439-21.398a5741.6 5741.6 0 0179.36 51.915m-17.502-19.978c26.108 16.199 49.78 33.448 74.018 52.346m-29.727-1.64c25.566 17.195 52.654 33.408 80.371 50.037m-22.521-29.586c19.039 11.786 39.566 25.241 60.045 38.684m-9.628 2.674c28.559 17.445 52.436 34.74 74.346 51.023m-11.57-10.568c28.036 17.85 54.44 34.839 82.393 52.479m-32.789-31.279c20.514 13.438 41.872 27.48 64.057 42.544m-12.899 5.684c23.726 16.564 51.258 31.306 79.794 45.492m-25.363-18.096c25.626 15.748 54.28 35.182 83.758 54.959m-20.015-11.963c20.856 13.563 42.201 27.211 63.5 40.836m-16.21-13.703c20.41 14.74 42.14 27.978 63.314 41.392m-18.395-10.434c19.198 12.74 40.059 25.998 60.922 39.312m-15.403-3.244c24.736 16.935 50.746 31.344 77.742 45.457m-22.193-13.902c27.734 17.762 55.708 35.95 84.184 54.575m-30.391-19.407c26.452 15.825 52.857 32.775 81.39 49.343m-20.82-14.645c27.96 17.712 53.016 35.624 75.129 52.906m-16.679-13.342c22.795 13.245 42.927 26.418 62.488 38.321 2.76-4.96 5.492-9.979 8.219-15.069m-.026 3.13c16.8-25.651 34.26-49.18 50.91-73.261-.825-.61-1.65-1.222-2.475-1.834m-2.85 25.1a868.189 868.189 0 0013.603-18.792c-16-13.083-32.041-27.189-47.813-41.762m8.118 11.282c-23.344-18.67-44.504-33.468-65.976-47.136m8.918 20.57c-20.488-15.824-40.242-31.934-59.103-47.77m17.931 3.204c-25.508-20.375-52.055-40.735-79.36-61.852m27.93 23.33c-22.352-16.112-42.539-32.23-62.729-47.28m11.555 6.844c-22.12-18.07-41.862-33.413-60.581-48.516m21.78 7.156c-20.631-16.73-43.215-31.624-67.639-45.593m5.648 11.734c-22.445-18.093-44.892-37.52-64.874-57.525m23.033 12.005c-24.317-18.757-47.533-34.578-72.58-48.968m16.927 16.154c-24.166-19.552-49.907-40.199-75.147-61.907m24.456 18.861c-20.453-16.74-39.644-31.76-58.31-46.879m10.176 3.362c-19.844-15.16-38.704-30.05-57.638-44.835m15.447 19.779c-25.358-18.21-47.563-36.962-69.969-54.645m16.472 9.976c-19.309-14.855-36.954-29.097-53.307-42.547m16.402 13.316c-20.38-16.828-40.901-32.034-61.95-47.406m15.169 5.413c-18.024-15.775-38.144-29.824-59.11-43.697m5.513 15.303c-19.988-15.29-40.447-32.849-59.807-50.692m10.786 4.376c-19.689-15.61-40.197-31.544-60.613-47.358m18.82 14.427c-26.62-19.741-52.792-40.708-81.53-61.996m28.695 11.16c-23.27-17.86-43.171-35.027-62.424-52.809m17.162 23.175c-19.177-15.76-38.018-31.028-56.51-46.946m2.874 10.25c-22.068-15.54-44.323-33.355-67.955-50.835m25.24 9.124c-22.9-20-49.704-36.446-78.019-52.507m21.76 13.04c-14.692-11.396-28.485-22.86-41.996-34.766-4.928 11.565-9.696 22.88-14.568 33.78m6.337-20.206c-8.576 22.352-18.507 43.91-28.604 65.51m1.28-8.826c-9.172 22.223-17.394 43.859-24.42 65.585m7.397-20.095c-10.64 23.085-18.817 44.939-26.234 66.774m11.474-12.554c-7.617 17.449-15.616 34.47-24.15 51.089 6.346 4.027 12.594 7.982 18.733 11.865m-25.778-9.292c27.978 16.408 57.843 37.683 89.877 59.288m-24.242-19.018c20.488 13.09 42.28 27.807 64.313 43.342m-8.694-14.17c20.853 11.757 39.333 25.542 57.139 40.005m-16.839-4.437c19.254 13.866 39.665 25.474 59.668 36.127m-10.4-5.96c22.544 14.332 44.542 29.01 65.878 43.648m-19.954-16.01c21.557 13.06 43.403 26.372 66.44 39.152m-18-13.602c19.467 13.564 40.487 26.831 62.158 40.84m-12.21-6.826c20.772 12.695 42.798 26.493 65.864 40.158m-14.751-1.155c19.364 13.42 40.958 26.496 62.892 39.57m-15.077-14.237c25.257 17.012 48.598 32.785 70.535 49.47m-10.53-8.987c19.74 12.396 39.975 24.614 60.568 36.107m-25.47-5.042c24.479 15.473 50.356 31.022 77.637 46.005m-22.951-21.028c20.536 15.043 42.914 29.572 65.184 45.638m-13.318-4.196c24.257 17.47 51.72 32.42 79.65 47.67m-10.793-20.88c21.014 12.124 40.849 26.343 60.18 40.815m-16.825-2.792c27.688 18.328 54.283 33.747 81.758 49.016m-22.223-17.58c22.694 14.177 45.469 30.488 69.058 48.585m-23.791-8.39c26.488 18.762 55.483 35.29 83.576 52.486m-32.753-16.499c19.917 12.89 41.08 25.99 62.311 38.682m-7.181-.546c28.939 19.309 56.055 34.256 84.638 49.002m-21.622-23.564c23.964 13.672 47.16 30.057 71.439 46.802m-16.736-13.234c25.876 16.338 49.47 31.782 74.058 47.764m-23.404-7.192c14.599 9.02 28.803 17.84 42.542 26.106a653.117 653.117 0 0018.285-32.94m-11.007 27.856c13.34-18.163 26.412-39.094 38.96-61.44m-8.451 15.43a58833.21 58833.21 0 0120.075-28.445c-15.543-11.541-31.132-23.02-47.187-33.887m25.302 18.214c-22.174-18.015-42.634-34.086-63.173-50.817m13.123 7.064c-24.912-20.608-49.787-40.074-73.575-60.51m15.032 20.572c-24.066-19.191-48.55-39.913-69.48-59.959m17.852 10.415c-18.376-14.522-37.34-28.643-56.766-42.448m19.428 14.2c-25.87-18.885-51.035-38.567-78.92-58.058m27.147 19.177c-24.827-19.804-49.235-37.458-75.847-55.843m18.857 13.742c-18.922-15.309-38.882-29.982-59.656-44.55m12.79 6.336c-21.152-16.216-40.404-31.683-58.787-46.518m9.324 6.522c-22.392-18.03-44.527-34.142-66.677-49.589m17.88 12.682c-22.23-16.923-42.594-34.05-61.899-50.984m10.383 12.624c-21.416-17.1-40.88-31.415-60.507-45.14m17.493 11.897c-25.412-18.656-49.14-37.303-73.679-54.545m12.889 11.769c-26.47-19.05-50.35-41.386-74.892-64.725m26.896 20.372c-24.28-20.395-53.346-41.946-82.87-65.135m32.07 24.55c-20.08-15.22-40.574-30.813-61.067-45.44m11.734 5.05c-26.107-19.036-50.828-39.097-77.506-58.864m19.903 22.755c-24.877-17.477-46.409-40.173-66.462-64.334m24.128 21.761c-23.003-17.625-48.985-36.252-76.428-53.687m24.101 14.602c-23.4-16.754-46.346-36.121-70.893-56.129m17.29 21.162c-20.836-15.138-40.773-33.08-61.12-52.766m16.088 5.928c-21.978-16.214-41.691-31.253-61.078-44.66m11.778 12.1c-22.968-18.494-45.54-37.584-66.962-57.765l-.58 1.504m18.95 7.05a2056.392 2056.392 0 01-18.67-13.772c-7.25 16.807-13.884 33.92-20.66 51.478m3.074-8.2c-10.628 23.073-19.765 47.426-27.835 70.852m.82-14.404c-10.293 22.205-19.89 44.87-29.718 67.227m8.995-14.552c-10.556 23.67-19.912 46.46-28.361 67.303m-2.834-24.566c-3.175 7.7-6.36 15.562-9.525 23.573 13.144 8.711 26.354 17.911 39.804 27.528m-3.395-4.133c22.82 15.168 45.421 30.363 69.141 47.375m-24.002-16.828c20.727 13.176 41.929 26.87 63.785 40.964m-22.187-10.638c26.714 15.983 51.526 33.62 77.362 51.787m-16.21-5.594c26.362 17.327 50.141 32.574 73.614 48.135m-14.082-27.264c21.895 12.868 42.24 28.094 62.86 44.853m-6.965 1.236c23.364 14.584 44.662 28.77 64.982 42.371m-28.52-15.709c24.466 14.071 49.278 30.802 76.35 47.893m-11.6-12.684c25.26 15.897 50.16 31.598 76.103 47.222m-19.348-17.29c21.18 13.974 41.69 28.926 60.346 44.747m-19.14-5.836a7217.508 7217.508 0 0064.655 41m-5.29-9.818c25.626 17.034 52.197 33.87 75.793 49.576m-31.45-11.236c19.34 13.894 40.471 25.866 62.26 37.419m-8.702-13.955c24.251 17.34 50.544 33.656 77.447 52.161m-25.413-15.487c28.269 19.001 54.805 36.314 80.316 54.857l.008.006m-29.022-15.795c23.502 13.986 48.436 29.047 75.069 43.014m-19.948-9.127c24.274 15.592 49.286 28.784 75.464 39.79m-23.924-10.061c24.244 14.988 48.45 30.883 74.978 47.993m-8.116-5.995c24.35 14.387 45.02 28.6 64.565 41.697m-17.86-14.933c28.692 17.514 54.35 37.106 80.24 58.11m-27.427-12.136c26.024 15.622 51.843 34.78 76.61 53.98m-21.163-26.68c25.683 15.853 51.184 31.365 78.503 46.304m-13.546-3.606c14.835 8.277 28.459 17.147 41.434 26.023 8.348-13.491 16.081-26.976 23.72-40.996m-1031.83-607.25l135.305 86.996m651.212 418.708l120.716 77.617m-375.803-241.629l125.448 80.659m145.13-61.99l-149.597-117.388m-731.113-592.18l-66.781 155.824"/><path id="path7242" fill="none" stroke-linecap="butt" stroke-linejoin="miter" stroke-width="8.017" d="M-195.866-688.885s-3.155 26.446-12.211 38.984c-4.76 6.59-5.721-2.02-6.797-13.186-1.079-11.206-2.302-25.123-7.353-29.082-5.144-4.031-11.419 27.423-18.352 59.015-6.953 31.68-14.535 63.293-19.562 62.992-5.093-.304-2.99-28.18-.517-56.895 2.471-28.683 5.294-58.197 3.698-59.449-1.67-1.309-5.834 24.689-10.764 50.004-4.935 25.338-10.636 49.977-13.58 47.973-3.026-2.059.153-31.314 2.453-61.531 2.299-30.192 3.718-61.335-.657-64.762-4.486-3.513-8.215 6.872-12.025 17.276-3.812 10.41-7.704 20.835-12.14 17.829-4.55-3.082-2.632-34.364-1.476-66.565 1.155-32.176 1.548-65.26-3.755-69.4-5.326-4.16-12.076 34.364-18.954 72.48-6.887 38.163-13.894 75.901-15.742 74.647-1.877-1.275 1.975-31.821 5.143-63.174 3.164-31.324 5.642-63.442 3.432-65.17-2.241-1.75-7.834 35.963-14.64 72.489-6.813 36.57-14.836 71.925-18.232 69.615-3.427-2.33.136-33.517 3.345-65.294 3.206-31.749 6.054-64.08 3.694-65.925-2.408-1.882-7.901 30.413-14.285 61.844-6.39 31.466-13.67 62.044-16.833 59.892-3.212-2.186.704-33.652 3.566-66.258 2.86-32.576 4.665-66.278-.189-70.072-4.887-3.82-12.2 30.312-20.099 63.784-7.908 33.512-16.4 66.343-20.297 63.688-3.932-2.679.088-34.868 3.884-67.577 3.793-32.679 7.357-65.872 5.232-67.532-2.218-1.734-5.31 11.385-8.221 24.626-2.912 13.247-5.64 26.613-6.618 25.95-1.074-.727 3.586-33.117 7.53-66.352 3.94-33.202 7.162-67.235 6-68.14-1.266-.988-5.744 33.29-11.578 66.366-5.838 33.099-12.962 64.99-16.335 62.703-3.412-2.314.267-35.802 3.503-69.983 3.233-34.148 6.02-68.98 3.676-70.807-2.35-1.832-8.457 39.004-15.439 78.811-6.99 39.86-14.85 78.664-16.354 77.642-1.514-1.029 3.605-33.78 8.084-67.341 4.474-33.527 8.305-67.85 7.135-68.762-1.228-.959-5.388 25.808-10.066 52.04-4.682 26.253-9.88 51.958-11.29 51.002-1.473-.999 3.421-34.282 7.707-68.353 4.282-34.037 7.95-68.848 6.994-69.594-1.057-.823-6.309 38.947-12.98 77.357-6.676 38.438-14.675 75.514-16.921 73.989-2.258-1.534 2.617-35.043 6.007-70.048 3.386-34.97 5.288-71.412.093-75.464-5.187-4.044-13.584 37.424-22.551 78.077-8.98 40.71-18.523 80.583-21.146 78.797-2.616-1.78 2.782-35.537 6.884-70.661 4.098-35.088 6.899-71.524 2.23-75.167-4.711-3.677-11.612 24.868-18.719 53.11-7.114 28.273-14.43 56.229-17.528 54.123-3.142-2.136 2.027-36.893 6.915-72.248 4.883-35.318 9.48-71.228 8.474-72.011-1.062-.828-5.143 23.653-10.206 47.312-5.067 23.678-11.116 46.518-14.491 44.23-3.436-2.33 1.17-38.103 4.933-74.928 3.76-36.786 6.676-74.609 3.222-77.298-3.488-2.716-9.322 27.883-15.413 58.098-6.097 30.247-12.447 60.095-14.366 58.796-1.956-1.324 3.32-37.263 7.777-74.211 4.452-36.908 8.083-74.809 6.305-76.193-1.793-1.395-7.173 34.672-13.554 69.717-6.39 35.088-13.778 69.13-16.19 67.497-2.428-1.644 2.722-38.09 7.09-75.534 4.365-37.403 7.944-75.79 5.917-77.367-2.115-1.646-9.318 49.097-19.138 97.414-9.83 48.366-22.115 94.297-27.28 90.789-5.102-3.468-.301-40.57 4.587-78.065 4.883-37.454 9.844-75.297 8.723-76.171-1.15-.896-6.254 29.446-12.005 59.094-5.758 29.678-12.16 58.646-13.41 57.798-1.362-.924 5.137-37.263 9.712-75.419 4.573-38.139 7.308-78.061 2.374-81.903-4.95-3.855-12.234 28.962-19.652 61.451-7.427 32.527-14.982 64.713-17.342 63.114-2.376-1.61 3.556-39.097 8.688-77.626 5.127-38.484 9.45-77.993 7.71-79.346-1.747-1.36-7.436 33.95-14.629 67.908-7.201 33.998-15.906 66.61-20.353 63.6-4.456-3.017.487-41.839 4.45-81.9 3.959-40.017 6.934-81.258 2.511-84.7-4.399-3.422-12.274 37.588-21.468 77.279-9.208 39.748-19.728 78.14-24.732 74.75-4.978-3.374.215-42.88 4.968-83.235 4.747-40.307 9.046-81.455 6.432-83.491-2.612-2.033-9.016 33.334-15.837 68.09-6.83 34.797-14.073 68.966-14.923 68.39-.943-.638 6.303-39.203 12.053-79.281 5.747-40.058 10.094-81.598 7.871-83.328-2.158-1.68-9.915 46.643-18.866 93.5-8.965 46.93-19.117 92.364-19.848 91.868-.764-.518 7.181-38.71 13.663-78.391 6.478-39.66 11.592-80.776 9.75-82.21-.973-.759-3.678 12.79-7.622 33.124-4.274 22.035-8.82 45.702-14.907 73.91-5.893 27.315-11.741 51.821-17.026 71.717-5.086 19.146-8.99 31.487-9.783 30.948-1.693-1.154 6.723-38.99 13.677-78.418 6.946-39.378 12.427-80.322 9.22-82.825-3.236-2.526-9.613 22.912-16.435 47.904-6.828 25.015-14.098 49.569-17.133 47.509-3.064-2.08 4.086-41.69 9.842-82.88 5.75-41.139 10.102-83.835 5.93-87.087-2.136-1.665-5.674 10.16-10.145 28.477-4.471 18.314-9.924 43.06-15.612 67.508-5.942 25.542-11.329 47.535-16.314 66.47-4.704 17.865-8.143 29.511-8.595 29.204-1.103-.75 8.055-39.29 15.259-79.732 7.2-40.422 12.553-82.708 8.754-85.674-3.796-2.964-11.695 29.181-20.307 60.578-8.622 31.434-17.953 62.098-21.47 59.71-3.512-2.386 4.107-42.825 10.394-84.833 6.279-41.955 11.22-85.454 7.105-88.666-4.125-3.218-11.16 24.902-18.334 52.758-7.181 27.883-14.495 55.49-16.762 53.955-2.278-1.542 5.41-42.858 11.762-85.732 6.344-42.816 11.348-87.165 8.61-89.3-1.417-1.104-4.489 12.67-8.75 33.516-4.866 23.799-9.134 45.755-15.73 76.028-6.16 28.275-12.132 53.322-17.56 74.011-5.191 19.793-9.112 32.601-9.765 32.158-1.51-1.026 7.836-41.315 15.043-83.692 7.202-42.355 12.382-86.755 7.866-90.282-4.466-3.487-14.154 37.118-25.193 76.352-11.056 39.292-23.456 77.175-28.383 73.828-4.873-3.31 2.993-45.504 10.235-88.784 7.232-43.223 13.83-87.52 11.619-89.248-2.182-1.704-9.737 33.958-18.908 68.162-9.182 34.247-19.977 67-24.938 63.636-4.932-3.344 2.724-46.553 9.173-91.323 6.44-44.71 11.667-90.961 7.236-94.422-4.369-3.413-13.77 37.759-24.615 77.49-10.862 39.79-23.16 78.1-28.303 74.615-5.08-3.442 2.784-47.499 9.513-93.086 6.72-45.525 12.297-92.56 8.234-95.736-3.952-3.09-14.447 45.733-26.77 92.624-12.345 46.972-26.51 91.965-30.878 89.002-4.257-2.888 4.723-46.891 13-92.086 8.265-45.13 15.815-91.439 14.498-92.469-1.353-1.06-9.512 41.264-19.558 81.807-10.055 40.58-21.87 79.377-25.115 77.177-3.17-2.15 6.323-46.328 13.886-92.648 7.553-46.253 13.17-94.613 8.153-98.54-2.551-1.997-7.116 12.65-13.165 35.143-6.047 22.488-13.654 52.724-21.856 82.332-8.428 30.423-16.733 57.816-24.322 79.72-7.32 21.128-13.092 34.511-14.806 33.344-3.518-2.396 7.477-45.945 17.25-91.105 9.76-45.094 18.286-91.776 15.952-93.608-2.325-1.825-8.632 21.745-15.212 44.992-6.586 23.267-13.44 46.2-15.103 45.074-1.791-1.212 8.819-46.07 16.812-93.494 7.988-47.397 13.505-97.307 8.186-101.474-5.197-4.071-16.526 44.319-29.63 90.843-13.127 46.605-28.018 91.293-33.346 87.684-5.199-3.521 4.168-50.191 11.946-98.839 7.767-48.576 13.936-99.102 8.85-103.093-2.583-2.026-7.382 13.524-13.836 37.317-6.452 23.788-14.642 55.713-23.518 86.916-9.125 32.076-18.145 60.86-26.391 83.893-7.95 22.202-14.206 36.243-15.98 35.036-1.9-1.293.255-13.183 4.22-30.608 3.968-17.43 9.701-40.458 15.202-63.802 5.735-24.34 10.558-45.985 14.462-65.008 3.696-18.006 5.864-30.293 5.422-30.64-1.075-.848-9.208 34.217-19.26 67.615-10.06 33.425-21.946 65.176-26.553 62.051-2.357-1.599-.726-14.076 2.567-32.323 3.814-21.136 8.837-45.802 12.651-66.937 4.519-24.983 8.39-49.28 10.555-69.26 2.122-19.569 2.427-33.54-.239-35.638-5.387-4.238-17.048 38.946-30.116 80.648-13.09 41.77-27.575 82.016-32.715 78.532-2.6-1.761-1.1-14.63 2.171-33.348 3.273-18.723 8.267-43.363 12.912-68.43 4.746-25.618 8.86-49.98 11.51-70.249 2.575-19.692 3.48-33.517 1.612-34.988-1.989-1.565-6.482 13.963-12.826 37.462-6.935 25.687-13.98 52.704-23.698 85.405-9.293 31.27-18.708 59.637-27.313 81.862-8.344 21.551-15.068 35.019-17.338 33.474-2.398-1.631-.31-14.21 3.67-32.615 4.94-22.841 10.21-44.71 15.15-67.55 5.435-25.26 10.143-49.75 12.997-69.964 2.79-19.767 3.557-33.864.978-35.902-2.69-2.125-7.402 8.772-13.448 25.866-6.046 17.09-13.475 40.317-21.318 63.131-8 23.272-15.913 44.788-23.07 61.419-6.971 16.199-12.612 26.264-14.933 24.685-2.44-1.66-.254-14.439 3.892-33.135 5.035-22.71 10.744-45.91 15.779-68.62 5.679-25.686 10.604-50.495 13.674-71.022 2.998-20.04 3.946-34.291 1.502-36.225-2.56-2.025-7.477 10.247-13.91 29.32-6.433 19.069-14.44 44.863-22.83 70.228-8.664 26.195-16.853 49.506-24.233 68.582-7.07 18.277-12.386 29.98-13.518 29.21-1.25-.852 2.018-13.095 6.89-30.803 5.21-18.934 10.993-39.71 16.74-63.46 5.491-22.698 9.893-43.986 11.651-58.079 1.75-14.02.752-19.662-4.723-10.836-11.168 17.999-21.956 43.43-30.099 62.207-8.347 19.248-14.632 33.314-17.229 31.552-2.77-1.88-.17-15.1 2.99-28.002 3.156-12.89 6.86-25.485 6.86-25.485s-3.829 12.784-7.087 25.876c-3.261 13.103-5.94 26.539-3.054 28.497 3.063 2.079 9.854-12.674 18.326-32.36 8.25-19.169 18.815-44.878 29.05-61.348 5.366-8.638 6.29-2.909 4.495 11.123-1.807 14.112-6.227 35.339-11.717 57.974-5.761 23.751-11.483 44.303-16.668 63.252-4.83 17.653-8.041 29.868-6.733 30.76 1.364.928 6.856-10.646 14.048-28.83 7.468-18.884 15.786-42.337 24.425-68.417 7.24-21.857 15.444-48.456 22.684-70.312 6.329-19.145 11.086-31.536 13.425-29.684 2.39 1.89 1.395 16.104-1.639 36.116-3.109 20.51-8.054 45.277-13.747 70.963-5.089 22.962-10.678 45.662-15.767 68.623-4.125 18.71-6.273 31.515-3.775 33.214 2.552 1.736 8.37-8.2 15.46-24.308 7.263-16.498 15.268-38.041 23.26-61.257 7.292-21.18 13.879-42.037 21.17-63.217 5.942-17.167 10.491-28.183 12.962-26.231 2.524 1.994 1.71 16.055-1.115 35.793-2.891 20.197-7.62 44.647-13.069 69.906-4.8 22.252-10.338 45.302-15.138 67.555-3.96 18.417-6.009 31.022-3.553 32.693 2.501 1.702 9.403-11.636 17.869-33.094 8.712-22.085 18.22-50.488 27.509-81.694 9.616-32.305 16.838-60.103 23.559-85.482 6.241-23.568 10.576-39.214 12.346-37.82 1.813 1.428.862 15.216-1.748 34.88-2.688 20.258-6.821 44.567-11.581 70.193-4.655 25.057-9.647 49.698-12.899 68.433-3.25 18.73-4.714 31.625-2.056 33.426 5.6 3.795 20.32-36.26 33.423-78.003 13.08-41.675 24.533-84.993 29.484-81.098 2.61 2.054 2.26 15.99.103 35.531-2.204 19.96-6.095 44.22-10.625 69.203-4.459 24.586-9.365 48.676-12.639 66.942-3.272 18.26-4.865 30.763-2.45 32.4 5.065 3.438 17.185-28.126 27.254-61.527 10.062-33.375 17.982-68.578 18.618-68.077.387.305-1.828 12.556-5.56 30.533-3.954 19.059-8.771 40.558-14.532 64.952-5.511 23.335-11.241 46.364-15.187 63.807-3.945 17.438-6.062 29.353-4.104 30.686 2.004 1.364 8.438-12.548 16.508-34.657 8.35-22.872 17.471-51.732 26.587-83.725 9.79-34.36 16.173-59.912 23.381-86.992 6.352-23.863 10.993-39.528 13.357-37.673 4.978 3.906-1.267 54.374-9.054 102.932-7.798 48.629-17.13 95.322-11.816 98.921 5.785 3.919 20.912-40.578 34.054-87.155 13.118-46.496 24.24-95.018 29.003-91.286 5.211 4.082-.381 53.935-8.39 101.313-8.012 47.407-18.586 92.288-16.682 93.578 2.118 1.433 9.202-21.317 15.793-44.565 6.586-23.227 12.676-46.94 14.563-45.459 2.225 1.746-6.377 48.37-16.156 93.446-9.793 45.143-20.753 88.715-17.119 91.19 1.944 1.324 7.892-11.93 15.332-32.966 7.692-21.744 16.098-49.216 24.517-79.555 8.21-29.592 15.772-59.852 21.717-82.41 5.946-22.563 10.352-37.326 12.686-35.5 4.908 3.842-.783 52.145-8.355 98.381-7.583 46.303-17.04 90.505-13.755 92.732 3.7 2.509 15.749-36.1 25.816-76.654 10.058-40.518 18.008-82.976 18.926-82.258 1.207.945-6.417 47.196-14.702 92.31-8.296 45.177-17.24 89.204-12.868 92.17 4.824 3.274 19.225-41.529 31.585-88.474 12.337-46.863 22.625-95.817 26.144-93.067 3.954 3.09-1.697 50.07-8.435 95.578-6.748 45.57-14.575 89.652-9.382 93.172 5.598 3.793 18.13-34.33 29.003-74.095 10.857-39.706 20.05-81.011 23.985-77.938 4.322 3.377-.977 49.572-7.436 94.266-6.468 44.753-14.087 87.986-9.04 91.408 5.414 3.672 16.44-28.895 25.633-63.12 9.185-34.197 16.444-70.043 18.271-68.616 2.103 1.643-4.569 45.885-11.82 89.091-7.26 43.264-15.089 85.483-10.1 88.871 5.382 3.657 18.016-34.039 29.083-73.306 11.051-39.21 20.53-79.95 24.56-76.802 4.409 3.443-.844 47.788-8.065 90.126-7.224 42.362-16.532 82.676-14.909 83.779.88.597 4.974-12.085 10.285-31.787 5.52-20.482 11.606-45.708 17.75-73.851 6.404-29.34 11.024-53.158 15.587-76.11 4.16-20.915 7.072-34.805 8.272-33.87 2.631 2.05-2.446 46.344-8.807 89.145-6.37 42.858-14.02 84.199-11.63 85.817 2.719 1.84 10.261-25.584 17.45-53.447 7.181-27.835 14.005-56.094 17.694-53.215 4.008 3.127-1.007 46.572-7.303 88.51-6.304 41.994-13.886 82.459-10.259 84.922 3.97 2.696 13.532-27.784 22.163-59.196 8.62-31.375 16.307-63.659 19.669-61.035 3.69 2.881-1.736 45.112-8.953 85.519-7.221 40.428-16.34 78.993-15.124 79.82.678.462 4.29-11.059 9.112-28.834 5.055-18.636 10.601-40.993 16.502-66.313 5.695-24.434 11.1-49.206 15.468-67.591 4.368-18.389 7.746-30.33 9.665-28.835 4.064 3.168-.36 45.81-6.126 86.934-5.774 41.176-12.886 80.811-9.708 82.968 3.487 2.366 10.985-22.007 17.82-47.002 6.828-24.972 12.992-50.551 15.791-48.366 3.099 2.42-2.454 43.308-9.416 82.672-6.972 39.413-15.35 77.276-13.542 78.507 1.019.693 5.097-11.522 10.3-30.578 5.385-19.714 11.335-44.348 17.217-71.557 6.013-27.818 10.674-52.264 14.764-73.993 3.841-20.404 6.388-34.07 7.144-33.48 1.733 1.35-3.452 42.412-9.947 82.057-6.498 39.667-14.404 77.886-13.528 78.48 1.183.802 11.568-44.444 20.547-91.348 8.964-46.831 16.516-95.286 18.243-93.941 2.115 1.646-2.303 43.133-8.066 83.176-5.767 40.064-12.975 78.655-11.92 79.369 1.3.88 8.771-33.107 15.611-67.882 6.832-34.733 13.026-70.236 15.206-68.54 2.506 1.952-1.864 43.047-6.627 83.34-4.77 40.341-9.924 79.873-4.833 83.323 5.453 3.695 16.206-34.511 25.425-74.235 9.206-39.666 16.875-80.81 20.842-77.722 4.316 3.358 1.27 44.545-2.705 84.548-3.979 40.048-8.882 78.897-4.314 81.99 4.895 3.315 13.83-29.115 21.04-63.092 7.206-33.95 12.612-69.437 13.999-68.357 1.63 1.269-2.762 40.725-7.905 79.196-5.148 38.515-11.04 76.028-8.552 77.715 2.808 1.903 10.592-30.1 18.028-62.606 7.428-32.467 14.503-65.42 19.02-61.902 4.827 3.758 2.022 43.628-2.566 81.754-4.59 38.143-11.05 74.51-9.576 75.509 1.698 1.152 8.328-27.635 14.094-57.292 5.762-29.64 10.598-60.15 11.368-59.55 1.013.79-4.018 38.58-8.916 76.02-4.904 37.482-9.665 74.612-4.449 78.157 5.615 3.814 18.134-41.928 27.978-90.268 9.834-48.29 16.836-99.161 18.519-97.852 1.92 1.494-1.73 39.828-6.109 77.218-4.384 37.432-9.493 73.905-6.954 75.624 2.858 1.935 10.475-31.924 16.875-66.99 6.391-35.023 11.563-71.224 12.925-70.164 1.671 1.3-2.03 39.15-6.497 76.044-4.472 36.936-9.707 72.902-7.64 74.302 2.365 1.601 8.942-28.066 15.048-58.292 6.1-30.195 11.724-60.93 14.78-58.55 3.347 2.605.362 40.377-3.413 77.15-3.778 36.813-8.343 72.614-4.795 75.02 3.821 2.59 10.096-20.07 15.17-43.73 5.07-23.648 8.903-48.289 9.567-47.772.896.7-3.77 36.557-8.666 71.863-4.903 35.343-10.032 70.127-6.777 72.34 3.546 2.411 11.09-25.363 18.212-53.615 7.115-28.222 13.805-56.906 18.083-53.567 4.56 3.559 1.691 39.943-2.42 75.02-4.117 35.112-9.474 68.897-6.746 70.754 3.072 2.092 12.847-37.595 21.839-78.281 8.98-40.628 17.17-82.23 21.926-78.522 5.087 3.968 3.117 40.36-.283 75.318-3.404 34.993-8.238 68.53-5.868 70.14 2.693 1.83 10.921-35.063 17.609-73.478 6.682-38.386 11.728-78.29 12.353-77.803.85.662-2.888 35.422-7.183 69.447-4.3 34.06-9.154 67.371-7.57 68.446 1.855 1.258 7.28-24.268 11.969-50.503 4.685-26.211 8.633-53.117 9.43-52.495 1.062.829-2.837 35.1-7.325 68.615-4.492 33.55-9.57 66.33-7.945 67.434 1.95 1.326 10.04-37.295 17.043-77.13 6.992-39.783 12.893-80.753 14.814-79.256 2.237 1.744-.618 36.525-3.865 70.662-3.25 34.17-6.888 67.686-3.364 70.076 3.817 2.589 11.17-29.12 17.016-62.198 5.844-33.054 10.115-67.467 10.95-66.816 1.055.822-2.236 34.804-6.19 67.995-3.957 33.224-8.574 65.643-7.39 66.446 1.421.963 4.371-12.228 7.286-25.46 2.913-13.226 5.79-26.488 7.575-25.094 2.017 1.577-1.615 34.719-5.42 67.387-3.81 32.698-7.789 64.917-3.744 67.672 4.345 2.96 13.066-29.688 20.984-63.177 7.91-33.45 15.013-67.718 19.469-64.235 4.746 3.71 2.873 37.361 0 69.927-2.874 32.596-6.748 64.091-3.424 66.353 3.61 2.457 11.117-27.94 17.516-59.384 6.393-31.41 11.677-63.842 13.653-62.297 2.253 1.76-.663 34.042-3.881 65.78-3.222 31.767-6.743 62.983-3.204 65.39 3.842 2.614 12.094-32.557 18.918-69.106 6.816-36.503 12.202-74.35 14.013-72.935 2.103 1.643-.442 33.711-3.619 65.026-3.18 31.342-6.99 61.919-5.002 63.268 2.292 1.557 9.527-35.999 16.425-74.14 6.89-38.09 13.435-76.748 18.333-72.922 5.196 4.057 4.737 37.093 3.57 69.258-1.168 32.192-3.043 63.504 1.616 66.661 4.878 3.305 8.99-6.946 12.805-17.34 3.812-10.39 7.327-20.919 11.381-17.743 4.268 3.343 2.782 34.436.472 64.62-2.312 30.207-5.448 59.493-2.311 61.628 3.389 2.306 9.315-22.154 14.257-47.472 4.937-25.296 8.89-51.433 10.128-50.462 1.49 1.167-1.404 30.668-3.89 59.36-2.488 28.721-4.548 56.629.67 56.942 5.518.332 13.322-31.101 20.272-62.695 6.93-31.502 12.98-62.951 17.695-59.255 4.945 3.875 6.094 17.886 7.161 29.157 1.063 11.23 2.075 19.883 6.98 13.102 10.192-14.092 12.336-40.046 12.336-40.046z"/></g></g></svg>