<svg xmlns="http://www.w3.org/2000/svg" id="svg10239" version="1.1" viewBox="0 0 192 147.2"><g id="g10925" fill="none" stroke="#fff" stroke-linecap="butt" stroke-linejoin="miter" stroke-opacity="1" stroke-width="3" transform="matrix(.14809 0 0 .13839 74.684 84.107)"><path id="path10792" d="M-379.803-66.462c6.628-27.151 11.048-52.85 15.54-78.874m-5.1 8.81c4.382-23.821 9.946-46.892 15.937-69.819m-9.618 20.855c2.781-17.341 6.43-34.756 10.337-52.48 2.676-7.305 5.4-14.668 8.122-22.105m-.038 18.47c12.15-28.766 22.096-59.013 33.81-87.86m-17.307 16.628c6.27-19.686 14.116-39.06 22.862-58.695 0 0 0 0 0 0 .04-.058 5.485-7.8 16.254-19.878m-13.134 23.93c2.314-3.623 8.353-12.676 18.84-25.453 8.487-10.344 19.877-23.106 34.062-36.885m-19.808 16.246c10.182-10.923 23.004-22.446 38.614-33.475a275.977 275.977 0 0122.077-14.071m-9.186 5.157c10.658-7.372 21.787-13.904 33.387-19.12 8.786-3.951 17.847-7.15 27.191-9.391m-14.998 6.027c10.55-3.78 21.375-7.092 32.508-9.644 16.664-3.818 34.034-5.937 52.335-5.395 1.459.043 2.924.103 4.395.18m-22.203-2.64a211.87 211.87 0 0120.776 1.726c18.889 2.511 39.98 7.919 61.99 18.042 0 0 0 0 0 0-.013.017 1.891-2.63 5.543-6.058m-25.314 1.575a241.1 241.1 0 0116.012 6.156s0 0 0 0c.012-.02 1.91-3.031 5.63-7.117 3.699-4.063 9.213-9.2 16.431-13.341 7.233-4.15 16.22-7.33 27.028-7.507a60.134 60.134 0 016.654.265m-25.077-3.814a66.488 66.488 0 0113.856-1.376c11.252.062 24.014 2.934 38.355 10.41 0 0 0 0 0 0-.034.034 6.395-6.48 17.489-14.324a166.612 166.612 0 0111.709-7.57M64.312-498.4a139.05 139.05 0 019.11-5.717c11.841-6.806 28.59-14.125 48.936-16.008 6.925-.64 14.301-.657 22.099.193m-16.937-4.592c9.341-1.588 19.64-2.237 30.49-1.172 10.97 1.077 22.705 3.93 34.502 9.502 1.574.744 3.152 1.537 4.731 2.383m-13.063-11.112c3.458.787 6.937 1.757 10.431 2.924 12.364 4.13 24.882 10.713 37.296 20.303 5.911 4.567 11.776 9.797 17.576 15.742m-13.591-9.37c11.315 9.326 23.448 20.978 36.026 35.34 0 0 0 0 0 0h.01.033a38.156 38.156 0 01.632.004c.445.004 1.106.013 1.969.035 1.719.042 4.27.134 7.516.33 6.43.388 15.957 1.21 27.355 2.986 2.373.37 4.838.783 7.383 1.244m-25.594-4.076c5.211.43 11.523 1.004 18.45 1.725 20.03 2.087 48.824 5.717 76.403 12.731m-28.508-7.906c9.758 2.994 19.944 6.653 30.242 11.181 14.9 6.551 30.147 14.969 44.886 25.995a210.49 210.49 0 0113.858 11.313m-26.005-22.945a314.28 314.28 0 0110.517 6.638c14.572 9.61 28.882 20.842 42.418 34.252a259.984 259.984 0 0111.51 12.16m-24.53-6.594c.91.939 1.813 1.891 2.71 2.856 12.816 13.81 23.874 30.025 33.603 49.163 3.998 7.864 7.714 16.1 11.267 24.82m-7.283-22.495c8.06 18.651 13.483 39.686 15.834 63.231 0 0 0 0 0 0l.003.006a3.042 3.042 0 01.043.09 153.584 153.584 0 01.657 1.388c.46.977 1.123 2.399 1.97 4.248a867.287 867.287 0 016.93 15.56l1.012 2.336m-7.375-23.397l.427.928c.447.976 1.093 2.395 1.935 4.273 1.675 3.731 4.11 9.238 7.131 16.252 5.794 13.452 14.783 34.877 23.34 57.526a960.825 960.825 0 015.334 14.456m-12.38-25.769a1013.22 1013.22 0 014.8 13.14c7.52 21.055 14.798 43.717 19.515 63.62.497 2.097.968 4.17 1.409 6.216m-11.658-18.727a755.068 755.068 0 014.079 18.743c2.404 11.834 4.411 23.567 5.622 34.77 1.213 11.213 1.624 21.859.866 31.597 0 0 0 0 0 0 0 .01-.036 4.68-.448 13.058m3.284-38.825c.143 5.95-.08 11.68-.689 17.141 0 0 0 0 0 0-.124 2.845-.979 24.107-9.547 70.396-.448 2.418-.912 4.89-1.395 7.425m7.94-21.469a929.01 929.01 0 01-3.177 17.212c-3.042 15.644-7.089 34.193-12.488 53.813m6.718-12.036c-5.613 24.957-13.613 53.739-23.935 83.128m4.758-20.956c-5.616 15.458-11.656 31.103-18.475 46.394-3.366 7.548-6.947 15.07-10.811 22.539m6.24-13.68c-10.747 24.828-22.733 47.296-36.364 67.245-.417.61-.836 1.217-1.256 1.823m5.554-24.655a2768.66 2768.66 0 01-10.156 15.496c-14.61 22.09-30.527 44.973-48.96 65.658m20.344-13.523c-9.331 11.153-18.981 21.375-29.103 30.862-9.44 8.849-19.26 17.029-29.61 24.746m25.833-20.562c-19.538 15.844-41.778 29.349-66.68 40.236a322.52 322.52 0 01-4.874 2.082m15.503-5.494a293.004 293.004 0 01-13.86 6.516c-22.385 9.833-48.085 17.96-77.092 24.134m25.383-12.682c-18.349 4.12-37.56 7.169-57.789 8.777 0 0 0 0 0 0-.052.006-6.909.772-19.312 1.631-4.565.316-9.92.647-15.906.947m31.301-6.775c-2.76.207-6.08.44-10.089.7-14.112.916-28.127 1.642-52.514 2.925-8.137.428-17.178.908-26.307 1.42m13.538 11.777c-27.316.002-56.299-1.901-89.474-6.092m24.482-13.106c-21.268-2.767-48.767-5.824-71.018-9.246m18.423 13.465c-13.076-2.213-27.36-4.864-42.413-8.056-19.475-4.131-40.49-9.222-62.124-15.552m40.953 12.867c-21.957-5.313-44.973-12.382-67.262-20.899a501.634 501.634 0 01-21.836-8.926m16.012-6.062c-1.066-.386-2.13-.774-3.191-1.164-21.525-7.917-41.948-16.7-60.788-26.218m14.796 21.891c-14.976-6.98-28.488-15.262-40.82-24.733-10.284-7.897-19.744-16.618-28.544-26.094m13.31 9.2c-23.989-17.947-43.753-35.604-59.886-55.786a223.932 223.932 0 01-3.947-5.085m19.89 22.73a301.408 301.408 0 01-12.946-14.54c-11.791-14.14-22.355-29.458-31.71-46.138m7.004 10.197c-13.477-18.703-23.899-40.265-32.7-64.318-.463-1.516-.929-3.033-1.396-4.549m2.376 15.605a238.056 238.056 0 01-5.045-12.155c-6.126-19.022-11.33-37.749-16.534-56.439m2.277 20.204c-8.64-27.33-16.008-57.187-22.388-87.339m4.432 21.408c-9.395-31.479-18.549-62.53-27.2-93.146m2.553 24.286c-3.105-11.692-6.218-23.21-9.205-34.645 4.46-18.041 9.22-35.886 14.762-53.871m-9.154 43.818c6.74-32.834 10.58-65.47 11.474-98.736m2.373 32.045c7.766-31.417 11.596-62.94 15.249-96.722m-1.209 23.07c1.796-9.934 3.662-19.645 5.547-29.223 6.978-20.067 14.047-39.504 20.684-59.265m-.732 28.973c9.942-25.98 19.586-54.28 29.738-83.46m-16.186 18.284c3.321-11.072 6.989-21.529 10.845-31.545 0 0 0 0 0 0 .052-.078 6.914-10.61 20.472-24.084a232.857 232.857 0 0111.903-11.013m-21.93 23.58a298 298 0 012.547-3.046c12.509-14.76 31.294-34.034 55.994-51.022m-10.929 3.425a337.192 337.192 0 0116.98-13.852c11.931-9.09 24.93-17.654 38.897-24.961 8.18-4.28 16.685-8.125 25.504-11.398m-21.143 16.225a171.64 171.64 0 0146.837-14.55 166.838 166.838 0 0132.233-1.968m-23.557-3.79c13.091-2.414 27.37-2.71 42.781-.705 13.116 1.706 26.964 5.065 41.63 10.146m-13.345-10.311c13.04 2.482 26.027 6.916 38.694 13.573 0 0 0 0 0 0 .01-.018 1.57-2.89 4.736-6.658 3.156-3.755 7.869-8.348 14.095-11.741a40.627 40.627 0 014.83-2.241m-24.858 10.01a68.868 68.868 0 0110.543-6.983c7.619-4.078 17.103-7.226 28.63-7.5 11.599-.276 25.034 2.33 41.385 9.63 0 0 0 0 0 0-.022.02 2.49-2.202 7.073-5.542m-16.526-4.37c4.395 1.566 9.033 3.73 13.886 6.602 0 0 0 0 0 0-.034.032 6.26-6.1 17.276-12.513 10.74-6.253 25.73-12.637 43.36-14.585m-23.373 8.94c7.456-2.998 15.63-5.728 24.362-7.773 9.883-2.315 20.487-3.755 31.687-3.741 11.214.013 22.969 1.483 35.266 4.954.381.107.763.217 1.146.328m-23.174-4.3c7.984.729 16.361 2.491 25.099 5.48 12.625 4.319 25.88 11.152 39.82 21.024a220.005 220.005 0 015.788 4.244m-17.853-17.495c2.838 1.837 5.71 3.819 8.61 5.953 12.795 9.411 26.354 21.93 39.949 37.957 0 0 0 0 0 0h.01.032l.123-.002.488-.004c.43-.002 1.07-.001 1.903.009 1.249.014 2.936.05 5.014.128m-10.308 3.357c1.75 2.142 3.529 4.35 5.33 6.62 0 0 0 0 0 0h.011.03a31.108 31.108 0 01.59 0c.417 0 1.033.007 1.841.022 1.615.03 3.998.102 7.063.261 6.061.316 15.106.997 26.056 2.455 13.478 1.795 30.643 4.875 48.762 10.226m-27.82-11.187c17.186 3.369 37.876 9.02 60.118 18.368a309.404 309.404 0 0112.916 5.779m-10.64-2.714c.974.346 1.95.701 2.925 1.066 14.619 5.468 29.269 13.089 43.157 22.993a188.251 188.251 0 0118.396 14.945m-12.748-16.5c12.905 8.264 24.352 18.801 34.041 31.623 4.721 6.248 9.013 13.024 12.847 20.322m-15.63-6.79c10.271 13.167 19.177 27.231 26.742 42.88 3.993 8.259 7.589 16.907 10.851 26.118m-9.875-25.278c6.714 17.313 11.253 36.412 13.467 57.956 0 0 0 0 0 0l.003.007.01.02.034.074a149.145 149.145 0 01.67 1.458 465.619 465.619 0 012.006 4.476 702.729 702.729 0 014.337 10.024m-2.418-12.816l.016.21s0 0 0 0c0-.004.004.01.003.006a4.576 4.576 0 00.04.095 194 194 0 01.633 1.473c.439 1.032 1.08 2.55 1.896 4.507a900.633 900.633 0 016.687 16.525c5.283 13.442 12.815 33.512 18.395 54.165a319.153 319.153 0 013.007 12.027m-3.036-33.45a867.366 867.366 0 004.738 14.216c6.954 20.325 15.534 43.082 22.485 65.061m-4.258-10.356c2.144 8.006 4.125 16.138 5.844 24.198 2.481 11.635 4.428 23.168 5.536 34.053.42 4.127.72 8.167.884 12.095M573.2-82.77c.082 1.244.153 2.479.215 3.703.587 11.669.248 22.394-1.33 32.1 0 0 0 0 0 0 .093-1.016-1.548 18.75-7.875 45.335m12.163-23.182c-.966 10.262-2.93 23.398-6.775 39.618-3.713 15.668-9.032 33.573-16.347 53.414m7.856-26.47c-6.37 24.084-14.622 58.315-24.378 84.724m4.395-20.947c-5.135 18.69-12.078 37.168-20.688 55.944a485.423 485.423 0 01-5.057 10.677m1.33-8.806a1077.249 1077.249 0 01-28.051 63.844m8.92-19.338c-6.5 11.256-12.87 22.12-19.278 32.511-5.97 9.679-12.015 19.013-18.338 28.03m14.858-10.577c-14.54 19.642-31.682 37.497-52.03 52.729a240.701 240.701 0 01-6.14 4.448m5.433-11.904c-2.939 2.668-5.907 5.36-8.908 8.068-20.531 18.53-42.662 37.862-66.052 54.004m26.826-16.97c-11.532 6.504-23.35 12.807-35.59 18.717-10.36 5.003-21.056 9.74-32.153 14.079m21.767-10.233c-19.759 6.59-43.703 13.059-70.2 17.92m10.258 1.47c-11.889 2.298-23.926 3.536-36.315 3.741 0 0 0 0 0 0 .351-.017-7.446.413-19.635.043a398.304 398.304 0 01-17.071-.9m18.405 1.97c-12.201.447-30.307.862-51.812.604-9.48-.115-19.815-.362-30.796-.813m15.971-4.745c-21.097-.962-46.733-2.67-71.534-6.37m13.021-2.825c-23.253-1.362-45.49-3.861-68.912-7.03m15.843 3.951c-13.724-2.515-27.629-5.147-41.044-8.058-9.745-2.114-19.396-4.41-28.853-6.995m15.482 11.839c-24.548-5.232-47.065-12.069-69.052-20.59m13.715-.303c-8.387-2.494-16.917-5.298-25.564-8.373-20.013-7.118-40.583-15.665-61.273-25.107m31.025 14.66c-19.14-9.242-37.4-19.912-54.482-32.58-1.958-1.453-3.901-2.931-5.828-4.437m-.33 11.316a328.327 328.327 0 01-6.44-4.247c-21.768-14.726-41.116-31.725-57.159-51.756m12.727 7.281c-12.2-9.772-23.07-20.554-32.949-32-6.176-7.154-11.931-14.53-17.386-22.06m12.16 19.929c-18.792-21.986-31.771-49.107-40.659-79.925m19.652 14.953c-4.45-10.148-8.744-20.352-12.78-30.67-4.201-12.785-8.672-25.18-13.297-37.497m1.491 21.5c-8.557-29.741-18.207-62.392-26.979-95.193m9.176 24.062c-7.285-25.583-14.49-49.03-20.88-70.693m-2.311 20.097c-6.527-18.699-12.112-38.238-17.54-57.947 2.827-12.693 5.715-25.454 8.47-38.115m-14.243 28.285c4.257-24.416 9.76-48.623 15.332-73.239m3.196 24.178c7.82-31.001 13.818-66.364 21.284-101.928m-2.75 21.397c3.197-13.786 6.206-26.913 9.25-39.662 5.003-12.59 10.042-24.782 15.36-36.88m-6.533 16.8c11.237-26.755 20.193-54.403 30.144-81.513m-11.913 26.637c5.429-15.758 10.513-31.692 15.195-48.088 0 0 0 0 0 0 .6-1.155 5.734-10.764 17.59-29.705 1.11-1.773 2.266-3.607 3.467-5.5m-9.678 23.59c2.84-3.685 6.422-8.274 10.516-13.433 8.58-10.81 21.485-26.745 35.283-42.32m-10.766 13.395c8.64-8.264 18.593-16.842 29.604-24.862 11.826-8.612 24.927-16.617 38.89-22.818a169.404 169.404 0 016.242-2.626m-19.043 13.94c5.263-3.52 10.81-6.761 16.63-9.704 14.49-7.327 30.541-12.74 47.872-16.035 3.977-.756 8.014-1.4 12.108-1.93m-21.813-1.493a170.584 170.584 0 017.713-1.846c17.08-3.671 35.195-4.817 54.616-2.95 11.351 1.09 23.067 3.2 35.33 6.392m-34.21-2.579c17.578 2.793 35.782 7.64 55.355 15.36 0 0 0 0 0 0-.01.014 2.084-3.107 6.156-7.2 4.084-4.103 10.237-9.27 18.497-13.379a67.08 67.08 0 0112.432-4.716m-28.41 7.368c3.408-3.271 7.768-6.776 13.06-9.708 7.24-4.012 16.245-6.962 26.92-6.757 7.207.137 15.195 1.716 23.867 5.402m-6.553 1.122c8.059 1.52 17.054 4.786 26.809 10.452 0 0 0 0 0 0 .069-.07 6.126-6.042 16.967-13.355 8.883-5.993 20.832-12.77 34.447-17.426m-17.987 12.65c9.334-5.297 20.485-10.016 33.117-12.813 9.48-2.099 19.676-3.084 30.299-2.437 6.564.4 13.265 1.422 20.003 3.173m-24.942-4.446c.9.005 1.802.02 2.707.047a109.104 109.104 0 0135.072 6.863c9.365 3.49 18.81 8.439 28.166 15.128m-13.463-11.275c7.116 3.633 14.527 8.16 22.222 13.721 12.912 9.33 26.74 21.658 41.259 37.596m-17.786-18.513c4.67 4.608 9.367 9.725 14.083 15.388 0 0 0 0 0 0h.01.032l.122-.002.483-.003c.424-.001 1.059 0 1.882.014 1.644.025 4.076.095 7.163.278 6.217.369 15.018 1.19 25.78 3.039a279.213 279.213 0 0128.124 6.368m-20.413-4.387c19.956 3.025 47.081 8.764 75.784 19.65 2.565.972 5.145 1.987 7.738 3.046m-25.296-7.857a167.267 167.267 0 0111.811 4.257c14.382 5.792 29.512 14.097 44.185 24.981a213.353 213.353 0 0111.907 9.51m-11.091-9.484c.956.667 1.91 1.343 2.865 2.03 13.753 9.892 27.426 21.905 39.609 36.612 7.625 9.205 14.73 19.543 20.893 31.152m-22.062-25.984c8.91 12.676 17.363 26.396 24.515 41.28 6.082 12.656 11.335 26.395 14.98 41.084m-2.039-23.897c5.525 14.809 8.702 30.735 9.438 47.916 0 0 0 0 0 0l.003.006.008.018.03.071.116.281a275.44 275.44 0 012.125 5.333 392.976 392.976 0 015.59 15.473 555.715 555.715 0 016.236 19.651m-1.736-20.095c.734 1.71 1.504 3.525 2.306 5.436 6.079 14.495 13.84 34.282 21.218 57.188a647.675 647.675 0 013.807 12.232m-8.201-23.147l1.663 5.478c6.689 22.103 13.79 46.484 17.545 69.891a238.529 238.529 0 012.029 15.9m-6.355-20.412c.704 3.672 1.404 7.244 2.097 10.763 2.358 11.969 4.608 23.157 6.225 33.29 1.627 10.192 2.632 19.412 2.557 27.694 0 0 0 0 0 0 .028.377.277 4.03.59 12.052m6.23-19.243a106.311 106.311 0 01-.785 11.22s0 0 0 0c-.021.377-1.042 26.388-12.703 67.095a508.97 508.97 0 01-3.848 12.782M573.7 8.817a709.087 709.087 0 01-2.338 11.769c-4.332 20.849-10.321 44.717-19.741 68.618m5.659-13.724c-6.436 23.354-13.866 46.54-23.626 67.564m8.218-21.471c-5.067 13.288-9.741 26.205-14.973 40.484-4.474 12.212-9.193 24.969-14.253 37.83m5.09-16.982c-9.535 20.91-20.416 41.307-32.506 60.17a384.816 384.816 0 01-10.065 14.937m14.205-25.76c-.997 1.433-1.995 2.865-2.995 4.295-13.893 19.873-28.151 39.46-44.573 58.159m8.097-4.932c-8.725 9.17-17.688 18.249-26.933 26.825-9.221 8.554-18.76 16.641-28.646 23.822m8.566-8.245c-19.444 14.32-40.476 27.246-63.881 37.135m17.373-6.473a249.83 249.83 0 01-16.92 7.375c-17.46 6.836-35.803 11.593-54.778 13.165m8.034-11.677c-20.373 5.488-42.203 10.054-65.315 13.561 0 0 0 0 0 0-.077.014-1.01.187-3.151.555m24.536 2.892c-3.803.514-7.653.969-11.552 1.369 0 0 0 0 0 0-.658.09-6.183.828-18.963 2.075-11.185 1.092-26.906 2.38-45.315 4.287m10.285-6.763c-7.164.055-15.006.071-23.323.027-14.6-.077-31.072-.343-48.195-.952m7.636-.906c-23.272-1.582-60.248-3.76-89.853-6.635m29.385 11.298c-20.762-1.969-43.426-5.864-67.604-11.302a877.47 877.47 0 01-24.337-5.854m30.786-8.443l-1.128-.27c-22.567-5.375-45.862-9.574-69.925-13.958m22.61 15.07a665.024 665.024 0 01-41.146-14.162c-12.617-4.818-25.475-10.193-38.368-16.183m6.337 3.094c-24.493-11.742-48.142-23.097-67.934-36.488a221.17 221.17 0 01-.586-.398m24.206 10.016a391.64 391.64 0 01-16.904-10.779c-18.289-12.342-35.665-26.427-50.996-42.376m17.377 10.793c-15.538-12.746-30.377-26.156-45.076-40.604a810.098 810.098 0 01-13.26-13.347m7.349 18.323c-15.22-18.654-29.058-39.968-40.142-63.644m17.202 14.83c-8.957-14.982-16.619-30.917-23.607-48.312-4.949-14.487-10.146-29.121-15.968-43.994m.023 30.505c-7.637-21.885-13.484-45.692-18.674-69.918m8.693 9.115c-9.126-26.925-16.21-54.875-22.684-80.635m1.211 19.823a1386.153 1386.153 0 00-24.225-72.552 1640.6 1640.6 0 003.188-22.915v-.01m-8.251 21.948c5.774-28.25 12.98-55.423 21.883-83.69m-6.648 22.558c5.998-27.949 12.733-58.298 20.634-90.834m-9.788 23.616c3.942-15.623 7.87-30.935 12.258-45.876 4.648-10.173 9.527-20.16 14.806-29.937m2.115 24.124c10.539-26.274 17.396-52.722 23.13-80.286m-7.629 15.187c7.303-18.626 13.516-36.506 19.343-53.782 0 0 0 0 0 0-.163.265 6.556-10.721 18.25-24.22a224.485 224.485 0 013.548-3.999m-20.923 26.389c3.294-4.95 7.871-11.383 13.777-18.621 12.026-14.74 27.915-30.811 48.472-45.883m-19.037 4.785c8.052-7.23 16.954-14.586 26.693-21.652 12.598-9.14 26.683-17.858 42.438-25.34a247.257 247.257 0 018.071-3.658m-14.798 19.594a261.394 261.394 0 0113.965-7.662c14.66-7.455 29.454-13.092 44.832-16.684 9.865-2.305 19.886-3.75 30.282-4.345m-21.243 2.159c14.913-2.394 31.295-2.918 48.525-.652a171.08 171.08 0 0124.878 5.177m-22.79-3.164c16.14 2.24 33.336 6.337 52.13 12.429 0 0 0 0 0 0 .01-.016 2.02-3.332 6.029-7.918 4.015-4.593 10.006-10.43 18.016-15.582a80.443 80.443 0 015.373-3.17M-12.93-478.95c3.326-3.676 7.899-7.823 13.807-11.329 7.107-4.217 16.073-7.458 26.914-7.818 10.828-.358 23.479 2.178 37.58 9.271 0 0 0 0 0 0 .025-.026 1.065-1.142 3.135-3.114m-31.434-8.332c6.288 1.807 12.92 4.518 19.899 8.351 0 0 0 0 0 0-.05.045 6.817-6.088 18.42-12.997 8.923-5.314 20.812-11.191 35.118-15.232m-23.26 12.093c9.223-3.88 20.32-7.94 32.668-11.056 10.313-2.603 21.667-4.595 33.945-5.314a170.124 170.124 0 0126.29.495m-22.198-4.554l.029.002c11.374.866 23.602 3.207 36.532 7.762 12.915 4.55 26.672 11.357 41.161 21.307a228.853 228.853 0 0113.252 9.84m-21.237-19.526a218.565 218.565 0 0110.46 7.184c13.369 9.767 26.215 21.488 38.457 35.904 0 0 0 0 0 0a.854.854 0 00.04-.004l.115-.012.457-.04c.403-.036.998-.085 1.778-.141a213.85 213.85 0 016.747-.371c1.796-.072 3.84-.135 6.091-.175m-25.592-3.22a231.54 231.54 0 013.062 3.447s0 0 0 0h.011l.031-.002c.028 0 .07-.003.124-.005l.486-.015c.427-.011 1.068-.025 1.898-.032 1.657-.013 4.117 0 7.242.12 6.303.242 15.243.91 26.332 2.666 14.236 2.254 31.39 6.201 50.829 12.924m-20.33-6.75c17.095 3.924 36.017 9.174 54.264 16.857 6.936 2.92 13.856 6.222 20.684 10.004m-12.553-10.294c13.395 5.456 27.009 12.825 40.257 22.39a204.474 204.474 0 0120.882 17.308m-22.884-5.405c10.543 8.102 21.405 17.883 31.955 29.458a259.516 259.516 0 0129.434 39.196m-19.31-26.708a294.356 294.356 0 0117.727 31.907c7.177 15.04 13.678 31.943 18.51 50.097m-2.808-23.188c3.849 11.992 6.387 25.24 7.579 39.901 0 0 0 0 0 0l.003.007.008.02.033.077a204.053 204.053 0 01.637 1.506c.44 1.049 1.088 2.621 1.893 4.635 1.636 4.099 3.852 9.867 6.473 17.317a630.242 630.242 0 016.255 18.76m-.229-23.463c.267.67.54 1.354.815 2.05 5.523 13.932 13.458 34.785 20.252 57.265a496.438 496.438 0 015.645 20.162m-6.787-21.648c6.692 20.58 15.227 46.583 21.202 69.41.362 1.385.718 2.768 1.066 4.146m-2.806-17.888a387.488 387.488 0 013.064 13.576c2.493 12.085 4.25 23.778 5.087 34.849.836 11.064.758 21.56-.452 31.16 0 0 0 0 0 0-.009.173-.267 4.821-1.148 13.935m-7.141-19.932c-.221 4.56-.552 8.913-1.03 13.054 0 0 0 0 0 0 0 .008-1.745 26.554-3.668 63.845 6.697-129.865-7.39 143.275-.693 13.41m4.24-24.742a301.12 301.12 0 01-1.807 11.229c-4.112 22.834-11.681 50.27-23.686 79.396m7.473-22.028c-8.294 28.1-17.433 62.021-28.195 91.35-.35.953-.704 1.909-1.061 2.866m9.901-37.795c-3.277 8.316-6.643 16.797-10.068 25.215-7.41 18.216-15.372 36.822-24.391 55.235m9.637-10.709c-7.503 14.586-16.298 30.4-26.175 46.418-8.351 13.544-17.492 27.263-27.291 40.515m16.869-28.938c-15.161 19.993-32.397 39.881-52.654 57.851a311.784 311.784 0 01-9.326 7.954m15.298-20.337a708.455 708.455 0 01-8.792 7.893c-15.133 13.35-30.842 25.935-47.728 37.038m20.593-12.85c-14.499 10.176-30.306 18.449-47.87 25.218-15.11 5.824-31.373 10.485-49.384 14.428m26.705-1.474c-23.42 8.336-51.177 13.98-80.061 14.568m20.956-3.479a696.781 696.781 0 01-28.282 2.574s0 0 0 0c-.425.044-6.488.643-19.142 1.579-6.117.453-14.257 1.017-22.937 1.505m11.857 3.613c-13.156.235-25.392.529-44.76 1.066-12.963.36-31.196.891-47.316 1.216m26.46-2.983c-31.994-.466-60.86-2.782-97.946-6.215m36.358 7.552c-24.831-2.595-49.347-7.589-75.005-15.65m15.378-2.257a621.783 621.783 0 01-17.645-2.99c-26.306-4.843-51.615-11.155-77.646-18.115m29.32 7.601c-15.546-4.122-30.855-8.898-46.232-14.269-13.869-4.844-27.744-10.155-41.84-15.875m26.448 3.562c-26.584-10.105-51.802-21.999-77.361-34.896-2.24-1.13-4.48-2.267-6.724-3.411m22.501 13.229a539.105 539.105 0 01-14.504-9.759c-20.06-13.996-39.476-29.825-56.956-48.99m14.155 23.863c-14.706-11.2-27.467-24.493-38.888-39.385a280.963 280.963 0 01-9.242-12.8m7.015 5.479c-19.467-21.092-32.598-45.938-41.483-73.43m5.006 27.163a223.705 223.705 0 01-17.195-42.706c-2.849-12.405-5.35-24.91-7.564-37.647m9.375 13.242c-7.047-25.019-16.838-49.935-28.327-74.415m10.242 20.773c-6.886-22.012-13.237-44.539-18.988-66.151m-2.75 3.618c-6.926-26.014-15.382-50.459-23.75-73.966.27-1.349.54-2.695.811-4.039m4.296 2.801c6.576-26.539 11.418-52.052 16.852-78.18m-9.618 20.796c5.546-24.626 10.984-48.835 16.994-72.18m-7.75 11.298c4.374-17.012 8.033-34.12 11.657-51.311 5.135-14.233 10.245-28.529 15.764-42.88m-9.294 31.164c7.798-23.638 16.158-45.524 24.567-67.237m7.72 14.868c7.202-18.671 13.248-37.604 18.428-56.04 0 0 0 0 0 0 .008-.014 3.414-6.218 9.708-15.515m-10.123 5.35c1.02-1.57 7.69-11.578 18.895-26.075 6.396-8.275 14.362-18.11 23.023-27.655m-12.321 12.054c11.2-12.63 24.69-25.2 41.005-36.983a272.404 272.404 0 0117.307-11.513m-19.69 17.623c11.679-8.752 24.001-16.236 37.128-22.098 14.273-6.373 29.395-10.785 45.636-12.903 1.25-.163 2.507-.312 3.77-.448m-16.429 2.812a167.42 167.42 0 0122.52-7.036c15.53-3.679 31.734-5.2 48.14-4.424m-24.337-.375c6.207-.29 12.566-.195 19.067.297 18.647 1.41 38.086 6.045 58.23 13.815 0 0 0 0 0 0 .022-.043 1.707-3.212 5.175-7.667l.243-.31m-8.023 7.825c4.658 1.9 9.37 3.975 14.113 6.244 0 0 0 0 0 0 .004-.006 1.804-2.923 5.405-6.794 3.59-3.86 9.01-8.709 16.189-12.442 7.16-3.724 16.188-6.395 26.866-5.697 2.15.14 4.37.418 6.657.853m-29.27-5.673c3.952-1 8.231-1.593 12.839-1.629 11.098-.085 24.065 3.055 39.177 11.592 0 0 0 0 0 0-.01.008 6.768-5.913 18.734-12.624a157.591 157.591 0 018.954-4.65m-11.448 11.985a184.324 184.324 0 0110.234-6.585c11.58-6.926 28.283-15.252 48.02-19.53a127.429 127.429 0 0119.915-2.718m-21.935 4.642l1.028-.218a144.177 144.177 0 0131.492-3.057c11.362.158 23.505 1.693 36.136 5.194a149.873 149.873 0 0122.063 8.04m-27.14-10.475c.75.254 1.502.518 2.257.792 12.317 4.473 25.53 11.662 39.482 22.528 7.507 5.847 15.277 12.796 23.286 21.029m-14.577-16.597a319.07 319.07 0 0130.266 30.852s0 0 0 0a5.984 5.984 0 01.04-.002l.121-.007c.107-.006.264-.015.474-.025.419-.02 1.035-.046 1.845-.074 1.617-.055 3.986-.113 7.005-.132 5.598-.036 13.89.06 23.371.644m-22.932.075a663.84 663.84 0 0119.489 1.5c16.147 1.47 38.34 4.014 61.894 8.183m-15.303-8.8c11.937 2.529 24.887 6.588 38.227 12.428 11.607 5.082 23.38 11.459 34.641 19.111m-15.698-7.186a186.53 186.53 0 0125.081 14.352c11.937 8.11 23.479 17.947 33.749 29.408m-4.06-5.748c6.238 5.132 12.148 10.913 17.675 17.344 12.085 14.06 22.236 31.096 30.041 51.054a219.128 219.128 0 013.392 9.29m-14.899-22.993a164.185 164.185 0 016.917 14.888c6.678 16.462 11.373 35.508 12.932 56.822m1.644-16.803a336.625 336.625 0 013.936 28.534s0 0 0 0a.049.049 0 01.003.007l.009.02.034.076.135.303.524 1.186a599.14 599.14 0 011.98 4.561 797.058 797.058 0 017 16.831c4.017 9.991 9.255 23.621 14.019 38.624m-12.712-28.237c4.181 11.295 10.123 27.29 14.986 41.396 3.273 9.495 6.5 19.377 9.328 29.223m4.36-8.555c5.307 18.833 10.273 37.74 13.296 55.677 1.91 11.332 3.05 22.28 3.11 32.801.01 1.925-.015 3.832-.079 5.72m-7.146-35.827c.944 7.736 1.772 15.547 2.313 23.27.796 11.378.96 22.44 0 32.779 0 0 0 0 0 0 .002-.074-.171 6.342-.934 17.512m2.146-11.173c-.519 6.937-2.482 28.655-5.926 65.328a6001.64 6001.64 0 01-2.908 30.275m2.606-29.034c-2.895 20.108-9.125 43.988-19.49 71.375m5.572-19.071c-5.946 22.505-14.909 48.224-27.212 73.436m9.616-18.806c-4.142 10.34-8.542 20.653-13.357 30.858-6.581 13.95-13.987 27.808-22.762 41.584m15.314-11.674c-9.86 18.692-20.316 37.079-32.476 54.696a347.387 347.387 0 01-12.786 17.374m13.311-24.576c-12.641 20.805-29.25 40.77-48.136 58.85m13.32-3.503c-7.47 7.848-15.432 15.765-23.848 23.483-9.788 8.976-20.213 17.701-31.19 25.723m10.155-19.802c-18.997 13.87-40.351 28.042-64.304 40.95a456.192 456.192 0 01-20.002 10.16m29.492-10.366a156.244 156.244 0 01-5.235 2.542c-22.417 10.377-49.756 16.812-81.287 19.91m23.474-2.631c-15.978 3.466-33.202 5.925-51.538 7.184 0 0 0 0 0 0-.045.004-7.06.712-19.785 1.43l-.059.002m17.481.068c-3.178.254-8.366.595-15.056.731-12.302.25-30.27-.177-52.173-3.27a353.762 353.762 0 01-11.377-1.795m18.825 9.536c-2.466.058-4.975.086-7.53.083-22.965-.026-47.405-2.57-76.016-8.403m17.425-2.264c-28.295-2.26-53.673-3.847-88.772-6.22m26.022 3.47c-14.526-1.686-30.212-4.582-46.688-8.527-14.675-3.514-29.81-7.82-44.975-12.721m30.361 3.066c-24.268-5.185-47.83-11.208-70.726-17.453m8.506 5.79a438.982 438.982 0 01-20.513-7.147c-23.099-8.694-45.512-19.332-66.92-31.665m32.092 12.376c-16.593-7.737-33.036-16.792-49.218-27.002-10.592-6.683-21.06-13.853-31.384-21.468m24.862 13.805c-25.657-18.603-50.364-39.61-74.857-66.414a490.2 490.2 0 01-3.256-3.598m15.898 23.495a301.765 301.765 0 01-15.717-17.132c-14.275-16.825-26.39-34.917-35.775-53.555m9.719 22.137c-10.496-17.62-20.634-38.558-28.925-61.974-2.402-8.08-4.808-16.24-7.167-24.436m9.767 29.62l-.36-1.02c-7.657-26.055-14.835-51.228-21.782-77.469m1.414 20.782c-6.923-27.892-16.915-54.633-26.783-80.693m12.52 14.325c-8.798-28.728-16.35-56.347-23.705-85.234m8.504 29.608a4239.984 4239.984 0 01-8.235-24.983c3.503-19.173 6.983-38.43 9.852-57.639M464.77 281.438L341.815 376.13m-654.09-205.552l-41.418-137.41m256.364 321.144l-130.507-72.186m7.746-745.359l117.737-38.244m679.942 387.469l-3.627 107.55"/><g id="g10912"><path id="path10798" d="M36.118-264.664c-1.156-3.8-2.88-8.997-5.338-15.217-5.254-13.299-13.094-29.322-24.612-46.77a287.658 287.658 0 00-6.812-9.865m9.094 6.282a400.89 400.89 0 00-3.97-6.595c-10.757-17.476-23.37-34.8-38.2-48.213-.274-.247-.547-.493-.822-.737m4.7 16.38a219.724 219.724 0 00-10.74-10.157c-8.124-7.155-16.64-13.423-25.713-18.364-8.465-4.61-17.383-8.049-26.887-9.989m21.787 6.673a84.274 84.274 0 00-17.684-3.696s0 0 0 0l.022.004.064.01.252.042c.222.038.552.096.983.174.863.157 2.13.398 3.752.736 3.234.672 7.915 1.734 13.577 3.269 11.297 3.061 26.772 8.065 43.498 16.137a231.422 231.422 0 0110.724 5.523m-32.77-20.236a272.187 272.187 0 0114.023 5.789c16.561 7.377 35.48 17.744 53.524 31.462a233.9 233.9 0 018.01 6.367m-16.516-7.964c2.962 2.56 5.934 5.191 8.887 7.893 14.919 13.654 29.405 29.181 40.555 47.636m-15-11.79a194.145 194.145 0 018.839 18.708c.615-18.053 2.112-36.25 4.028-54.59m4.479 12.768c.983-23.635.574-46.06-.54-67.604m-1.342 15.97c.926-18.675 1.105-38.19 1.045-58.205 4.375 10.105 8.66 20.022 12.975 29.83m-6.967-24.52c11.508 29.2 25.119 56.962 39.3 86.798m-14.795-21.742c9.37 19.451 17.47 38.429 25.496 57.275 4.797-4.38 9.588-8.774 14.407-13.17m-19.937 7.157l.33.699c23.77-18.865 44.943-39.89 66.881-61.224m-19.434 23.794c22.02-18.093 43.156-34.366 65.627-48.25m-11.943 6.526c17.5-14.945 35.62-30.181 52.852-43.778m-9.855 4.586c5.685-5.144 11.285-10.198 16.805-15.194-9.993 16.018-20.484 32.408-31.355 48.684m10.318-13.315c-16.229 27.069-30.396 53.432-43.778 81.24m12.449-23.106c-16.047 28.488-33.285 53.622-49.893 77.275m13.014-23.223c-9.272 15.987-18.427 32.039-27.41 48.541 0 0 0 0 0 0-.003 0 .008-.002.006 0a.142.142 0 01.017-.004l.065-.012.258-.048a93.85 93.85 0 011.006-.177c.878-.15 2.18-.362 3.835-.6 3.302-.477 8.096-1.071 13.896-1.495 7.099-.52 15.75-.79 25.237-.28m-30.945-3.486c1.323-.204 2.723-.412 4.193-.62 11.308-1.598 27.255-3.267 44.06-3.091 8.456.088 17.223.643 25.858 1.93 3.824.571 7.625 1.285 11.365 2.167m-31.647 5.009c3.26.338 6.504.787 9.714 1.36 8.24 1.472 16.244 3.76 23.645 7.083 7.406 3.325 14.193 7.677 20.03 13.284 5.849 5.618 10.693 12.444 14.352 20.746 0 0 0 0 0 0-.144-.031-2.627-.56-7.384-1.432m1.823-12.729c2.941 4.184 5.374 8.905 7.19 14.214 0 0 0 0 0 0-.121-.023-5.966-1.09-15.726-2.39-9.635-1.282-22.905-2.762-37.138-3.58-8.53-.49-17.468-.747-26.109-.554m30.186.298l-1.113-.069c-14.495-.861-29.118-.09-42.07 2.904-6.432 1.486-12.405 3.513-17.61 6.133-5.202 2.619-9.668 5.846-13.056 9.758-2.274 6.023-4.528 12.051-6.782 18.05m12.68-21.65c-3 1.69-5.668 3.605-7.929 5.78-10.784 23.09-21.635 44.935-32.435 64.69-1.15-2.006-2.3-4.024-3.45-6.055m6.014-6.277a868.986 868.986 0 00-8.73 18.78c-13.964-20.713-26.986-41.212-39.847-61.942l-3.563-.02m19.57 12.118A910.45 910.45 0 0091.29-210.43c-21.281.966-43.2 2.224-65.01 4.902m27.98 2.311c-8.617-.013-17.206.033-25.798.133-7.786-9.61-15.578-19.103-23.473-28.487l5.675-6.29m1.123 14.407a1274.2 1274.2 0 00-3.843-5.226c9.939-11.19 19.798-22.082 29.703-32.925 0 0 0 0 0 0l-.002-.006-.006-.019-.023-.073-.09-.287c-.08-.254-.2-.63-.36-1.12-.32-.983-.798-2.416-1.438-4.251a363.089 363.089 0 00-5.726-15.243 453.979 453.979 0 00-5.718-13.636m7.945 26.404a582.248 582.248 0 00-5.204-11.957c-5.427-12.098-13.97-30.136-24.618-47.432a273.175 273.175 0 00-5.122-8.01m8.026 15.953a611.17 611.17 0 00-3.865-6.446c-10.367-17.042-23.172-36.142-37.828-52.014a177.12 177.12 0 00-9.75-9.793m10.42 6.85a150.509 150.509 0 00-5.856-5.47c-8.052-7.12-16.577-13.015-25.642-17.29-9.06-4.271-18.68-6.932-28.878-7.536 0 0 0 0 0 0l.022.004.065.012.254.052c.225.047.56.117.995.213.873.192 2.16.486 3.808.896 3.31.823 8.046 2.103 13.892 3.963 3.113.99 6.523 2.14 10.187 3.466m-27.546 1.214l-.541-.04s0 0 0 0l.02.005.063.012.243.048c.216.043.532.108.95.197.84.179 2.06.447 3.645.819 3.14.736 7.758 1.885 13.397 3.467 10.97 3.077 27.372 8.214 44.341 15.79a242.139 242.139 0 0115.926 7.804m-8.454-17.707c.997.456 1.999.922 3.003 1.397 16.626 7.877 34.115 18.525 49.635 33.033 4.77 4.46 9.357 9.285 13.682 14.512m-17.653-11.813l.524.464c16.077 14.315 29.163 32.983 36.36 57.063-.378-7.248-.835-14.426-1.347-21.536m-.58 13.226c.259.65.513 1.304.764 1.963.22-30.912 1.408-60.9 2.301-90.776m4.23 20.88c1.84-27.864 1.47-54.775 1.483-80.217l1.596 4.27m-12.058 26.498c.07-6.316.206-12.675.4-19.064 9.936 22.487 20.71 44.543 31.876 66.859M78.183-415.22c8.508 20.749 18.503 43.168 28.45 65.574m-2.848-3.096c4.955 10.5 9.33 20.981 13.24 31.406 14.687-14.337 27.812-28.865 40.113-43.818m-8.99 24.33c25.2-20.495 48.768-41.85 73.883-62.555m-30.34 1.816c18.35-15.817 37.544-31.03 57.564-45.22m-11.474 24.948c11.234-10.1 23.546-20.718 36.515-31.66-6.156 11.392-11.805 22.533-17.235 33.553m6.75-25.601c-17.014 25.714-30.998 55.114-44.16 84.856m16.202-20.427c-13.259 21.536-26.029 43.158-38.845 64.756m6.973-19.12c-14.182 22.823-27.043 44.146-40.46 65.646m5.441-16.005c-4.59 6.96-8.987 13.98-13.255 21.042 0 0 0 0 0 0l.006-.001.016-.004.064-.016c.056-.014.14-.035.252-.061.221-.053.552-.131.982-.23.86-.196 2.13-.476 3.755-.805 3.262-.66 7.932-1.512 13.691-2.31 8.038-1.114 18.063-2.1 29.044-2.319m-17.852 6.253c8.878-.586 19.477-1.043 30.22-.82 8.209.17 16.718.74 25.045 2 8.34 1.263 16.511 3.221 24.11 6.183a78.544 78.544 0 019.598 4.482m-23.643-11.092c4.293 1.314 8.46 2.913 12.431 4.84 7.123 3.455 13.614 7.963 19.063 13.772 5.452 5.812 9.86 12.921 12.839 21.603 0 0 0 0 0 0 .034.005-6.062-.93-15.44-1.799a356.69 356.69 0 00-20.564-1.311m23.162-.869a290.217 290.217 0 00-7.76-1.107c-9.447-1.22-21.91-2.377-35.437-2.523-13.403-.146-27.415.712-39.429 3.372a96.889 96.889 0 00-3.491.84m24.87-4.57c-7.148.419-14.344 1.196-21.227 2.447-6.879 1.25-13.449 2.974-19.335 5.287-5.893 2.315-11.086 5.213-15.263 8.825a671.362 671.362 0 01-23.746 38.563m20.787-24.378c-8.031 19.29-17.977 38.53-28.563 56.989-6.017-8.412-12.155-16.97-18.309-25.736m19.047 19.015c-14.19-20.939-27.949-40.492-42.052-60.071-6.919.134-13.864.265-20.854.364m31.736 9.085a1087.104 1087.104 0 01-3.142-4.602c-21.405.265-42.952-.773-64.28-2.469a1447.5 1447.5 0 01-8.435-12.38m7.257 9.123a346.863 346.863 0 00-7.71-.25c-7.943-10.027-15.506-19.357-22.903-28.22 9.122-8.946 18.438-17.35 27.684-25.5M9.648-241.92a2433.52 2433.52 0 0117.155-18.49s0 0 0 0l-.002-.006-.006-.018-.022-.073-.086-.285c-.077-.253-.192-.624-.346-1.112-.308-.978-.765-2.396-1.376-4.222a427.712 427.712 0 00-5.407-15.138c-2.96-7.841-6.823-17.452-11.432-27.62m21.579 32.7c-1.264-3.479-2.97-7.94-5.147-13.126-5.404-12.875-13.55-29.835-24.91-47.586-5.615-8.774-11.971-17.67-19.071-26.242M2.42-334.061c-11.108-16.144-23.646-32.58-38.104-44.978-4.92-4.22-10.088-7.998-15.538-11.183m11.835 6.447c-8.036-7.213-16.365-13.14-25.07-17.456-8.899-4.412-18.21-7.149-27.942-7.804 0 0 0 0 0 0l.023.004.067.013.266.05a157.522 157.522 0 015.022 1.088c3.476.812 8.435 2.07 14.64 3.915.426.126.858.255 1.295.387m-13.473-9.487l-.035-.005s0 0 0 0l.022.003.062.008.247.033a107.7 107.7 0 014.625.763 145.76 145.76 0 0113.108 3.11c10.965 3.13 25.155 8.486 39.595 17.592 3.649 2.3 7.292 4.827 10.881 7.597m-25.776-8.095c1.376.609 2.76 1.232 4.154 1.872 17.094 7.846 35.347 18.028 52.655 31.491a219.228 219.228 0 0119.712 17.297M22.534-361.8c14.314 13.643 27.534 32.576 35.22 57.162a660.708 660.708 0 00-.705-18.981m-2.445 21.596c.237.547.471 1.098.702 1.65 1.37-31.12 1.262-63.294 1.637-96.491m2.532 29.233c.115-26.47 1.493-51.22 3.397-76.07m-3.955 10.046c-.043-8.245.026-16.46.165-24.65 6.385 14.868 13.046 29.83 19.674 44.84m-3.602-4.857c10.844 28.612 24.839 56.682 38.634 85.82m-13.36-28.608c5.126 12.127 10.742 24.434 16.79 36.951a668.974 668.974 0 0127.846-20.28m-7.998 13.973c19.08-17.89 38.018-34.158 56.43-50.59m-12.147 6.147c18.79-16.765 35.484-31.804 51.333-46.668m-18.263 15.943c19.481-15.396 38.547-32.794 58.5-50.55-.741 1.282-1.48 2.563-2.213 3.842m-12.233-2.112c3.632-3.053 7.236-6.118 10.819-9.19-10.59 18.1-21.614 36.04-32.577 54.059m13.97-11.83c-17.761 28.214-35.077 55.202-54.957 81.869m20.92-30.938c-15.658 23.353-27.947 47.4-39.587 70.833m11.419-7.918c-8.686 14.006-17.21 28.25-25.57 42.349 0 0 0 0 0 0l.007-.002.016-.004.066-.018.258-.067c.228-.06.565-.145 1.006-.255.885-.22 2.177-.531 3.838-.908 3.34-.756 8.07-1.75 13.91-2.78 1.139-.201 2.317-.403 3.532-.605m-25.599 2.968a454.2 454.2 0 0112.107-1.698c10.691-1.356 26.276-2.978 41.155-2.717 7.61.133 15.302.751 22.641 2.176.606.118 1.209.24 1.809.37m-10.44-6.11c6.18.19 12.232.846 18.034 2.048 7.832 1.622 15.188 4.237 21.715 8.013 6.517 3.77 12.244 8.72 16.727 15.018 4.482 6.297 7.759 13.996 9.284 23.311 0 0 0 0 0 0s-.207-.014-.597-.037m-9.386-23.053c4.877 5.47 8.875 12.121 11.63 20.164 0 0 0 0 0 0-.275-.055-5.873-1.157-15.6-2.68-9.396-1.471-22.264-3.27-35.745-4.59a432.688 432.688 0 00-15.831-1.273m22.163 3.869c-3.077-.064-6.27-.103-9.529-.103-13.723 0-28.922.68-42.472 3.17-6.751 1.241-13.107 2.932-18.736 5.215m9.762.558c-5.197 1.301-10.029 2.891-14.34 4.848-5.32 2.414-9.849 5.39-13.274 9.062-4.813 11.915-9.304 23.744-13.432 35.6m7.696-19.964c-8.338 17.153-15.29 33.614-21.575 49.894a901.647 901.647 0 01-8.84-15.366m14.186 15.194c-13.843-19.939-28.307-40.574-43.711-61.852-3.063-.155-6.138-.319-9.227-.491m5.71 10.617c-2.092-3.247-4.16-6.432-6.204-9.562-21.325-.312-41.83 1.24-61.434 3.386a980.867 980.867 0 01-11.684-15.859m21.38 15.345c-2.198-.041-4.386-.07-6.566-.088a9361.979 9361.979 0 00-22.595-28.545c7.305-7.393 14.733-14.58 22.204-21.621m-5.764 7.661a2622.684 2622.684 0 0019.733-21.734s0 0 0 0a.036.036 0 00-.002-.006l-.006-.018-.025-.072a93.079 93.079 0 00-.5-1.37c-.355-.949-.896-2.357-1.62-4.12-1.465-3.567-3.654-8.53-6.722-14.494a226.557 226.557 0 00-9.011-15.869m10.699 40.157c-.379-.957-.918-2.301-1.641-4.07a876.302 876.302 0 00-6.385-15.178c-5.094-11.806-13.554-30.847-23.609-48.993m10.532 16.09a269.66 269.66 0 00-8.526-14.727c-10.812-17.365-24.573-34.808-41.438-48.626l-.591-.482m10.389 8.212c-4.095-4.766-8.403-9.295-12.911-13.496-7.622-7.101-15.814-13.262-24.521-18.04-7.015-3.85-14.352-6.795-21.983-8.621m12.403.25c-7.257-2.583-14.72-4.348-22.403-5.054 0 0 0 0 0 0s.008 0 .022.004l.063.01.25.044c.22.04.548.099.976.18.857.163 2.12.414 3.744.766 3.232.7 7.976 1.819 13.795 3.453a272.603 272.603 0 0129.816 10.27M-62.06-406.2c8.776 2.58 18.84 6.16 29.755 11.073a253.223 253.223 0 0139.599 22.316m-14.468-1.572c8.538 5.76 17.471 12.445 26.122 20.137 9.74 8.66 19.216 18.677 27.46 30.243M35.46-342.588c8.89 11.31 16.203 24.037 21.046 38.535a841.761 841.761 0 00-2.6-44.887m9.089 27.898c.429-23.912 1.352-48.002 2.632-72.817m-13.18 18.062c.516-24.403 1.997-48.753 4.446-73.418A892.075 892.075 0 0064.1-435.99m-9.786-14.131a521.276 521.276 0 01-.11-7.744c8.541 22.044 18.394 43.849 28.16 66.885m-5.43-10.908c10.527 27.75 24.028 53.163 38.056 78.757l2.79-2.317m-1.115-24.863a497.825 497.825 0 018.552 18.974c12.952-11.53 25.407-22.27 37.607-32.882m-15.386 16.657c24.84-20.157 48.588-43.224 73.215-66.44m-19.755 15.76c20.339-17.657 40.758-33.177 61.992-46.912m-22.104 14.417c10.11-8.86 20.68-18.133 31.443-27.586-9.442 15.872-18.544 31.42-27.94 47.188m6.774-25.738c-13.351 20.666-25.455 41.542-37.492 62.008m14.865-5.698c-15.924 29.795-33.671 55.227-49.95 80.459m18.47-32.935c-11.751 19.946-24.114 42.051-35.774 64.645 0 0 0 0 0 0-.003 0 .01-.002.006 0l.017-.004.067-.011.263-.044c.231-.038.576-.094 1.024-.163.898-.138 2.22-.332 3.912-.55a216.02 216.02 0 013.728-.45m-2.47-10.237a571.829 571.829 0 01-5.426 9.99s0 0 0 0h.006l.017-.004.066-.015.261-.058c.23-.05.57-.124 1.015-.217.891-.187 2.193-.451 3.856-.767a299.615 299.615 0 0113.78-2.27c11.348-1.602 26.728-3.137 42.616-2.463 4.589.195 9.248.573 13.913 1.188m-26.98 3.92c2.9-.092 5.836-.13 8.783-.102 7.92.075 15.934.623 23.611 1.861 7.68 1.24 15.032 3.17 21.65 6.023 6.619 2.852 12.501 6.626 17.22 11.52 1.564 1.624 3 3.37 4.286 5.24m-12.033-10.823c4.385 2.973 8.4 6.3 11.93 10.08 5.278 5.652 9.456 12.304 12.087 20.143 0 0 0 0 0 0-.707-.17-5.55-1.299-16.159-3.62-4.026-.88-9.03-1.962-14.163-3.039m14.754 4.8l-1.045-.086c-9.647-.79-23.296-1.659-37.373-1.565-14.283.096-29.431 1.172-43.167 4.347-4.803 1.11-9.414 2.474-13.725 4.13m30.343-3.466c-4.468.258-8.803.72-12.946 1.399-6.725 1.102-12.946 2.781-18.371 5.094-5.424 2.313-10.072 5.268-13.628 8.938-4.294 9.932-8.484 19.928-12.686 29.816m5.755-23.106a2827.586 2827.586 0 00-26.002 59.215c-5.493-8.523-10.91-17.075-16.215-25.727m8.824 26.385c-12.522-19.24-25.274-39.32-36.634-59.344-7.583-.07-14.998-.133-22.177-.152m22.474-4.368c-.604-.891-1.21-1.782-1.817-2.671-21.656-.008-43.808.323-66.36.926-.457-.533-.916-1.066-1.375-1.599m21.784 6.692c-4.427.053-8.84.092-13.25.118-8.051-9.683-16.066-19.47-24.255-29.299 9.04-10.926 17.838-21.911 26.042-32.855 0 0 0 0 0 0l-.003-.007-.008-.019-.027-.063m-11.076 22.518c5.54-6.836 11.115-13.49 16.662-20.036 0 0 0 0 0 0l-.002-.007-.007-.019-.026-.073a121.472 121.472 0 00-.517-1.414 199.69 199.69 0 00-1.647-4.26 271.524 271.524 0 00-6.606-15.147c-4.857-10.288-11.742-23.287-21.15-37.131m24.115 52.412l-.336-.968a236.376 236.376 0 00-6.025-15.381c-5.553-12.875-13.932-29.371-25.982-46.479a246.16 246.16 0 00-1.591-2.232m8.353 10.214a483.238 483.238 0 00-6.752-11.353C-6.112-352.184-18.23-369.212-32.289-382a120.33 120.33 0 00-1.57-1.405m8.131 7.883c-3.722-4.06-7.606-7.875-11.655-11.389-7.937-6.889-16.514-12.625-25.73-16.77-9.213-4.144-19.091-6.71-29.608-7.21 0 0 0 0 0 0l.022.006.063.013.247.054c.218.05.542.123.966.223a134.473 134.473 0 014.903 1.261m9.699 1.327c-4.916-1.42-9.927-2.444-15.036-3.013 0 0 0 0 0 0l.021.003.064.01c.055.01.139.022.248.04.22.034.545.087.972.16.855.146 2.11.372 3.73.691 3.234.638 7.927 1.651 13.746 3.147 11.55 2.97 27.941 7.945 45.925 15.758 1.087.473 2.18.956 3.28 1.45m-25.034-8.487a160.224 160.224 0 0115.549 6.422c16.172 7.675 34.175 19.372 50.417 35.524M6.723-366.766a194.103 194.103 0 0113.415 11.67c15.343 14.664 29.574 33.405 38.49 57.431.056-2.347.107-4.687.153-7.018M43.1-318.368a203.104 203.104 0 017.497 16.938c.33-26.26 1.938-54.375 3.115-83.143m4.318 31.053c2.194-32.919-.397-66.994-3.446-102.707m8.662 35.624c.315-9.854.567-19.765.78-29.652A3225.216 3225.216 0 0182.61-405.46m-9.639-22.593c11.392 29.465 24.17 57.904 34.99 86.637M95.854-360.06c5.185 13.33 11.05 25.598 17.422 37.152 13.722-12.467 28.2-25.998 43.126-39.972m-14.98 22.813c23.19-18.867 43.401-38.737 62.152-57.415m-13.332 15.61c20.568-17.937 41.59-38.487 61.013-59.677m-16.625 22.074c12.733-11.18 25.894-23.697 39.053-37.2a608.655 608.655 0 01-12.364 17.21m11.299-20.009c-14.717 23.099-27.169 47.372-39.295 73.278m6.553-16.191c-15.193 25.695-29.975 50.77-43.545 74.7m12.93-26.585c-14.359 22.083-26.807 44.665-39.545 68.155m5.184-7.122c-6.239 9.695-12.173 19.653-17.842 29.667 0 0 0 0 0 0l.006-.002a.189.189 0 01.017-.004l.066-.017a66.851 66.851 0 011.29-.314c.9-.213 2.224-.517 3.922-.878 3.425-.729 8.266-1.67 14.312-2.612a333.696 333.696 0 0126.077-2.997m-25.293 4.543c10.357-1.544 23.156-2.687 36.72-2.276 7.988.243 16.178 1.025 24.125 2.57 4.045.787 8.028 1.77 11.889 2.982m-13.418-3.323c1.335.199 2.668.416 3.998.652 7.955 1.414 15.788 3.522 23.067 6.554 7.29 3.036 13.993 6.985 19.758 12.08 5.77 5.1 10.537 11.292 14.032 18.732 0 0 0 0 0 0-.077-.024-.8-.25-2.462-.75m-14.63-21.305c2.961 4.201 5.438 9.006 7.337 14.492 0 0 0 0 0 0 .156.024-6.165-.966-15.409-1.65-9.528-.704-22.08-1.09-35.7-.08-.767.056-1.538.117-2.31.183m24.576 4.54c-4.003-.062-8.182-.056-12.442.05-13.706.344-28.127 1.73-40.878 5.304-6.353 1.78-12.244 4.091-17.37 7.04a51.872 51.872 0 00-3.777 2.389m9.141-13.045c-4.782 1.14-9.265 2.582-13.314 4.374-5.39 2.385-10.02 5.39-13.56 9.118a1269.425 1269.425 0 00-16.153 39.989m-1.843-16.632c-6.503 15.541-13.627 31.622-20.827 48.033-7.368-10.283-14.78-20.38-22.002-30.38m18.78 28.42c-10.806-16.057-22.769-33.043-35.206-50.244-10.514-.246-21.144-.544-31.808-.808M89.17-212.75c-18.995-.396-38.995.74-59.048 2.973a735.295 735.295 0 00-8.955-9.577m17.796 21.526l-2.02-.007c-7.383-9.806-15.188-19.696-23.314-29.688 8.798-10.73 17.18-21.592 25.3-32.611m-25.097 9.8a619.99 619.99 0 0115.085-16.248s0 0 0 0l-.002-.006a2.403 2.403 0 00-.025-.091l-.08-.286a125.01 125.01 0 00-.322-1.113c-.286-.977-.712-2.394-1.281-4.204a359.795 359.795 0 00-5.046-14.807c-3.573-9.823-8.173-21.336-13.828-33.902m190.507-17.69l-82.727 137.957m3.383-3.861H-24.02m206.95-41.538l-61.686 135.786M-74.56-414.904l114.493 62.942m151.785-38.852l127.554-111.673"/><path id="path10800" d="M-189.65 60.954l1.658-3.067c2.898-5.35 7.935-14.602 13.168-24.085 6.35-11.51 15.143-27.292 24.323-42.749m-11.338 6.33c8.822-15.53 19.542-31.857 32.736-49.29a576.132 576.132 0 017.955-10.265m-15.346 18.379c.452-.726.908-1.454 1.368-2.183 12.266-19.42 27.114-39.016 44-59.61m-5.006 15.649c12.687-14.1 25.726-28.856 39.264-42.363 8.856-8.836 18.02-17.24 27.75-24.922m-28.078 9.487c10.833-11.485 23.109-22.131 36.359-31.813 11.038-8.065 22.793-15.488 34.943-22.127m-18.693 18.039a351.98 351.98 0 0124.568-15.396M-196.26 52.38c.19-.394.387-.802.593-1.224 2.773-5.687 6.922-13.727 12.806-23.805 6.772-11.6 15.322-25.016 26.339-40.605m-3.9 10.306c9.315-15.084 20.216-32.452 31.108-48.585a786.325 786.325 0 015.2-7.606m-9.482 13.316c.9-1.227 1.803-2.463 2.71-3.71 16.264-22.35 33.37-47.68 52.47-72.492m-13.32 18.216c10.344-12.264 21.977-24.741 34.59-36.418 9.964-9.222 20.494-17.903 31.45-25.582m-23.275 17.69c10.923-9.613 21.594-18.856 32.427-27.409 10.747-8.486 21.57-16.227 32.836-22.93m-22.163 5.666c9.83-5.975 19.431-11.572 29.084-16.585M-199.446 54.157a534.819 534.819 0 012.35-4.188c3.021-5.33 7.825-13.606 13.552-22.644 7.207-11.374 16.782-25.424 28.347-38.875m-7.184 10.553c8.38-14.162 18.61-30.122 30.025-46.05a551.697 551.697 0 017.878-10.723m-6.986 7.167l.827-1.225c14.092-20.845 29.07-41.551 44.816-61.641m-11.322 17.132c10.98-13.406 23.385-26.81 36.932-39.313 9.404-8.678 19.319-16.885 29.637-24.326m-19.093 15.568c11.152-10.244 22.49-20.622 34.11-30.541 14.193-12.117 28.725-23.48 43.973-33.263m-220.487 256.69l.942-1.765a592.91 592.91 0 0112.975-22.941c8.957-15.05 21.788-35.114 37.419-54.57m-17.786 17.722c7.99-12.707 17.506-26.97 28.523-41.947a632.434 632.434 0 0121.639-27.785m-23.824 25.539c17.68-24.037 37.56-48.252 61.705-71.641m-15.592 18.665c7.7-8.892 15.572-17.688 23.6-26.25 13.356-14.243 27.241-27.94 41.712-40.527.652-.567 1.305-1.132 1.96-1.695m-17.264 18.12a193.224 193.224 0 0118.44-16.02c12.536-9.58 26.027-17.51 39.919-23.847m-213.949 253.63c3.014-5.907 7.166-13.906 12.803-24.54 9.027-17.03 20.485-38.218 35.268-65.204m-20.497 30.306c7.63-12.979 16.546-26.613 26.998-41 9.75-13.42 20.509-27.048 32.23-40.86m-16.733 14.347c17.67-21.84 36.363-45.057 56.48-62.846m-12.542 20.02a425.57 425.57 0 0117.557-19.224c10.29-10.59 21.014-20.492 31.934-29.404m-8.428 12.744c7.037-6.478 14.19-12.539 21.473-18.17 14.221-10.994 28.993-20.392 44.31-27.985M-122.074-71.208l110.107-117.27M-50.02-158.27l121.308-72.947M-75.68-130.758l118.324-90.787M-216.248 90.268L-119.776-73.6m-33.082 48.584l105.46-132.736"/><path id="path10802" d="M-64.447 112.447l1.122-4.458c2.14-8.522 3.87-15.536 7.13-28.905 2.878-11.803 7.079-29.17 11.196-44.577m-6.592 8.439c5.055-19.72 11.957-40.515 21.128-62.599a541.498 541.498 0 012.212-5.249M-39.922-4.624a354.144 354.144 0 012.905-9.361c5.554-17.072 12.567-34.398 20.53-51.709 1.6-3.478 3.235-6.95 4.899-10.405m-1.392 17.917l2.625-5.13c8.185-15.973 16.322-31.513 25.418-45.752 6.86-10.74 14.113-20.491 22.078-28.93M12.663-125.26c7.036-11.452 15.275-21.73 24.294-30.42 8.425-8.118 17.6-14.918 27.266-20.019M-67.432 104.133c.142-.736.295-1.52.462-2.353 1.357-6.774 3.514-16.391 6.984-28.97 3.656-13.256 8.504-28.848 14.95-47.153m-12.127 20.855c4.872-19.403 12.078-40.57 22.057-63.643a543.022 543.022 0 013.628-8.2m-.826 11.782l2.843-7.752c6.072-16.516 12.249-33.005 18.54-47.996a534.58 534.58 0 012.872-6.718m-7.17 14.635c.616-1.284 2.281-4.759 2.898-6.043C-4.53-83.671 3.354-100.02 11.84-115.271c5.722-10.281 11.675-19.99 18.032-28.855m-11.855 19.362c7.525-11.227 16.023-21.579 25.278-30.216 10.363-9.672 21.635-17.16 33.62-21.457m-144.635 282.33c.412-1.541.923-3.454 1.506-5.664 2.128-8.059 3.964-15.233 7.3-28.496 3.003-11.943 7.463-29.878 12.018-45.857m-10.624 14.43c6.33-18.635 12.8-40.997 20.361-64.57 2.451-7.644 5.04-15.429 7.814-23.198m-9.703 30.534l.33-.817c6.66-16.498 13.699-32.49 21.713-47.017 4.313-7.819 8.89-15.18 13.84-22.012m-5.562 11.456c5.976-13.114 12.736-25.825 19.921-37.161 4.92-7.761 10.045-14.887 15.304-21.132m-7.261 6.965c7.032-10.5 14.251-19.813 21.718-27.69 7.935-8.37 16.177-15.15 24.78-19.983M-68.455 103.156c.154-.747.322-1.542.502-2.384 1.432-6.673 3.671-16.207 7.011-27.882a500.294 500.294 0 0119.584-55.646m-7.824 22.652c5.338-16.878 11.33-36.656 18.255-57.889 4.231-12.97 8.85-26.543 13.917-40.11m-12.093 27.527c5.126-13.22 10.796-26.447 17.06-39.086 7.76-15.653 16.343-30.223 25.881-42.845.3-.397.602-.792.904-1.186M-1.856-95.26c4.333-8.129 8.982-16.086 13.955-23.732 9.475-14.571 20.07-27.929 31.715-39.062a158.573 158.573 0 015.985-5.441M23.965-139.66a172.909 172.909 0 019.11-9.779c8.073-7.997 16.549-14.627 25.504-19.591M-71.039 109.823l.05-.23c.41-1.867 1.002-4.528 1.794-8.02a2374.161 2374.161 0 016.805-29.1c3.679-15.3 8.758-35.782 14.662-57.104m-4.24 26.78C-47.191 22.406-40.62 2.914-31.87-17.612c4.373-10.259 9.156-20.465 14.277-30.715m-13.549 28.332c5.5-15.103 11.603-30.932 18.228-46.788C-6.337-82.52.86-98.539 8.586-113.997m-18.969 31.204c4.847-10.126 10.224-19.822 16.031-28.9 9.174-14.342 19.475-27.225 30.474-37.729 4.887-4.666 9.93-8.881 15.106-12.564M30.961-150.88a190.612 190.612 0 017.505-7.426c9.77-9.119 19.765-16.214 30.337-20.452M-38.105-20.579l74.882-142.367M21.48-140.473l71.916-50.9m-97.202 90.024l77.177-87.556M-80.881 150.333l49.185-183.685m-21.35 63.01l64.75-156.679"/><path id="path10804" d="M193.875-153.296a17.749 17.749 0 014.415.03c3.441.441 7.655 1.91 12.465 5.323 4.812 3.414 10.235 8.786 16.044 17.07 5.859 8.355 11.81 19.203 18.32 34.107m-10.115-27.404c2.815 5.066 5.796 10.818 8.969 17.356 6.23 12.837 13.38 29.076 21.242 48.7m-11.864-8.75a5222.04 5222.04 0 007.752 22.268c4.067 11.608 11.076 31.453 16.05 46.064m.817-13.215c10.206 29.79 15.985 53.83 26.451 93.418m-14.659-35.225c5.59 24.333 13.505 50.854 23.997 80.731m-5.13-14.595c2.027 10.894 4.46 21.65 7.298 32.455M188.325-160.191c.699.021 1.443.091 2.233.221 3.254.537 7.245 2.095 12.01 5.562 4.783 3.481 10.268 8.821 16.718 16.959 5.876 7.415 12.552 17.152 20.166 29.76m-3.009-18.74c3.228 5.34 6.498 11.5 9.735 18.607 5.79 12.715 11.433 28.359 16.705 48.106m-6.227-12.677c3.168 7.728 6.261 15.892 9.305 24.606 6.361 18.214 11.87 36.93 17.97 59.585m-3.871-25.636c8.908 33.4 13.937 48.271 26.365 91.295m-10.79-23.095c7.642 25.619 12.513 49.326 18.728 79.58m-9.266-24.823c3.213 12.187 5.981 24.315 8.571 36.881M183.304-161.176c1.594-.284 3.565-.367 5.88.035 3.434.597 7.663 2.268 12.559 5.99 4.898 3.725 10.51 9.534 16.757 18.584 6.324 9.16 13.12 21.337 21.085 38.75.22.48.44.965.661 1.453m-5.787-25.907c2.67 5.391 5.496 11.515 8.383 18.32 5.741 13.534 12.63 31.905 18.572 53.607m-3.273-21.303c2.624 6.538 5.217 13.621 7.76 21.298 5.149 15.546 10.008 33.288 14.478 53.587m-4.615-15.217c8.492 30.579 14.87 50.624 27.118 91.15m-6.557-25.962c8.538 31.845 13.605 54.494 21.931 88.652m-126.102-306.55c.91.011 1.9.101 2.968.299 3.34.617 7.44 2.29 12.224 5.943 4.78 3.65 10.27 9.302 16.399 17.94 6.118 8.621 12.963 20.343 20.48 36.36a457.45 457.45 0 018.196 18.59m-14.506-32.684c1.526 2.93 3.09 6.012 4.704 9.264 7.724 15.562 15.195 32.136 25.556 55.023l4.553 10.04m-18.456-9.96c1.111 2.74 2.226 5.55 3.354 8.447 9.466 24.323 18.586 51.68 28.053 76.002m-5.8-22.97c8.225 27.078 14.914 54.573 22.61 88.447m-2.722-24.958c4.966 22.176 10.66 45.259 17.891 74.389m-123.946-303.5c.28.027.564.06.855.102 3.346.474 7.417 1.944 12.179 5.237 4.777 3.304 10.15 8.372 16.175 15.955 6.076 7.647 12.51 17.451 19.676 30.152a508.803 508.803 0 017.162 13.178m-17.448-16.782a437.466 437.466 0 014.142 8.488c6.875 14.464 14.965 33.316 23.907 56.226 3.32 8.507 6.828 17.76 10.401 27.524m-8.049-37.429l.21.58c9.03 25.078 16.574 52.806 24.621 91.329m-2.461-20.98c5.185 19.93 11.156 44.383 16.308 70.26m-.452-12.049c6.845 25.618 12.189 49.823 19.509 81.648m-51.182-200.44l41.338 155.457M298.68 62.658l30.112 140.32M289.935 27.53l33.184 145.402M197.623-179.882L260.836-79.31m-9.96-18.47L300.75 64.248"/><path id="path10806" d="M317.501-254.107c4.538-1.423 11.225-3.138 19.545-4.155 8.026-.982 17.459-1.304 28.041-.172 9.504 1.017 19.772 3.185 30.854 7.005m-19.947-15c7.059 1.241 14.639 3.173 22.69 5.989 13.14 4.595 27.497 11.53 42.8 21.585.457.301.916.605 1.376.911m-19.565-2.474a244.015 244.015 0 0111.353 7.066c14.09 9.301 29.59 21.5 45.443 36.643l.98.94m-6.041-9.184a297.05 297.05 0 0111.238 11.346c16.054 17.095 30.834 36.703 47.032 62.34.573.908 1.148 1.822 1.725 2.744m-22.929-31.633c4.158 6.145 8.53 12.683 13.115 19.602 10.12 15.274 21.802 33.197 33.898 51.96m-10.232-12.78c6.975 14.661 14.511 29.016 22.96 44.12M311.88-261.471c4.112-1.145 9.805-2.41 16.97-3.242 7.976-.927 17.769-1.318 29.164-.413 9.13.726 19.282 2.284 30.3 5.06m-11.425-7.855a123.147 123.147 0 0123.914 6.561c12.494 4.819 25.452 12.108 38.43 22.828m-13.645-6.54a238.094 238.094 0 0113.778 8.418c14.65 9.644 29.198 21.506 43.784 36.432a329.852 329.852 0 0110.708 11.505m-13.892-20.04a664.006 664.006 0 015.76 6.504c14.548 16.648 31.946 38.233 48.656 63.881a503.71 503.71 0 013.418 5.319m-18.24-19.904a336.372 336.372 0 0110.952 16.125c10.67 16.713 19.97 34.3 29.742 54.818m-14.001-23.154c8.756 15.752 16.367 31.732 23.71 49.03M306.977-261.775c4.415-1.28 11.7-2.978 21.085-3.604 8.13-.543 17.925-.291 29.033 1.77 10.434 1.937 22.096 5.48 34.865 11.567m-16.432-12.599a154.077 154.077 0 0121.887 7.254c12.474 5.197 26.296 12.879 39.86 24.176.906.755 1.813 1.527 2.72 2.317M428.669-245.7c3.58 1.959 7.175 4.115 10.777 6.48 14.41 9.46 28.768 22.152 42.772 38.77a260.204 260.204 0 014.283 5.22m-12.178-10.865a510.406 510.406 0 018.06 8.744c14.89 16.534 32.051 37.723 49.189 63.359.651.975 1.305 1.958 1.959 2.95m-14.21-22.652a656.491 656.491 0 0112.246 18.35c12.23 18.997 23.481 38.508 35.243 60.354m-13.976-24.425c6.434 12.85 12.907 26.707 19.391 41.754m-256.437-209.66c4.265-1.109 10.147-2.346 17.445-3.188 8.102-.935 17.97-1.385 29.359-.62 11.243.753 23.967 2.689 38.064 6.52m-31.354 3.768c6.61 1.19 13.522 2.895 20.747 5.233 13.596 4.401 27.891 10.901 43.665 20.283 6.52 3.878 13.196 8.188 20.2 13.017m-18.88-13.975c.45.286.902.574 1.353.865 14.773 9.534 29.556 21.744 44.547 37.349 7.036 7.324 14.013 15.284 21.05 23.987m-13.6-19.558c13.18 14.451 27.45 33.405 42.519 56.985a716.658 716.658 0 0115.633 25.677m-17.588-23.384l.361.566c15.11 23.745 28.567 48.141 43.066 75.473M311.286-260.276c4.01-1.086 9.254-2.214 15.621-2.964 7.933-.934 17.574-1.276 28.682-.234 11.107 1.041 23.628 3.462 37.271 8.01 5.7 1.9 11.585 4.17 17.632 6.857m-26.54-19.62a162.636 162.636 0 0111.228 3.915c13.147 5.131 27.05 12.545 41.071 23.45 7.943 6.176 16.023 13.546 24.182 22.45m-14.97-12.779c12.219 8.994 25.022 20.54 37.674 35.064a278.666 278.666 0 0112.353 15.245m-6.859-8.76c14.833 15.395 28.967 34.124 43.911 57.522a739.237 739.237 0 018.01 12.844m-14.801-18.896c1.31 2.242 2.631 4.516 3.957 6.814 9.823 17.032 20.999 37.305 30.67 58.245m-8.198-13.513a8318.922 8318.922 0 0020.374 41.085M466.244-227.59l93.563 130.85m-23.527-37L595.865-3.18m-79.46-162.907L585.139-33.73m-269.132-238.98l105.287 15.31m3.873-.913l106.896 109.4"/><path id="path10808" d="M280.992-288.15a225.879 225.879 0 0115.39-9.023c13.136-7.034 30.583-14.788 51.006-19.663 2.276-.544 4.589-1.051 6.936-1.519m-19.968-5.444c3.675-1.206 7.5-2.315 11.468-3.301 17.953-4.465 38.688-6.377 60.779-3.373m-21.884 4.662c8.265.01 16.934.723 25.87 2.298 12.486 2.2 25.441 6.071 38.465 11.99a168.594 168.594 0 016.917 3.336m-9.204-4.91a162.988 162.988 0 018.448 4.197c10.632 5.674 20.98 12.723 31.069 21.56m-211.256-12.904c3.25-2.192 7.608-4.93 13.083-7.914 13.094-7.138 31.699-15.193 55.384-20.927a258.031 258.031 0 0114.928-3.149m-21.539 11.178a320.054 320.054 0 017.463-1.856c20.148-4.753 44.926-8.51 71.407-7.14m-24.664 1.821a155.624 155.624 0 0119.454 2.517c12.636 2.447 25.914 6.607 39.545 12.986a188.758 188.758 0 0113.718 7.127m-9.628-12.352c.645.312 1.289.631 1.93.958 12.435 6.315 24.37 15.22 35.427 27.306M276.73-295.18c.377-.23.777-.47 1.2-.724a362.274 362.274 0 0115.209-8.593c12.562-6.718 30.934-15.698 51.057-22.099a207.524 207.524 0 0116.785-4.595m-21.689 4.14c2.426-.579 4.916-1.131 7.464-1.647 20.776-4.202 46.146-6.127 72.57.164 4.197 1 8.435 2.209 12.696 3.656m-29.191-3.856c4.313.52 8.613 1.201 12.894 2.066 12.846 2.594 25.504 6.827 37.946 13.28 8.116 4.21 16.12 9.352 24.086 15.616M456.2-314.389a176.1 176.1 0 0124.398 17.714m-207.126-.58c3.5-2.047 8.19-4.62 13.796-7.277 13.235-6.274 31.667-13.092 53.652-15.226 4.13-.4 8.393-.638 12.782-.678m-16.593-2.6c2.58-.63 5.226-1.22 7.93-1.757 18.685-3.714 40.662-5.007 62.344 1.017m-13.778-7.746c7.24.147 14.526.89 21.804 2.321 12.3 2.418 24.551 6.794 36.465 13.532a131.03 131.03 0 0113.338 8.664m-15.448-6.75c.606.334 1.213.671 1.821 1.015 9.942 5.61 20.144 12.654 30.426 21.475m-205.85-1.036c.862-.546 1.957-1.23 3.285-2.04 3.53-2.154 8.732-5.219 15.158-8.743 12.535-6.875 31.262-16.365 51.923-23.627 6.38-2.242 13.058-4.317 19.973-6.09m-29.388 6.869c2.558-.659 5.17-1.277 7.834-1.845 21.158-4.512 45.797-5.93 71.414 1.09a135.223 135.223 0 0118.979 6.761m-30.307-13.196c3.211.45 6.456.995 9.73 1.646 12.698 2.526 25.804 6.631 39.253 12.85 9.56 4.42 19.256 9.888 29.144 16.607m-28.242-2.69c8.745 5.087 17.363 11.303 25.985 18.812m-112.355-51.75l101.589 23.67m-34.591-17.98L524.44-258.4m-108.615-78.214l92.255 56.926m-263.675-3.767l124.153-55.713m-38.478 9.77l110.527-.375"/><path id="path10810" d="M46.166-362.344a220.842 220.842 0 00-3.03-10.872c-3.253-10.636-8.057-23.601-14.888-37.37-4.343-8.756-9.351-17.51-14.82-25.45m8.41 6.684c-5.6-10.76-11.692-20.98-18.263-29.12-4.205-5.208-8.62-9.582-13.254-12.736-1.914-1.303-3.866-2.397-5.853-3.254m54.05 106.112c-.867-2.475-1.95-5.539-3.143-8.877-3.466-9.687-8.955-24.784-14.691-38.327-3.363-7.94-7.08-16.02-11.163-23.602m13.63 17.383c-4.935-10.538-11.032-20.94-17.935-29.325-4.267-5.181-8.837-9.585-13.639-12.773-4.306-2.858-8.802-4.74-13.449-5.337m60.84 97.193a2797.15 2797.15 0 00-4.004-12.235c-3.034-9.208-8.303-25.17-13.01-37.946-3.643-9.892-7.708-20.043-12.194-29.005m10.295 25.095c-5.596-9.91-11.609-20.272-17.81-28.789-4.093-5.623-8.332-10.54-12.794-14.31-2.278-1.926-4.604-3.542-6.985-4.8m55.635 102.997c-.827-2.417-1.88-5.481-3.015-8.758-3.173-9.17-8.577-24.72-13.637-37.588-3.052-7.76-6.391-15.652-10.005-22.95m12.907 10.695C19.09-440.701 12.66-451 5.26-459.096c-4.56-4.99-9.47-9.12-14.626-12.002-4.93-2.755-10.116-4.388-15.493-4.508M42.11-373.401c-.62-2.118-1.359-4.541-2.223-7.233-3.26-10.151-8.169-23.622-14.834-38.022-6.587-14.233-14.748-29.03-23.829-40.58l-.111-.14m17.366 19.968c-4.46-7.244-9.16-14.201-14.1-20.1-4.244-5.068-8.669-9.36-13.309-12.449-3.871-2.577-7.886-4.312-12.029-4.945m59.954 74.916L-19.51-490.02M2.75-464.556l-43.003-16.44m56.997 34.648l-48.972-39.719M68.225-299.336L8.037-471.546M50.952-368.8L-11.46-488.946"/><path id="path10812" d="M-2.605-272.331c-4.792-4.082-12.786-10.245-24.316-16.858-9.616-5.514-21.223-11.074-34.891-16.03a256.093 256.093 0 00-12.614-4.203m17.028-3.433a235.352 235.352 0 00-6.129-2.52c-13.265-5.236-27.707-9.515-43.103-11.91a175.725 175.725 0 00-18.836-1.908m8.88 7.335c-15.4-2.378-31.107-3.295-47.278-2.206a202.19 202.19 0 00-26.41 3.547m21.922-.62c-14.026 2.874-29.22 7.386-44.65 14.263-13.307 5.932-27.182 13.804-40.428 24.113m14.798-23.323c-14.11 7.115-27.398 16.293-39.92 27.722-7.525 6.868-14.68 14.463-21.572 22.83m14.809-8.69c-17.563 16.223-33.155 33.686-47.131 53.198m320.027-69.877c-5.27-3.749-13.122-9.066-22.577-14.729-9.181-5.498-20.11-11.465-32.087-16.775a241.116 241.116 0 00-8.644-3.636m20.487 1.966a159.604 159.604 0 00-6.095-2.53c-12.976-5.078-27.989-9.005-44.804-10.692a180.95 180.95 0 00-19.064-.896m13.684 2.816c-14.6-1.953-30.768-2.874-47.94-1.882-14.114.815-28.972 2.927-44.13 6.843m27.748-7.924c-12.616 3.106-25.296 7.382-37.769 13.333-13.915 6.64-27.849 15.49-41.389 27.535m15.866-12.606a357.596 357.596 0 00-35.383 25.774c-9.133 7.547-18.582 16.115-27.797 25.621m9.284-19.44c-12.617 13.352-27.825 29.862-41.806 46.88M-7.91-277.395c-3.183-2.7-12.88-10.522-27.66-18.082-9.21-4.712-20.338-9.293-32.85-12.433a139.24 139.24 0 00-9.987-2.124m23.396.223a274.65 274.65 0 00-9.385-3.248c-13.473-4.385-28.669-8.109-45.1-9.523a163.501 163.501 0 00-18.904-.543m18.448-4.255c-15.308-2.817-32.027-3.625-50.04-1.764-9.893 1.023-20.128 2.845-30.714 5.558m18.996-1.165c-14.957 2.802-30.04 7.37-44.861 14.466-12.032 5.76-24.025 13.25-35.747 22.99m20.95-14.683a427.554 427.554 0 00-42.164 27.816c-10.833 8.11-21.916 17.223-32.68 27.248m18.142-19.28c-14.634 14.452-29.45 32.03-43.461 53.457m324.343-73.067c-5.046-3.758-13.058-9.407-23.255-15.672-9.075-5.577-19.975-11.698-31.963-17.29a260.96 260.96 0 00-13.69-5.927m7.222 16.04c-1.27-.568-2.556-1.13-3.86-1.683-12.659-5.373-26.8-9.885-41.972-12.781-12.045-2.3-24.583-3.546-37.233-3.416m25.068 1.048a201.95 201.95 0 00-35.239-.33c-18.229 1.41-37.394 5.317-57.238 12.365l-.5.178m28.63-7.887c-8.376 1.872-16.687 4.603-24.945 8.244-19.456 8.58-37.842 21.818-56.646 40.211l-.87.855m19.788-16.047c-7.261 4.825-14.532 10.086-21.857 15.803-15.641 12.206-30.764 25.878-46.36 41.204m11.454-12.852c-9.012 9.413-17.664 19.873-26.043 31.515m325.55-76.983c-4.89-3.452-12.289-8.264-21.774-13.202-9.446-4.918-21.195-10.08-34.59-14.003-7.769-2.276-16.144-4.15-24.96-5.297m26.809 9.703c-13.01-4.872-27.461-8.905-43.157-11.123a187.557 187.557 0 00-27.752-1.85m18.318 3.778c-12.328-1.691-25.34-2.013-38.878-.655-14.923 1.496-30.342 5.019-46.03 10.868m19.085-6.005a229.215 229.215 0 00-32.46 10.757c-12.143 5.058-24.367 11.367-36.916 19.271m13.475-7.305c-12.346 7.387-24.645 15.802-36.626 25.354a315.173 315.173 0 00-25.73 22.904m9.09-21.836c-15.936 13.99-30.688 31.872-45.133 54.425M-180.38-333.93l-115.36 66.522m18.96-14.658l-89.658 112.063m120.9-136.964l-103.906 106.99M8.432-281.282l-127.24-55.48m-8.443-.011L-244.94-307.16"/><path id="path10833" d="M268.616-458.138s4.477 3.252 2.917 5.85c-1.75 2.916-4.156 1.474-8.025 4.86-4.161 3.64 9.066 11.57 7.067 14.893-2.189 3.64-9.641-.829-10.867.242-1.518 1.327 4.293 4.814 3.05 6.884-1.436 2.388-11.277-3.519-14.609-.606-3.625 3.17-10.267-.818-12.253 2.5-2.175 3.637-16.689-5.08-20.736-1.531-4.34 3.805 22.594 19.996 21.896 21.16-.89 1.483-19.176-9.514-20.87-8.03-1.987 1.74 25.124 18.05 23.684 20.447-1.63 2.716-22.835-10.048-24.639-8.471-2.097 1.834 22.186 16.458 20.848 18.683-1.528 2.544-25.616-11.969-29.308-8.741-3.986 3.485 26.852 22.08 25.171 24.875-1.873 3.114-30.52-14.17-32.14-12.753-1.916 1.673 7.9 7.595 7.582 8.124-.508.849-30.854-17.455-31.75-16.67-1.188 1.042 30.958 20.436 29.517 22.843-1.633 2.726-34.348-17.02-36.14-15.449-2.087 1.828 40.011 27.252 39.484 28.131-.72 1.2-35.436-19.773-36.334-18.987-1.192 1.043 27.08 18.123 26.57 18.973-.701 1.171-36.804-20.641-37.54-19.996-1.031.903 41.572 26.65 40.686 28.127-1.079 1.798-38.831-21.026-42.787-17.564-4.25 3.721 45.538 33.851 44.482 35.608-1.249 2.077-43.06-23.238-46.607-20.136-3.843 3.359 35.52 27.207 34.21 29.39-1.503 2.505-47.386-25.301-48.152-24.631-1.062.928 33.947 22.144 32.49 24.577-1.65 2.756-49.85-26.46-52.482-24.153-2.927 2.565 42.095 29.867 41.347 31.118-.94 1.572-51.985-29.387-53.342-28.198-1.651 1.449 49.802 32.664 48.826 34.296-1.163 1.946-42.672-23.091-42.672-23.091s42.234 25.77 43.526 23.61c1.49-2.491-49.688-33.537-48.823-34.295 1.16-1.017 52.271 29.983 53.34 28.197 1.26-2.109-43.485-29.242-41.344-31.118 2.436-2.134 50.702 27.123 52.48 24.153 1.97-3.29-32.763-24.337-32.489-24.577.57-.498 46.52 27.35 48.151 24.631 1.825-3.04-37.263-26.719-34.208-29.39 3.352-2.929 45.229 22.428 46.606 20.136 1.57-2.612-47.944-32.574-44.479-35.607 3.76-3.29 41.579 19.576 42.786 17.564 1.398-2.332-40.93-27.911-40.685-28.127.54-.473 36.71 21.38 37.54 19.996 1.02-1.705-26.975-18.617-26.569-18.973.702-.614 35.485 20.4 36.333 18.987 1.04-1.733-40.785-26.99-39.483-28.13 1.597-1.4 34.38 18.388 36.14 15.448 1.952-3.26-29.92-22.487-29.514-22.843.7-.613 31.112 17.732 31.748 16.67.827-1.381-8.712-7.136-7.582-8.124 1.425-1.245 30.139 16.08 32.14 12.753 2.194-3.646-28.371-22.075-25.169-24.875 3.497-3.056 27.651 11.498 29.308 8.742 1.848-3.076-22.161-17.534-20.847-18.683 1.609-1.407 22.88 11.399 24.639 8.47 1.95-3.246-24.888-19.391-23.683-20.447 1.5-1.312 19.853 9.726 20.87 8.031 1.207-2.013-25.455-18.04-21.895-21.16 3.853-3.378 18.435 5.38 20.737 1.531 2.493-4.166 9.409-.013 12.253-2.5 3.138-2.742 13.046 3.206 14.609.606 1.753-2.916-3.786-6.239-3.049-6.884 1.03-.9 8.551 3.61 10.868-.242 2.507-4.169-10.448-11.934-7.066-14.893 3.675-3.215 6.149-1.733 8.025-4.859 2.067-3.442-3.787-6.372-3.787-6.372zM61.095-446.502s5.349 3.79 6.48 6.388c1.386 3.184-18.565-8.808-18.603-6.921-.047 2.313 15.168 11.46 15.522 12.272.61 1.398-1.04.406-1.081 2.254-.05 2.276.175 2.41.39 2.903.47 1.079-7.794-3.894-7.85-1.207-.067 3.115 8.58 8.317 11.606 15.243 3.283 7.515-15.876-4.026-15.939-.963-.072 3.492 26.17 19.312 28.839 25.425 2.927 6.705-32.326-14.566-32.4-10.93-.082 4.066 35.67 25.655 35.91 26.204.498 1.14-33.012-19.098-33.094-15.125-.091 4.403 47.519 33.184 49.397 37.489 2.136 4.899-53.912-29.001-53.96-26.61-.029 1.41 19.01 13.633 38.103 25.709 19.1 12.08 38.256 24.012 38.635 24.884.507 1.168-16.456-8.687-33.586-18.478-17.128-9.79-34.419-19.515-34.45-18.063-.07 3.345 60.838 39.652 60.838 39.652s-60.026-36.937-59.979-39.132c.028-1.309 17.362 8.516 34.51 18.319 17.152 9.804 34.116 19.587 33.523 18.222-1.445-3.328-76.768-48.92-76.734-50.593.042-2.104 56.267 31.904 53.958 26.61-2.568-5.889-49.462-34.233-49.394-37.49.076-3.685 33.764 16.662 33.093 15.125-.93-2.128-35.967-23.282-35.907-26.203.068-3.35 35.497 18.028 32.398 10.93-3.356-7.688-28.885-23.076-28.836-25.425.058-2.777 19.393 8.87 15.939.964-3.712-8.497-11.647-13.27-11.605-15.243.05-2.402 8.492 2.677 7.85 1.206-.9-2.06-.415-1.766-.39-2.903.035-1.563 1.862-.464 1.081-2.253-1.036-2.377-15.544-11.098-15.52-12.272.032-1.602 20.159 10.495 18.602 6.92-1.811-4.16-7.346-6.908-7.346-6.908zm185.476 178.04s37.447 23.392 40.315 28.33c3.273 5.635-45.196-23.889-49.85-24.277-5.495-.46 63.602 41.652 60.858 41.272-1.837-.254-23.35-12.947-45.052-25.582-21.701-12.635-43.592-25.214-46.022-25.209-2.786.006 13.834 10.97 30.74 21.894 16.907 10.924 34.1 21.807 32.589 21.674-3.867-.342-63.047-36.41-71.483-35.672-9.067.794 32.15 25.916 31.257 25.902-1.637-.028-50.588-29.86-52.864-29.54-2.864.4 60.36 38.945 52.848 39.237-8.13.316-69.652-37.017-69.652-37.017s61.918 37.868 70.5 37.535c9.328-.362-54.14-39.056-52.845-39.238 1.884-.263 50.728 29.505 52.862 29.54 2.879.048-38.635-25.254-31.254-25.9 8.013-.702 67.049 35.28 71.48 35.67 2.64.234-14.071-10.65-31.02-21.6-16.947-10.948-34.131-21.963-32.306-21.967 2.19-.004 23.923 12.553 45.606 25.177 21.683 12.624 43.315 25.316 45.465 25.614 5.24.725-64.114-41.544-60.856-41.272 4.096.342 53.386 30.368 49.849 24.277-3.927-6.761-41.165-28.849-41.165-28.849zM59.14-356.455s27.85 17.007 55.329 34.465c27.49 17.466 54.598 35.373 53.468 37.257-1.224 2.04-31.624-15.059-61.81-32.531-30.176-17.468-60.153-35.316-60.166-34.694-.016.833 27.665 18.03 55.201 35.08 27.549 17.058 54.96 33.975 54.746 34.332-.308.515-23.866-13.464-47.423-26.9-23.552-13.435-47.092-26.32-47.152-23.575-.065 2.959 23.98 18.91 47.961 34.096 23.992 15.193 47.937 29.632 47.937 29.632s-23.723-14.597-47.498-29.805c-23.764-15.2-47.597-31.022-47.545-33.404.058-2.602 23.565 10.338 47.1 23.763 23.54 13.427 47.1 27.334 47.472 26.711.472-.787-26.93-17.99-54.54-35.086-27.6-17.088-55.407-34.068-55.401-34.325.01-.475 29.946 17.42 60.112 34.882 30.168 17.463 60.57 34.49 61.859 32.342 1.387-2.313-25.934-20.35-53.703-37.838-27.757-17.48-55.947-34.402-55.947-34.402zM-62.113-402.35s21.185 12.944 42.76 26.415C2.236-362.456 24.19-348.466 25.96-346.31c4.25 5.175-54.61-30.485-50.147-25.834 5.464 5.694 64.621 41.56 68.585 48.408 2.178 3.764-12.091-3.683-26.237-11.035-14.149-7.354-28.173-14.612-25.455-10.47 2.946 4.487 49.01 33.812 93.47 62.197 44.505 28.414 87.488 55.94 85.25 57.102-2.424 1.26-43.798-22.657-84.463-46.392-40.647-23.725-80.6-47.279-79.51-45.141 1.246 2.438 44.798 29.776 87.738 56.461 42.965 26.701 85.384 52.796 85.223 52.953-.299.29-41.24-24.526-82.09-49.022-40.828-24.483-81.57-48.65-80.743-46.891.965 2.053 35.116 23.582 68.851 44.577 33.75 21.005 67.127 41.504 67.072 41.626-.132.292-34.215-20.37-68.245-40.785-34.014-20.407-67.974-40.568-67.352-39.154.75 1.704 34.895 23.13 68.632 44.22 33.759 21.103 67.131 41.884 66.878 42.444-.33.728-28.578-16.097-56.6-32.535-28.013-16.433-55.793-32.474-54.86-30.106 1.044 2.651 33.287 23.337 64.991 43.601 31.726 20.278 62.937 40.148 62.412 41.302-.603 1.321-37.12-20.225-73.914-41.72-36.782-21.486-73.833-42.918-74.958-41.249-1.225 1.82 31.424 23.04 64.21 43.834 32.795 20.799 65.75 41.187 65.63 41.452-.198.436-32.85-19.314-65.885-38.859-33.024-19.538-66.42-38.867-67.66-37.487-1.363 1.518 30.01 21.864 61.445 42.133 31.451 20.28 62.963 40.48 62.353 41.828-1.376 3.037-35.248-17.756-29.766-9.729 6.005 8.795 41.754 30.771 41.007 32.414-.907 1.991-43.567-24.235-39.899-18.874 4.194 6.13 35.678 25.5 35.277 26.38-.56 1.23-32.804-18.613-26.74-9.754 6.593 9.629 15.912 14.778 15.912 14.778s-9.89-6.691-15.073-14.262c-5.711-8.344 26.073 11.217 26.74 9.754.825-1.812-32.487-22.303-35.276-26.38-3.316-4.847 38.885 21.098 39.898 18.874 1.172-2.573-36.397-25.664-41.005-32.413-5.131-7.516 28.285 12.998 29.766 9.729.822-1.813-30.517-22.204-61.935-42.462-31.403-20.249-62.878-40.36-61.856-41.498 1.153-1.285 34.523 18.101 67.554 37.645 33.041 19.55 65.735 39.252 65.985 38.7.333-.733-32.474-21.322-65.258-42.114-32.769-20.781-65.52-41.768-64.575-43.17 1.054-1.566 38.078 19.924 74.862 41.413 36.796 21.497 73.348 42.991 74.003 41.553.738-1.617-30.62-21.873-62.477-42.23-31.835-20.342-64.18-40.794-64.919-42.67-.856-2.176 26.897 13.924 54.876 30.337 27.988 16.418 56.197 33.146 56.58 32.302.463-1.024-33.08-22.204-66.981-43.393-33.879-21.176-68.126-42.367-68.523-43.27-.534-1.213 33.4 19.006 67.376 39.39 33.993 20.395 68.03 40.956 68.216 40.548.266-.588-33.293-21.49-67.2-42.589-33.885-21.085-68.138-42.38-68.717-43.613-.73-1.554 39.964 22.659 80.742 47.113 40.8 24.467 81.692 49.18 82.083 48.8.54-.525-42.084-27.033-85.26-53.862-43.144-26.809-86.88-53.962-87.691-55.552-.983-1.925 38.904 21.663 79.489 45.351 40.602 23.699 81.921 47.509 84.476 46.182 2.762-1.435-40.531-29.443-85.327-58.033-44.751-28.561-91.075-57.748-93.383-61.266-2.559-3.899 11.53 3.473 25.671 10.822 14.138 7.348 28.327 14.673 26.02 10.684-5.008-8.653-65.787-45.495-68.582-48.408-3.796-3.955 54.872 31.59 50.145 25.834-2.726-3.32-24.896-17.439-46.46-30.757-21.552-13.31-42.469-25.802-42.469-25.802zm-16.898-4.748s9.632 6.4 6.512 5.733c-4.232-.905-15.704-7.69-15.704-7.69s11.588 7.146 16.564 8.21c6.098 1.303-7.372-6.253-7.372-6.253zM58.43-323.863s37.281 22.78 74.19 45.553c36.922 22.781 73.486 45.557 72.648 45.668-1.123.149-35.582-20.468-69.895-40.509-34.305-20.036-68.458-39.496-68.517-36.94-.062 2.765 31.944 23.49 63.828 43.48 31.901 20.001 63.705 39.286 63.705 39.286s-31.58-19.444-63.266-39.46c-31.669-20.006-63.463-40.6-63.413-42.788.055-2.411 34.108 17.062 68.362 37.068 34.262 20.011 68.722 40.556 70.044 40.38 1.632-.215-35.143-23.12-72.476-46.005-37.32-22.876-75.21-45.733-75.21-45.733zM19.553-248.99s58.601 36.423 52.153 36.423c-7.109 0-49.701-26.085-51.343-24.263-1.9 2.109 40.878 28.318 37.036 28.318-4.568 0-38.05-20.52-38.918-19.192-1.075 1.646 19.889 14.495 12.777 14.495-7.836 0-10.339-1.386-10.339-1.386s2.862 1.904 11.182 1.903c9.046 0-13.299-13.695-12.776-14.495.73-1.116 33.865 19.192 38.917 19.192 5.777 0-38.246-26.972-37.034-28.318 1.47-1.631 43.749 24.263 51.342 24.263 8.383 0-52.997-36.94-52.997-36.94z"/></g></g></svg>